<svg xmlns="http://www.w3.org/2000/svg" viewBox="0 0 75.4 96.7"><defs><style>.cls-1{fill:#595957;}.cls-2{fill:#3d6c8e;}.cls-3{fill:#e1edf1;}.cls-4{fill:#eabe37;}.cls-5{fill:#62a6dd;}.cls-6{fill:#fff;}</style></defs><title>escudo</title><g id="TEXT"><path class="cls-1" d="M11.2,84.9l1,.7a1.8,1.8,0,0,1,.4,2.8h0a2.1,2.1,0,0,1-2.9.6l-1-.7C9.5,87.2,10.3,86,11.2,84.9Zm.1.6-2,2.7.6.4a1.7,1.7,0,0,0,2.3-.5h0a1.4,1.4,0,0,0-.3-2.2Z"/><path class="cls-1" d="M14.7,87.1l.4.2-2.2,3.6-.4-.2Z"/><path class="cls-1" d="M14.1,90.9h.4a2,2,0,0,0,.9.9c.5.2,1,.1,1.1-.2h0c.2-.3.1-.6-.5-1.2s-.8-1.1-.6-1.6h.1c.2-.6.9-.8,1.6-.4a1.8,1.8,0,0,1,1,.9l-.4.2a1.6,1.6,0,0,0-.8-.8.7.7,0,0,0-1,.3h0c-.2.3-.1.6.5,1.2s.8,1,.6,1.5h0a1.4,1.4,0,0,1-1.8.5A1.9,1.9,0,0,1,14.1,90.9Z"/><path class="cls-1" d="M19.8,89.8l-1.2-.4.2-.4,2.8,1-.2.4L20.2,90c-.4,1.2-.9,2.3-1.4,3.5l-.4-.2C18.9,92.2,19.3,91,19.8,89.8Z"/><path class="cls-1" d="M22.3,90.2l1.4.4a1.3,1.3,0,0,1,1,.7c.2.2.2.5.1.9h0a1.2,1.2,0,0,1-1.3.9,14.6,14.6,0,0,0,.7,1.9h-.6L23,93l-1-.2-.5,1.5h-.4Zm.7,2.4c.7.2,1.2,0,1.4-.5h0c.1-.5-.2-.9-.8-1.1l-1-.3-.5,1.7Z"/><path class="cls-1" d="M26.2,91.2h.4l-.9,4h-.5Z"/><path class="cls-1" d="M28.6,92.1l-1.2-.2v-.4l2.9.4a.6.6,0,0,1-.1.4l-1.2-.2-.6,3.7H28Z"/><path class="cls-1" d="M30.6,94h0a2.1,2.1,0,0,1,2.1-2,2,2,0,0,1,1.7,2.3h0a2,2,0,0,1-2.1,2A1.9,1.9,0,0,1,30.6,94Zm3.3.3h0c.1-1-.4-1.8-1.2-1.8s-1.5.5-1.6,1.5h0a1.5,1.5,0,0,0,1.2,1.8C33.2,96,33.8,95.3,33.9,94.3Z"/><path class="cls-1" d="M38.2,92.7H36.9v-.4h3v.4H38.7c0,1.2,0,2.5.1,3.7h-.5C38.3,95.2,38.2,94,38.2,92.7Z"/><path class="cls-1" d="M40.9,94.8a22.8,22.8,0,0,1-.2-2.6h.4l.3,2.5c.1.8.5,1.2,1.2,1.1a1,1,0,0,0,1-1.2,24.6,24.6,0,0,1-.2-2.6h.4l.3,2.6a1.4,1.4,0,0,1-1.4,1.7A1.5,1.5,0,0,1,40.9,94.8Z"/><path class="cls-1" d="M44.8,91.8l1.5-.2a1.8,1.8,0,0,1,1.3.1,2.2,2.2,0,0,1,.5.8h0a1.3,1.3,0,0,1-.8,1.4l1.5,1.4h-.6L46.8,94l-1,.2.3,1.6h-.5C45.3,94.5,45.1,93.2,44.8,91.8Zm1.9,1.9c.7-.2,1-.6.9-1.1h0c-.1-.5-.6-.7-1.2-.6h-1l.3,1.7Z"/><path class="cls-1" d="M49.2,89.9h.5l-.6.7h-.3A3.6,3.6,0,0,1,49.2,89.9Zm-.4,1.2h.5c.3,1.3.7,2.7,1,4h-.5C49.5,93.8,49.1,92.4,48.8,91.1Z"/><path class="cls-1" d="M51.2,94.3a.5.5,0,0,1,.2-.4,1.9,1.9,0,0,0,1.3.1c.6-.1.8-.5.7-.9h0c-.1-.3-.4-.5-1.2-.5s-1.5-.3-1.6-.8h0a1.3,1.3,0,0,1,.9-1.5,2.2,2.2,0,0,1,1.4.1c0,.2-.1.3-.1.4a2.5,2.5,0,0,0-1.2-.1q-.7.3-.6.9h0c.1.3.4.5,1.3.5s1.4.3,1.5.8h0a1.2,1.2,0,0,1-.9,1.5A2.5,2.5,0,0,1,51.2,94.3Z"/><path class="cls-1" d="M54.6,89.8l-1.1.5-.2-.4,2.8-1c0,.1.1.2.1.4l-1.1.4c.5,1.1.9,2.3,1.4,3.4l-.4.2Z"/><path class="cls-1" d="M56.8,88.5l.5-.2,1.8,3.8-.4.2Z"/><path class="cls-1" d="M59.2,89.8h-.1a2,2,0,0,1,.6-2.8,2.3,2.3,0,0,1,1.4-.1v.4a1.7,1.7,0,0,0-1.2.1,1.4,1.4,0,0,0-.3,2.1h0a1.6,1.6,0,0,0,2.1.8,1.5,1.5,0,0,0,.7-.9h.5a1.8,1.8,0,0,1-1,1.1A1.9,1.9,0,0,1,59.2,89.8Z"/><path class="cls-1" d="M62.6,88h-.1a1.9,1.9,0,0,1,.2-2.7,1.9,1.9,0,0,1,2.8.6h.1a1.8,1.8,0,0,1-.2,2.8A2.1,2.1,0,0,1,62.6,88Zm2.6-1.9h0c-.7-.8-1.6-1.1-2.2-.6s-.7,1.3-.1,2.1H63a1.6,1.6,0,0,0,2.2.5C65.8,87.8,65.8,86.9,65.2,86.1Z"/><path class="cls-1" d="M6.6.4h.3L7.9,2,8.8.4h.4v3H8.8V1L7.9,2.6h0L6.9,1V3.4H6.6Z"/><path class="cls-1" d="M10,2.3V.4h.3V2.3c0,.6.3.9.8.9s.7-.3.7-.9V.4h.4V2.3a1.1,1.1,0,0,1-1.1,1.2C10.4,3.5,10,3.1,10,2.3Z"/><path class="cls-1" d="M13,.4h.3l1.6,2.4V.4h.3v3h-.3L13.3,1V3.4H13Z"/><path class="cls-1" d="M16.1.4h.3v3h-.3Z"/><path class="cls-1" d="M17.2,1.9h0A1.3,1.3,0,0,1,18.5.4a1,1,0,0,1,.9.4l-.2.2a.8.8,0,0,0-.7-.3c-.6,0-1,.5-1,1.2h0c0,.8.4,1.3,1,1.3s.5-.2.8-.4l.2.2a1.4,1.4,0,0,1-1,.5C17.7,3.5,17.2,2.8,17.2,1.9Z"/><path class="cls-1" d="M20.1.4h.3v3h-.3Z"/><path class="cls-1" d="M21.3.4h.9a1,1,0,0,1,1.1,1h0a1,1,0,0,1-1.1,1h-.6v1h-.3Zm.9,1.7a.7.7,0,0,0,.8-.7h0a.7.7,0,0,0-.8-.7h-.6V2.1Z"/><path class="cls-1" d="M24.6.4h.3l1.2,3h-.3l-.3-.8H24.1l-.3.8h-.4Zm.7,1.9L24.8.8l-.6,1.5Z"/><path class="cls-1" d="M26.7.4H27V3.1h1.5v.3H26.7Z"/><path class="cls-1" d="M29.1.4h.3v3h-.3Z"/><path class="cls-1" d="M30.3.4h.9a1.4,1.4,0,0,1,1.4,1.5h0a1.4,1.4,0,0,1-1.4,1.5h-.9Zm.3.3V3.1h.6a1.1,1.1,0,0,0,1.1-1.2h0A1.1,1.1,0,0,0,31.2.7Z"/><path class="cls-1" d="M34.1.4h.3l1.2,3h-.3L35,2.6H33.6l-.3.8h-.4Zm.8,1.9L34.3.8l-.6,1.5Z"/><path class="cls-1" d="M36.2.4h.9a1.4,1.4,0,0,1,1.5,1.5h0a1.4,1.4,0,0,1-1.5,1.5h-.9Zm.4.3V3.1h.5a1.1,1.1,0,0,0,1.1-1.2h0A1.1,1.1,0,0,0,37.1.7Z"/><path class="cls-1" d="M40.5.4h.9a1.4,1.4,0,0,1,1.4,1.5h0a1.4,1.4,0,0,1-1.4,1.5h-.9Zm.3.3V3.1h.6a1.1,1.1,0,0,0,1.1-1.2h0A1.1,1.1,0,0,0,41.4.7Z"/><path class="cls-1" d="M43.6.4h.3v3h-.3Z"/><path class="cls-1" d="M44.5,3l.2-.2a1.8,1.8,0,0,0,.9.4.6.6,0,0,0,.6-.5h0c0-.3-.1-.4-.6-.6s-.9-.5-.9-.9h0c0-.5.3-.8.9-.8a1.4,1.4,0,0,1,.9.3l-.2.3a1.1,1.1,0,0,0-.7-.3c-.4,0-.6.2-.6.5h0c0,.2.1.4.7.6s.9.4.9.8h0a.9.9,0,0,1-1,.9A1.8,1.8,0,0,1,44.5,3Z"/><path class="cls-1" d="M47.8.7H47V.4h2V.7h-.8V3.4h-.4Z"/><path class="cls-1" d="M49.7.4h1c.4,0,.7.1.8.3a.9.9,0,0,1,.3.6h0a.9.9,0,0,1-.7.9l.8,1.2h-.4l-.8-1.1H50V3.4h-.3Zm1,1.6a.7.7,0,0,0,.8-.7h0c0-.4-.3-.6-.8-.6H50V2Z"/><path class="cls-1" d="M52.5.4h.4v3h-.4Z"/><path class="cls-1" d="M54.4.7h-.9V.4h2.1V.7h-.9V3.4h-.3Z"/><path class="cls-1" d="M56.8.4h.4l1.1,3H58l-.3-.8H56.3l-.3.8h-.3Zm.8,1.9L57,.8l-.6,1.5Z"/><path class="cls-1" d="M58.9.4h.4V3.1h1.4v.3H58.9Z"/><path class="cls-1" d="M62.6.4h.8a1.4,1.4,0,0,1,1.5,1.5h0a1.4,1.4,0,0,1-1.5,1.5h-.8Zm.3.3V3.1h.5a1.1,1.1,0,0,0,1.1-1.2h0A1.1,1.1,0,0,0,63.4.7Z"/><path class="cls-1" d="M65.6.4h1.9V.7H65.9V1.8h1.4v.3H65.9v1h1.6v.3H65.6Z"/><path class="cls-2" d="M6.8,4.9H9.6c1.8,0,3,.9,3,2.6h0a2.7,2.7,0,0,1-3,2.7H8.8v2.1h-2ZM9.5,8.6a1,1,0,0,0,1.1-1h0c0-.7-.4-1-1.1-1H8.8v2Z"/><path class="cls-2" d="M14.1,9.4V4.9h2V9.4c0,.9.5,1.3,1.1,1.3a1.1,1.1,0,0,0,1.2-1.2V4.9h2V9.4c0,2.1-1.3,3-3.2,3A2.8,2.8,0,0,1,14.1,9.4Z"/><path class="cls-2" d="M22.1,8.7h0a3.5,3.5,0,0,1,3.6-3.8A3.2,3.2,0,0,1,28.3,6L27.1,7.3a1.9,1.9,0,0,0-1.4-.7c-.9,0-1.6.7-1.6,2h0c0,1.4.7,2.1,1.6,2.1a1.9,1.9,0,0,0,1.4-.7l1.3,1.2a3.7,3.7,0,0,1-2.8,1.2A3.4,3.4,0,0,1,22.1,8.7Z"/><path class="cls-2" d="M29.9,9.4V4.9h2V9.4c0,.9.4,1.3,1.1,1.3s1.1-.4,1.1-1.2V4.9h2V9.4c0,2.1-1.2,3-3.1,3S29.9,11.5,29.9,9.4Z"/><path class="cls-2" d="M37.5,11.3,38.6,10a3.2,3.2,0,0,0,2.1.8c.5,0,.8-.2.8-.5h0c0-.3-.3-.4-1.2-.7s-2.4-1-2.4-2.4h0c0-1.3,1-2.3,2.7-2.3a4.4,4.4,0,0,1,2.7.9l-.9,1.4a4.3,4.3,0,0,0-1.8-.6c-.5,0-.7.2-.7.5h0c0,.3.2.5,1.2.8s2.3,1,2.3,2.3h0c0,1.4-1.1,2.3-2.8,2.3A4.5,4.5,0,0,1,37.5,11.3Z"/><path class="cls-2" d="M47.2,4.9h2l2.7,7.4H49.8L49.4,11H47l-.5,1.3h-2Zm1.7,4.6-.7-2.2-.7,2.2Z"/><path class="cls-2" d="M53.4,4.9h1.8l2.6,3.8V4.9h1.9v7.4H58L55.3,8.5v3.8H53.4Z"/><path class="cls-2" d="M63.9,4.9h2l2.7,7.4h-2L66.1,11H63.7l-.4,1.3H61.2Zm1.7,4.6-.7-2.2-.7,2.2Z"/><path class="cls-3" d="M39.6,32.6l2.7.7c2-.9,4.2-1.6,5.6-1.4a18.9,18.9,0,0,1,4.3,1.9c2-.8,4-1.4,5.3-1.1s9.3,3,13.5,4.6V18.1H3.8V36A16.6,16.6,0,0,1,6,35.7c5-.4,10-.2,15-.1l8.5.2C30.8,35.1,36.9,32.1,39.6,32.6Z"/><path class="cls-3" d="M39.6,32.6l2.7.7c2-.9,4.2-1.6,5.6-1.4a18.9,18.9,0,0,1,4.3,1.9c2-.8,4-1.4,5.3-1.1s9.3,3,13.5,4.6V18.1H3.8V36A16.6,16.6,0,0,1,6,35.7c5-.4,10-.2,15-.1l8.5.2C30.8,35.1,36.9,32.1,39.6,32.6Z"/><rect class="cls-2" x="56.5" y="30.2" width="0.7" height="0.08"/><path class="cls-2" d="M57.2,30.2h0Z"/><path class="cls-2" d="M.6,14.9v43s.4,30,36.8,30.3S74.2,57.9,74.2,57.9v-43ZM72,57.9c0,1.2-.9,27.9-34.6,28.2h0C3.6,85.8,2.8,59,2.7,57.9V17H72Z"/><path class="cls-4" d="M38,85c32.1-.6,32.9-26,33-27.1v-10H38Z"/><path class="cls-2" d="M38,26.4s2.1-2.8,6.1-1c0,0,1.1-2.3,4.9-.5,0,0-3.2-.5-4.8,1A6.5,6.5,0,0,0,38,26.4Z"/><path class="cls-2" d="M47.2,23.2a3.3,3.3,0,0,1,4.2.1s1.1-1.4,3.4.3a4.2,4.2,0,0,0-3.4.1A4.3,4.3,0,0,0,47.2,23.2Z"/><path class="cls-2" d="M41.1,22.4a2,2,0,0,1,2.6.1s.6-.9,2,.2a2.8,2.8,0,0,0-2.1,0A2.6,2.6,0,0,0,41.1,22.4Z"/><rect class="cls-2" x="38" y="47.9" width="33" height="1.07"/><path class="cls-5" d="M13.4,61.2a3.9,3.9,0,0,1,0-2.6A1.6,1.6,0,0,0,13.4,61.2Z"/><path class="cls-5" d="M14.1,60.1a.2.2,0,1,0-.2-.2A.2.2,0,0,0,14.1,60.1Z"/><path class="cls-5" d="M28.1,69.8a1.6,1.6,0,0,0,0,2.5A3.6,3.6,0,0,1,28.1,69.8Z"/><path class="cls-5" d="M18.6,57.1c0-.1-.1-.2-.1-.3a3.7,3.7,0,0,1,.2-1.8h0a1.9,1.9,0,0,0-.7,1.2,1.7,1.7,0,0,0,.7,1.4C18.7,57.4,18.6,57.2,18.6,57.1Z"/><path class="cls-5" d="M19.5,71.4a.2.2,0,0,0,.2-.2c0-.1-.1-.2-.3-.2a.2.2,0,0,0-.2.2C19.2,71.3,19.3,71.4,19.5,71.4Z"/><path class="cls-5" d="M28.9,71.3c.1,0,.2-.1.2-.3a.2.2,0,0,0-.2-.2l-.3.2Q28.6,71.1,28.9,71.3Z"/><path class="cls-5" d="M14.1,67.4l.2-.2a.2.2,0,0,0-.4,0Z"/><path class="cls-5" d="M18.5,71.8a5.5,5.5,0,0,1,.2-1.8h0a1.3,1.3,0,0,0-.6,1.1,1.5,1.5,0,0,0,.6,1.5C18.6,72.3,18.6,72,18.5,71.8Z"/><path class="cls-5" d="M13.4,68.5a3.9,3.9,0,0,1,0-2.6A1.6,1.6,0,0,0,13.4,68.5Z"/><path class="cls-5" d="M13.4,53.9a3.9,3.9,0,0,1,0-2.6A1.6,1.6,0,0,0,13.4,53.9Z"/><path class="cls-5" d="M24.2,60a.2.2,0,0,0,0-.4c-.2,0-.3.1-.3.2S24,60,24.2,60Z"/><path class="cls-5" d="M28.1,62.2a1.7,1.7,0,0,0,0,2.6A3.9,3.9,0,0,1,28.1,62.2Z"/><path class="cls-5" d="M28.9,63.7a.2.2,0,0,0,.2-.2c0-.2-.1-.3-.2-.3a.3.3,0,0,0-.3.3C28.6,63.6,28.7,63.7,28.9,63.7Z"/><path class="cls-5" d="M28.1,57.5Z"/><path class="cls-5" d="M23.4,68.4a3.9,3.9,0,0,1,0-2.6A1.6,1.6,0,0,0,23.4,68.4Z"/><path class="cls-5" d="M28.9,56.4a.2.2,0,0,0,0-.4c-.2,0-.3.1-.3.2Z"/><path class="cls-5" d="M23.4,53.9a3.9,3.9,0,0,1,0-2.6A1.6,1.6,0,0,0,23.4,53.9Z"/><path class="cls-5" d="M14.1,52.8a.2.2,0,1,0-.2-.2A.2.2,0,0,0,14.1,52.8Z"/><path class="cls-5" d="M28.1,57.5c-.1-.3-.1-.6-.2-.9a3.9,3.9,0,0,1,.2-1.5v-.2a1.8,1.8,0,0,0-.6.9,1.6,1.6,0,0,0,.5,1.6Z"/><path class="cls-5" d="M23.4,76.4a3.9,3.9,0,0,1,0-2.6A1.6,1.6,0,0,0,23.4,76.4Z"/><path class="cls-5" d="M32.8,58.6a1.6,1.6,0,0,0,0,2.5A5.3,5.3,0,0,1,32.8,58.6Z"/><path class="cls-5" d="M24.2,66.9c-.2,0-.3.1-.3.2s.1.2.3.2a.2.2,0,0,0,.2-.2Z"/><path class="cls-5" d="M33.6,59.6a.2.2,0,0,0-.2.2c0,.2.1.2.2.2a.2.2,0,0,0,0-.4Z"/><path class="cls-5" d="M33.6,67a.2.2,0,0,0-.2.2l.2.2a.2.2,0,0,0,.2-.2C33.8,67,33.7,66.9,33.6,67Z"/><path class="cls-5" d="M18.5,64a5.5,5.5,0,0,1,.2-1.8h0a1.4,1.4,0,0,0-.6,1.1,1.6,1.6,0,0,0,.6,1.6C18.6,64.5,18.6,64.3,18.5,64Z"/><path class="cls-5" d="M32.8,51.3a1.7,1.7,0,0,0,0,2.6A5.7,5.7,0,0,1,32.8,51.3Z"/><path class="cls-5" d="M19.5,63.7a.2.2,0,0,0,.2-.2.3.3,0,0,0-.3-.3c-.1,0-.2.1-.2.3S19.3,63.7,19.5,63.7Z"/><path class="cls-5" d="M3.8,47.9v10c0,1.1.9,26.5,32.9,27.1V47.9Zm13.5,4.5a4.2,4.2,0,0,1-.4-1c0-.2.1-.2.2-.2a4.2,4.2,0,0,1,1.4.9c.1.1.1.1.2,0a4.8,4.8,0,0,1,4.2-1l.5.2h.2a5.2,5.2,0,0,1,1.7,1.2c.1.1.1.1,0,.2a4.7,4.7,0,0,1-3,1.4A4.3,4.3,0,0,1,18.7,53c-.1-.1-.1-.1-.2,0l-.6.5a1.8,1.8,0,0,1-1,.4,5.6,5.6,0,0,1,.4-1.2ZM22,70.9a2,2,0,0,1-.3-1.1c-.1-.1,0-.1.1-.1a4.2,4.2,0,0,1,1.4.9c.1.1.1.1.2,0a5.3,5.3,0,0,1,3.2-1.2,4,4,0,0,1,1.5.3,6.7,6.7,0,0,1,2,1.2v.2a4.8,4.8,0,0,1-3.2,1.5,4.9,4.9,0,0,1-3.5-1.1h-.2a3.4,3.4,0,0,1-1.4.9c-.2,0-.2,0-.1-.2a2.3,2.3,0,0,1,.3-1.1Zm3.3-3.7a4.8,4.8,0,0,1-6.6.3h-.2a4.2,4.2,0,0,1-1.4.9c-.1.1-.2,0-.2-.1a4.9,4.9,0,0,1,.4-1.1V67a7.6,7.6,0,0,1-.4-1.1c0-.2.1-.2.2-.2a4.2,4.2,0,0,1,1.4.9c.1.1.1.1.2,0a4.8,4.8,0,0,1,3-1.1h.8A5.4,5.4,0,0,1,25.4,67ZM12.5,63.3l-.3-1.1c0-.1,0-.1.2-.1a4.2,4.2,0,0,1,1.4.9c.1.1.1.1.2,0a5,5,0,0,1,6.6.3.2.2,0,0,1,0,.3,4.5,4.5,0,0,1-1.7,1.1h-.3l-1.1.2A4.8,4.8,0,0,1,14,63.9c-.1-.1-.1-.1-.2,0a4.2,4.2,0,0,1-1.4.9h-.2l.3-1.1A.2.2,0,0,0,12.5,63.3Zm0-7.2L12.2,55c0-.1,0-.2.2-.1a2.9,2.9,0,0,1,1.4.8H14l1.3-.8a5,5,0,0,1,2.7-.2l.7.2h.1a4.4,4.4,0,0,1,1.6,1c.4.4.4.2,0,.6a4.7,4.7,0,0,1-3.6,1.3A5.4,5.4,0,0,1,14,56.7c-.1-.1-.1-.1-.2,0a2.9,2.9,0,0,1-1.4.8c-.2.1-.2.1-.2-.1a4.9,4.9,0,0,1,.4-1.1Zm4.8,3.6a3.6,3.6,0,0,1-.4-1.1c0-.1,0-.1.2-.1a4.2,4.2,0,0,1,1.4.9c.1.1.1.1.2,0a5,5,0,0,1,3.1-1.2h.8a5.7,5.7,0,0,1,2.8,1.4v.2l-.5.4a4.1,4.1,0,0,1-2.8,1.1,4.7,4.7,0,0,1-3.4-1.1h-.2a4.2,4.2,0,0,1-1.4.9c-.1,0-.2,0-.2-.1a5.6,5.6,0,0,1,.4-1.2Zm6.1,4.2c-.1-.1-.1-.1-.2,0a3.4,3.4,0,0,1-1.4.9c-.2,0-.2,0-.1-.1a2,2,0,0,1,.3-1.1v-.3a2,2,0,0,1-.3-1.1c-.1-.1,0-.1.1-.1a4.2,4.2,0,0,1,1.4.9c.1.1.1.1.2,0a4.6,4.6,0,0,1,3.2-1.1,3.9,3.9,0,0,1,1.5.2,5.3,5.3,0,0,1,2,1.3h0A4.8,4.8,0,0,1,26.9,65,4.5,4.5,0,0,1,23.4,63.9Zm0-7.2c-.1-.1-.1-.1-.2,0a2.9,2.9,0,0,1-1.4.8c-.1.1-.2.1-.1,0a2.7,2.7,0,0,1,.3-1.2v-.2a2.3,2.3,0,0,1-.3-1.1c-.1-.1,0-.2.1-.1a2.2,2.2,0,0,1,1.4.9h.2a4.7,4.7,0,0,1,3.1-1.2h.6a5.4,5.4,0,0,1,3,1.5v.2a4.8,4.8,0,0,1-3.9,1.5A5.4,5.4,0,0,1,23.4,56.7ZM7.2,52.4a1.9,1.9,0,0,1-.3-1c0-.2,0-.2.1-.2a3.8,3.8,0,0,1,1.5.9c0,.1.1.1.2,0a4.8,4.8,0,0,1,4.2-1l.5.2h.1a5.7,5.7,0,0,1,1.8,1.2c.1.1.1.1,0,.2a4.7,4.7,0,0,1-3,1.4A4.6,4.6,0,0,1,8.6,53c0-.1-.1-.1-.1,0a1.8,1.8,0,0,1-.7.5,1.8,1.8,0,0,1-.9.4,2.7,2.7,0,0,1,.3-1.2A.2.2,0,0,0,7.2,52.4Zm0,7.6c.1-.1.1-.2,0-.2a2.6,2.6,0,0,1-.3-1.1c0-.2,0-.2.1-.1a2.8,2.8,0,0,1,1.5.8c0,.1.1.1.2.1a4.6,4.6,0,0,1,4.2-1.1l.5.2h.1a5.7,5.7,0,0,1,1.8,1.2c.1.1.1.1,0,.2a4.8,4.8,0,0,1-3,1.5,5,5,0,0,1-3.7-1.2H8.5l-.7.6-.9.4A2.8,2.8,0,0,1,7.2,60Zm1.4,7.6H8.5a2,2,0,0,1-.7.6l-.9.4a2.8,2.8,0,0,1,.3-1.3c.1-.1.1-.1,0-.2A2.3,2.3,0,0,1,6.9,66c0-.1,0-.2.1-.1a3.8,3.8,0,0,1,1.5.9h.2a4.9,4.9,0,0,1,4.2-1.1l.5.2h.1a5.7,5.7,0,0,1,1.8,1.2c.1.1.1.1,0,.2a4.4,4.4,0,0,1-3,1.5A5,5,0,0,1,8.6,67.6Zm5.2,4a3.1,3.1,0,0,1-1.4.9h-.2l.3-1.1c.1-.1.1-.1,0-.2L12.2,70c0-.2,0-.2.2-.1a2.9,2.9,0,0,1,1.4.8H14a4.9,4.9,0,0,1,3.5-1.1,4.6,4.6,0,0,1,3.1,1.5c.1.1.1.1,0,.2a6.6,6.6,0,0,1-1.7,1.2h-.3l-1.1.3A4.8,4.8,0,0,1,14,71.6Zm4.9,4h-.2a4.2,4.2,0,0,1-1.4.9c-.1,0-.2,0-.2-.2a7.6,7.6,0,0,1,.4-1.1V75a3.6,3.6,0,0,1-.4-1.1c0-.1.1-.1.2-.1a4.2,4.2,0,0,1,1.4.9h.2a4.4,4.4,0,0,1,3-1.2h.8A4.7,4.7,0,0,1,25.4,75v.2A4.8,4.8,0,0,1,18.7,75.6Zm11.4,3.5a4.7,4.7,0,0,1-3.2,1.4,4.5,4.5,0,0,1-3.5-1.1c-.1-.1-.1-.1-.2,0a3.4,3.4,0,0,1-1.4.9c-.2,0-.2,0-.1-.1a2,2,0,0,1,.3-1.1v-.2a2.7,2.7,0,0,1-.3-1.2c-.1-.1,0-.1.1-.1a4.2,4.2,0,0,1,1.4.9h.2a5.2,5.2,0,0,1,3.2-1.1l1.5.2a5.3,5.3,0,0,1,2,1.3Zm4.7-4a5,5,0,0,1-3.2,1.5,4.5,4.5,0,0,1-3.4-1.1h-.3a3.4,3.4,0,0,1-1.4.9c-.1,0-.1,0-.1-.2a2.3,2.3,0,0,1,.3-1.1h0a2.7,2.7,0,0,1-.3-1.2h.1a3.4,3.4,0,0,1,1.4.9c.1,0,.1.1.2,0a4.7,4.7,0,0,1,3.2-1.2,5.3,5.3,0,0,1,3.5,1.5C34.8,75,34.9,75,34.8,75.1Zm0-7.8a5,5,0,0,1-3.2,1.5,4.6,4.6,0,0,1-3.4-1.2h-.3a3.4,3.4,0,0,1-1.4.9h-.1a2.7,2.7,0,0,1,.3-1.2h0a2.3,2.3,0,0,1-.3-1.1c0-.2,0-.2.1-.2a3.4,3.4,0,0,1,1.4.9h.2a5.2,5.2,0,0,1,3.2-1.1,4.9,4.9,0,0,1,3.5,1.5A.1.1,0,0,1,34.8,67.3Zm0-7.4a5,5,0,0,1-3.2,1.5,4.5,4.5,0,0,1-3.4-1.1h-.3a3.4,3.4,0,0,1-1.4.9c-.1,0-.1,0-.1-.1a2.4,2.4,0,0,1,.3-1.2h0a2.7,2.7,0,0,1-.3-1.2c0-.1,0-.1.1-.1a3.4,3.4,0,0,1,1.4.9c.1.1.1.1.2,0a5.3,5.3,0,0,1,3.2-1.2,5.3,5.3,0,0,1,3.5,1.5C34.8,59.8,34.9,59.9,34.8,59.9Zm0-7.2a5,5,0,0,1-3.2,1.5,4.5,4.5,0,0,1-3.4-1.1.2.2,0,0,0-.3,0,2.5,2.5,0,0,1-1.4.8c-.1.1-.1.1-.1-.1a2,2,0,0,1,.3-1.1v-.2a2,2,0,0,1-.3-1.1c0-.2,0-.2.1-.1a2.2,2.2,0,0,1,1.4.9h.2A4.7,4.7,0,0,1,31.3,51a4.9,4.9,0,0,1,3.5,1.5C34.8,52.6,34.9,52.6,34.8,52.7Z"/><path class="cls-5" d="M33.6,52.4a.2.2,0,1,0,.2.2A.2.2,0,0,0,33.6,52.4Z"/><path class="cls-5" d="M28.1,77.7a1.7,1.7,0,0,0,0,2.6A3.9,3.9,0,0,1,28.1,77.7Z"/><path class="cls-5" d="M23.4,58.5a1.6,1.6,0,0,0,0,2.6A3.9,3.9,0,0,1,23.4,58.5Z"/><path class="cls-5" d="M24.2,52.8a.2.2,0,0,0,0-.4c-.2,0-.3.1-.3.2S24,52.8,24.2,52.8Z"/><path class="cls-5" d="M24.2,74.9c-.2,0-.3.1-.3.2s.1.2.3.2a.2.2,0,0,0,.2-.2Z"/><path class="cls-5" d="M32.8,65.9a1.7,1.7,0,0,0,0,2.6A5.7,5.7,0,0,1,32.8,65.9Z"/><path class="cls-5" d="M28.9,78.7l-.3.3c0,.1.1.2.3.2a.2.2,0,0,0,.2-.2C29.1,78.8,29,78.8,28.9,78.7Z"/><path class="cls-5" d="M33.6,74.8a.2.2,0,1,0,.2.2A.2.2,0,0,0,33.6,74.8Z"/><path class="cls-5" d="M32.8,73.7a1.7,1.7,0,0,0,0,2.6A5.7,5.7,0,0,1,32.8,73.7Z"/><path class="cls-5" d="M19.4,56.4c.2,0,.3-.1.3-.2s-.1-.2-.3-.2a.2.2,0,0,0-.2.2Z"/><path class="cls-4" d="M64.2,19.2h.1v.3a.3.3,0,0,0,.3.3h.1l.3.4c0,.1.1.2.1.3a.8.8,0,0,0-.1.4h-.8a.4.4,0,0,0,.1-.3c.1-.1,0-.2-.1-.4l-.2-.3v-.4C64,19.4,64.1,19.3,64.2,19.2Z"/><path class="cls-4" d="M64.7,28v.2h-.2c.1,0,.1,0,.1-.1a.5.5,0,0,0-.3-.5c-.3-.1-.4-.4-.5-.7v-.3h.9c-.1.1-.2.2-.2.3a.5.5,0,0,0,.2.4h0l.2.4h0C64.8,27.8,64.7,27.9,64.7,28Z"/><path class="cls-4" d="M61.9,19.9H62a.2.2,0,0,0,.2.2c.1.1.2.2.4.1a.1.1,0,0,0,.1.1.6.6,0,0,1,.5.2.5.5,0,0,1,.3.5.1.1,0,0,1-.1.1l-.4.2h-.2a.6.6,0,0,0-.1-.4c0-.1,0-.1-.1-.2h-.2a.7.7,0,0,1-.5-.4Z"/><path class="cls-4" d="M66.6,19.7h.1a.1.1,0,0,1-.1.1h-.1c-.1.1-.1.2,0,.4s.1.1.1.2h0a.8.8,0,0,1,.1.4v.3h-.1a.2.2,0,0,1-.2.2h-.1l-.6-.4c.3-.1.5-.3.4-.6v-.3c.1-.2.1-.3.2-.4Z"/><path class="cls-4" d="M62.3,27.6h-.1c.1,0,.1-.1.1-.3s0-.2-.1-.2a4.3,4.3,0,0,0-.1-.5c0-.2,0-.3.1-.4h0a.1.1,0,0,1,.1-.1c.1-.2.1-.2.3-.1a1,1,0,0,0,.5.4H63c-.1.1-.2.2-.2.3a.4.4,0,0,0-.1.3c.1.2,0,.3,0,.4v.2Z"/><path class="cls-4" d="M66.2,27.1h-.4l-.3-.2h-.1v-.2a.4.4,0,0,1,.1-.3h.4a.1.1,0,0,1,.1-.1H66a.5.5,0,0,0,.3.5h.3v.2l.2.3v.3h-.1A.5.5,0,0,0,66.2,27.1Z"/><path class="cls-4" d="M66.9,24.9H67c0,.1.1.3.2.3h1l.3.4h0c0,.1.1.1,0,.2h-.7l-.4.2H67l-.4-.3c-.1-.1-.1-.1,0-.2Z"/><path class="cls-4" d="M61.8,24.9c0,.1.1.2.2.3h-.5c-.1,0-.1.1-.1.2l-.3.4-.5.2h-.2c0-.1-.1,0-.1-.1h.3c.1,0,.1-.1.2-.2v-.4c.1-.1.1-.3.2-.4s.4-.4.6-.4l.2.3Z"/><path class="cls-4" d="M62.2,21.7h0l-.2.3-.2.2h0l-.2-.2h-.2c-.2-.1-.3,0-.4,0h-.4l-.2-.2-.2-.2c0-.1,0-.1.1-.1s0,0,.1,0,.1.1.2.2h1.2Z"/><path class="cls-4" d="M68.2,21.2h0c-.2.1-.2.2-.3.4v.4l-.5.5a.1.1,0,0,1-.1.1H67l-.3-.4H67c.2,0,.3-.1.4-.3l.3-.4h.5Z"/><path class="cls-4" d="M67.2,23.8v-.3h.6c.2,0,.3-.2.4-.2h.4l.5.2c0,.1,0,.1-.1.1s-.4,0-.6.2a1,1,0,0,1-.6.5h-.6c0-.1-.1-.1,0-.2Z"/><path class="cls-4" d="M61.5,23.4v.3h-.6c-.2,0-.2.1-.3.2h-.9v-.2h.1a.5.5,0,0,0,.5,0h0l.3-.3h.1a.6.6,0,0,1,.6-.3h.1c.3.1.3.1.2.3Z"/><path class="cls-4" d="M66.9,23.7a2.6,2.6,0,0,1-5.1,0,2.5,2.5,0,0,1,2.6-2.4A2.5,2.5,0,0,1,66.9,23.7Z"/><path class="cls-2" d="M55.6,64.5c.1.1.2.1.2.2a5.9,5.9,0,0,1-2.2,3.5A11.4,11.4,0,0,1,48,69.8H45.6a11.9,11.9,0,0,0,4.7.8,7,7,0,0,0,5.5-2.1A4.8,4.8,0,0,0,57,66.8h0A3.7,3.7,0,0,0,55.6,64.5Z"/><path class="cls-5" d="M53.6,68.2a5.9,5.9,0,0,0,2.2-3.5c0-.1-.1-.1-.2-.2h0l-.2-.2h-.2a.1.1,0,0,1-.1-.1h-.3a.1.1,0,0,1-.1-.1H54A2.8,2.8,0,0,1,54,66l-.3.5a.3.3,0,0,0-.1.2l-.3.3-.2.3c0,.1-.1.1-.2.2a1,1,0,0,1-.5.4v.2l-.4.3h-.1l-.5.3h-.2l-.4.2h-.2l-.4.2H48A11.4,11.4,0,0,0,53.6,68.2Z"/><path class="cls-2" d="M64.2,65.5A10.7,10.7,0,0,0,59.9,62a5.9,5.9,0,0,1-.9,5.4,10.5,10.5,0,0,1-8.7,3.4h.2a7.7,7.7,0,0,0,6.2-2.6l.6-.7-.6.7a7.7,7.7,0,0,1-6.2,2.6,14.1,14.1,0,0,1-4.7-.7l-.3-.2A6,6,0,0,1,42,65.7a7.8,7.8,0,0,0,1.2,3.8c2.3,3.7,7.6,4.9,12,3.4s7.6-3.6,10.8-2A9.2,9.2,0,0,0,64.2,65.5Z"/><path class="cls-5" d="M50.5,70.8h-.2A10.5,10.5,0,0,0,59,67.4a5.9,5.9,0,0,0,.9-5.4h-.6l-.6-.2H55.6A3.6,3.6,0,0,1,58,64.1a2.8,2.8,0,0,1,0,1.3h0a4.9,4.9,0,0,1-.6,1.7v.3l-.6.7A7.7,7.7,0,0,1,50.5,70.8Z"/><path class="cls-6" d="M46.9,51.5c0-.1,0-.1.1-.1s0-.1.1,0h0a.3.3,0,0,0,0,.4c0,.3.2.4.4.6h.1l.5.6a1.4,1.4,0,0,1,.2.6c-.1.2-.1.4-.2.5H46.9a.5.5,0,0,0,.2-.4.7.7,0,0,0-.1-.6l-.4-.6v-.6Z"/><path class="cls-6" d="M47.7,65.1l-.2.2a.1.1,0,0,1-.1.1h-.1c0-.1.1-.1.1-.2a.7.7,0,0,0-.4-.7,1.5,1.5,0,0,1-.8-1.1c-.1-.2,0-.4,0-.6h1.1a.1.1,0,0,1,.2,0c-.1.2-.3.4-.2.6a.8.8,0,0,0,.2.5h.1a1.4,1.4,0,0,1,.2.6h0Z"/><path class="cls-6" d="M43.3,52.5h.1c0-.1,0-.1.1-.1h0c0,.2.1.3.3.4a.7.7,0,0,0,.6.2h.1l.8.3a1.4,1.4,0,0,1,.5.9.1.1,0,0,1-.1.1l-.7.3-.3.2c0-.2.1-.4,0-.6l-.3-.3-.3-.2a1,1,0,0,1-.7-.7A1.3,1.3,0,0,1,43.3,52.5Z"/><path class="cls-6" d="M50.6,52.2h.2c0,.1-.1.1-.2.1s0,.1-.1.1a1.3,1.3,0,0,0-.1.6c.1.2.2.3.2.4a.3.3,0,0,0,.1.2c0,.2.1.4.1.6l-.2.4v.2l-.3.3H50l-.9-.6c.5-.2.8-.5.7-1s-.1-.3,0-.5.1-.3.2-.5Z"/><path class="cls-6" d="M44,64.5h-.2c.1-.2.2-.3.2-.5s0-.3-.1-.4a2.4,2.4,0,0,1-.2-.8,1.3,1.3,0,0,1,.1-.6h0l.2-.3c.2-.2.2-.2.4-.1l.8.5-.2.2a.3.3,0,0,0-.3.3.6.6,0,0,0,0,.6c0,.2-.1.4-.1.6l-.2.3Z"/><path class="cls-6" d="M50,63.7l-.6-.2-.4-.2-.2-.3-.2-.3c0-.1,0-.3.2-.3l.6-.3h.3v.2a.7.7,0,0,0,.5.8l.4.2.2.2a.9.9,0,0,1,.3.6.6.6,0,0,1-.1.4h0c-.1,0-.1,0-.1-.1A.8.8,0,0,0,50,63.7Z"/><path class="cls-6" d="M51.1,60.3h.1a1,1,0,0,0,.4.5h.9l.6.2a1,1,0,0,1,.5.6h0c0,.1.1.2,0,.2h-.2a.2.2,0,0,0-.2-.2.8.8,0,0,0-.7.1l-.6.2h-.6a1.8,1.8,0,0,1-.7-.5c-.1,0-.1-.1,0-.2A2.2,2.2,0,0,0,51.1,60.3Z"/><path class="cls-6" d="M43.2,60.3l.3.5h-.7l-.3.4a2.1,2.1,0,0,1-.4.6.8.8,0,0,1-.8.2h-.2c-.1,0-.2,0-.1-.1s0-.1.1-.1h.2c.2-.1.3-.2.3-.4a1.3,1.3,0,0,0,.1-.6l.3-.6a1,1,0,0,1,1-.6.8.8,0,0,0,.2.5Z"/><path class="cls-6" d="M43.8,55.4h.1c0,.1-.1.1-.1.2l-.3.4c-.1.1-.2.2-.2.3s-.1.1-.1,0l-.3-.3a.5.5,0,0,0-.4-.2h-.6l-.6-.2-.3-.3-.2-.3c0-.1-.1-.2,0-.2H41l.3.2a.7.7,0,0,0,.6-.1l.7-.2h.6Z"/><path class="cls-6" d="M53.1,54.6h.4a.1.1,0,0,0-.1.1h-.3a.8.8,0,0,0-.4.6,1.8,1.8,0,0,1-.8,1.5h-.2c-.3.1-.3.1-.4-.1s-.1-.1-.1-.2l-.3-.6h.4a.6.6,0,0,0,.6-.5l.4-.6h.2Z"/><path class="cls-6" d="M51.6,58.6v-.5h.3a.5.5,0,0,0,.6.1l.6-.4h.6a2,2,0,0,1,.8.4c.1.1,0,.1-.1.1a.7.7,0,0,0-1,.3,1.6,1.6,0,0,1-1,.8h-.8c-.1,0-.1-.1-.1-.2A.7.7,0,0,0,51.6,58.6Z"/><path class="cls-6" d="M42.8,57.9c0,.2-.1.4,0,.6h-.4a.5.5,0,0,0-.6.1l-.5.3h-.7l-.6-.3a.3.3,0,0,1-.1-.2H40a.8.8,0,0,0,.7,0h.1l.4-.5h.1a1.8,1.8,0,0,1,1-.4h.1c.5.1.5.1.4.5Z"/><ellipse class="cls-6" cx="47.2" cy="58.4" rx="3.9" ry="3.7"/><path class="cls-5" d="M44.9,69.3h0c2.3.6,5.9,0,7.7-2.3a2.6,2.6,0,0,0-2-2C50.8,67.8,47.6,69.3,44.9,69.3Z"/><path class="cls-2" d="M57.5,32.7c-1.3-.3-3.3.3-5.3,1.1a18.9,18.9,0,0,0-4.3-1.9c-1.4-.2-3.6.5-5.6,1.4l-2.7-.7c-3.1-.6-10.4,3.3-10.4,3.3h2.5a88.3,88.3,0,0,1,8.9.4c10.2,1,20.2,4.7,30.4,5.3v2.1h0V37.3C66.8,35.7,59.9,33.2,57.5,32.7Z"/><rect class="cls-2" x="46.4" y="29.9" width="0.3" height="2.16"/><rect class="cls-2" x="46.4" y="30" width="0.3" height="1.39" transform="translate(15.9 77.2) rotate(-90)"/><polygon class="cls-2" points="57.2 31.9 56.4 31.9 56.2 32.8 57.4 32.8 57.2 31.9"/><rect class="cls-2" x="56.6" y="30.3" width="0.5" height="1.57"/><rect class="cls-6" x="56.6" y="31.5" width="0.4" height="0.29"/><rect class="cls-6" x="56.6" y="31" width="0.4" height="0.29"/><rect class="cls-6" x="56.6" y="30.4" width="0.4" height="0.29"/><rect class="cls-2" x="56.8" y="30" width="0.1" height="0.07"/><path class="cls-5" d="M9.7,36.5c.1-.3.1-.6.2-1S9.4,36.1,9.7,36.5Z"/><path class="cls-5" d="M28.7,46h-.3l.7.2c0-.1,0-.1-.1-.2Z"/><path class="cls-5" d="M29.6,46.1h0l.2.2h0l1.2.2h0c-.2-.1-.3-.3-.4-.4Z"/><path class="cls-5" d="M33,45.8h-.7l1,.7a.1.1,0,0,1,.1.1h-.7l-.7-.5c-.1-.1-.1-.1-.1-.2h-.8l.5.3c.1.1.1.1.1.2h2.2a.3.3,0,0,1-.1-.2C33.7,45.8,33.5,45.7,33,45.8Z"/><path class="cls-5" d="M6.4,35.8H6a16.6,16.6,0,0,0-2.2.3v.5a17.4,17.4,0,0,0,2,1.3A11.7,11.7,0,0,0,6.4,35.8Z"/><path class="cls-5" d="M9.6,37.6c-.4.2-.5-.1-.5-.4a6,6,0,0,0-.8,2.1l1.3.7Z"/><path class="cls-5" d="M19.2,35.6h0Z"/><path class="cls-5" d="M16.1,38.3c0-.4,0-.7-.4-.9A5.2,5.2,0,0,0,14,39.6l-.4.9-.4.3a7.8,7.8,0,0,1,2.2-3.7,8.6,8.6,0,0,0-1-1.6H12.5a.4.4,0,0,1-.1.3c0-.1-.1-.2-.1-.3h-.9V36h-.7l-.4-.2a16,16,0,0,0-.4,4.4,66.2,66.2,0,0,0,6.7,2.7,12.6,12.6,0,0,0-.4-2.7A12.1,12.1,0,0,1,16.1,38.3Z"/><path class="cls-5" d="M11.1,35.8h.1v-.2h-.6Z"/><path class="cls-5" d="M21.7,44h0l-.4.3h-.1l1.1.3h0Z"/><path class="cls-5" d="M19.9,43.6l.2-.2h.2v-.2l-.7-.5h-.1v.2a3.4,3.4,0,0,0,.1,1Z"/><path class="cls-5" d="M22.1,43.3v.3h-.1l.5.6c.1-.1.1-.1.1-.2s-.1-.4-.2-.5Z"/><path class="cls-5" d="M21.1,44l.2-.3c.1,0,.1,0,.1-.1h0l-.5-.3h-.1c-.1,0-.1.1-.2.2s-.1.2-.2.2h-.1c-.1.1-.2.2-.2.3h.6Z"/><path class="cls-5" d="M20.6,42.7l.4-.4H20Z"/><path class="cls-5" d="M21,42.9h.1l.6.4V43h0l-.4-.4Z"/><path class="cls-5" d="M40.6,36.3a88.3,88.3,0,0,0-8.9-.4H29.6l1.4.5a23.6,23.6,0,0,1,5.2,2.1l1.2.7.2.3h-.4L35,38.1l-3.3-1.3-.6-.2v.2l2.8,1.4c1.3.6,2.7,1,4,1.5l.8.4h.2a.2.2,0,0,1,.2.2h0l1.3.6h.2l1.4.6,1,.6a.9.9,0,0,1,.3.6c0,.1-.3.2-.5.3a6.6,6.6,0,0,1-2.8-.5l-1.2-.4.7.6h.2l.3.2a.1.1,0,0,0,.1.1l.5.4a4.6,4.6,0,0,0,3.4,1h1.4c-.2.3-.2.3-1.2.3a5.6,5.6,0,0,0-1.3,0h.1a.1.1,0,0,0,.1.1h.7l.3.2h.7l.3.2h.7a.1.1,0,0,1,.1.1H71V41.6C60.8,41,50.8,37.3,40.6,36.3Z"/><path class="cls-5" d="M22.9,43c-.1.5.2.9.8,1.1S23.7,43.2,22.9,43Z"/><path class="cls-5" d="M24.4,40l.3-1.1-1.1.5Z"/><path class="cls-5" d="M22.3,38.9h0l-.6-.5c0,.1,0,.2.1.2h0a.1.1,0,0,0,.1.1h0c0,.1,0,.1.1.1h0a.1.1,0,0,1,.1.1h1l-.6-.4Z"/><path class="cls-5" d="M22.7,40.3h0v-.4h-.5a.9.9,0,0,1,.1.5h.3A.1.1,0,0,0,22.7,40.3Z"/><path class="cls-5" d="M22.8,41.6v-.9h-.4a3.1,3.1,0,0,1,.2.8Z"/><path class="cls-5" d="M22.9,42h-.2a1.6,1.6,0,0,0,.3.6A1.3,1.3,0,0,1,22.9,42Z"/><path class="cls-5" d="M23.1,40.2l.7-.2h0l-.3-.2h-.4Z"/><path class="cls-5" d="M23.2,40.6h0a2.8,2.8,0,0,0,.1.9l.8-.4h0a.9.9,0,0,1,.1-.5h0a.1.1,0,0,1-.1-.1Z"/><path class="cls-5" d="M23.9,41.7l-.6.2c0,.3.1.6.1.9h.2c.1-.3.1-.5.2-.8h0Z"/><path class="cls-5" d="M29.2,41l-.5.7h0l.6.3.2-1h-.3Z"/><path class="cls-5" d="M28,41.4h.3l.4-.5h-.8C27.9,41.3,28,41.3,28,41.4Z"/><path class="cls-5" d="M28.5,42.1a.1.1,0,0,0-.1-.1l-.2.3a.1.1,0,0,0-.1.1l1,.6v-.6h0C29,42.2,28.8,42.2,28.5,42.1Z"/><path class="cls-5" d="M28,41.8h-.2l-.4-.3h0l-.6.2.9.6h.1Z"/><path class="cls-5" d="M20.5,36.5l-.6-.9h-.3C19.9,36,20.2,36.4,20.5,36.5Z"/><path class="cls-5" d="M23.7,38.4l-.5.2.3.3c.1.1.1.1.1.2l.5-.2h0Z"/><path class="cls-5" d="M22.8,38.8h0Z"/><path class="cls-5" d="M24.9,38.5l.3-1-1.1.7.3.4h.3C24.8,38.6,24.9,38.6,24.9,38.5Z"/><path class="cls-5" d="M23,37.8h-.4l.3.4.6-.2-.3-.4Z"/><path class="cls-5" d="M22.1,38h-.3l.4.3h0l.3.3h0c0-.1,0-.1.1-.1Z"/><path class="cls-5" d="M24,37.2l-.3.3h-.1c.1.2.2.3.2.4l1.6-1a.4.4,0,0,0,.1-.3l-.5.2h-.6a.1.1,0,0,1-.1.1Z"/><path class="cls-5" d="M23.4,37.2Z"/><path class="cls-5" d="M21.8,37.6a4.3,4.3,0,0,1-.4-.7.1.1,0,0,1,0-.2l-.3-.3-.3-.2v.2l.8,1.3Z"/><path class="cls-5" d="M22.3,37.5H23c0-.1,0-.1-.1-.1h-.7a.1.1,0,0,0-.1-.1h-.2Z"/><path class="cls-5" d="M28.3,37.3a1.9,1.9,0,0,0,.1.8h.2c.8-.3.8-.3.5-1h0Z"/><path class="cls-5" d="M27,37.6h-.5v.2c0,.1-.1.3-.1.4a.6.6,0,0,0-.1.4h.8v-1Z"/><path class="cls-5" d="M27.4,37.2l.4-.2v-.8h-.5a2.5,2.5,0,0,0,.1.8Z"/><path class="cls-5" d="M26,38.2c0-.1.1-.3.1-.4h-.6c0,.2-.1.3-.1.5a.6.6,0,0,1-.1.4h.5Z"/><path class="cls-5" d="M26.1,36.9v-.6H26a.1.1,0,0,1-.1.1h-.1c0,.1-.1.2-.1.4h.1c.1.1,0,.2-.1.3h.4Z"/><path class="cls-5" d="M28.2,36.1a1.9,1.9,0,0,0,.1.8l.7-.3c-.1-.1-.2-.2-.2-.3a.5.5,0,0,0-.4-.2Z"/><path class="cls-5" d="M26.5,36.1v1.2H27V37a2.8,2.8,0,0,1-.1-.9h-.4Z"/><path class="cls-5" d="M27.5,37.6v.9l.5-.2h0a2.5,2.5,0,0,1-.1-.8Z"/><path class="cls-5" d="M29.6,39.9v-.5c-.1,0-.1,0-.1.1l-.6.2a3.1,3.1,0,0,1,.1,1h.3a.5.5,0,0,0,.3-.3Z"/><path class="cls-5" d="M28.5,39.9l-.8.3v.7h.8A2.2,2.2,0,0,0,28.5,39.9Z"/><path class="cls-5" d="M26.4,39.9h.9v-1h-.9A2.8,2.8,0,0,1,26.4,39.9Z"/><path class="cls-5" d="M27.7,39.8l.6-.3h0c0-.1-.1-.3-.1-.4l-.2-.5-.4.2h0Z"/><path class="cls-5" d="M26.1,40.9v-.3c0-.1-.1-.2-.1-.3H24.8a.1.1,0,0,1,.1.1h.6l.4.3.3.2A.4.4,0,0,0,26.1,40.9Z"/><path class="cls-5" d="M27.3,40.3h-.8v.5a.9.9,0,0,1,.1.5h.2l.6-.3h0Z"/><path class="cls-5" d="M25.8,39.1h-.2c-.6,0-.6.4-.8.7H26A1.1,1.1,0,0,0,25.8,39.1Z"/><path class="cls-5" d="M28.7,39.3h0l.7-.3h.1v-.4c-.1,0-.1-.1-.1-.2s0-.1.1-.1v-.2c-.1,0-.2,0-.2.1l-.7.2h-.2c.1.1.1.3.2.5S28.7,39.2,28.7,39.3Z"/><path class="cls-5" d="M22.8,36.4c0-.1,0-.1-.1-.1h-.4c0,.1.1.1.1.2s.1.2.2.2h.6Z"/><path class="cls-5" d="M21.9,36.5l-.2-.3h-.1l-.3-.2h.2l.5.3Z"/><path class="cls-5" d="M21.6,35.6h0Z"/><path class="cls-5" d="M24,35.8Z"/><path class="cls-5" d="M22,35.9h.7v-.2H22Z"/><path class="cls-5" d="M23.1,35.9h0Z"/><path class="cls-5" d="M20.7,35.7c0-.1,0-.1-.1-.1l.2.2h-.1Z"/><path class="cls-5" d="M23.8,36.2h-.6c.1.1.2.3.4.4h.5c0-.1.1-.1.2-.1h-.2Z"/><path class="cls-5" d="M24.4,36.1h.7l.2-.2h-.1a.1.1,0,0,1-.1-.1Z"/><path class="cls-5" d="M33.5,40.3c.1,0,.1,0,.1.1h2.3l-.7-.5h-.1Z"/><path class="cls-5" d="M32.9,38.3h-.7l.5.6,1.2-.2Z"/><path class="cls-5" d="M32,38.1h0Z"/><path class="cls-5" d="M33.3,39.9l1.5-.4h0l-.4-.3h0l-1.5.3C33.1,39.6,33.2,39.8,33.3,39.9Z"/><path class="cls-5" d="M35.6,41.1a1.7,1.7,0,0,1,1,0l-.2-.2h-1C35.5,40.9,35.6,41,35.6,41.1Z"/><path class="cls-5" d="M34.7,41.3l.5-.2c-.1,0-.1-.1-.2-.2v-.2H33.9l.4.5h.4Z"/><path class="cls-5" d="M36.9,41.5a1.7,1.7,0,0,0-1,0l.3.4h1.6l-.4-.3h-.5Z"/><path class="cls-5" d="M36.9,42.7h2l-.6-.5H36.6Z"/><path class="cls-5" d="M40.4,43.9l-1-.8h-2l.7.4c.1,0,.1.1.1.2h.5l1.9.4Z"/><path class="cls-5" d="M35.5,41.9h.2l-.3-.4h-.6c0,.1-.1.1-.2.1l.2.2h.7Z"/><path class="cls-5" d="M36.7,43.1h-.8l.2.3h1.5l-.8-.6Z"/><path class="cls-5" d="M36.4,42.7l-.4-.4h-.9l.5.5.6-.2Z"/><path class="cls-5" d="M40.4,45.1l-.7-.5c-.1,0-.1-.1-.1-.2h.1L38.2,44h0a9.4,9.4,0,0,0,1,1Z"/><path class="cls-5" d="M39,45.3h-.9l.7.5h.7Z"/><path class="cls-5" d="M37.3,44.6l1.1.2-.6-.6a.2.2,0,0,1,0-.3H36.7l.3.3.3.3Z"/><path class="cls-5" d="M40.2,45.8h1.1l-.4-.3h-1Z"/><path class="cls-5" d="M42.1,45h-.4l-.7-.2h-.8l.9.6Z"/><path class="cls-5" d="M43.7,45.8h-.1a2.7,2.7,0,0,1-1.2.3l.7.3h.2a.2.2,0,0,1,.2.2h-.8l-.6-.3-.3-.2H40.7l.9.5h-.9l-.7-.5h-.5l.9.5h5.1l-.9-.4h-.1A2,2,0,0,1,43.7,45.8Z"/><path class="cls-5" d="M41.8,45.7H42l1.2-.2-.5-.3a.1.1,0,0,1-.1.1h-.8Z"/><path class="cls-5" d="M36.5,44.8h.4l-.4-.3c-.2-.2-.3-.2-.5-.1a.1.1,0,0,0-.1.1Z"/><path class="cls-5" d="M36.9,45.1l.9.7h.4l-1-.7h-.3Z"/><path class="cls-5" d="M34.6,45.4h-.2l-.4.3.4.2.4.2h0l.5-.3Z"/><path class="cls-5" d="M35.6,45.4l.5-.3h.1l-.7-.5h0l-.7.5.8.3Z"/><path class="cls-5" d="M35.7,46.4l.6-.2-.6-.3-.4.3h.4Z"/><path class="cls-5" d="M38.3,46.1h-.2l.7.6h-.7c-.1-.2-.3-.3-.4-.4h-.3l.5.3h1.8l-.9-.6h-.5Z"/><path class="cls-5" d="M36.4,45.4l-.4.2.9.5h.4l-.8-.7A.1.1,0,0,1,36.4,45.4Z"/><path class="cls-5" d="M35.6,46.7l-.4-.2h-.5l-.6-.2c.1.2.1.4.2.6h1.3Z"/><path class="cls-5" d="M32.2,39.1l-.3-.5H31v.4Z"/><path class="cls-5" d="M30.7,38c0,.1.1.2.1.3h.8l-.3-.3c-.1-.2-.4-.2-.6-.3S30.6,38,30.7,38Z"/><path class="cls-5" d="M31.4,39.5l.2.3a.1.1,0,0,0,.1.1h1.2c-.1-.1-.2-.2-.2-.3H31.4Z"/><path class="cls-5" d="M32.4,40.4h-.5c0,.2.1.3.1.4a.6.6,0,0,0,.6.3l.9-.3-.3-.4h-.8Z"/><path class="cls-5" d="M30.3,39.4h-.4v.5h1.4a.8.8,0,0,1-.2-.4Z"/><path class="cls-5" d="M30.3,39h.5c0-.2-.1-.3-.1-.4h-.9V39Z"/><path class="cls-5" d="M30.3,38H30c-.1.1-.2.2-.2.3h.6A.4.4,0,0,0,30.3,38Z"/><path class="cls-5" d="M29.9,40.3a.1.1,0,0,0,.1.1.8.8,0,0,0,.2.4l1.7.3a3,3,0,0,1-.4-.8Z"/><path class="cls-5" d="M30.8,37.3l-1-.9C30.2,37.3,30.3,37.5,30.8,37.3Z"/><path class="cls-5" d="M37.2,39.9l-.3-.2h.3Z"/><path class="cls-5" d="M39.1,41.2l1.2.4h0c0-.1,0-.1-.1-.1s-.1-.3-.1-.4l-1.2-.5h0a.8.8,0,0,0,.2.4Z"/><path class="cls-5" d="M41.5,42.6h1l-1.3-.5Z"/><path class="cls-5" d="M38.6,41.6a.1.1,0,0,0,.1.1l.5.3-.3-.4h0l-.6-.2Z"/><path class="cls-5" d="M40.1,42l-.6-.2.4.3a.2.2,0,0,1,.2.2h0l.8.2h0l-.4-.5Z"/><path class="cls-5" d="M35.1,39.4h0c.1-.1.1-.1.2,0l1.1.3h0l-1.9-.7Z"/><path class="cls-5" d="M38.6,41c-.1-.2-.1-.4-.2-.5l-1-.2c.1.1.2.3.4.4Z"/><path class="cls-5" d="M40.8,41.8l1.7.6h0l-.9-.5h0l-.9-.4C40.7,41.5,40.8,41.6,40.8,41.8Z"/><path class="cls-5" d="M37,40.4h-.3l-.8-.2H36l.2.2h0Z"/><path class="cls-5" d="M37.4,41h0l.2.2h0c0-.1-.1-.1-.1-.2Z"/><path class="cls-5" d="M29.9,37.5c0-.3-.3-.6-.6-.8a3.6,3.6,0,0,1,.4.9Z"/><path class="cls-5" d="M25.4,35.7l.2.2h.5c0-.1,0-.1.1-.1h0l-.3-.2Z"/><path class="cls-5" d="M26.7,35.8h0Z"/><path class="cls-5" d="M24.5,42.6l-.2.3h.4Z"/><path class="cls-5" d="M24.4,42a.4.4,0,0,0,.1-.3h-.2v.3Z"/><path class="cls-5" d="M24.1,42.3v.3c0-.1,0-.2.1-.2Z"/><path class="cls-5" d="M24.4,41.1l.4.3.3-.5-.6-.4v.6Z"/><path class="cls-5" d="M25.4,41.8l.3.2.5-.4h-.1l-.7-.5-.3.5Z"/><path class="cls-5" d="M24.9,41.9a.3.3,0,0,1-.1.2v.2l.4.2h0l.3-.2h0l-.3-.2C25.1,42,25,42,24.9,41.9Z"/><path class="cls-5" d="M24.9,43v.5h.6c-.1-.3-.1-.5-.2-.8h-.1a7961314590657.4,7961314590657.4,0,0,0-.2.2h-.2Z"/><path class="cls-5" d="M24.6,43.9h0Z"/><path class="cls-5" d="M24.6,44.6h-.2a.1.1,0,0,1,.1.1h.2Z"/><path class="cls-5" d="M25.6,44.6h-.5v.3h.5v-.4Z"/><path class="cls-5" d="M26.2,44.7H26v.4h.2v-.5Z"/><path class="cls-5" d="M27,44.7h-.4v.5H27Z"/><path class="cls-5" d="M28.2,44.4h.4l.2-.5h0l-.4-.2C28.3,44,28.3,44.2,28.2,44.4Z"/><path class="cls-5" d="M28.5,43.4l.4.2h0a.1.1,0,0,1-.1-.1h-.2A.3.3,0,0,0,28.5,43.4Z"/><path class="cls-5" d="M27.5,45.1l.2-.3h-.3v.6h0a.4.4,0,0,0,.1-.3Z"/><path class="cls-5" d="M27.7,42.6v.7h.4c0-.2.1-.3.1-.5h0l-.4-.2h-.1Z"/><path class="cls-5" d="M26,42.3a.2.2,0,0,1-.2.2h-.1a1.6,1.6,0,0,1,.3.9h.3a5.7,5.7,0,0,0-.1-1.3h0a.1.1,0,0,1-.1.1h0a.1.1,0,0,0-.1.1Z"/><path class="cls-5" d="M26.7,43.3h.6v-1h0l-.3-.2h-.1c0-.1,0-.1-.1-.1h0c-.1,0-.1,0-.1-.1h0A6.5,6.5,0,0,1,26.7,43.3Z"/><path class="cls-5" d="M24.5,43.2H24v.3h.6Z"/><path class="cls-5" d="M26.7,43.8c0,.1-.1.2-.1.3v.2h.5v-.2c0-.1.1-.2.1-.3h-.5Z"/><path class="cls-5" d="M27.6,43.7c0,.2,0,.3-.1.4v.3h.3c.1-.2.1-.4.2-.6Z"/><path class="cls-5" d="M28.1,44.8c-.1.2-.1.3-.2.4h0a.3.3,0,0,1-.1.2h.1l.4-.2a.8.8,0,0,1,.2-.4Z"/><path class="cls-5" d="M25,43.9v.3h.6v-.3Z"/><path class="cls-5" d="M26,44.2h.2v-.5H26Z"/><path class="cls-5" d="M26.9,45.7h0Z"/><path class="cls-5" d="M27.3,45.7h0Z"/><path class="cls-5" d="M26.1,45.4h0Z"/><path class="cls-5" d="M27.8,45.9h0Z"/><path class="cls-5" d="M25.6,45.3h0Z"/><path class="cls-5" d="M22.8,44.2h0v.2c.1.1.1.1,0,.2h0l.8.2h.3v-.2l-1-.8Z"/><path class="cls-5" d="M33.4,41.6h.1c0-.1,0-.1-.1-.1h0c0,.1,0,.1-.1.1h-.1C33.3,41.3,33.4,41.4,33.4,41.6Z"/><path class="cls-5" d="M33,41.6l-.2-.3h0l-.4.2v.4Z"/><path class="cls-5" d="M34.1,41.9h-.5c.1.1.1.2.2.4l.8-.3-.3-.3h-.2Z"/><path class="cls-5" d="M33,42.6h.4c-.1-.2-.2-.3-.2-.5l-.5.2h0l.2.5A.1.1,0,0,1,33,42.6Z"/><path class="cls-5" d="M34,43.9l-.3.4h0c0,.1,0,.2-.1.2l.3.8.6-.5Z"/><path class="cls-5" d="M35.5,43.3l-.7.2-.4.2.5.9h0l.4-.3.5-.3c.1,0,0-.3,0-.3Z"/><path class="cls-5" d="M34.2,43.4l.5-.2.5-.2h0a1,1,0,0,0-.4-.5l-.9.3Z"/><path class="cls-5" d="M33.8,43.6l-.3-.7h-.4l.3.9C33.5,43.8,33.7,43.7,33.8,43.6Z"/><path class="cls-5" d="M31.7,44.8c-.1.2-.3.3-.4.4l1,.4h.6l-.7-.4Z"/><path class="cls-5" d="M29.5,45h0l-.6-.2h0l-.3.7H29Z"/><path class="cls-5" d="M30.4,45.6c.1-.1.1-.2.2-.2l-.7-.3h-.1l-.3.5h.8C30.3,45.7,30.3,45.6,30.4,45.6Z"/><path class="cls-5" d="M30.2,44.6c0,.1,0,.1-.1.1l.8.3.4-.4-.9-.4A.8.8,0,0,1,30.2,44.6Z"/><path class="cls-5" d="M31,45.5l-.2.3h.7Z"/><path class="cls-5" d="M29.9,44.4a.7.7,0,0,0,.1-.5l-.7-.3-.2.6h0l.7.3C29.8,44.5,29.8,44.5,29.9,44.4Z"/><path class="cls-5" d="M32.9,44.4l-.4-.3h-.1l.3.8h0l.7.3h.1l-.3-.7Z"/><path class="cls-5" d="M30.8,41.2h-.3c-.4-.1-.6,0-.7.4s-.1.3-.1.4h1A2.8,2.8,0,0,1,30.8,41.2Z"/><path class="cls-5" d="M30.4,43.8l.4.2v-.6h-.4l-.9-.2h0a.1.1,0,0,1,.1.1h.1l.6.4Z"/><path class="cls-5" d="M30.7,42.5H29.6v.3l.9.2h.3v-.4Z"/><path class="cls-5" d="M32,42.9c.1.2.1.4.2.6l.5.3.3.2h0l-.3-.7h0Z"/><path class="cls-5" d="M32,44.2c0-.1-.1-.3-.1-.4l-.6-.3h0v.6h.3c.1,0,.2,0,.2.1h.4Z"/><path class="cls-5" d="M31.2,42.6V43h0l.5.2a1.1,1.1,0,0,1-.1-.5Z"/><path class="cls-5" d="M31.2,42.2h.2c0-.3-.1-.6-.1-.9h-.1A1.4,1.4,0,0,0,31.2,42.2Z"/><path class="cls-5" d="M32.5,42.7c-.1-.4-.3-.7-.4-1.1h-.4c.1.4.1.7.2,1.1Z"/><path class="cls-5" d="M19.7,41.6c0-.1-.1-.1-.1-.2h-.2v.5a.1.1,0,0,1,.1-.1Z"/><path class="cls-5" d="M20.3,41.7c.1.1.1.1.1.2h.3l-.2-.2Z"/><path class="cls-5" d="M19.2,40.1h0a.1.1,0,0,0,.1-.1Z"/><path class="cls-5" d="M19.4,40.6c0,.2.2.3.3.4a.1.1,0,0,1,.1.1l.3.2h.1l-.6-.8h0l-.2.2Z"/><path class="cls-5" d="M20,41.9h-.1c0,.1-.1.1-.1.2H20Z"/><path class="cls-5" d="M21.4,41.5l.2-.2-.5-.6-.3.6h-.1c.1.1.2.2.2.3H21c0,.1.1.1.2.2h0C21.3,41.7,21.3,41.6,21.4,41.5Z"/><path class="cls-5" d="M22.3,41.6h0a4.3,4.3,0,0,1-.1-.5h0a.3.3,0,0,1-.1.2Z"/><path class="cls-5" d="M20.1,39.4l-.3.6c.1.1.1.2,0,.2h0l.3.3.3.4h0a1.6,1.6,0,0,0,.4-.7Z"/><path class="cls-5" d="M19,38.2c0-.1,0-.1.1-.2l-.2-.2C18.9,38,19,38.1,19,38.2Z"/><path class="cls-5" d="M20.3,39l.7.9a1.6,1.6,0,0,0,.4-.7h0l-.3-.5h0l-.3-.5h0l-.4.7Z"/><path class="cls-5" d="M19.2,37.5l.3-.8a.1.1,0,0,1,.1-.1l-.6-.7v1.4a.1.1,0,0,1,.1.1Z"/><path class="cls-5" d="M21.3,40.3l.5.7a.8.8,0,0,0,.1-.4c0-.1,0-.1.1-.2h0c-.1-.1-.1-.2-.2-.4h0c0-.1-.1-.2-.1-.3Z"/><path class="cls-5" d="M19.3,39.4h0c0,.1.1.2.2.4l.3-.8-.4-.6-.3.5h0a.3.3,0,0,1,.1.2Z"/><path class="cls-5" d="M21.8,41.7h-.1c0,.1-.1.1-.1.2h.6Z"/><path class="cls-5" d="M19.5,37.9l.6.7a5.9,5.9,0,0,0,.4-.8,1,1,0,0,1-.4-.5c-.1-.1-.2-.2-.2-.3Z"/><path class="cls-2" d="M32.2,46.7h-.5c0-.1,0-.1-.1-.2l-.5-.3h.8c0,.1,0,.1.1.2l.7.5h.7a.1.1,0,0,0-.1-.1l-1-.7H33c.5-.1.7,0,.8.6s.1.2.1.3h.4c-.1-.2-.1-.4-.2-.6l.6.2h.5l.4.2h.9c-.1,0-.1,0-.1-.1h1.5l-.5-.3h.3c.1.1.3.2.4.4h.7l-.7-.6h.7l.9.6h.7l-.9-.5H40l.7.5h.9l-.9-.5h1.1l.3.2.6.3h.8a.2.2,0,0,0-.2-.2h-.2l-.7-.3a2.7,2.7,0,0,0,1.2-.3h.1l1.8.9h.7a11.3,11.3,0,0,1-2.5-1.2h-.1l-.8-.5a5.6,5.6,0,0,1,1.3,0c1,0,1,0,1.2-.3H43.9a4.6,4.6,0,0,1-3.4-1l-.9-.7h-.2l-.7-.6,1.2.4a6.6,6.6,0,0,0,2.8.5c.2-.1.5-.2.5-.3a.9.9,0,0,0-.3-.6l-1-.6L40.5,41h-.2L39,40.3a.2.2,0,0,0-.2-.2h-.2l-.8-.4c-1.3-.5-2.7-.9-4-1.5L31,36.8v-.2l.6.2L35,38.1l2.2,1.2h.4l-.2-.3-1.2-.7A23.6,23.6,0,0,0,31,36.3l-1.4-.5-.7-.4c-.2-.2-.4-.3-.4-.5A.9.9,0,0,0,28,34l-1.6-1.4-1.1-1.1-2-2.3L22,27.7a.4.4,0,0,1-.1-.3,1.9,1.9,0,0,0-.5-1.6,1.3,1.3,0,0,1-.2-.9c0-.3.2-.3.4-.3s.1-.1.2-.2A.8.8,0,0,1,22,24l1-1.3a.5.5,0,0,1,.4-.2c.6-.2.8-.6.6-1.1s-.2-.3-.2-.4-.4-1-.8-1.3a4,4,0,0,0-2.4-.5,1.3,1.3,0,0,0-1.2.5l-.8,1c-.1.3-.2.4-.5.2a17.5,17.5,0,0,0-2.4-1.1,3.2,3.2,0,0,0-1.7-.2,14.6,14.6,0,0,0-2.9.2l-2.3.6a.8.8,0,0,0-.4,1.1c.2.4.3.9.5,1.3l1.4,1.9a.4.4,0,0,1,0,.5L8.9,26.8h-1l.4.3-.4.4a.7.7,0,0,0-.1.5,1,1,0,0,1-.9,1.4H6c-.8-.1-1.3.2-1.4,1a4.9,4.9,0,0,0,.1,1.2,1.2,1.2,0,0,0,.5.9l1.6.5c-.1.8-.2,1.7-.4,2.6h0a11.7,11.7,0,0,1-.6,2,17.4,17.4,0,0,1-2-1.3V46.7H32.2ZM6.9,32.3c0,.1-.3.2-.5.3a1.1,1.1,0,0,1-1.1-.2A2.6,2.6,0,0,1,5.2,30l.6-.2H7.3A20,20,0,0,1,6.9,32.3ZM19,38.2c0-.1-.1-.2-.1-.4l.2.2C19,38.1,19,38.1,19,38.2Zm0-.9V35.9l.6.7a.1.1,0,0,0-.1.1l-.3.8h-.1A.1.1,0,0,0,19,37.3Zm.8-3c0,.2,0,.3.1.4h-.1a6.6,6.6,0,0,1-.9-1.9l.9,1.3h0Zm-.5.2a.1.1,0,0,1-.1.1.4.4,0,0,0,.1.3h.3l.3.6.6.9c-.3-.1-.6-.5-.9-.9a9.4,9.4,0,0,1-1-2.3A7.5,7.5,0,0,1,19.3,34.5Zm5.8,1.3c0,.1.1.2.2.3l-.2.2h-.7Zm-.3-.8H25l.3.3H25C24.9,35.2,24.8,35.1,24.8,35Zm.8.5.6.4c-.2.1-.4.2-.6,0l-.2-.2h.2Zm-.1-.7h.2Zm0,5.9h0l-.4-.2-.3-.2H26c0,.1.1.2.1.3v.3a.4.4,0,0,1,.1.3A1.8,1.8,0,0,1,25.5,40.7Zm.7.9h0l-.5.4-.3-.2-.3-.2.3-.5Zm-6,.7H21l-.4.4-.6-.3Zm-.4-.1c0-.1.1-.1.1-.2H20v.2Zm0-2.2.3-.6.7.9a1.6,1.6,0,0,1-.4.7l-.6-.7h0C19.9,40.2,19.9,40.1,19.8,40Zm1.5.3.4-.6.3.7c-.1.1-.1.1-.1.2a.8.8,0,0,1-.1.4Zm.3,1-.2.2c-.1.1-.1.2-.2.2h0c-.2-.1-.3-.3-.5-.5h.1l.3-.6ZM21,39.9l-.7-.9h.1l.4-.7.6,1A1.6,1.6,0,0,1,21,39.9Zm-.9-1.3-.6-.7.4-.9c0,.1.1.2.2.3a1,1,0,0,0,.4.5A5.9,5.9,0,0,1,20.1,38.6Zm.6,3.2h-.3c0-.1,0-.1-.1-.2h.2Zm.7.8.4.4v.3l-.6-.4H21Zm.1-.6h.1c0-.1.1-.1.1-.2h.1l.4.5h.1Zm.6-.7a.3.3,0,0,0,.1-.2,4.3,4.3,0,0,0,.1.5Zm.1-1.3h.5v.4h0a.1.1,0,0,1-.1.1h-.3A.9.9,0,0,0,22.2,40Zm.5-.4c-.4.2-.5-.1-1-1.3l.6.5h.2l.6.4h-.4Zm3.1-2.7h-.1c0-.2.1-.3.1-.4l.3-.2v1h-.4C25.8,37.1,25.9,37,25.8,36.9Zm.3.8h0c0,.1-.1.3-.1.4l-.2.5h-.5a2.9,2.9,0,0,0,.2-.9Zm-1.3,2c.2-.3.2-.7.8-.7h.2a1.1,1.1,0,0,1,.2.8H24.8Zm-.1-1h-.3l-.3-.4,1.1-.7-.3,1C24.9,38.6,24.8,38.6,24.7,38.7Zm.7-1.8-1.6,1c0-.1-.1-.2-.2-.4h.1l.3-.3.3-.2a.1.1,0,0,0,.1-.1l1.1-.3A.4.4,0,0,1,25.4,36.9Zm-1.7,1.5.4.4h0l-.5.2c0-.1,0-.1-.1-.2l-.3-.3Zm.1,1.6-.7.2v-.4h.2Zm-.3-1.9-.6.2-.3-.4h.6Zm-.2-1h0Zm-.4,1.7h0Zm-.3-.3c-.1,0-.1,0-.1.1l-.7-.6h.3Zm.3,3.5a1.3,1.3,0,0,0,.1.6,1.6,1.6,0,0,1-.3-.6Zm0,1c.8.2.8.3.8,1.1S22.8,43.5,22.9,43Zm.3-2.4h0l.9-.3a.4.4,0,0,1,.1.3.9.9,0,0,0-.1.5h0l-.8.4A2.8,2.8,0,0,1,23.2,40.6Zm.9,1.7h.1c-.1,0-.1.1-.1.2Zm-.5-2.9,1.1-.5L24.4,40Zm.7,2.2h.2a.4.4,0,0,1-.1.3h-.2Zm.1-.5h0v-.6l.6.4-.3.5ZM24,35.8h0c0-.1-.1-.2-.1-.4h.8Zm.1.6h.2c-.1,0-.2,0-.2.1h-.5c-.2-.1-.3-.3-.4-.4h.6Zm-.6-.6h-.4v-.3h.4a.4.4,0,0,0,.1.3Zm-.3,1.1h-.6c-.1,0-.1-.1-.2-.2s-.1-.1-.1-.2h.4c.1,0,.1,0,.1.1Zm-.8-1H22v-.3h.7v.2Zm.5,1.3h0c.1,0,.1,0,.1.1h-.7l-.4-.6A1.7,1.7,0,0,0,22.9,37.2Zm-1.6-1h0l.3.2h.1l.2.3H22Zm-.1-.7v-.2l.4.2v.2Zm.2,1.2a.1.1,0,0,0,0,.2,4.3,4.3,0,0,0,.4.7h-.3l-.8-1.3v-.2Zm-.8-1.1c.1,0,.1,0,.1.1h.1Zm.2-.5h0l-.5-.3v-.3c0,.1.1.1.1.2l.4.3Zm-1.7,3.8.3-.5.4.6-.3.8a5.9,5.9,0,0,1-.4-.8Zm.1,1.3h.1A.1.1,0,0,1,19.2,40.2Zm.2.4.2-.2.6.9h-.1l-.3-.2a.1.1,0,0,0-.1-.1c-.1-.1-.3-.2-.3-.4Zm0,.7h.2c0,.1.1.1.1.2v.2a.1.1,0,0,0-.1.1Zm.3,2.6a3.4,3.4,0,0,1-.1-1v-.2h.1l.7.5v.2h-.2l-.2.2Zm1,.3h-.6c0-.1.1-.2.2-.3h.1c.1,0,.1-.1.2-.2s.1-.2.2-.2h.1l.5.3h0c0,.1,0,.1-.1.1l-.2.3Zm1.6.5-1.1-.3h.1l.4-.3h0l.6.7Zm.1-.5-.5-.6H22v-.3l.2.2c.1.1.1.3.2.5S22.5,44.1,22.4,44.2Zm0-3.4h.4v.9h-.2A3.1,3.1,0,0,0,22.4,40.8ZM23.8,45h-.3l-.8-.2h0c.1-.1.1-.1,0-.2V44l1,.8Zm0-3.1h0c-.1.3-.1.5-.2.8h-.2c0-.3-.1-.6-.1-.9l.6-.2Zm.2,1.4h.5v.3H24Zm.1.8h.5v.3h-.5Zm.1.5h.4v.3h0C24.4,44.8,24.3,44.8,24.2,44.6Zm.1-1.7.2-.3.2.2Zm.5-.8a.3.3,0,0,0,.1-.2c.1.1.2.1.2.2l.3.2-.3.2-.4-.2Zm.1.9h.2a7961314590657.4,7961314590657.4,0,0,1,.2-.2h.1c.1.3.1.5.2.8H25Zm.4,2.4h.3v.2Zm.3-.7v.4h-.5v-.3h.5Zm0-.5H25v-.3h.6Zm.4,1.3h0Zm0-.4v-.4h.2v.5Zm.2-1v.2H26v-.4h.2Zm.1-.8H26a1.6,1.6,0,0,0-.3-.9h.1a.2.2,0,0,0,.2-.2h0l.2-.2A5.7,5.7,0,0,1,26.3,43.3Zm.6,2.4h0Zm.1-.4h-.4v-.5H27Zm.1-1.2v.2h-.5v-.2c0-.1.1-.2.1-.3h.5C27.2,43.9,27.1,44,27.1,44.1Zm.2-.7h-.6a6.5,6.5,0,0,0,0-1.4l.3.2.3.2h0Zm2.2-4.8V39h-.1l-.7.3h0c0-.1-.1-.2-.1-.3s-.1-.4-.2-.5l.9-.3c0-.1.1-.1.2-.1v.2c-.1,0-.1,0-.1.1S29.4,38.6,29.5,38.6Zm8.3,5.6.6.6-1.1-.2h0l-.6-.6h1.1A.2.2,0,0,0,37.8,44.2Zm-10.1-.9v-.7h.1l.4.2c0,.2-.1.3-.1.5Zm.3.5c-.1.2-.1.4-.2.6h-.3v-.3c.1-.1.1-.2.1-.4Zm.3-2.3H28c0-.1-.1-.1-.1-.2l.8-.2Zm.9-.5h.3l-.2,1-.6-.3h0Zm-1.1,1.4a.1.1,0,0,1,.1-.1l.2-.3a.1.1,0,0,1,.1.1c.3.1.5.1.7.3h0V43Zm.8,1.2-.4-.2a.3.3,0,0,1,.1-.2h.1C28.8,43.3,28.9,43.5,28.9,43.6Zm-.5.2.4.2-.2.5h-.4C28.3,44.2,28.3,44,28.4,43.8Zm.5.9.6.2h0l-.5.6h-.4Zm.2-.4.2-.7.7.3a.7.7,0,0,1-.1.5c-.1.1-.1.1-.1.2Zm.6-1-.2-.2.9.2h.4V44l-.4-.2h-.1Zm.5,1.3a.8.8,0,0,0,.2-.4l.9.4-.4.4-.8-.3C30.2,44.7,30.2,44.7,30.2,44.6Zm1.2-2.3h-.2a1.4,1.4,0,0,1,0-.9h.1C31.3,41.7,31.4,42,31.4,42.3Zm.2.5a1.1,1.1,0,0,0,.1.5l-.5-.2h0v-.4Zm-.3,1.5h0v-.6h0l.6.3c0,.1.1.3.1.4l.2.5h-.4c0-.1-.1-.1-.2-.1h-.3Zm1.2-1.6-.6-.2c-.1-.4-.1-.7-.2-1.1a.5.5,0,0,1,.4.2C32.2,42,32.4,42.3,32.5,42.7Zm-.1-1.3.4-.2h0l.2.3-.5.2ZM32,42.9l.7.4h0l.3.7-.3-.2-.5-.3C32.1,43.3,32.1,43.1,32,42.9Zm1-.3a.1.1,0,0,0-.1.1l-.2-.5.5-.2c0,.2.1.3.2.5H33Zm.1.4h.4l.3.7c-.1.1-.3.2-.4.4l-.3-.9Zm.7-.6c-.1-.2-.1-.3-.2-.4h.7l.3.3ZM35,40.9c.1.1.1.2.2.2l-.5.2h-.4l-.4-.5,1.1-.2Zm.4.6.3.4h-.8l-.3-.3c.1,0,.2,0,.2-.1Zm-.6,1a1,1,0,0,1,.4.5l-.5.2-.5.2-.3-.6Zm0,1,.7-.2.3.4s.1.3,0,.3l-.9.6-.5-.9Zm.7,1.1h0l.7.5h-.1l-.5.3h0l-.8-.3Zm.4-.2a.1.1,0,0,1,.1-.1c.2-.1.3-.1.5.1l.4.3h-.4Zm.7-.8h-.5l-.2-.3h.9l.8.6Zm-.4-.9-.6.2-.5-.5H36l.4.4Zm0-.8-.3-.4a1.7,1.7,0,0,1,1,0h.5l.4.3Zm-.6-.8c0-.1-.1-.2-.2-.4a4.2,4.2,0,0,1,1.2.4A1.7,1.7,0,0,0,35.6,41.1Zm.3-.8-2,.2h-.3c0-.1,0-.1-.1-.1l1.6-.5h.1l.7.5ZM34,41.4h-.6c0-.2-.1-.3-.2-.5S33.7,41.1,34,41.4ZM32.6,41a.6.6,0,0,1-.6-.3c0-.1-.1-.2-.1-.4h1.3l.3.4Zm-.3-1h-.6l-.3-.4h1.1c.2.1.3.3.4.4Zm-.8.3a3,3,0,0,0,.4.8l-1.7-.3a.8.8,0,0,1-.2-.4.1.1,0,0,1-.1-.1Zm-1.6-.4v-.5h1.2a.8.8,0,0,0,.2.4Zm.4-.9h-.5v-.4h.9c0,.1.1.2.1.4Zm-.5-.8h0c0-.1.1-.2.2-.3h.3a.4.4,0,0,1,.1.3Zm0,3.4c.1-.4.3-.5.7-.4h.3a2.8,2.8,0,0,0-.1.9h-1C29.7,41.9,29.8,41.7,29.8,41.6Zm.9.9h.1V43h-.3l-.9-.2v-.3Zm-1.4-1.8H29a3.1,3.1,0,0,0-.1-1l.6-.2c0-.1,0-.1.1-.1v1A.5.5,0,0,1,29.3,40.7Zm-.8-.8a2.2,2.2,0,0,1,.1.8h0l-.8.2v-.7Zm-.7,1.8H28l-.2.3h-.1l-.9-.6.6-.2Zm-.4,4.1h0Zm.1-.7h0a.4.4,0,0,1-.1.3h0v-.6h.3Zm.5.9h0Zm-.1-.5h-.1a.3.3,0,0,0,.1-.2h0c.1-.1.1-.2.2-.4h.4a.8.8,0,0,0-.2.4Zm.5.5h0c.1-.1.4,0,.6,0s.1.1.1.2Zm1.4-.8h.1l.7.3c-.1,0-.1.1-.2.2s-.1.1-.1.2h-.8Zm0,1.1-.2-.2h1c.1.1.2.3.4.4Zm1-.5.2-.3.5.2Zm1.6-.2h-.1l-1-.4c.1-.1.3-.2.4-.4l1.2.7Zm1-.3-.7-.3h0l-.3-.8h.1l.4.3h.3l.3.7Zm.2-.8c.1,0,.1-.1.1-.2h0l.3-.4.5.9-.6.5ZM34.8,46l-.8-.4.4-.3h.2l.7.3Zm.9.4h0l-.4-.2.4-.3.6.3Zm1.2-.3-.9-.5.4-.2a.1.1,0,0,0,.1-.1l.8.7Zm.9-.3-.9-.7h.3l1,.7Zm1-.1-.7-.5H39l.5.5Zm.4-.7a9.4,9.4,0,0,1-1-1l1.5.4h-.1c0,.1,0,.2.1.2l.7.5Zm1,.8-.3-.3h1l.4.3Zm2.5-.5.5.3-1.2.2h.6A.1.1,0,0,0,42.7,45.3Zm-1.6-.2-.9-.6h.4l1.5.4Zm-1.7-2,1,.8.2.3-1.9-.4h-.5c0-.1,0-.2-.1-.2l-.7-.4h2Zm-.5-.4h-2l-.3-.4h1.7Zm2.6,0h0l-.3-.3,1.3.5Zm1-.3-1.7-.6c0-.2-.1-.3-.1-.4Zm-2-.3.4.5-.8-.2h0a.2.2,0,0,0-.2-.2l-.4-.3.6.2Zm-.4-1c0,.1.1.2.1.4s.1,0,.1.1h0l-1.2-.4V41a.8.8,0,0,1-.2-.4Zm-1.2.4h0l.3.4-.5-.3a.1.1,0,0,1-.1-.1l-.3-.3Zm-.5-1c.1.1.1.3.2.5l-.8-.3c-.2-.1-.3-.3-.4-.4Zm-.9.5c0,.1.1.1.1.2l-.2-.2Zm-.3-1.1h-.3Zm-.4.4H37l-.8-.2h0l-.3-.2.8.2Zm-.4-.8h0l-1.1-.3c-.1-.1-.1-.1-.2,0l-.6-.6Zm-1.6,0-1.5.4c-.1-.1-.2-.3-.4-.4l1.5-.3Zm-1.9-1.2,1,.6-1.2.2-.5-.6h.7Zm-1-.4h0Zm.3,1.2h-1a.8.8,0,0,0-.2-.4h.9ZM31.3,38l.3.3h-.8c0-.1-.1-.2-.1-.3s-.1-.1,0-.3S31.2,37.8,31.3,38Zm-.5-.7c-.5.2-.6,0-1-.9Zm-.9.2h-.2a3.6,3.6,0,0,0-.4-.9C29.6,36.9,29.9,37.2,29.9,37.5Zm-.8-.5c.3.7.3.7-.5,1h-.2a1.9,1.9,0,0,1-.1-.8l.8-.3Zm-.7-.9a.5.5,0,0,1,.4.2c0,.1.1.2.2.3l-.7.3a1.9,1.9,0,0,1-.1-.8h.2ZM28,38.6l.2.5c0,.1.1.3.1.4h0l-.6.3v-1Zm0-.3-.5.2v-.9h.4A2.5,2.5,0,0,0,28,38.3Zm-.7-2.2h.5V37l-.4.2v-.3A2.5,2.5,0,0,1,27.3,36.1Zm.1,4.9-.6.3h-.2a.9.9,0,0,0-.1-.5v-.5h.8Zm-.2-2.1v1h-.9a2.8,2.8,0,0,0-.1-.9Zm-.1-.3h-.8a.6.6,0,0,1,.1-.4c0-.1.1-.3.1-.4v-.2h.6ZM27,37v.2h-.4V36.1h.4A2.8,2.8,0,0,0,27,37Zm-.5-1.7h0c.1.2.3.3.3.4h-.2l-.5-.3a.1.1,0,0,1,.1-.1Zm-7.3-7.5c.3.5.4.9.7,1.3L21,30l.3.5c.1.2.1.4.2.5a18.8,18.8,0,0,0,4.3,3.1l.5.4H24.9l-.7.3a3,3,0,0,1-4-.8.1.1,0,0,0-.1-.1l-.3-.4-1.7-3.2-.8-1.2Zm-2.3,1.8h.3l1,1.7c.1.1.1.2.1.4l-1-1.2-.4-.7Zm2.3,5.9H19c-.5-.1-.6-.5-.8-.8a11.7,11.7,0,0,1-1.4-4.1C17.7,32.2,18.3,33.9,19.2,35.5ZM12,22.6l-.7,1L11,22.3ZM10.4,34.3h.2l.5,1.2v.2h-.1l-.6-.3h-.3A4.3,4.3,0,0,1,10.4,34.3Zm-2.1,5a6,6,0,0,1,.8-2.1c0,.3.1.6.5.4V40Zm1.6-3.8c-.1.4-.1.7-.2,1S9.6,35.8,9.9,35.5Zm.4.3.4.2h.7v-.5h0a11.2,11.2,0,0,0-.5-1.3l1,.8c.2.1.3.4.4.6s.1.2.1.3a.4.4,0,0,0,.1-.3c0-.9-1-1.1-1.4-1.8s.9-.7,1.7,0a6.9,6.9,0,0,1,1.6,1.8,8.6,8.6,0,0,1,1,1.6,7.8,7.8,0,0,0-2.2,3.7l.4-.3.4-.9a5.2,5.2,0,0,1,1.7-2.2c.4.2.4.5.4.9a12.1,12.1,0,0,0,.1,1.9,12.6,12.6,0,0,1,.4,2.7,66.2,66.2,0,0,1-6.7-2.7A16,16,0,0,1,10.3,35.8Z"/></g></svg>