<svg xmlns="http://www.w3.org/2000/svg" xmlns:xlink="http://www.w3.org/1999/xlink" viewBox="0 0 90.3 90.2"><defs><style>.cls-1{fill:url(#linear-gradient);}.cls-2{fill:url(#linear-gradient-2);}.cls-3{fill:url(#linear-gradient-3);}</style><linearGradient id="linear-gradient" x1="36.88" y1="20.47" x2="68.97" y2="51.18" gradientUnits="userSpaceOnUse"><stop offset="0" stop-color="#fbe18a"/><stop offset="0.21" stop-color="#fcbb45"/><stop offset="0.38" stop-color="#f75274"/><stop offset="0.52" stop-color="#d53692"/><stop offset="0.74" stop-color="#8f39ce"/><stop offset="1" stop-color="#5b4fe9"/></linearGradient><linearGradient id="linear-gradient-2" x1="27.82" y1="29.92" x2="59.91" y2="60.64" xlink:href="#linear-gradient"/><linearGradient id="linear-gradient-3" x1="27.75" y1="30" x2="59.84" y2="60.71" xlink:href="#linear-gradient"/></defs><title>JHJHHHHH</title><g id="ELEMENTS"><path class="cls-1" d="M53.1,33.9A2.1,2.1,0,0,0,51,36a2.1,2.1,0,0,0,2.1,2.1A2.2,2.2,0,0,0,55.2,36,2.1,2.1,0,0,0,53.1,33.9Z"/><path class="cls-2" d="M43.9,36.6a8.7,8.7,0,1,0,8.7,8.7A8.7,8.7,0,0,0,43.9,36.6Zm0,14.3a5.6,5.6,0,1,1,5.5-5.6A5.6,5.6,0,0,1,43.9,50.9Z"/><path class="cls-3" d="M50.8,63H36.7A10.7,10.7,0,0,1,26,52.3V38.2A10.7,10.7,0,0,1,36.7,27.6H50.8A10.7,10.7,0,0,1,61.4,38.2V52.3A10.7,10.7,0,0,1,50.8,63ZM36.7,30.9a7.3,7.3,0,0,0-7.3,7.3V52.3a7.2,7.2,0,0,0,7.3,7.3H50.8a7.3,7.3,0,0,0,7.3-7.3V38.2a7.3,7.3,0,0,0-7.3-7.3Z"/></g></svg>