<svg id="OBJECTS" xmlns="http://www.w3.org/2000/svg" viewBox="0 0 500 147.5"><defs><style>.cls-1{fill:#016c91;}.cls-2{fill:#585856;}.cls-3{fill:#ddeef2;}.cls-4{fill:#1aa9e1;}.cls-5{fill:#fbc11d;}</style></defs><title>LOGO1</title><path class="cls-1" d="M22.5,83.3l-2.7,17H9.1l7.2-46a85.1,85.1,0,0,1,15.5-1.4h3.8a20.7,20.7,0,0,1,6.6,1.3,9,9,0,0,1,4.5,3.5,11.3,11.3,0,0,1,1.7,6.4,25.6,25.6,0,0,1-.3,3.9c-.8,5.2-2.7,9-5.6,11.4a18.1,18.1,0,0,1-6.7,3.2,39.9,39.9,0,0,1-8.4.8Zm3.4-21.4-2,12.6a26.4,26.4,0,0,0,4.5.3,11.2,11.2,0,0,0,6.1-1.4c1.6-.9,2.5-2.7,2.9-5.3a17.6,17.6,0,0,0,.2-1.9A3.7,3.7,0,0,0,36,62.7c-1-.8-2.8-1.1-5.3-1.1A36.4,36.4,0,0,0,25.9,61.9Z"/><path class="cls-1" d="M48.3,87.1l3.6-22.7h10L58.5,86.3a12.1,12.1,0,0,0-.3,2.5,3.5,3.5,0,0,0,1.1,2.8,6.9,6.9,0,0,0,3.8.8,12.3,12.3,0,0,0,4.4-.7c.3-1.5.7-3.1.9-4.8L72,64.4H82L78,90.2c-.4,2.4-.9,4.7-1.5,7-4.3,2.4-9.7,3.5-16,3.5-3.9,0-6.8-.5-8.9-1.5a5.9,5.9,0,0,1-2.2-1.9,8.6,8.6,0,0,1-1.6-5.5A32.8,32.8,0,0,1,48.3,87.1Z"/><path class="cls-1" d="M106.3,91.5l-.3,7.7a48.4,48.4,0,0,1-12.4,1.5c-3.4,0-6-.7-7.8-2.2a8.6,8.6,0,0,1-2-2.6,14.3,14.3,0,0,1-1.5-7A50.2,50.2,0,0,1,83,82c.3-1.8.6-3.4.9-4.7A22.8,22.8,0,0,1,87,70a13.3,13.3,0,0,1,5.6-4.6,23.5,23.5,0,0,1,9-1.5,27,27,0,0,1,9.7,1.6l-2,7.5-2.4-.5-1.9-.3-2.3-.2c-3.3,0-5.6.7-7,2.2a5.6,5.6,0,0,0-1.1,1.9,18.3,18.3,0,0,0-.8,2.5c-.2.8-.4,2-.6,3.4a41.3,41.3,0,0,0-.6,5.3,7.5,7.5,0,0,0,.3,2.3A4.2,4.2,0,0,0,94,91.2a6.3,6.3,0,0,0,2.2.9,15.8,15.8,0,0,0,3.4.3A35.4,35.4,0,0,0,106.3,91.5Z"/><path class="cls-1" d="M110.7,87.1l3.6-22.7h10l-3.4,21.9a12.1,12.1,0,0,0-.3,2.5,3.5,3.5,0,0,0,1.1,2.8,6.9,6.9,0,0,0,3.8.8,12,12,0,0,0,4.4-.7c.4-1.5.7-3.1,1-4.8l3.5-22.5h10l-4,25.8c-.4,2.4-.9,4.7-1.5,7-4.3,2.4-9.7,3.5-16,3.5-3.9,0-6.8-.5-8.9-1.5a6.7,6.7,0,0,1-2.2-1.9,8.6,8.6,0,0,1-1.6-5.5A32.8,32.8,0,0,1,110.7,87.1Z"/><path class="cls-1" d="M160.8,89.9a2.4,2.4,0,0,0-1.4-2.6l-2.6-.9-.6-.2-2-.7-1.9-.8-1.8-.9a8.8,8.8,0,0,1-2.7-2.8,8.2,8.2,0,0,1-1.1-4.2,14.9,14.9,0,0,1,.2-2.1c1.1-7.2,5.9-10.8,14.5-10.8a63.6,63.6,0,0,1,6.7.4,54.4,54.4,0,0,1,6.3,1.3L172.3,73a46.6,46.6,0,0,0-8.9-1.1h-2.8l-1.3.2a6,6,0,0,0-1.6.8,1.6,1.6,0,0,0-.7,1.4,1.7,1.7,0,0,0,0,1,2.8,2.8,0,0,0,.5.8,2.2,2.2,0,0,0,.9.7l1.1.4h.3l.5.2.5.2.9.2.4.2,4.5,1.8a8,8,0,0,1,3.9,3.5,9.6,9.6,0,0,1,.7,3.6,13.8,13.8,0,0,1-.3,2.5,12.6,12.6,0,0,1-3.8,7.7,12.7,12.7,0,0,1-3.4,2,21.3,21.3,0,0,1-8.5,1.4,53.3,53.3,0,0,1-6.7-.4,39.7,39.7,0,0,1-6-1.2l2.2-7.7a35.7,35.7,0,0,0,4.9.8,30.6,30.6,0,0,0,4.7.4,18.3,18.3,0,0,0,4-.3A3,3,0,0,0,160.8,89.9Z"/><path class="cls-1" d="M205.1,75.7l-2.3,14.5c-.4,2.2-.8,4.6-1.4,7-4.2,2.4-9.7,3.5-16.3,3.5-4.2,0-7.3-.7-9.2-2.1a7.8,7.8,0,0,1-3-6.7c0-.9.1-1.8.2-2.9a14.9,14.9,0,0,1,3.6-7.8c1.9-1.9,4.6-3.1,8.3-3.7a86.9,86.9,0,0,1,10.1-.9,5.4,5.4,0,0,0,.1-1.1,3.2,3.2,0,0,0-1.1-2.6,7.1,7.1,0,0,0-3.7-.7,107.5,107.5,0,0,0-12.7.9l.4-7.7a81.8,81.8,0,0,1,14.3-1.5,20.5,20.5,0,0,1,7.6,1.2c3.5,1.2,5.3,3.9,5.3,8C205.3,73.8,205.2,74.7,205.1,75.7Zm-17.8,8.4a8.4,8.4,0,0,0-2.1.8c-1.1.6-1.8,2-2.1,4a3.1,3.1,0,0,0-.1,1,2.6,2.6,0,0,0,1,2.2,5.8,5.8,0,0,0,3.3.7,14.6,14.6,0,0,0,5.1-.7,38.4,38.4,0,0,0,1-4.8l.6-3.9h-4.5Z"/><path class="cls-1" d="M219.5,77.8l-3.6,22.5h-10L210,74.5c.4-2.4.8-4.7,1.4-7,4.4-2.4,9.7-3.6,16.1-3.6,4,0,6.9.6,8.9,1.6a6.2,6.2,0,0,1,2.3,1.9,9.1,9.1,0,0,1,1.6,5.4,35.5,35.5,0,0,1-.5,4.8l-3.6,22.7h-10l3.4-21.9a14.9,14.9,0,0,0,.3-2.5,3.5,3.5,0,0,0-1.1-2.8,7.1,7.1,0,0,0-3.9-.8,11.6,11.6,0,0,0-4.4.7C220.1,74.5,219.8,76.1,219.5,77.8Z"/><path class="cls-1" d="M273.1,75.7l-2.2,14.5c-.4,2.2-.9,4.6-1.5,7-4.2,2.4-9.6,3.5-16.2,3.5q-6.3,0-9.3-2.1a8,8,0,0,1-2.9-6.7,15.2,15.2,0,0,1,.2-2.9,13.5,13.5,0,0,1,3.6-7.8c1.9-1.9,4.6-3.1,8.2-3.7a89,89,0,0,1,10.2-.9c0-.5.1-.9.1-1.1a3,3,0,0,0-1.2-2.6,6.5,6.5,0,0,0-3.6-.7,106.1,106.1,0,0,0-12.7.9l.4-7.7a80.8,80.8,0,0,1,14.2-1.5,20.2,20.2,0,0,1,7.6,1.2c3.5,1.2,5.3,3.9,5.4,8A13.8,13.8,0,0,1,273.1,75.7Zm-17.7,8.4a9.3,9.3,0,0,0-2.2.8c-1,.6-1.7,2-2.1,4v1a2.4,2.4,0,0,0,1,2.2,5.8,5.8,0,0,0,3.3.7,14.9,14.9,0,0,0,5.1-.7c.3-1.1.6-2.7,1-4.8l.6-3.9h-4.6Z"/><path class="cls-2" d="M50,25.5H70.3l-.8,4.9H62.3L58.4,55.3h-6l3.9-24.9H49.2Z"/><path class="cls-2" d="M74.1,55.7c-3,0-5.2-.6-6.5-1.8s-2-3.1-2-5.8a22.7,22.7,0,0,1,.4-4.2,21,21,0,0,1,1.4-5.4,8.3,8.3,0,0,1,2.3-3.6,7,7,0,0,1,3.4-2.1,16.5,16.5,0,0,1,4.8-.6c3,0,5.1.6,6.5,1.8s2,3.1,2,5.8a22.5,22.5,0,0,1-.4,4.1,21,21,0,0,1-1.4,5.4,8.3,8.3,0,0,1-2.3,3.6A7,7,0,0,1,78.9,55,16.2,16.2,0,0,1,74.1,55.7Zm-2.9-8c0,1.3.2,2.1.8,2.6a4.1,4.1,0,0,0,2.8.8,4.6,4.6,0,0,0,3.2-1,2.8,2.8,0,0,0,1.1-1.3,17.2,17.2,0,0,0,1.4-4.9,28.7,28.7,0,0,0,.3-3.6,3.8,3.8,0,0,0-.8-2.7,3.6,3.6,0,0,0-2.8-.8,5.5,5.5,0,0,0-2.8.6,4.1,4.1,0,0,0-1.7,2.1,16.4,16.4,0,0,0-1.1,4.4A21.2,21.2,0,0,0,71.2,47.7Z"/><path class="cls-2" d="M103.5,32.7l1.4-9h5.6l-4,25.5a32.9,32.9,0,0,1-.9,4.3,12.9,12.9,0,0,1-4.4,1.6,20.7,20.7,0,0,1-9,.2A7.3,7.3,0,0,1,89.4,54c-1.5-1.2-2.3-3.2-2.3-6a31.5,31.5,0,0,1,.4-4.1A29.8,29.8,0,0,1,89,38.3a9.5,9.5,0,0,1,2.4-3.6,8.4,8.4,0,0,1,3.3-1.9,15.6,15.6,0,0,1,4.6-.6A15.1,15.1,0,0,1,103.5,32.7Zm-3.8,4a6.2,6.2,0,0,0-4.8,1.7,10.9,10.9,0,0,0-1.5,3.7q-.2.8-.3,1.8a25,25,0,0,0-.3,3.2,4.8,4.8,0,0,0,.8,2.9c.6.8,1.7,1.2,3.4,1.2a8.8,8.8,0,0,0,3.5-.6,20.5,20.5,0,0,0,.7-3.1l1.6-10.3A8.1,8.1,0,0,0,99.7,36.7Z"/><path class="cls-2" d="M118.6,55.7c-3,0-5.2-.6-6.5-1.8s-2-3.1-2-5.8a34.4,34.4,0,0,1,.3-4.2,34.6,34.6,0,0,1,1.4-5.4,10.6,10.6,0,0,1,2.3-3.6,8.1,8.1,0,0,1,3.4-2.1,16.5,16.5,0,0,1,4.8-.6q4.5,0,6.6,1.8c1.3,1.2,2,3.1,2,5.8a22.5,22.5,0,0,1-.4,4.1,21,21,0,0,1-1.4,5.4,9.3,9.3,0,0,1-2.3,3.6,7.5,7.5,0,0,1-3.4,2.1A16.2,16.2,0,0,1,118.6,55.7Zm-2.9-8c0,1.3.2,2.1.8,2.6a3.8,3.8,0,0,0,2.7.8,4.8,4.8,0,0,0,3.3-1,3.6,3.6,0,0,0,1.1-1.3,17.7,17.7,0,0,0,1.3-4.9,18.6,18.6,0,0,0,.4-3.6,3.8,3.8,0,0,0-.8-2.7,3.8,3.8,0,0,0-2.8-.8,6,6,0,0,0-2.9.6,4.6,4.6,0,0,0-1.7,2.1,21.4,21.4,0,0,0-1.1,4.4A32.9,32.9,0,0,0,115.7,47.7Z"/><path class="cls-2" d="M142.6,48.5a1.7,1.7,0,0,0-.8-1.6l-1.2-.5h-.7l-.7-.2-1-.4-1-.3-.9-.4-.8-.5-.8-.5-.6-.7a4.7,4.7,0,0,1-.9-3,7.1,7.1,0,0,1,.1-1.4c.4-2.5,1.4-4.2,3.2-5.2a10.4,10.4,0,0,1,5.8-1.4l4.2.2,3.9.7-1.2,4.2a24.4,24.4,0,0,0-5.6-.7h-2.5a4.4,4.4,0,0,0-1.5.5,2.4,2.4,0,0,0-.7,1.3,1.4,1.4,0,0,0,0,.9l.4.6c.1.2.4.3.7.5l.7.3,1,.4h.6c.1,0,.2,0,.2.1a20,20,0,0,1,2.8,1.1,5.2,5.2,0,0,1,2.6,2.1,6,6,0,0,1,.5,2.4c0,.5-.1,1-.1,1.5a8,8,0,0,1-2.5,4.8,10.7,10.7,0,0,1-2.1,1.3,13.8,13.8,0,0,1-5.4.9l-4-.3-3.8-.7,1.2-4.3a28.4,28.4,0,0,0,6,.7h2.6l.7-.2.5-.3a2.2,2.2,0,0,0,.7-.6,2.3,2.3,0,0,0,.4-1Z"/><path class="cls-2" d="M169.8,48.5a1.9,1.9,0,0,0-.8-1.6l-1.2-.5H167l-.6-.2-1-.4-1-.3-.9-.4-.9-.5-.7-.5-.7-.7a6.3,6.3,0,0,1-.9-3,7.8,7.8,0,0,1,.2-1.4,6.5,6.5,0,0,1,3.1-5.2,10.8,10.8,0,0,1,5.9-1.4l4.2.2,3.9.7-1.2,4.2a24.4,24.4,0,0,0-5.6-.7h-2.5a3.7,3.7,0,0,0-1.5.5,2.6,2.6,0,0,0-.8,1.3,2.8,2.8,0,0,0,.1.9c.1.2.2.5.4.6s.3.3.6.5l.8.3.9.4h.7c.1,0,.2,0,.2.1a20,20,0,0,1,2.8,1.1,4.5,4.5,0,0,1,2.5,2.1,4.8,4.8,0,0,1,.6,2.4,7.7,7.7,0,0,1-.2,1.5,7.4,7.4,0,0,1-2.4,4.8,10.7,10.7,0,0,1-2.1,1.3,14.5,14.5,0,0,1-5.4.9l-4.1-.3-3.7-.7,1.2-4.3a28.4,28.4,0,0,0,6,.7h2.6l.7-.2.5-.3.7-.6a5.1,5.1,0,0,0,.4-1Z"/><path class="cls-2" d="M186.1,55.7q-4.5,0-6.6-1.8c-1.3-1.2-2-3.1-2-5.8a36.6,36.6,0,0,1,.4-4.2,26.1,26.1,0,0,1,1.4-5.4,9.3,9.3,0,0,1,2.3-3.6,7.5,7.5,0,0,1,3.4-2.1,16.5,16.5,0,0,1,4.8-.6c3,0,5.2.6,6.5,1.8s2.1,3.1,2.1,5.8a37.3,37.3,0,0,1-.4,4.1,26.1,26.1,0,0,1-1.4,5.4,9.3,9.3,0,0,1-2.3,3.6,8.1,8.1,0,0,1-3.4,2.1A16.2,16.2,0,0,1,186.1,55.7Zm-3-8a3.5,3.5,0,0,0,.8,2.6,4.3,4.3,0,0,0,2.8.8,4.8,4.8,0,0,0,3.3-1,2.7,2.7,0,0,0,1-1.3,14.5,14.5,0,0,0,1.4-4.9,32.5,32.5,0,0,0,.4-3.6,3.4,3.4,0,0,0-.9-2.7c-.5-.6-1.4-.8-2.7-.8a6,6,0,0,0-2.9.6,4.6,4.6,0,0,0-1.7,2.1,21.4,21.4,0,0,0-1.1,4.4A38,38,0,0,0,183.1,47.7Z"/><path class="cls-2" d="M231.4,40.8l-2.3,14.5h-5.6l2.2-14a12.8,12.8,0,0,0,.2-1.7,2.9,2.9,0,0,0-.8-2.2,4,4,0,0,0-2.5-.6,7.8,7.8,0,0,0-3.3.7v.6c0,.8-.1,1.7-.2,2.7l-2.3,14.5h-5.6l2.2-14a11.1,11.1,0,0,0,.2-1.7,3.4,3.4,0,0,0-.7-2.2,4,4,0,0,0-2.5-.6h-1.5l-1.4.5a13.3,13.3,0,0,0-.6,3l-2.4,14.9h-5.6l2.7-16.7a41.5,41.5,0,0,1,.9-4.3,17.7,17.7,0,0,1,4.6-1.6,29.6,29.6,0,0,1,5.2-.5,8.5,8.5,0,0,1,5.2,1.3,19.6,19.6,0,0,1,7-1.3,8.8,8.8,0,0,1,5,1.1,4.9,4.9,0,0,1,1.3,1.2,7,7,0,0,1,.8,3.5A15.2,15.2,0,0,1,231.4,40.8Z"/><path class="cls-2" d="M241.8,55.7c-3,0-5.2-.6-6.5-1.8s-2-3.1-2-5.8a22.7,22.7,0,0,1,.4-4.2,21,21,0,0,1,1.4-5.4,8.3,8.3,0,0,1,2.3-3.6,7,7,0,0,1,3.4-2.1,16.5,16.5,0,0,1,4.8-.6c3,0,5.1.6,6.5,1.8s2,3.1,2,5.8a22.5,22.5,0,0,1-.4,4.1,21,21,0,0,1-1.4,5.4,8.3,8.3,0,0,1-2.3,3.6,7,7,0,0,1-3.4,2.1A16.2,16.2,0,0,1,241.8,55.7Zm-2.9-8c0,1.3.2,2.1.8,2.6a4.1,4.1,0,0,0,2.8.8,4.6,4.6,0,0,0,3.2-1,2.8,2.8,0,0,0,1.1-1.3,17.2,17.2,0,0,0,1.4-4.9,28.7,28.7,0,0,0,.3-3.6,3.8,3.8,0,0,0-.8-2.7,3.6,3.6,0,0,0-2.8-.8,5.5,5.5,0,0,0-2.8.6,4.1,4.1,0,0,0-1.7,2.1,16.4,16.4,0,0,0-1.1,4.4A21.2,21.2,0,0,0,238.9,47.7Z"/><path class="cls-2" d="M265.9,48.5a1.8,1.8,0,0,0-.9-1.6,3.5,3.5,0,0,0-1.2-.5h-.2c0-.1-.1-.1-.2-.1h-.3l-.7-.2-1-.4-.9-.3-1-.4-.8-.5c-.3-.2-.6-.3-.7-.5l-.7-.7a4.7,4.7,0,0,1-.9-3,7.1,7.1,0,0,1,.1-1.4,6.9,6.9,0,0,1,3.2-5.2,10.5,10.5,0,0,1,5.9-1.4l4.1.2,3.9.7-1.2,4.2a23.6,23.6,0,0,0-5.5-.7h-2.6a3.8,3.8,0,0,0-1.4.5,2,2,0,0,0-.8,1.3,2.8,2.8,0,0,0,.1.9,3.3,3.3,0,0,0,.3.6l.7.5c.3.1.5.3.8.3l.9.4h.9a27.2,27.2,0,0,1,2.8,1.1,4.9,4.9,0,0,1,2.5,2.1,6,6,0,0,1,.5,2.4,7.6,7.6,0,0,1-.1,1.5,8,8,0,0,1-2.5,4.8,6.9,6.9,0,0,1-2.1,1.3,13.6,13.6,0,0,1-5.3.9l-4.1-.3-3.8-.7,1.2-4.3a29.9,29.9,0,0,0,6,.7h2.6l.7-.2.6-.3a1.7,1.7,0,0,0,.6-.6,2.3,2.3,0,0,0,.4-1C265.8,48.8,265.9,48.6,265.9,48.5Z"/><path class="cls-3" d="M466.3,106.1a93.1,93.1,0,0,0-186.2,0c0,1.3.1,2.7.1,4l113.1.6,1.9,2,39.9.9,6.7-2.6,19.1-1.7C461,107.6,466.3,107.8,466.3,106.1Z"/><path class="cls-1" d="M313.3,89.4s2.9-4.7,6.4-6.9a40.6,40.6,0,0,0,9-6.7c2.7-2.7,5.2-4,6.7-5.2s6.5-3.7,12.5-3.1,5.4-.2,7.1-.6,5.9-2.1,9.8-1,6.2-.1,7.6-1.3,9.2-3.7,17.8,0,7.1,4.3,10.3,6,9.6,2.5,12.7,3.9a74.4,74.4,0,0,1,8.1,4.1,33.6,33.6,0,0,1,3.7,2.1,7.1,7.1,0,0,1,4.1-1.9c2.8-.6,6.7,1.5,8.8,4.4s3.1,10,10,12.4c2.5,1,8.9,9.8,9.3,13.1l-28.6,5.6-138.5-5.6s-7.5-1.5-4.6-2.5,3.9-1.8,5.1-3.9,3.5-2,5.2-3.7,4.9-7.8,7.2-8.6S306.5,88.3,313.3,89.4Z"/><polygon class="cls-1" points="381.6 56.9 381.6 54.9 380.6 54.9 380.6 56.9 378.3 56.9 378.3 57.8 380.6 57.8 380.6 63.1 381.6 63.1 381.6 57.8 383.9 57.8 383.9 56.9 381.6 56.9"/><path class="cls-1" d="M348.2,67.5h-.4c-.1,0-.1,0-.1-.1v-.5a7.6,7.6,0,0,1-.1-1.5,5.3,5.3,0,0,1-.1-1.3,2.8,2.8,0,0,1-.1-.9h.2c.1,0,.1,0,.1-.1v-.3a.1.1,0,0,0-.1-.1h-.2a1.1,1.1,0,0,1-.1-.5c0-.1,0-.1.1-.1h.3v-.4h-.4c0-.1-.1-.2-.1-.3a1,1,0,0,0-.6-.5h-.1c.1-.2,0-.3.1-.5h-.5v.4c0,.1,0,.1-.1.2h-.1a.8.8,0,0,0-.5.7c0,.1,0,.1-.1.1H345V62h.3v.5h-.2c-.1,0-.1,0-.1.1v.4h.2a7.6,7.6,0,0,1-.1,1.5,24.5,24.5,0,0,1-.2,2.7h-.4s-.1,0,0,.1v.3h3.7Zm-1.7-.2h-.4v-.8h.4v.7Zm.4-4.7h-1.2a1.1,1.1,0,0,0,.1-.5h1c.1,0,.1,0,.1.1v.5Z"/><path class="cls-4" d="M236.1,118.1a212.5,212.5,0,0,1,116.6-16.9q14.9,3.5,32.1,6a391.8,391.8,0,0,0,39.1,3.6,162.3,162.3,0,0,0,40.5-5.3,163.3,163.3,0,0,0,33.1-12.6,151.1,151.1,0,0,1-35.3,19A154,154,0,0,1,410.7,122c-3.7.2-9.1.4-15.6.2a192.2,192.2,0,0,1-28.3-3.4c-9.9-1.9-24.3-4.4-43.6-6.9a328.2,328.2,0,0,0-34.7-.4A311.2,311.2,0,0,0,236.1,118.1Z"/><path class="cls-5" d="M258.7,122.4a121.2,121.2,0,0,1,27.8-6,128.4,128.4,0,0,1,24-.1,97.5,97.5,0,0,1,26.9,7.8,99.2,99.2,0,0,1,16.3,9.4,185.2,185.2,0,0,0-32.1-8.1c-4.9-.8-9.7-1.4-14.1-1.7l-5.2-.5A401.9,401.9,0,0,0,258.7,122.4Z"/><path class="cls-1" d="M339.6,119.8a286.2,286.2,0,0,0,42.8,8.2,311.1,311.1,0,0,0,33.4,1.7,194.4,194.4,0,0,0,27.4-4.3,187.3,187.3,0,0,0,49.2-19.3,114.2,114.2,0,0,1-37.7,25.7,116.4,116.4,0,0,1-38.7,8.8,128.7,128.7,0,0,1-33.1-2.8A130.9,130.9,0,0,1,339.6,119.8Z"/></svg>