<svg xmlns="http://www.w3.org/2000/svg" viewBox="0 0 90.3 90.2"><defs><style>.cls-1{fill:#ee1d52;}.cls-1,.cls-2,.cls-3{fill-rule:evenodd;}.cls-3{fill:#69c9d0;}</style></defs><title>JKJKJJJUJ</title><g id="ELEMENTS"><path class="cls-1" d="M57.1,38.5a21.6,21.6,0,0,0,12.7,4.1V33.5a12.4,12.4,0,0,1-2.7-.3v7.2a21.6,21.6,0,0,1-12.7-4.1V55A17,17,0,0,1,28,69.1a17.2,17.2,0,0,0,12.1,5.1,17,17,0,0,0,17-17V38.5Zm3.3-9.2a12,12,0,0,1-3.3-7.5V20.7H54.5a12.9,12.9,0,0,0,5.9,8.6ZM33.9,61.9a8.1,8.1,0,0,1-1.6-4.7,7.7,7.7,0,0,1,7.8-7.7,8.5,8.5,0,0,1,2.3.3V40.5a11,11,0,0,0-2.6-.2v7.3a10,10,0,0,0-2.4-.4,7.8,7.8,0,0,0-3.5,14.7Z"/><path class="cls-2" d="M54.4,36.3a21.6,21.6,0,0,0,12.7,4.1V33.2a13,13,0,0,1-6.7-3.9,12.9,12.9,0,0,1-5.9-8.6H47.8V57.2a7.6,7.6,0,0,1-7.7,7.7,7.9,7.9,0,0,1-6.2-3,7.8,7.8,0,0,1,3.5-14.7,10,10,0,0,1,2.4.4V40.3A17,17,0,0,0,28,69.1,17,17,0,0,0,54.4,55Z"/><path class="cls-3" d="M67.1,33.2v-2a12.1,12.1,0,0,1-6.7-1.9A12.7,12.7,0,0,0,67.1,33.2ZM54.5,20.7c0-.4-.1-.7-.1-1.1V18.4H45.2V55a7.8,7.8,0,0,1-7.8,7.7,8.5,8.5,0,0,1-3.5-.8,7.9,7.9,0,0,0,6.2,3,7.6,7.6,0,0,0,7.7-7.7V20.7ZM39.8,40.3V38.2H37.4a16.9,16.9,0,0,0-9.4,31A17,17,0,0,1,39.8,40.3Z"/></g></svg>