<svg id="OBJECTS" xmlns="http://www.w3.org/2000/svg" viewBox="0 0 298.5 206.9"><defs><style>.cls-1{fill:#016e91;}.cls-2{fill:#595958;}.cls-3{fill:#ddeef2;}.cls-4{fill:#1ea8e0;}.cls-5{fill:#f9bf1f;}</style></defs><title>LOGO2</title><path class="cls-1" d="M42.2,177.3l-2.4,15.4H30.1L36.7,151a76.9,76.9,0,0,1,14-1.2h3.4a21.1,21.1,0,0,1,6,1.2,8,8,0,0,1,4,3.1,9.8,9.8,0,0,1,1.6,5.9,21.6,21.6,0,0,1-.3,3.5c-.8,4.6-2.4,8.1-5.1,10.2a13,13,0,0,1-6,2.9,33.4,33.4,0,0,1-7.6.8ZM45.3,158l-1.8,11.4,4.1.2a10.4,10.4,0,0,0,5.5-1.2q2.1-1.3,2.7-4.8a12.8,12.8,0,0,0,.1-1.8,3.7,3.7,0,0,0-1.4-3.2,9.9,9.9,0,0,0-4.9-.9A29,29,0,0,0,45.3,158Z"/><path class="cls-1" d="M65.9,180.7l3.2-20.5h9.1L75.1,180a9.8,9.8,0,0,0-.2,2.3,3,3,0,0,0,.9,2.5,6,6,0,0,0,3.5.8,11.3,11.3,0,0,0,3.9-.7,27.2,27.2,0,0,0,.9-4.3l3.2-20.4h9.1l-3.7,23.3a45.3,45.3,0,0,1-1.3,6.4,30.5,30.5,0,0,1-14.5,3.2,18.5,18.5,0,0,1-8-1.4,8.7,8.7,0,0,1-2.1-1.7,8.4,8.4,0,0,1-1.4-4.9A28.1,28.1,0,0,1,65.9,180.7Z"/><path class="cls-1" d="M118.4,184.7l-.3,7a44,44,0,0,1-11.2,1.4,11.3,11.3,0,0,1-7.1-2,10.8,10.8,0,0,1-1.8-2.4,12.8,12.8,0,0,1-1.3-6.3,38.9,38.9,0,0,1,.6-6.2c.3-1.7.5-3.1.8-4.3a22.9,22.9,0,0,1,2.8-6.6,11.4,11.4,0,0,1,5.1-4.1,20.7,20.7,0,0,1,8.1-1.4,26.6,26.6,0,0,1,8.8,1.4l-1.8,6.8-2.1-.5-1.8-.2-2-.2c-3-.1-5.1.6-6.4,2a5.5,5.5,0,0,0-1,1.7c-.3.7-.5,1.5-.8,2.3s-.3,1.7-.5,3.1a29.4,29.4,0,0,0-.5,4.7,6.2,6.2,0,0,0,.2,2.1,3,3,0,0,0,1.1,1.4,4.2,4.2,0,0,0,1.9.9l3.1.3A29.6,29.6,0,0,0,118.4,184.7Z"/><path class="cls-1" d="M122.3,180.7l3.3-20.5h9.1L131.6,180a9.8,9.8,0,0,0-.2,2.3,3,3,0,0,0,.9,2.5,5.8,5.8,0,0,0,3.4.8,11.5,11.5,0,0,0,4-.7,27.2,27.2,0,0,0,.9-4.3l3.2-20.4h9.1l-3.7,23.3c-.3,2.2-.8,4.3-1.3,6.4a30.5,30.5,0,0,1-14.5,3.2,18.5,18.5,0,0,1-8-1.4,7.1,7.1,0,0,1-2.1-1.7,8.4,8.4,0,0,1-1.4-4.9C121.9,183.9,122.1,182.5,122.3,180.7Z"/><path class="cls-1" d="M167.7,183.3a2.3,2.3,0,0,0-1.2-2.4l-2.4-.8-.6-.2-1.8-.6-1.7-.7-1.6-.9a8.3,8.3,0,0,1-2.5-2.4,8,8,0,0,1-.9-3.9,12.8,12.8,0,0,1,.1-1.9c1-6.5,5.4-9.7,13.1-9.7a54,54,0,0,1,6.1.3l5.7,1.2-1.9,6.7a37.1,37.1,0,0,0-8.1-1h-2.5l-1.2.2a3.7,3.7,0,0,0-1.4.7,1.9,1.9,0,0,0-.7,1.2,3.1,3.1,0,0,0,.1,1,4.3,4.3,0,0,0,.4.7l.9.6.9.4h.3l.5.2h.4l.8.3h.4l4.1,1.6a6.7,6.7,0,0,1,3.4,3.2,6.6,6.6,0,0,1,.7,3.2c0,.6-.1,1.4-.2,2.3a12,12,0,0,1-3.5,7,13.3,13.3,0,0,1-3.1,1.8,19.4,19.4,0,0,1-7.7,1.3,42.2,42.2,0,0,1-6-.4,46.3,46.3,0,0,1-5.4-1.1l1.9-6.9,4.5.7,4.2.3a16.3,16.3,0,0,0,3.6-.2A2.9,2.9,0,0,0,167.7,183.3Z"/><path class="cls-1" d="M208,170.5l-2.1,13c-.4,2.1-.8,4.2-1.3,6.4-3.8,2.1-8.7,3.2-14.7,3.2-3.8,0-6.6-.7-8.4-2s-2.7-3.3-2.7-6c0-.8.1-1.6.2-2.6a12.7,12.7,0,0,1,3.3-7.1,13.8,13.8,0,0,1,7.4-3.4,80.7,80.7,0,0,1,9.2-.7,4.9,4.9,0,0,0,.1-1.1,2.6,2.6,0,0,0-1-2.3,6.8,6.8,0,0,0-3.3-.7,87.4,87.4,0,0,0-11.5.9l.3-7a73.8,73.8,0,0,1,12.9-1.3,19.4,19.4,0,0,1,6.9,1c3.2,1.2,4.8,3.6,4.9,7.3C208.2,168.7,208.1,169.5,208,170.5ZM191.9,178a7.6,7.6,0,0,0-2,.8,5.2,5.2,0,0,0-1.9,3.6v.9a2.3,2.3,0,0,0,.9,2,5.6,5.6,0,0,0,3,.6,15.1,15.1,0,0,0,4.6-.6,36.5,36.5,0,0,0,.9-4.4l.6-3.5h-4.2Z"/><path class="cls-1" d="M221.1,172.3l-3.3,20.4h-9l3.6-23.3c.4-2.2.8-4.3,1.3-6.4a30.9,30.9,0,0,1,14.6-3.2c3.6,0,6.3.5,8.1,1.4a6.7,6.7,0,0,1,2,1.7,7.7,7.7,0,0,1,1.4,4.9,28.2,28.2,0,0,1-.4,4.4l-3.2,20.5h-9.1l3.1-19.8a11.1,11.1,0,0,0,.2-2.3,2.8,2.8,0,0,0-1-2.5c-.6-.5-1.7-.7-3.4-.8a12.5,12.5,0,0,0-4.1.7C221.6,169.3,221.3,170.8,221.1,172.3Z"/><path class="cls-1" d="M269.6,170.5l-2.1,13c-.3,2.1-.7,4.2-1.2,6.4-3.9,2.1-8.8,3.2-14.8,3.2-3.8,0-6.6-.7-8.3-2s-2.7-3.3-2.7-6c0-.8.1-1.6.2-2.6a13.4,13.4,0,0,1,3.2-7.1c1.7-1.7,4.2-2.8,7.5-3.4a80.7,80.7,0,0,1,9.2-.7c0-.5.1-.8.1-1.1a2.7,2.7,0,0,0-1.1-2.3,6.2,6.2,0,0,0-3.3-.7,88.7,88.7,0,0,0-11.5.9l.4-7a73.8,73.8,0,0,1,12.9-1.3,19.4,19.4,0,0,1,6.9,1c3.1,1.2,4.8,3.6,4.8,7.3C269.8,168.7,269.7,169.5,269.6,170.5ZM253.5,178a6.8,6.8,0,0,0-1.9.8c-1,.6-1.6,1.8-1.9,3.6a2.5,2.5,0,0,0-.1.9,2.1,2.1,0,0,0,1,2,5.5,5.5,0,0,0,2.9.6,14.7,14.7,0,0,0,4.6-.6,36.5,36.5,0,0,0,.9-4.4l.6-3.5h-4.1Z"/><path class="cls-2" d="M74.5,135H88.3l-.5,3.3H82.9l-2.7,17H76.1l2.7-17H74Z"/><path class="cls-2" d="M90.9,155.5a6.9,6.9,0,0,1-4.5-1.2c-.9-.8-1.3-2.1-1.3-3.9a24.8,24.8,0,0,1,1.2-6.6,8.2,8.2,0,0,1,1.5-2.4,7.2,7.2,0,0,1,2.4-1.4,9.6,9.6,0,0,1,3.2-.4c2.1,0,3.5.4,4.4,1.2a5,5,0,0,1,1.4,3.9c0,.8-.1,1.7-.2,2.8a21.4,21.4,0,0,1-1,3.7,6,6,0,0,1-1.6,2.4,4.3,4.3,0,0,1-2.3,1.4A9.3,9.3,0,0,1,90.9,155.5Zm-2-5.4a3,3,0,0,0,.5,1.8,3.1,3.1,0,0,0,1.9.5,3.4,3.4,0,0,0,2.2-.6l.7-.9a14.1,14.1,0,0,0,1-3.4c.1-1,.2-1.8.2-2.4a1.9,1.9,0,0,0-2.4-2.4,4,4,0,0,0-2,.4,3.3,3.3,0,0,0-1.1,1.4,20.4,20.4,0,0,0-.8,3C89,148.6,88.9,149.5,88.9,150.1Z"/><path class="cls-2" d="M110.8,139.9l1-6.1h3.8l-2.8,17.3a15,15,0,0,1-.6,2.9,9.8,9.8,0,0,1-3,1.1,12.4,12.4,0,0,1-3.3.4,11.4,11.4,0,0,1-2.8-.3,7.5,7.5,0,0,1-1.8-.8c-1.1-.8-1.6-2.2-1.6-4.1a14.1,14.1,0,0,1,.3-2.8,13.2,13.2,0,0,1,1-3.8,6,6,0,0,1,1.6-2.4,6.5,6.5,0,0,1,2.3-1.3,9.3,9.3,0,0,1,3.1-.4A13.3,13.3,0,0,1,110.8,139.9Zm-2.5,2.7a4,4,0,0,0-3.3,1.2,5.2,5.2,0,0,0-1,2.5c-.1.3-.1.7-.2,1.2a10.3,10.3,0,0,0-.2,2.2,3.1,3.1,0,0,0,.5,2,2.9,2.9,0,0,0,2.3.8,5.4,5.4,0,0,0,2.4-.5,10.1,10.1,0,0,0,.4-2l1.1-7A4.5,4.5,0,0,0,108.3,142.6Z"/><path class="cls-2" d="M121.1,155.5q-3.1,0-4.5-1.2c-.9-.8-1.3-2.1-1.3-3.9a15.7,15.7,0,0,1,.2-2.9,24.3,24.3,0,0,1,1-3.7,6.5,6.5,0,0,1,1.5-2.4,6.8,6.8,0,0,1,2.3-1.4,10.6,10.6,0,0,1,3.3-.4,6.6,6.6,0,0,1,4.4,1.2,5,5,0,0,1,1.4,3.9,15.8,15.8,0,0,1-.3,2.8,15.4,15.4,0,0,1-.9,3.7,6,6,0,0,1-1.6,2.4,4.3,4.3,0,0,1-2.3,1.4A10.2,10.2,0,0,1,121.1,155.5Zm-2-5.4a2.4,2.4,0,0,0,.5,1.8,3.1,3.1,0,0,0,1.9.5,3.6,3.6,0,0,0,2.2-.6l.7-.9a10.9,10.9,0,0,0,.9-3.4,12.9,12.9,0,0,0,.3-2.4,2.5,2.5,0,0,0-.6-1.9,2.9,2.9,0,0,0-1.9-.5,3.6,3.6,0,0,0-1.9.4,2.7,2.7,0,0,0-1.1,1.4,12.6,12.6,0,0,0-.8,3A13.8,13.8,0,0,0,119.1,150.1Z"/><path class="cls-2" d="M137.4,150.6a1.1,1.1,0,0,0-.6-1l-.8-.4h-.5l-.5-.2-.7-.2-.6-.2-.6-.3-.6-.3-.5-.4-.5-.5a4.7,4.7,0,0,1-.6-2c0-.3.1-.6.1-.9a4.8,4.8,0,0,1,2.2-3.6,7.6,7.6,0,0,1,4-.9H140l2.6.5-.8,2.8a18.2,18.2,0,0,0-3.8-.4h-1.7a2.3,2.3,0,0,0-1,.4,1.4,1.4,0,0,0-.5.8v.6l.3.5.4.3.6.2.6.2h.6l1.9.8a4.1,4.1,0,0,1,1.7,1.4,4.2,4.2,0,0,1,.4,1.6c0,.4-.1.7-.1,1.1a5.2,5.2,0,0,1-1.7,3.2,4.2,4.2,0,0,1-1.4.9,9.9,9.9,0,0,1-3.7.6l-2.7-.2-2.6-.5.9-2.9a15.6,15.6,0,0,0,4,.5h2.2l.4-.2.5-.4a1.4,1.4,0,0,0,.2-.7Z"/><path class="cls-2" d="M155.8,150.6a1.1,1.1,0,0,0-.6-1l-.8-.4h-.5l-.5-.2-.6-.2-.7-.2-.6-.3-.6-.3-.5-.4-.4-.5a3,3,0,0,1-.6-2v-.9a4.8,4.8,0,0,1,2.2-3.6,7.9,7.9,0,0,1,4-.9h2.8l2.6.5-.8,2.8a18.2,18.2,0,0,0-3.8-.4h-1.7l-1,.4a2.2,2.2,0,0,0-.5.8,1.3,1.3,0,0,0,.1.6c0,.2.1.3.2.5l.5.3.5.2.6.2h.6l1.9.8a4.1,4.1,0,0,1,1.7,1.4,4.2,4.2,0,0,1,.4,1.6c0,.4-.1.7-.1,1.1a5.2,5.2,0,0,1-1.7,3.2,3.4,3.4,0,0,1-1.4.9,9.7,9.7,0,0,1-3.6.6l-2.8-.2-2.6-.5.9-2.9a16.1,16.1,0,0,0,4,.5h2.2l.4-.2.5-.4a1.4,1.4,0,0,0,.2-.7A.4.4,0,0,0,155.8,150.6Z"/><path class="cls-2" d="M166.8,155.5a6.6,6.6,0,0,1-4.4-1.2,5,5,0,0,1-1.4-3.9,24.8,24.8,0,0,1,1.2-6.6,6.7,6.7,0,0,1,1.6-2.4,5.9,5.9,0,0,1,2.3-1.4,10,10,0,0,1,3.2-.4,6.9,6.9,0,0,1,4.5,1.2c.9.8,1.3,2.1,1.3,3.9s-.1,1.7-.2,2.8a21.4,21.4,0,0,1-1,3.7,7,7,0,0,1-1.5,2.4,4.6,4.6,0,0,1-2.3,1.4A10.4,10.4,0,0,1,166.8,155.5Zm-2-5.4a3,3,0,0,0,.5,1.8,3.1,3.1,0,0,0,1.9.5,3.4,3.4,0,0,0,2.2-.6l.8-.9a14.7,14.7,0,0,0,.9-3.4c.1-1,.2-1.8.2-2.4a1.9,1.9,0,0,0-2.4-2.4,3.4,3.4,0,0,0-1.9.4,2.8,2.8,0,0,0-1.2,1.4,13.3,13.3,0,0,0-.7,3A15.8,15.8,0,0,0,164.8,150.1Z"/><path class="cls-2" d="M197.5,145.4l-1.5,9.9h-3.8l1.5-9.5a5.7,5.7,0,0,0,.1-1.2,2.1,2.1,0,0,0-.5-1.5,2.5,2.5,0,0,0-1.7-.4,4.8,4.8,0,0,0-2.3.5c.1,0,.1.2.1.4a11,11,0,0,1-.2,1.8l-1.6,9.9h-3.7l1.5-9.5c0-.5.1-.8.1-1.2a2.3,2.3,0,0,0-.5-1.5,2.7,2.7,0,0,0-1.7-.4h-1l-1,.3c-.1.6-.3,1.3-.4,2.1l-1.6,10.1h-3.8l1.8-11.3.6-3a14.1,14.1,0,0,1,3.1-1,14.7,14.7,0,0,1,3.6-.4,5.6,5.6,0,0,1,3.5.9,13.6,13.6,0,0,1,4.8-.9,6,6,0,0,1,3.3.7,2,2,0,0,1,.9.9,3.7,3.7,0,0,1,.6,2.3A15.4,15.4,0,0,1,197.5,145.4Z"/><path class="cls-2" d="M204.6,155.5a6.6,6.6,0,0,1-4.4-1.2,5,5,0,0,1-1.4-3.9,16.8,16.8,0,0,1,.3-2.9,16.4,16.4,0,0,1,1-3.7,6.5,6.5,0,0,1,1.5-2.4,6.8,6.8,0,0,1,2.3-1.4,10.6,10.6,0,0,1,3.3-.4,6.6,6.6,0,0,1,4.4,1.2,5,5,0,0,1,1.4,3.9,15.8,15.8,0,0,1-.3,2.8,15.4,15.4,0,0,1-.9,3.7,6,6,0,0,1-1.6,2.4,4.3,4.3,0,0,1-2.3,1.4A10.4,10.4,0,0,1,204.6,155.5Zm-2-5.4a2.4,2.4,0,0,0,.6,1.8,3.1,3.1,0,0,0,1.9.5,3.6,3.6,0,0,0,2.2-.6l.7-.9a10.9,10.9,0,0,0,.9-3.4,12.9,12.9,0,0,0,.3-2.4,2.5,2.5,0,0,0-.6-1.9,2.9,2.9,0,0,0-1.9-.5,3.6,3.6,0,0,0-1.9.4,2.3,2.3,0,0,0-1.1,1.4,12.6,12.6,0,0,0-.8,3A15.8,15.8,0,0,0,202.6,150.1Z"/><path class="cls-2" d="M220.9,150.6a1,1,0,0,0-.5-1l-.8-.4h-.5l-.5-.2-.7-.2-.6-.2-.7-.3-.5-.3-.5-.4-.5-.5a4.7,4.7,0,0,1-.6-2c0-.3.1-.6.1-.9a4.8,4.8,0,0,1,2.2-3.6,7.5,7.5,0,0,1,3.9-.9h2.9l2.6.5-.8,2.8a18.2,18.2,0,0,0-3.8-.4h-1.7a2.3,2.3,0,0,0-1,.4,1.4,1.4,0,0,0-.5.8v.6l.3.5.4.3.6.2.6.2h.6l1.9.8a2.8,2.8,0,0,1,2,3v1.1a5.2,5.2,0,0,1-1.7,3.2,4.2,4.2,0,0,1-1.4.9,9.9,9.9,0,0,1-3.7.6l-2.7-.2-2.6-.5.8-2.9a16.8,16.8,0,0,0,4.1.5h2.2l.4-.2.5-.4a1.4,1.4,0,0,0,.2-.7Z"/><path class="cls-3" d="M241,99.6a85.9,85.9,0,0,0-171.7,0c0,1.2.1,2.5.1,3.7l104.3.5,1.8,1.9,36.7.8,6.2-2.4,17.6-1.5c.1-1.6,5-1.4,5-3"/><path class="cls-1" d="M224,90c-6.3-2.3-7.2-8.8-9.2-11.5s-5.5-4.6-8.1-4.1a6.7,6.7,0,0,0-3.8,1.8l-3.3-2c-1.7-.9-4.6-2.5-7.5-3.7s-8.7-2-11.7-3.6-1.7-2.2-9.6-5.6a23.7,23.7,0,0,0-7.9-1.9V55.1H165v-.9h-2.1V52.4H162v1.8h-2.1v.9H162v4.3c-3.7-.1-6.4.9-7.6,1.9s-3.4,2.3-7,1.3-7.5.5-9,.9-1,1-6.3.5h0c0-.1,0-.1-.1-.1h-.4v-.5c0-.5-.1-.9-.1-1.4a4.9,4.9,0,0,0-.1-1.2V60h.2v-.3h-.3V59h.3v-.3h-.4v-.3a.7.7,0,0,0-.6-.4h0v-.4h-.4v.3c0,.1,0,.1-.2.2h0c-.3.2-.5.4-.5.7s0,.1-.1,0h-.2a.1.1,0,0,0-.1.1v.3c0,.1,0,.1.1.1h.2v.5h-.2a.1.1,0,0,0-.1.1h0v.2h.2c.1,0,.1,0,.1.1a5.7,5.7,0,0,0-.1,1.3c-.1.9-.1,1.7-.2,2.6h-.4c-.1,0-.1,0-.1.1h0a16.6,16.6,0,0,0-8.3,2.9,38.9,38.9,0,0,0-6.2,4.8,40.8,40.8,0,0,1-8.3,6.2c-3.2,2-5.9,6.3-5.9,6.3-6.3-1-7.3-.1-9.5.6s-5,6.2-6.6,7.9-3.7,1.4-4.8,3.4-2.1,2.6-4.7,3.6,4.2,2.3,4.2,2.3l127.7,5.1,26.4-5.1C232.3,99,226.4,90.8,224,90ZM130.2,63.9v-.8h.4v.8h-.4Zm-.3-4.9h1v.5h-1.1A.9.9,0,0,1,129.9,59Z"/><path class="cls-4" d="M28.7,110.7a197.4,197.4,0,0,1,42-13.6,195.3,195.3,0,0,1,65.5-2c9.1,2.1,19,4,29.6,5.5,13,1.9,25.1,2.9,36.1,3.4a153.5,153.5,0,0,0,37.3-5,151.6,151.6,0,0,0,30.6-11.6A145.1,145.1,0,0,1,237.3,105a142.2,142.2,0,0,1-47.6,9.2c-3.4.2-8.4.4-14.4.2a158.3,158.3,0,0,1-26-3.1c-9.2-1.7-22.5-4-40.3-6.3a277.3,277.3,0,0,0-31.9-.4,279.5,279.5,0,0,0-48.4,6.1"/><path class="cls-5" d="M49.5,114.6a113.1,113.1,0,0,1,25.7-5.5,115.8,115.8,0,0,1,22.1,0,85.9,85.9,0,0,1,24.8,7.1,78.3,78.3,0,0,1,15,8.7,170,170,0,0,0-29.6-7.5,124.5,124.5,0,0,0-13-1.6l-4.7-.4a343,343,0,0,0-40.3-.8"/><path class="cls-1" d="M124.2,112.2a259.4,259.4,0,0,0,39.5,7.6,260.8,260.8,0,0,0,30.7,1.5,176.1,176.1,0,0,0,25.3-3.9,170.2,170.2,0,0,0,45.4-17.8,104.7,104.7,0,0,1-34.8,23.7,105.6,105.6,0,0,1-35.7,8.1,116.5,116.5,0,0,1-30.5-2.6,116.8,116.8,0,0,1-39.9-16.6"/></svg>