<svg xmlns="http://www.w3.org/2000/svg" viewBox="0 0 90.3 90.2"><defs><style>.cls-1{fill:#3cf;}</style></defs><title>JHJH</title><g id="ELEMENTS"><path class="cls-1" d="M67.6,35.2a19.4,19.4,0,0,1-4.3,1.2c.7-.1,1.7-1.4,2.1-1.9a9.7,9.7,0,0,0,1.5-2.6v-.3h-.3a22.3,22.3,0,0,1-5.1,1.9c-.2.1-.3,0-.4-.1l-.4-.4a7.3,7.3,0,0,0-2.5-1.5,10.4,10.4,0,0,0-3.9-.7A9.4,9.4,0,0,0,50.7,32a8.3,8.3,0,0,0-2.9,2.4A7.8,7.8,0,0,0,46,37.9a9.2,9.2,0,0,0-.1,3.7c.1.2,0,.2-.2.2-7-1.1-12.9-3.6-17.7-9-.2-.3-.3-.3-.5,0-2,3.1-1,8.1,1.6,10.6l1.1.9a7,7,0,0,1-3.4-.9c-.3-.1-.4-.1-.4.2a3.8,3.8,0,0,0,.1,1,9.1,9.1,0,0,0,5.6,7.2l1.1.4a14.3,14.3,0,0,1-3.3.1q-.4-.1-.3.3c1.5,4,4.7,5.2,7.1,5.9h.9c-.8,1.2-3.6,2.1-4.9,2.5a16.4,16.4,0,0,1-7.3.9h-.5c-.1.1-.1.2.1.3l1.5.9a29.6,29.6,0,0,0,4.9,2c8.8,2.4,18.6.6,25.2-5.9s7-12.3,7-19.4c0-.2.3-.4.5-.5a19.8,19.8,0,0,0,3.5-3.6,1.2,1.2,0,0,0,.2-.7h0C67.8,35,67.8,35.1,67.6,35.2Z"/></g></svg>