<svg id="Layer_1" data-name="Layer 1" xmlns="http://www.w3.org/2000/svg" viewBox="0 0 140.9 133.9"><defs><style>.cls-1{fill:#fff;}.cls-2{fill:#f9f9f9;}.cls-3{fill:#b5b5b5;}.cls-4{fill:#57457f;opacity:0.1;}.cls-5{fill:#ff9700;}.cls-6{opacity:0.7;}.cls-7{fill:#383e46;}.cls-8{fill:#cddb38;}</style></defs><title>icono_planeamiento</title><rect class="cls-1" x="20.9" y="13.7" width="88.9" height="106.2"/><path class="cls-2" d="M109.7,13.7v94.8c0,6.3-4.3,11.5-9.7,11.5H65V13.7Z"/><rect class="cls-3" x="36.4" y="94.5" width="58.4" height="5.17"/><rect class="cls-3" x="36.4" y="82.7" width="58.4" height="5.17"/><rect class="cls-3" x="36.4" y="35.2" width="58.4" height="5.17"/><rect class="cls-3" x="36.4" y="106.3" width="58.4" height="5.17"/><rect class="cls-4" x="29.3" y="13.7" width="74.3" height="17.53"/><rect class="cls-5" x="29.3" y="6" width="72" height="22.41"/><g class="cls-6"><path class="cls-7" d="M44.6,17.2a3.9,3.9,0,1,1-3.9-3.8A3.8,3.8,0,0,1,44.6,17.2Z"/><path class="cls-7" d="M60.9,17.2a3.8,3.8,0,1,1-3.8-3.8A3.8,3.8,0,0,1,60.9,17.2Z"/><path class="cls-7" d="M77.3,17.2a3.8,3.8,0,1,1-3.8-3.8A3.8,3.8,0,0,1,77.3,17.2Z"/><path class="cls-7" d="M93.7,17.2a3.9,3.9,0,1,1-3.9-3.8A3.8,3.8,0,0,1,93.7,17.2Z"/></g><circle class="cls-1" cx="93.7" cy="104.7" r="21.7" transform="translate(-29.7 171.8) rotate(-76.7)"/><path class="cls-8" d="M108.7,84.3A25.3,25.3,0,1,0,119,104.7,25.2,25.2,0,0,0,108.7,84.3Zm-15,39.3a19,19,0,1,1,18.9-18.9A19,19,0,0,1,93.7,123.6Z"/><path class="cls-8" d="M97.7,112.5a5.9,5.9,0,0,1-3.8,1.1,5.3,5.3,0,0,1-3.7-1.2,6,6,0,0,1-1.9-3.7l-5,.4a9.8,9.8,0,0,0,3.1,6.6,9.6,9.6,0,0,0,4.8,2v3.4h5v-3.3a13.6,13.6,0,0,0,3.2-.8,7.2,7.2,0,0,0,3.5-2.9,7.3,7.3,0,0,0,1.2-4.1,7.6,7.6,0,0,0-1-4.1,8.1,8.1,0,0,0-2.9-2.6,27,27,0,0,0-5.5-1.8,16.1,16.1,0,0,1-4.8-1.7,2.1,2.1,0,0,1-.8-1.6,1.9,1.9,0,0,1,.9-1.6,5.8,5.8,0,0,1,3.5-.9,5.2,5.2,0,0,1,3.3.9,4.4,4.4,0,0,1,1.4,2.8l5.2-.2a7.5,7.5,0,0,0-2.6-5.6,8.9,8.9,0,0,0-4.6-2V88.3h-5v3.3l-2.7.7a7.5,7.5,0,0,0-3.2,2.6,7.2,7.2,0,0,0-1.1,3.7,6.5,6.5,0,0,0,2.4,5.1,13.7,13.7,0,0,0,5.8,2.6l4.1,1.1a4.8,4.8,0,0,1,1.9,1.1,2.5,2.5,0,0,1,.5,1.5A3.2,3.2,0,0,1,97.7,112.5Z"/><g id="stats"><path class="cls-8" d="M55.6,47.4a17.1,17.1,0,0,1,13.1-2.6l-3.8,17,17.2,2.9A17.2,17.2,0,1,1,55.6,47.4Z"/><path class="cls-5" d="M71.6,42.8a17.1,17.1,0,0,1,10.8,7.3,17.5,17.5,0,0,1,2.7,12.7L67.9,59.9Z"/></g></svg>