<svg id="Layer_1" data-name="Layer 1" xmlns="http://www.w3.org/2000/svg" viewBox="0 0 140.9 133.9"><defs><style>.cls-1{fill:#454f56;}.cls-2{fill:none;stroke-linecap:round;stroke-linejoin:round;stroke-width:3px;}.cls-2,.cls-3{stroke:#454f56;}.cls-3{fill:#fff;stroke-miterlimit:10;}</style></defs><title>icono-usuario</title><path class="cls-1" d="M73.9,101.2l1-2.9-3-2.9a16.2,16.2,0,0,0-.3-5.4l2.8-3.2L73.1,84H68.9a15.4,15.4,0,0,0-4-3.6l-.3-4.3-2.9-1-2.9,3.1a14,14,0,0,0-5.4.2l-3.2-2.8L47.4,77v4.2a15.2,15.2,0,0,0-3.6,4l-4.2.3-1.1,2.9,3,2.9a16.2,16.2,0,0,0,.3,5.4l-2.8,3.2,1.3,2.8h4.2a15.7,15.7,0,0,0,4,3.7l.3,4.2,2.9,1,2.9-3a14.6,14.6,0,0,0,5.5-.2l3.1,2.7,2.8-1.3v-4.2a15.7,15.7,0,0,0,3.7-4ZM54,100.9a8,8,0,1,1,10.3-4.8A8,8,0,0,1,54,100.9Z"/><path class="cls-1" d="M93.2,71.5V69l-3.1-1.3a13.4,13.4,0,0,0-1.6-3.9l1.2-3.1L88,59l-3.2,1.2a10.4,10.4,0,0,0-3.9-1.6l-1.3-3.1H77.1l-1.3,3.1a11.1,11.1,0,0,0-3.9,1.6L68.8,59l-1.7,1.7,1.2,3.1a13.6,13.6,0,0,0-1.7,3.9l-3,1.4v2.4l3,1.3a11,11,0,0,0,1.7,4l-1.2,3.1,1.7,1.7,3.1-1.2a13.6,13.6,0,0,0,3.9,1.7l1.4,3h2.4L80.9,82a10.9,10.9,0,0,0,4-1.6L88,81.6l1.7-1.7-1.2-3.1a10.9,10.9,0,0,0,1.6-4ZM78.4,76.6a6.3,6.3,0,1,1,6.3-6.3A6.3,6.3,0,0,1,78.4,76.6Z"/><path class="cls-1" d="M99.3,101l.8-2-2.2-2a9.2,9.2,0,0,0-.2-3.7l1.9-2.2-.9-1.9h-3A9.3,9.3,0,0,0,93,86.8l-.2-2.9-2.1-.7-2,2.2a8.8,8.8,0,0,0-3.6.2l-2.2-1.9-2,.9v2.9a10.8,10.8,0,0,0-2.4,2.8l-2.9.2-.7,2,2.1,2a9.2,9.2,0,0,0,.2,3.7l-1.9,2.2,1,1.9h2.8a9.9,9.9,0,0,0,2.9,2.5l.2,2.9,2,.7,1.9-2.1A12,12,0,0,0,90,106l2.2,1.8,1.9-.9V104a9.7,9.7,0,0,0,2.5-2.8Zm-13.6,0a5.5,5.5,0,1,1,7-3.4A5.5,5.5,0,0,1,85.7,101Z"/><path class="cls-2" d="M102.5,94.9h3.2a18.8,18.8,0,1,0,0-37.5h-.1a14.8,14.8,0,0,0,.1-2.1,21.6,21.6,0,0,0-43.2-1.8,8.7,8.7,0,0,0-2.8-.5,8.5,8.5,0,0,0-8.6,8.6c0,.5.1,1,.1,1.4a16,16,0,0,0-7.9-2.1A16.2,16.2,0,0,0,28.1,71.8a12.8,12.8,0,0,0-7-2.1,12.6,12.6,0,0,0,0,25.2H37.5"/><rect class="cls-3" x="114.2" y="36.2" width="13.8" height="12.62" rx="1.8"/><rect class="cls-3" x="114.8" y="38.5" width="12.6" height="9.88" rx="1.7"/><path class="cls-3" d="M118.2,37V33.6a2.9,2.9,0,0,1,5.8,0V37c0,1,2.1,1.1,2.1,0V33.3a5,5,0,0,0-10,0V37C116.1,37.6,118.2,37.9,118.2,37Z"/><path class="cls-3" d="M122.8,42.3a1.6,1.6,0,0,0-3.2,0,1.5,1.5,0,0,0,.9,1.4l-.4,2.3h2.2l-.4-2.3A1.6,1.6,0,0,0,122.8,42.3Z"/><path class="cls-3" d="M41.8,46a7.1,7.1,0,1,1-7.1-7.1A7.1,7.1,0,0,1,41.8,46Z"/><path class="cls-3" d="M41,46a6.3,6.3,0,1,1-6.3-6.3A6.3,6.3,0,0,1,41,46Z"/><path class="cls-3" d="M35.5,45.1c-.1.2-.6,1-.8.9s0-.9.1-1.2,1.8-4,2-3.9A32.5,32.5,0,0,1,35.5,45.1Z"/><path class="cls-3" d="M35.6,46.4c-.2,0-.9-.2-.9-.4s.6-.4.9-.4a15.8,15.8,0,0,1,3.2.3A15.3,15.3,0,0,1,35.6,46.4Z"/><line class="cls-3" x1="34.6" y1="40.5" x2="34.6" y2="41.2"/><line class="cls-3" x1="34.6" y1="50.8" x2="34.6" y2="51.5"/><line class="cls-3" x1="40.1" y1="46" x2="39.4" y2="46"/><line class="cls-3" x1="29.8" y1="46" x2="29.1" y2="46"/><path class="cls-3" d="M35.2,46a.6.6,0,0,1-.5.6.6.6,0,0,1-.6-.6.6.6,0,0,1,.6-.5A.5.5,0,0,1,35.2,46Z"/></svg>