<svg id="Layer_1" data-name="Layer 1" xmlns="http://www.w3.org/2000/svg" viewBox="0 0 140.9 133.9"><defs><style>.cls-1{fill:#3c3c3b;}</style></defs><title>icono_durbano</title><polygon class="cls-1" points="81.1 95.1 78.3 96.4 78.3 99.4 81.1 98.1 81.1 95.1"/><polygon class="cls-1" points="81.1 88.7 78.3 90 78.3 92.9 81.1 91.6 81.1 88.7"/><polygon class="cls-1" points="81.1 101.5 78.3 102.9 78.3 105.8 81.1 104.5 81.1 101.5"/><polygon class="cls-1" points="78.3 118.6 81.1 117.3 81.1 114.4 78.3 115.7 78.3 118.6"/><polygon class="cls-1" points="81.1 82.3 78.3 83.6 78.3 86.5 81.1 85.2 81.1 82.3"/><polygon class="cls-1" points="81.1 108 78.3 109.3 78.3 112.2 81.1 110.9 81.1 108"/><polygon class="cls-1" points="81.1 43.8 78.3 45.1 78.3 48 81.1 46.7 81.1 43.8"/><polygon class="cls-1" points="81.1 37.4 78.3 38.7 78.3 41.6 81.1 40.3 81.1 37.4"/><polygon class="cls-1" points="81.1 50.2 78.3 51.5 78.3 54.4 81.1 53.1 81.1 50.2"/><polygon class="cls-1" points="81.1 63 78.3 64.3 78.3 67.3 81.1 66 81.1 63"/><polygon class="cls-1" points="81.1 56.6 78.3 57.9 78.3 60.8 81.1 59.5 81.1 56.6"/><polygon class="cls-1" points="81.1 69.5 78.3 70.8 78.3 73.7 81.1 72.4 81.1 69.5"/><polygon class="cls-1" points="81.1 75.9 78.3 77.2 78.3 80.1 81.1 78.8 81.1 75.9"/><polygon class="cls-1" points="76.8 97.1 73.6 98.6 73.6 101.6 76.8 100.1 76.8 97.1"/><polygon class="cls-1" points="76.8 84.3 73.6 85.8 73.6 88.7 76.8 87.2 76.8 84.3"/><polygon class="cls-1" points="76.8 90.7 73.6 92.2 73.6 95.1 76.8 93.6 76.8 90.7"/><polygon class="cls-1" points="76.8 77.9 73.6 79.4 73.6 82.3 76.8 80.8 76.8 77.9"/><polygon class="cls-1" points="73.6 120.8 76.8 119.3 76.8 116.4 73.6 117.9 73.6 120.8"/><polygon class="cls-1" points="76.8 110 73.6 111.5 73.6 114.4 76.8 112.9 76.8 110"/><polygon class="cls-1" points="76.8 103.5 73.6 105 73.6 108 76.8 106.5 76.8 103.5"/><polygon class="cls-1" points="76.8 71.5 73.6 73 73.6 75.9 76.8 74.4 76.8 71.5"/><polygon class="cls-1" points="76.8 45.8 73.6 47.3 73.6 50.2 76.8 48.7 76.8 45.8"/><polygon class="cls-1" points="76.8 39.4 73.6 40.9 73.6 43.8 76.8 42.3 76.8 39.4"/><polygon class="cls-1" points="76.8 65 73.6 66.5 73.6 69.5 76.8 68 76.8 65"/><polygon class="cls-1" points="76.8 52.2 73.6 53.7 73.6 56.6 76.8 55.1 76.8 52.2"/><polygon class="cls-1" points="76.8 58.6 73.6 60.1 73.6 63 76.8 61.5 76.8 58.6"/><polygon class="cls-1" points="66.1 91.3 62.6 89.6 62.6 93.3 66.1 95 66.1 91.3"/><polygon class="cls-1" points="66.1 83.2 62.6 81.5 62.6 85.2 66.1 86.9 66.1 83.2"/><polygon class="cls-1" points="66.1 99.4 62.6 97.7 62.6 101.4 66.1 103.1 66.1 99.4"/><polygon class="cls-1" points="62.6 117.6 66.1 119.3 66.1 115.6 62.6 114 62.6 117.6"/><polygon class="cls-1" points="66.1 75.1 62.6 73.4 62.6 77.1 66.1 78.7 66.1 75.1"/><polygon class="cls-1" points="66.1 107.5 62.6 105.8 62.6 109.5 66.1 111.2 66.1 107.5"/><polygon class="cls-1" points="66.1 26.4 62.6 24.7 62.6 28.4 66.1 30.1 66.1 26.4"/><polygon class="cls-1" points="66.1 18.3 62.6 16.6 62.6 20.3 66.1 22 66.1 18.3"/><polygon class="cls-1" points="66.1 34.5 62.6 32.9 62.6 36.5 66.1 38.2 66.1 34.5"/><polygon class="cls-1" points="66.1 50.7 62.6 49.1 62.6 52.8 66.1 54.4 66.1 50.7"/><polygon class="cls-1" points="66.1 42.6 62.6 41 62.6 44.7 66.1 46.3 66.1 42.6"/><polygon class="cls-1" points="66.1 58.8 62.6 57.2 62.6 60.9 66.1 62.5 66.1 58.8"/><polygon class="cls-1" points="66.1 66.9 62.6 65.3 62.6 69 66.1 70.6 66.1 66.9"/><polygon class="cls-1" points="72 94 68 92.1 68 95.8 72 97.7 72 94"/><polygon class="cls-1" points="72 77.8 68 75.9 68 79.6 72 81.5 72 77.8"/><polygon class="cls-1" points="72 85.9 68 84 68 87.7 72 89.6 72 85.9"/><polygon class="cls-1" points="72 69.7 68 67.8 68 71.5 72 73.4 72 69.7"/><polygon class="cls-1" points="68 120.2 72 122.1 72 118.4 68 116.5 68 120.2"/><polygon class="cls-1" points="72 110.3 68 108.4 68 112.1 72 114 72 110.3"/><polygon class="cls-1" points="72 102.2 68 100.3 68 104 72 105.8 72 102.2"/><polygon class="cls-1" points="72 61.6 68 59.7 68 63.4 72 65.3 72 61.6"/><polygon class="cls-1" points="72 29.2 68 27.3 68 31 72 32.9 72 29.2"/><polygon class="cls-1" points="72 21.1 68 19.2 68 22.9 72 24.7 72 21.1"/><polygon class="cls-1" points="72 53.5 68 51.6 68 55.3 72 57.2 72 53.5"/><polygon class="cls-1" points="72 37.3 68 35.4 68 39.1 72 41 72 37.3"/><polygon class="cls-1" points="72 45.4 68 43.5 68 47.2 72 49.1 72 45.4"/><path class="cls-1" d="M102.6,38.8V48a45.5,45.5,0,1,1-66.8,0V38.8a52.2,52.2,0,1,0,85.6,40A51.7,51.7,0,0,0,102.6,38.8Z"/><path class="cls-1" d="M83.7,32.5v86.8A46.4,46.4,0,0,0,94,114.4V66.1L99.7,110l1.3-1.3V38.6L83.6,27.4,72.8,38.7Z"/><path class="cls-1" d="M46.3,53v62.5a45.1,45.1,0,0,0,12.9,5.1V10.5l13.9,7.8L59.4,4l-22,14.2v90.5a18.5,18.5,0,0,1,1.4,1.4Z"/></svg>