<svg id="Layer_1" data-name="Layer 1" xmlns="http://www.w3.org/2000/svg" viewBox="0 0 140.9 133.9"><defs><style>.cls-1{fill:#ec5725;}.cls-2{fill:#22b0ed;}.cls-3{fill:#e91422;}.cls-4{fill:#f6c233;}.cls-5{fill:#43b453;}</style></defs><title>icono_desarrollo_social</title><path class="cls-1" d="M89.3,43.4a21.8,21.8,0,0,0-5.1-13.7A18.7,18.7,0,0,0,81,26.6a4.9,4.9,0,0,0-.6-1.7A8.6,8.6,0,0,1,66.2,22L65,23.3a12.1,12.1,0,0,0-2.5.8A19.9,19.9,0,0,0,56,28.4a22.3,22.3,0,0,0-6.2,13.2h0v.7h0A2.1,2.1,0,0,0,51,44h1.2L53,44a1.9,1.9,0,0,0,1.2-1.1h0a2.9,2.9,0,0,1,.2-.9h0a15.3,15.3,0,0,1,8.9-11.2c0,7.3.9,23.7,5.2,23.9s9.4-13,11.6-20.9a15.8,15.8,0,0,1,4.6,9.5v.5a2.3,2.3,0,0,0,1,1.6.1.1,0,0,1,.1.1l.9.2h1.2l.6-.4a1.9,1.9,0,0,0,.8-1.6Z"/><circle class="cls-1" cx="74.2" cy="19" r="6.6" transform="translate(22.9 75.9) rotate(-62.3)"/><path class="cls-2" d="M49,43.8a22.8,22.8,0,0,0-14.6.6,28.2,28.2,0,0,0-3.8,2.1H28.7a8.1,8.1,0,0,1,.5,7,8.4,8.4,0,0,1-7.6,5.5,8,8,0,0,0,.8,1.6v2.6a20.2,20.2,0,0,0,2.2,7.5,21.9,21.9,0,0,0,10.6,10h0l.6.3h0a2.3,2.3,0,0,0,2-.7,2.1,2.1,0,0,0,.4-.6l.2-.5a1.9,1.9,0,0,0,.1-.8,2.6,2.6,0,0,0-.7-1.5h0l-.9-.4h0a15.4,15.4,0,0,1-7.8-12c6.9,2.3,22.8,6.5,24.3,2.5s-9.5-13-16.2-17.5a15.4,15.4,0,0,1,10.4-1.5l.4.2a2.2,2.2,0,0,0,1.9-.5H50a1.6,1.6,0,0,0,.4-.7l.2-.4a2.2,2.2,0,0,0,.1-.8,1.7,1.7,0,0,0-.1-.7,2,2,0,0,0-1.3-1.2Z"/><circle class="cls-2" cx="21.2" cy="50.6" r="6.6" transform="translate(-33 42) rotate(-58.2)"/><path class="cls-3" d="M37.1,82.2a22.3,22.3,0,0,0-4,14.1,20.4,20.4,0,0,0,.8,4.3,12.1,12.1,0,0,0-.5,1.8,8.2,8.2,0,0,1,6.8,1.7,8.5,8.5,0,0,1,2.9,9l1.8-.4a10.4,10.4,0,0,0,2.5.8,17.1,17.1,0,0,0,7.8.3,21.3,21.3,0,0,0,12.8-7h0l.4-.5h0a2,2,0,0,0,0-2,1.8,1.8,0,0,0-.5-.7l-.4-.2-.7-.4a1.8,1.8,0,0,0-1.6.2h0a2.3,2.3,0,0,0-.7.7h0a15.4,15.4,0,0,1-13.8,3.7c4.2-5.8,13.2-19.6,9.8-22.3s-15.2,5-21.6,10A15,15,0,0,1,40.7,85l.3-.5a1.9,1.9,0,0,0,.1-1.8v-.2l-.6-.6-.3-.3-.7-.4c-.3,0-.5-.1-.7,0a2.1,2.1,0,0,0-1.6.8C37.2,82.1,37.1,82.1,37.1,82.2Z"/><circle class="cls-3" cx="34.9" cy="110.8" r="6.6" transform="translate(-7.8 2.8) rotate(-4.1)"/><path class="cls-4" d="M69.9,105.5A21.9,21.9,0,0,0,82,113.6a16.7,16.7,0,0,0,4.4.6l1.5,1a8.8,8.8,0,0,1,3.7-6,8.6,8.6,0,0,1,9.5.1,11,11,0,0,0,.2-1.8,13.7,13.7,0,0,0,1.5-2.1,18.8,18.8,0,0,0,2.7-7.4,21.8,21.8,0,0,0-2.7-14.3h0l-.3-.6h0a2.3,2.3,0,0,0-2-.6.9.9,0,0,0-.7.3l-.4.2-.6.6a2.3,2.3,0,0,0-.3,1.6h0l.4.9h0a15.1,15.1,0,0,1-.7,14.3C94,94.5,83.6,81.7,80,84.1s.1,16.1,2.9,23.7a15.7,15.7,0,0,1-9.3-4.9l-.3-.4a1.9,1.9,0,0,0-1.7-.7h-.2a1.3,1.3,0,0,0-.8.3l-.4.2-.5.6a.9.9,0,0,0-.3.6,1.9,1.9,0,0,0,.3,1.8Z"/><circle class="cls-4" cx="96.3" cy="116.4" r="6.6" transform="translate(-48.9 157.7) rotate(-66.3)"/><path class="cls-5" d="M102.1,81.5a22.2,22.2,0,0,0,11.5-9.1,20.9,20.9,0,0,0,1.9-4l1.5-1.1a8.3,8.3,0,0,1-4.6-5.4,8.5,8.5,0,0,1,3-8.9,6,6,0,0,0-1.6-.8l-1.6-2.1a19.1,19.1,0,0,0-6.1-4.8,21.9,21.9,0,0,0-14.5-1.9h0l-.6.2h0A1.9,1.9,0,0,0,89.8,46v.5a2.5,2.5,0,0,0,.4.7,2.9,2.9,0,0,0,1.4.8h0l1-.2h0A15.3,15.3,0,0,1,106,52.9c-6.8,2.2-22.2,8.2-21.1,12.3s15.3,4.9,23.4,4.6a14.8,14.8,0,0,1-7.5,7.3l-.5.2a2.1,2.1,0,0,0-1.2,1.4v.2c-.1.2,0,.5,0,.8l.2.4a1.3,1.3,0,0,0,.3.8l.5.4a1.9,1.9,0,0,0,1.8.2Z"/><circle class="cls-5" cx="120.7" cy="59.7" r="6.6" transform="translate(-10.7 30.4) rotate(-13.8)"/></svg>