<svg id="Layer_1" data-name="Layer 1" xmlns="http://www.w3.org/2000/svg" viewBox="0 0 140.9 133.9"><defs><style>.cls-1{fill:#c5cdcb;}.cls-2{fill:#fff;}.cls-3{fill:#103754;}.cls-4{fill:#155984;}.cls-5{fill:#f3ac1e;}.cls-6{fill:#de3f18;}.cls-7{fill:#fc6120;}.cls-8{fill:#f1941f;}.cls-9{fill:#2eafb7;}.cls-10{fill:#36d2df;}</style></defs><title>icono_administracion_tributaria</title><path class="cls-1" d="M123,28a5,5,0,0,1,5,5V94.7H21.3V33a5,5,0,0,1,5-5Z"/><path class="cls-2" d="M94.6,14.7H38v80h73.3V31.3Z"/><rect class="cls-3" x="58" y="108" width="33.3" height="13.33"/><path class="cls-4" d="M21.3,94.7V103a5,5,0,0,0,5,5H123a5,5,0,0,0,5-5V94.7Z"/><rect class="cls-4" x="44.6" y="118" width="60" height="3.33"/><path class="cls-2" d="M76.7,101.3a2.1,2.1,0,0,1-2.1,2.1,2,2,0,0,1-2-2.1,2,2,0,0,1,2-2A2,2,0,0,1,76.7,101.3Z"/><polygon class="cls-5" points="111.3 31.3 94.6 14.7 94.6 31.3 111.3 31.3"/><rect class="cls-4" x="63.4" y="30.1" width="22.5" height="2.5"/><rect class="cls-4" x="72.7" y="38.4" width="13.2" height="2.5"/><rect class="cls-4" x="91.7" y="38.4" width="10.8" height="2.5"/><rect class="cls-4" x="63.4" y="46.8" width="39.2" height="2.5"/><rect class="cls-4" x="72.7" y="21.7" width="13.2" height="2.5"/><path class="cls-4" d="M51.7,34.2c-3.4,0-4.1-1.9-4.1-3.6a3.9,3.9,0,0,1,4.1-3.7,4.3,4.3,0,0,1,3.9,2.4,1.2,1.2,0,1,0,2.3-.9A6.4,6.4,0,0,0,53,24.6V23a1.3,1.3,0,0,0-1.3-1.3A1.2,1.2,0,0,0,50.5,23v1.6a6.2,6.2,0,0,0-5.4,6c0,3,1.7,6.1,6.6,6.1,3.4,0,4.2,2,4.2,3.7a4,4,0,0,1-4.2,3.7,4.3,4.3,0,0,1-3.9-2.4,1.1,1.1,0,0,0-1.6-.7,1.4,1.4,0,0,0-.7,1.6,6.6,6.6,0,0,0,5,3.8V48a1.2,1.2,0,0,0,1.2,1.2A1.2,1.2,0,0,0,53,48V46.4a6.3,6.3,0,0,0,5.4-6C58.4,37.4,56.6,34.2,51.7,34.2Z"/><rect class="cls-6" x="89.6" y="69.7" width="13.3" height="25"/><rect class="cls-7" x="89.6" y="56.3" width="13.3" height="13.33"/><rect class="cls-8" x="68" y="84.7" width="13.3" height="10"/><rect class="cls-5" x="68" y="74.7" width="13.3" height="10"/><rect class="cls-9" x="46.3" y="76.3" width="13.3" height="18.33"/><rect class="cls-10" x="46.3" y="61.3" width="13.3" height="15"/><path class="cls-7" d="M68.9,23a3,3,0,1,1-3-2.9A2.9,2.9,0,0,1,68.9,23Z"/><path class="cls-8" d="M68.9,39.7a3,3,0,0,1-5.9,0,3,3,0,1,1,5.9,0Z"/><rect class="cls-2" x="28.4" y="51.7" width="2.5" height="8.2"/><rect class="cls-2" x="28.4" y="66.5" width="2.5" height="18.47"/><rect class="cls-2" x="118.4" y="61.8" width="2.5" height="8.2"/><rect class="cls-2" x="118.4" y="40" width="2.5" height="15.14"/></svg>