<svg id="Layer_1" data-name="Layer 1" xmlns="http://www.w3.org/2000/svg" viewBox="0 0 140.9 133.9"><defs><style>.cls-1{fill:#8ad145;}.cls-2{fill:#666;}</style></defs><title>icono_ambiental</title><path class="cls-1" d="M100.8,78.7c-17.7,2.4-28.2,7.2-34.4,12.5a28.7,28.7,0,0,1,3.5,10.6c10.2-10.2,15.3-10,15.3-10a85.8,85.8,0,0,0-15,13.7A33.6,33.6,0,0,1,68.3,118l-.8,2.2c.4.6,1.6,2.8,1.6,2.8C84.6,122.4,100.8,78.7,100.8,78.7Z"/><path class="cls-2" d="M115.5,35.7a5.2,5.2,0,0,0-1.8-2.1A54.3,54.3,0,0,0,72.7,15h0A54.3,54.3,0,0,0,31.6,33.7,4.9,4.9,0,0,0,30,35.6,54.6,54.6,0,0,0,18.1,67.9c13.1.5,23.8,2.7,32.3,6.5a5.2,5.2,0,0,0,1.8-1.8H69.7V83.2a55.5,55.5,0,0,1,6-2.9V72.6h18a4.6,4.6,0,0,0,1.7,1.7.9.9,0,0,0-.1.5l4.8-.8,2.1-.3a5.2,5.2,0,0,0,1-1.1h13.5a5.7,5.7,0,0,0,4.2,2.6A47.8,47.8,0,0,1,113,96.5a5.1,5.1,0,0,0-2.5-.6,5.3,5.3,0,0,0-3,.9c-2.7-1-5.5-1.8-8.2-2.6l-3.1,6.2a6,6,0,0,0,.8-.8c2.7.6,5.3,1.4,7.9,2.2a4.9,4.9,0,0,0,1.1,3.1,49.4,49.4,0,0,1-19.5,11.2,43.6,43.6,0,0,1-7.6,7.8A54.9,54.9,0,0,0,113,106.6a6.3,6.3,0,0,0,2.9-3.5,54.8,54.8,0,0,0-.4-67.4ZM44.1,65.2a6.7,6.7,0,0,0-1.4,1.5H28.5a5.5,5.5,0,0,0-4-2.6A48.4,48.4,0,0,1,32.2,43a5.3,5.3,0,0,0,2.8.7,5.8,5.8,0,0,0,3.4-1.1c3.1,1.1,6.2,2.1,9.4,2.9a3.6,3.6,0,0,0,.4.9A64.6,64.6,0,0,0,44.1,65.2ZM40.6,37.4a5.9,5.9,0,0,0-1.3-2.9A48.4,48.4,0,0,1,62.5,22.2,84,84,0,0,0,51.7,38.3a6.1,6.1,0,0,0-2.6,1.5A63.2,63.2,0,0,1,40.6,37.4ZM69.7,66.7H52.2a4.5,4.5,0,0,0-2.1-2,66.9,66.9,0,0,1,3-15.3h0a5.7,5.7,0,0,0,4.3-2,102.2,102.2,0,0,0,12.3,1.1Zm0-24.1c-3.8-.2-7.6-.5-11.4-1A5.3,5.3,0,0,0,57,39.7,79.3,79.3,0,0,1,67.7,23.1a6.4,6.4,0,0,0,2,2.3Zm6-17.2a5,5,0,0,0,2-2.3A78.2,78.2,0,0,1,88.6,40a3.8,3.8,0,0,0-.9,1.5c-4,.6-8,.9-12,1.1Zm18,41.3h-18V48.5a92.3,92.3,0,0,0,12.8-1.2,5.5,5.5,0,0,0,3.8,2,66.4,66.4,0,0,1,3.1,15.6A5.8,5.8,0,0,0,93.7,66.7Zm0-28.5a80.4,80.4,0,0,0-10.8-16,49.2,49.2,0,0,1,23.3,12.3,5.1,5.1,0,0,0-1.3,2.9,76.6,76.6,0,0,1-8.2,2.3A5.4,5.4,0,0,0,93.7,38.2Zm23,28.5H103.2a5.8,5.8,0,0,0-1.9-1.9,70.7,70.7,0,0,0-3.8-17.9,7.7,7.7,0,0,0,.7-1.6,91.3,91.3,0,0,0,8.9-2.7,5.5,5.5,0,0,0,3.4,1.1,5,5,0,0,0,2.7-.7,48,48,0,0,1,7.7,21A5.6,5.6,0,0,0,116.7,66.7Z"/><path class="cls-1" d="M29.6,86.2s20.5.7,36.7,31c0,0,17-44.8-55.6-44.8,0,0,14.9,70.1,56.6,51.6C67.3,124,51.4,99,29.6,86.2Z"/></svg>