<svg id="Layer_1" data-name="Layer 1" xmlns="http://www.w3.org/2000/svg" viewBox="0 0 140.9 133.9"><defs><style>.cls-1{fill:#c93;}.cls-1,.cls-2{fill-rule:evenodd;}.cls-2{fill:#244065;}</style></defs><title>icono_juridica</title><path class="cls-1" d="M57,121.1a45.4,45.4,0,0,0,5.1.9l-2.7,2.3a54.1,54.1,0,0,1-5.5-1.2Z"/><path class="cls-1" d="M62.2,121.5a45.4,45.4,0,0,1-5.1-.9l-1.6-3.2,4.7,1.1Z"/><path class="cls-1" d="M50.3,119.1l5,1.6-3,1.9c-1.8-.6-3.5-1.2-5.3-2Z"/><path class="cls-1" d="M55.5,120.2l-5-1.6-1.2-3.4,4.6,1.7Z"/><path class="cls-1" d="M44,116.2a40.2,40.2,0,0,0,4.7,2.2l-3.2,1.5a39.8,39.8,0,0,1-5-2.6Z"/><path class="cls-1" d="M49,118a52.4,52.4,0,0,1-4.8-2.3l-.7-3.5a45,45,0,0,0,4.3,2.3Z"/><path class="cls-1" d="M38.1,112.5l4.4,2.9-3.4,1a47.3,47.3,0,0,1-4.6-3.2Z"/><path class="cls-1" d="M42.8,114.9a40.8,40.8,0,0,1-4.4-2.8l-.3-3.6c1.3,1,2.6,2,4,2.9Z"/><path class="cls-1" d="M32.7,108.1l4,3.4-3.5.6a48.6,48.6,0,0,1-4.1-3.8Z"/><path class="cls-1" d="M37.1,111.1a42.3,42.3,0,0,1-4-3.4l.2-3.6a38.9,38.9,0,0,0,3.6,3.4Z"/><path class="cls-1" d="M28,103a44,44,0,0,0,3.5,3.9l-3.5.2a48.2,48.2,0,0,1-3.6-4.3Z"/><path class="cls-1" d="M31.9,106.6a44,44,0,0,1-3.5-3.9l.7-3.5a27.6,27.6,0,0,0,3.1,3.7Z"/><path class="cls-1" d="M23.9,97.4l3,4.3-3.5-.3a38.8,38.8,0,0,1-3-4.8Z"/><path class="cls-1" d="M27.4,101.4a41.5,41.5,0,0,1-3-4.3l1.1-3.4c.8,1.4,1.7,2.8,2.6,4.1Z"/><path class="cls-1" d="M20.7,91.3a40.2,40.2,0,0,0,2.4,4.6l-3.5-.7q-1.4-2.5-2.4-5.1Z"/><path class="cls-1" d="M23.5,95.7c-.8-1.5-1.6-3.1-2.3-4.7l1.5-3.2c.6,1.5,1.3,3,2,4.4Z"/><path class="cls-1" d="M18.2,84.7a42.4,42.4,0,0,0,1.8,5l-3.4-1.2A48.1,48.1,0,0,1,15,83.1Z"/><path class="cls-1" d="M20.5,89.5a40.9,40.9,0,0,1-1.8-4.9l2-3c.4,1.6.9,3.2,1.4,4.7Z"/><path class="cls-1" d="M16.6,78c.3,1.7.7,3.4,1.1,5.1l-3.1-1.6c-.4-1.8-.7-3.7-1-5.6Z"/><path class="cls-1" d="M18.3,83a41.9,41.9,0,0,1-1.1-5.1l2.3-2.7c.2,1.6.5,3.2.8,4.8Z"/><path class="cls-1" d="M16,71.1a45.5,45.5,0,0,0,.4,5.2l-2.9-2a52.5,52.5,0,0,1-.3-5.6Z"/><path class="cls-1" d="M16.9,76.3a45.5,45.5,0,0,1-.4-5.2l2.6-2.4c0,1.6.1,3.2.2,4.8Z"/><path class="cls-1" d="M16.2,64.1a47.1,47.1,0,0,0-.3,5.3L13.3,67a52.9,52.9,0,0,1,.5-5.6Z"/><path class="cls-1" d="M16.5,69.4a45.2,45.2,0,0,1,.2-5.2l3-2a39.1,39.1,0,0,0-.5,4.8Z"/><path class="cls-1" d="M17.3,57.3a45.4,45.4,0,0,0-.9,5.1l-2.3-2.7c.3-1.8.7-3.6,1.2-5.5Z"/><path class="cls-1" d="M16.9,62.6a43.4,43.4,0,0,1,.9-5.2L21,55.8c-.4,1.6-.8,3.1-1.1,4.7Z"/><path class="cls-1" d="M19.3,50.6c-.6,1.7-1.1,3.4-1.6,5l-1.9-3a54.4,54.4,0,0,1,1.9-5.2Z"/><path class="cls-1" d="M18.2,55.8c.5-1.7,1-3.3,1.6-5l3.4-1.2a42.8,42.8,0,0,0-1.7,4.6Z"/><path class="cls-1" d="M22.2,44.3A50.8,50.8,0,0,0,19.9,49l-1.5-3.2c.8-1.7,1.7-3.3,2.6-5Z"/><path class="cls-1" d="M20.4,49.3c.7-1.6,1.4-3.2,2.2-4.7l3.5-.8a43.7,43.7,0,0,0-2.2,4.3Z"/><path class="cls-1" d="M25.8,38.4c-1,1.4-1.9,2.9-2.8,4.4l-1.1-3.4a48.4,48.4,0,0,1,3.3-4.6Z"/><path class="cls-1" d="M23.4,43.1a41.7,41.7,0,0,1,2.9-4.4l3.5-.3c-1,1.3-1.9,2.6-2.8,4Z"/><path class="cls-1" d="M30.2,33c-1.2,1.3-2.3,2.6-3.4,4l-.6-3.5c1.2-1.4,2.5-2.8,3.8-4.1Z"/><path class="cls-1" d="M27.2,37.4c1.1-1.4,2.2-2.7,3.4-4l3.6.2a36.1,36.1,0,0,0-3.3,3.5Z"/><path class="cls-1" d="M35.3,28.3a44,44,0,0,0-3.9,3.5l-.2-3.6c1.4-1.2,2.8-2.4,4.4-3.6Z"/><path class="cls-1" d="M31.7,32.2l3.9-3.5,3.5.6-3.7,3.1Z"/><path class="cls-1" d="M40.9,24.2a41.5,41.5,0,0,0-4.3,3l.3-3.6,4.8-3Z"/><path class="cls-1" d="M36.9,27.6l4.3-3,3.4,1.1-4.1,2.6Z"/><path class="cls-1" d="M47,20.9a40.2,40.2,0,0,0-4.6,2.4l.7-3.5,5.1-2.3Z"/><path class="cls-1" d="M42.6,23.8a41.6,41.6,0,0,1,4.7-2.4l3.2,1.5A35.5,35.5,0,0,0,46.1,25Z"/><path class="cls-1" d="M53.5,18.4l-4.9,1.8,1.2-3.3a42.6,42.6,0,0,1,5.4-1.7Z"/><path class="cls-1" d="M48.8,20.7,53.7,19l3,1.9L52,22.3Z"/><polygon class="cls-1" points="61.5 16.8 57.9 15.7 55.2 18.2 58.8 19.4 61.5 16.8"/><path class="cls-2" d="M85.7,21a1.5,1.5,0,0,1-1.3.2l-4.2-1.1a1.8,1.8,0,0,1-1.1-.8L77.3,19a3.2,3.2,0,0,0,2.4,2.7L84,22.8a3.3,3.3,0,0,0,3.4-1Zm-.4-3a1.6,1.6,0,0,1,1,.8l1.9.7a3.3,3.3,0,0,0-2.5-3.1l-4.2-1.2a3.5,3.5,0,0,0-3.8,1.5l2.1.3a1.6,1.6,0,0,1,1.2-.2Zm12.4,9a1.5,1.5,0,0,1-1.3-.2l-3.8-2.2a1.4,1.4,0,0,1-.7-1l-1.8-.7a3.4,3.4,0,0,0,1.7,3.2l3.8,2.2a3.3,3.3,0,0,0,3.6-.2Zm.4-3.1a1.9,1.9,0,0,1,.8,1l1.6,1.3A3.2,3.2,0,0,0,99,22.5l-3.8-2.2a3.5,3.5,0,0,0-4.1.5l2,.8a1.7,1.7,0,0,1,1.2.1Zm9.7,12a2.1,2.1,0,0,1-1.2-.5l-3.1-3.1a2.1,2.1,0,0,1-.5-1.2l-1.4-1.2a3.2,3.2,0,0,0,.7,3.5l3.1,3.2a3.4,3.4,0,0,0,3.6.7ZM109,33a1.7,1.7,0,0,1,.5,1.2l1.2,1.6a3.2,3.2,0,0,0-.5-4l-3.1-3.1a3.4,3.4,0,0,0-4-.6l1.6,1.3a1.8,1.8,0,0,1,1.2.5Zm6.3,14a1.6,1.6,0,0,1-1-.8l-2.2-3.8a1.3,1.3,0,0,1-.2-1.2l-1.1-1.5a3.2,3.2,0,0,0-.2,3.6l2.2,3.8a3.2,3.2,0,0,0,3.2,1.6Zm1.9-2.4a1.7,1.7,0,0,1,.1,1.2l.8,1.9a3.3,3.3,0,0,0,.5-4l-2.2-3.8a3.4,3.4,0,0,0-3.7-1.6L114,40a1.9,1.9,0,0,1,1,.8Zm2.4,15.1a1.4,1.4,0,0,1-.8-1l-1.1-4.2a1.5,1.5,0,0,1,.1-1.3l-.7-1.7a3.5,3.5,0,0,0-1.1,3.4l1.2,4.3a3.2,3.2,0,0,0,2.6,2.4Zm2.4-1.8a1.3,1.3,0,0,1-.1,1.2l.2,2.1a3.4,3.4,0,0,0,1.6-3.8l-1.2-4.2a3.3,3.3,0,0,0-3.2-2.5l.8,1.9a1.6,1.6,0,0,1,.8,1Zm-1.5,15.3A2.1,2.1,0,0,1,120,72V67.6a1.7,1.7,0,0,1,.5-1.2l-.3-1.9a3.5,3.5,0,0,0-1.9,3.1V72a3.4,3.4,0,0,0,1.9,3Zm2.8-1.2a1.6,1.6,0,0,1-.5,1.1l-.2,2.1A3.3,3.3,0,0,0,125,72V67.6a3.4,3.4,0,0,0-2.4-3.3l.2,2.1a1.7,1.7,0,0,1,.5,1.2Zm-5.5,14.3a1.4,1.4,0,0,1-.1-1.3l1.1-4.2a1.6,1.6,0,0,1,.8-1l.2-1.9a3.5,3.5,0,0,0-2.6,2.5L116,84.6a3.5,3.5,0,0,0,1.1,3.4Zm3.1-.4a1.4,1.4,0,0,1-.8,1l-.8,1.9a3.3,3.3,0,0,0,3.2-2.5l1.2-4.2a3.2,3.2,0,0,0-1.6-3.7l-.2,2a1.5,1.5,0,0,1,.1,1.3Zm-9,12.5a1.5,1.5,0,0,1,.2-1.3l2.2-3.8a1.6,1.6,0,0,1,1-.8l.7-1.7a3.4,3.4,0,0,0-3.2,1.6l-2.2,3.8a3.2,3.2,0,0,0,.2,3.6Zm3.1.4a1.7,1.7,0,0,1-1,.7l-1.3,1.7a3.4,3.4,0,0,0,3.7-1.6l2.2-3.8a3.3,3.3,0,0,0-.5-4l-.8,1.9a2,2,0,0,1-.1,1.3Zm-12,9.7a1.7,1.7,0,0,1,.5-1.2l3.1-3.1a1.6,1.6,0,0,1,1.2-.5l1.2-1.5a3.5,3.5,0,0,0-3.6.8l-3.1,3.1a3.2,3.2,0,0,0-.7,3.5Zm2.9,1.1a1.5,1.5,0,0,1-1.2.5l-1.6,1.3a3.4,3.4,0,0,0,4-.6l3.1-3.1a3.2,3.2,0,0,0,.5-4l-1.2,1.7a1.6,1.6,0,0,1-.5,1.1Zm-14,6.3a1.4,1.4,0,0,1,.7-1l3.8-2.2a2,2,0,0,1,1.3-.2l1.5-1.1a3.6,3.6,0,0,0-3.6-.2l-3.8,2.2a3.4,3.4,0,0,0-1.7,3.2Zm2.4,1.9a1.7,1.7,0,0,1-1.2.2l-2,.8a3.6,3.6,0,0,0,4.1.5l3.8-2.2a3.4,3.4,0,0,0,1.5-3.8l-1.6,1.3a1.6,1.6,0,0,1-.8,1Zm-15.2,2.4a3.1,3.1,0,0,1,1.1-.8l4.2-1.1a1.9,1.9,0,0,1,1.3.2l1.7-.7a3.1,3.1,0,0,0-3.4-1.1l-4.3,1.1a3.3,3.3,0,0,0-2.4,2.7Zm1.9,2.5a1.6,1.6,0,0,1-1.2-.2l-2.1.3a3.5,3.5,0,0,0,3.8,1.5l4.2-1.1a3.4,3.4,0,0,0,2.5-3.2l-1.9.8a1.8,1.8,0,0,1-1,.7Z"/><path class="cls-2" d="M81.5,121.1h0a1,1,0,0,1-.8,1l-4.6.6V121l4.4-.6a.9.9,0,0,1,1,.7"/><path class="cls-2" d="M94.3,116.2h0a.8.8,0,0,1-.4,1.1l-8.7,3.6a1,1,0,0,1-1.1-.5.8.8,0,0,1,.5-1.1l8.6-3.6a.8.8,0,0,1,1.1.5"/><path class="cls-2" d="M105.5,108.1h0a.7.7,0,0,1-.2,1.1L97.9,115a.9.9,0,0,1-1.2-.2.8.8,0,0,1,.2-1.2l7.4-5.7a.8.8,0,0,1,1.2.2"/><path class="cls-2" d="M114.2,97.3h0a.9.9,0,0,1,.1,1.2l-5.7,7.5a.9.9,0,0,1-1.2.1h0a.8.8,0,0,1-.1-1.1l5.7-7.5a.9.9,0,0,1,1.2-.2"/><path class="cls-2" d="M119.8,84.7h0a.8.8,0,0,1,.4,1.1l-3.6,8.7a.8.8,0,0,1-1.1.5h0a.8.8,0,0,1-.4-1.1l3.6-8.7a.9.9,0,0,1,1.1-.5"/><path class="cls-2" d="M121.9,71.1h0a.8.8,0,0,1,.7,1l-1.2,9.3a.8.8,0,0,1-.9.7h0a.9.9,0,0,1-.8-.9l1.3-9.3a.9.9,0,0,1,.9-.8"/><path class="cls-2" d="M120.5,57.4h0c.4,0,.9.3.9.7l1.2,9.4a.8.8,0,0,1-.7.9h0a.8.8,0,0,1-.9-.7l-1.3-9.3a1,1,0,0,1,.8-1"/><path class="cls-2" d="M115.5,44.5h0a.9.9,0,0,1,1.1.5l3.6,8.7a.8.8,0,0,1-.4,1.1h0a.8.8,0,0,1-1.1-.5l-3.6-8.7a.8.8,0,0,1,.4-1.1"/><path class="cls-2" d="M107.4,33.4h0a.8.8,0,0,1,1.2.2l5.7,7.4a.9.9,0,0,1-.1,1.2h0A.8.8,0,0,1,113,42l-5.7-7.4a.9.9,0,0,1,.1-1.2"/><path class="cls-2" d="M96.7,24.7h0a.9.9,0,0,1,1.2-.1l7.4,5.7a.8.8,0,0,1,.2,1.2h0a.9.9,0,0,1-1.2.1l-7.4-5.7a.8.8,0,0,1-.2-1.2"/><path class="cls-2" d="M84.1,19.1h0a.8.8,0,0,1,1.1-.4l8.7,3.6a.8.8,0,0,1,.4,1.1h0a.8.8,0,0,1-1.1.4l-8.6-3.6a.8.8,0,0,1-.5-1.1"/><path class="cls-2" d="M76.1,16.9l4.6.6a.9.9,0,0,1,.8.9.8.8,0,0,1-1,.7l-4.4-.5Z"/><path class="cls-2" d="M69.1,25.8a44,44,0,1,1-43.9,44,44,44,0,0,1,43.9-44m0-2.4A46.4,46.4,0,1,1,22.7,69.8,46.3,46.3,0,0,1,69.1,23.4Z"/><path class="cls-2" d="M69.1,10.2A59.6,59.6,0,1,1,9.5,69.8,59.6,59.6,0,0,1,69.1,10.2m0-3.3A62.9,62.9,0,1,1,6.2,69.8,62.9,62.9,0,0,1,69.1,6.9Z"/><path class="cls-2" d="M89.4,98v2.2H48.8V98Zm-2.2-4.4v2.2H72.4V48.4l2.3,1.2v44ZM51.1,95.8V93.6H63.6v-44l2.2-1.2V95.8ZM94,63l-5.5,9.4H99.4ZM53.6,74.6H35l8.2-14.2V56.3l25.9-15,26,15v4.1l8.1,14.2H84.7l8.1-14.2V57.6L69.1,43.9,45.4,57.6v2.8ZM44.3,63l5.4,9.4H38.8ZM69.1,38.8,97.3,55v4.9l2.2,3.8v-10L69.1,36.2,38.8,53.7v10L41,59.9V55Zm15.8,38a9.3,9.3,0,0,0,18.1,0Zm3.5,2.3H99.5a7.2,7.2,0,0,1-11.1,0ZM35.3,76.8a9.3,9.3,0,0,0,18,0Zm3.5,2.3h11a7.1,7.1,0,0,1-11,0Zm31.4-32V95.8H68V47.1l1.1-.7Z"/></svg>