<svg id="Layer_1" data-name="Layer 1" xmlns="http://www.w3.org/2000/svg" xmlns:xlink="http://www.w3.org/1999/xlink" viewBox="0 0 140.9 133.9"><defs><style>.cls-1{fill:none;}.cls-2{fill:#9ca1af;}.cls-3{fill:#3d415b;}.cls-4{fill:#d0d5e2;}.cls-5{fill:#2b2e3d;}.cls-6{fill:#878aa0;}.cls-7{fill:#525575;}.cls-8{fill:#fff;}.cls-9{fill:#40c6c2;}.cls-10{fill:#000107;opacity:0.2;}.cls-11{fill:#83869b;}.cls-12{fill:url(#linear-gradient);}.cls-13{fill:#686b71;}.cls-14{fill:#e0e0e0;}.cls-15{fill:#6c6f76;}.cls-16{isolation:isolate;}.cls-17{clip-path:url(#clip-path);}.cls-18{clip-path:url(#clip-path-2);}.cls-19{fill:#898d95;}.cls-20{fill:#858891;}.cls-21{fill:#81848c;}.cls-22{fill:#8e919a;}.cls-23{clip-path:url(#clip-path-3);}.cls-24{fill:#9699a3;}.cls-25{fill:#7d8088;}.cls-26{fill:#a6aab5;}.cls-27{fill:#767880;}.cls-28{fill:#7f828a;}.cls-29{fill:#9ea1ab;}.cls-30{fill:#c2c4c6;}.cls-31{clip-path:url(#clip-path-4);}.cls-32{clip-path:url(#clip-path-5);}.cls-33{clip-path:url(#clip-path-6);}</style><linearGradient id="linear-gradient" x1="37.77" y1="-3220.79" x2="68" y2="-3220.79" gradientTransform="matrix(1, -0.59, 0, 1, 0, 3305.32)" gradientUnits="userSpaceOnUse"><stop offset="0" stop-color="#ffac06"/><stop offset="1" stop-color="#f25227"/></linearGradient><clipPath id="clip-path"><path class="cls-1" d="M108.6,81.2l-4.7-2.8-.4-.3,4.7,2.8Z"/></clipPath><clipPath id="clip-path-2"><path class="cls-1" d="M119.5,51.5l4.7,2.7-.5-.2-4.8-2.8Z"/></clipPath><clipPath id="clip-path-3"><path class="cls-1" d="M109,76.6l-4.7-2.8a6.1,6.1,0,0,1-.7-1.4l4.8,2.7A5.2,5.2,0,0,0,109,76.6Z"/></clipPath><clipPath id="clip-path-4"><path class="cls-1" d="M89.9,67.4l-6.2-3.7-.6-.4L89.3,67Z"/></clipPath><clipPath id="clip-path-5"><path class="cls-1" d="M104.2,28.2l6.2,3.6-.6-.3-6.3-3.6Z"/></clipPath><clipPath id="clip-path-6"><path class="cls-1" d="M90.4,61.3l-6.2-3.6a6.6,6.6,0,0,1-.9-1.9l6.3,3.6A8.4,8.4,0,0,0,90.4,61.3Z"/></clipPath></defs><title>icono_sistemas</title><polygon class="cls-2" points="52 87.9 72.6 76 72.6 79 52 91 52 87.9"/><polygon class="cls-3" points="52 88 42.7 81.2 42.7 84.3 52 91 52 88"/><polygon class="cls-4" points="52 88 72.6 76 60.5 70.8 42.7 81.2 52 88"/><path class="cls-5" d="M80.1,7.6V58.1a3.2,3.2,0,0,1-1.6,2.7L23.7,95.1c-1.3.7-4.7-1.6-4.7-3.1V42.5a3.6,3.6,0,0,1,.2-1.1,3.5,3.5,0,0,1,1.6-2l57-33.1A1.5,1.5,0,0,1,80.1,7.6Z"/><path class="cls-6" d="M82.3,7.9,76.8,21.7,46.7,54.3,19.2,41.4a3.5,3.5,0,0,1,1.6-2l57-33.1C79.3,5.4,82.3,6.8,82.3,7.9Z"/><path class="cls-7" d="M80.3,7.4,23.2,40.6a3.6,3.6,0,0,0-1.7,3V93.1a1.9,1.9,0,0,0,2.9,1.7L81,61.9a3,3,0,0,0,1.6-2.7V8.7A1.5,1.5,0,0,0,80.3,7.4Z"/><polygon class="cls-8" points="81.1 59 23 92.9 23 44 81.1 10.2 81.1 59"/><polygon class="cls-9" points="23 44 81.1 10.2 81.1 15.2 23 49 23 44"/><path class="cls-10" d="M116.9,97.7,66.7,127a2.8,2.8,0,0,1-2.8,0L43.2,114.4a1.1,1.1,0,0,1,0-1.9L93.7,83a2.5,2.5,0,0,1,2.4,0l20.8,12.6A1.2,1.2,0,0,1,116.9,97.7Z"/><path class="cls-11" d="M116.9,93,66.7,122.4a2.8,2.8,0,0,1-2.8-.1L43.2,109.8c-.8-.4-1-3.9-.2-4.4L93.7,78.3a2.3,2.3,0,0,1,2.4.1l21.1,10.2C117.9,89,117.7,92.6,116.9,93Z"/><path class="cls-7" d="M116.9,90.4,66.7,119.8a2.8,2.8,0,0,1-2.8,0L43.2,107.2a1.1,1.1,0,0,1,0-1.9L93.7,75.8a2.1,2.1,0,0,1,2.4,0l20.8,12.6A1.1,1.1,0,0,1,116.9,90.4Z"/><path class="cls-3" d="M55.3,102.9l-1.7-1h-.2L51.6,103c-.1,0-.1.1,0,.1l1.7,1c.1.1.1.1.2,0l1.8-1C55.4,103.1,55.4,103,55.3,102.9Z"/><path class="cls-3" d="M56.2,102.4h.3l1.8-1v-.2l-1.7-1c-.1-.1-.2-.1-.2,0l-1.9,1v.2Z"/><path class="cls-3" d="M59.2,100.7h.2l1.8-1c.1-.1.1-.2,0-.2l-1.7-1h-.2l-1.8,1c-.1,0-.1.1,0,.2Z"/><path class="cls-3" d="M62.1,99h.2l1.8-1.1c.1,0,.1-.1,0-.1l-1.7-1.1h-.1l-1.9,1.1h0Z"/><path class="cls-3" d="M65.1,97.3h.2l1.8-1.1c.1,0,.1-.1,0-.2l-1.7-1h-.2l-1.8,1.1c-.1,0-.1.1,0,.1Z"/><path class="cls-3" d="M68,95.5h.2l1.8-1c.1-.1.1-.1,0-.2l-1.7-1h-.2l-1.8,1c0,.1-.1.2,0,.2Z"/><path class="cls-3" d="M70.9,93.8h.3l1.8-1v-.2l-1.7-1h-.2l-1.8,1c-.1.1-.1.1,0,.2Z"/><path class="cls-3" d="M73.9,92.1h.2L75.9,91c.1,0,.1-.1,0-.1l-1.7-1.1H74l-1.8,1.1c-.1,0-.1.1,0,.2Z"/><path class="cls-3" d="M76.8,90.4h.3l1.8-1.1v-.2l-1.7-1H77l-1.9,1.1h0Z"/><path class="cls-3" d="M79.8,88.6c0,.1.1.1.2,0l1.8-1c.1,0,.1-.1,0-.2l-1.7-1h-.2l-1.8,1.1c-.1,0-.1.1,0,.1Z"/><path class="cls-3" d="M82.7,86.9h.2l1.8-1c.1-.1.1-.2,0-.2l-1.7-1c0-.1-.1-.1-.1,0l-1.9,1v.2Z"/><path class="cls-3" d="M85.7,85.2h.2l1.8-1.1c.1,0,.1-.1,0-.1L86,82.9h-.2L84,84c-.1,0-.1.1,0,.2Z"/><path class="cls-3" d="M88.6,83.5h.2l1.8-1.1c.1,0,.1-.1,0-.2l-1.7-1h-.2l-1.8,1.1s-.1.1,0,.1Z"/><path class="cls-3" d="M91.5,81.7h.3l1.8-1v-.2l-1.7-1h-.2l-1.8,1.1c-.1,0-.1.1,0,.1Z"/><path class="cls-3" d="M58.7,105,57,103.9h-.2L55,105c-.1,0-.1.1,0,.2l1.7,1h.2l1.8-1.1C58.8,105.1,58.8,105,58.7,105Z"/><path class="cls-3" d="M59.7,102.2l-1.8,1.1h0l1.7,1.1h.2l1.8-1.1c.1,0,.1-.1,0-.2l-1.7-1Z"/><path class="cls-3" d="M62.8,102.7l1.8-1v-.2l-1.7-1h-.2l-1.8,1.1c-.1,0-.1.1,0,.1l1.7,1Z"/><path class="cls-3" d="M65.6,98.8l-1.8,1c-.1.1-.1.1,0,.2l1.7,1h.2l1.8-1c.1-.1.1-.2,0-.2l-1.7-1Z"/><path class="cls-3" d="M68.6,97l-1.9,1.1v.2l1.7,1h.3l1.8-1.1h0L68.8,97Z"/><path class="cls-3" d="M71.5,95.3l-1.8,1.1c-.1,0-.1.1,0,.1l1.7,1.1h.2l1.8-1.1c.1,0,.1-.1,0-.1l-1.7-1.1Z"/><path class="cls-3" d="M74.5,93.6l-1.9,1.1h0l1.7,1c.1.1.2.1.2,0l1.8-1c.1,0,.1-.1.1-.2l-1.7-1Z"/><path class="cls-3" d="M77.4,91.9l-1.8,1c-.1.1-.1.2,0,.2l1.7,1c0,.1.1.1.2,0l1.8-1c.1-.1.1-.2,0-.2l-1.7-1C77.5,91.8,77.5,91.8,77.4,91.9Z"/><path class="cls-3" d="M80.3,90.2l-1.8,1v.2l1.7,1h.2l1.8-1.1c.1,0,.1-.1,0-.1l-1.7-1C80.5,90.1,80.4,90.1,80.3,90.2Z"/><path class="cls-3" d="M83.3,88.4l-1.8,1.1c-.1,0-.1.1,0,.1l1.7,1.1h.2l1.8-1.1h0l-1.7-1.1Z"/><path class="cls-3" d="M86.2,86.7l-1.8,1.1c-.1,0-.1.1,0,.1l1.7,1h.2l1.8-1c.1,0,.1-.1,0-.2l-1.7-1Z"/><path class="cls-3" d="M89.2,85l-1.9,1v.2l1.7,1h.3l1.8-1V86l-1.7-1Z"/><path class="cls-3" d="M94,84.3l-1.7-1h-.2l-1.8,1c-.1.1-.1.1,0,.2l1.7,1h.2l1.8-1C94.1,84.4,94.1,84.3,94,84.3Z"/><path class="cls-3" d="M93.2,82.7l1.7,1.1h.2l1.8-1.1a.1.1,0,0,0,.1-.1l-1.7-1.1h-.2l-1.9,1.1Z"/><path class="cls-3" d="M65,105.5c.1-.1.1-.2,0-.2l-1.7-1h-.2l-.7.4h0l-.7.4-.4.2h0L58.4,107a.3.3,0,0,0-.1.2l1.7,1h.3l3.3-1.9Z"/><path class="cls-3" d="M65.9,104.8h.2l1.9-1.1h0l-1.7-1.1h-.2l-1.9,1.1h0Z"/><path class="cls-3" d="M69,100.8l-1.8,1.1c-.1,0-.1.1,0,.1l1.7,1h.2l1.8-1.1c.1,0,.1-.1,0-.2l-1.7-1Z"/><path class="cls-3" d="M72,99.1l-1.9,1v.2l1.7,1c.1.1.2.1.2,0l1.8-1c.1-.1.1-.1,0-.2l-1.7-1Z"/><path class="cls-3" d="M74.9,97.4l-1.8,1c-.1.1-.1.1,0,.2l1.7,1H75l1.8-1v-.2l-1.7-1C75,97.3,75,97.3,74.9,97.4Z"/><path class="cls-3" d="M77.8,95.6,76,96.7c-.1,0-.1.1,0,.2l1.7,1h.2l1.8-1.1c.1,0,.1-.1,0-.1L78,95.6Z"/><path class="cls-3" d="M80.8,93.9,79,95c-.1,0-.1.1,0,.1l1.6,1.1h.3l1.8-1.1v-.2l-1.7-1Z"/><path class="cls-3" d="M83.7,92.2l-1.8,1c-.1.1-.1.2,0,.2l1.7,1h.2l1.8-1c.1-.1.1-.1,0-.2l-1.7-1Z"/><path class="cls-3" d="M86.7,90.5l-1.9,1v.2l1.7,1h.2l1.9-1v-.2l-1.7-1Z"/><path class="cls-3" d="M89.7,91l1.8-1.1c.1,0,.1-.1,0-.1l-1.7-1.1h-.2l-1.8,1.1c-.1,0-.1.1,0,.2l1.7,1Z"/><path class="cls-3" d="M92.7,87h-.1l-1.9,1.1h0l1.7,1.1h.2l1.8-1.1c.1,0,.1-.1,0-.2Z"/><path class="cls-3" d="M95.5,85.3l-1.8,1.1c-.1,0-.1.1,0,.1l1.7,1h.2l.6-.3h0l4.1-2.4c.1-.1.1-.2,0-.2l-1.7-1h-.2l-2.9,1.7Z"/><path class="cls-3" d="M65.4,109l-1.6-1h-.2l-1.9,1.1h0l1.7,1.1h.2l1.8-1.1C65.5,109.2,65.5,109.1,65.4,109Z"/><path class="cls-3" d="M64.7,107.5l1.7,1h.2l1.8-1c.1,0,.1-.1,0-.2l-1.7-1h-.2l-1.8,1.1C64.6,107.4,64.6,107.5,64.7,107.5Z"/><path class="cls-3" d="M67.6,105.8l1.7,1c.1.1.2.1.2,0l1.8-1c.1-.1.1-.2,0-.2l-1.7-1h-.2l-1.8,1Z"/><path class="cls-3" d="M72.5,105.1l1.8-1.1h0l-1.7-1.1h-.2l-1.8,1.1c-.1,0-.1.1,0,.2l1.6,1Z"/><path class="cls-3" d="M75.4,103.4l1.8-1.1c.1,0,.1-.1,0-.1l-1.7-1.1h-.2l-1.8,1.1c-.1,0-.1.1,0,.1l1.7,1.1Z"/><path class="cls-3" d="M78.4,101.6l1.8-1v-.2l-1.7-1h-.2l-1.9,1.1h0l1.7,1A.2.2,0,0,0,78.4,101.6Z"/><path class="cls-3" d="M81.3,99.9l1.8-1c.1-.1.1-.2,0-.2l-1.7-1c-.1-.1-.1-.1-.2,0l-1.8,1c-.1.1-.1.2,0,.2l1.7,1Z"/><path class="cls-3" d="M84.2,98.2,86,97.1c.1,0,.1-.1,0-.1l-1.6-1h-.2L82.3,97v.2l1.7,1Z"/><path class="cls-3" d="M87.2,96.5,89,95.4c.1,0,.1-.1,0-.1l-1.7-1.1h-.2l-1.8,1.1c-.1,0-.1.1,0,.1L87,96.5Z"/><path class="cls-3" d="M90.1,94.7l1.8-1c.1,0,.1-.1,0-.2l-1.7-1H90l-1.8,1.1h0l1.7,1Z"/><path class="cls-3" d="M93.1,93l1.8-1v-.2l-1.7-1H93l-1.8,1c-.1.1-.1.2,0,.2l1.6,1Z"/><path class="cls-3" d="M95.9,89.1l-1.8,1c-.1,0-.1.1,0,.2l1.7,1H96l1.8-1c.1-.1.1-.2,0-.2l-1.7-1Z"/><path class="cls-3" d="M99,89.6l1.8-1.1h0l-1.7-1.1h-.2L97,88.4h0l1.7,1.1Z"/><path class="cls-3" d="M100,86.8l1.7,1c0,.1.1.1.2.1l1.8-1.1c.1,0,.1-.1,0-.2l-1.7-1h-.2L100,86.7C99.9,86.7,99.9,86.8,100,86.8Z"/><path class="cls-3" d="M68.8,111.1l-1.7-1h-.2l-1.8,1c-.1,0-.1.1,0,.2l1.7,1H67l1.8-1C68.9,111.2,68.9,111.1,68.8,111.1Z"/><path class="cls-3" d="M69.7,110.6H70l1.8-1.1h0l-1.7-1.1h-.2L68,109.4h0Z"/><path class="cls-3" d="M72.9,108.8l1.8-1c.1,0,.1-.1,0-.2l-1.7-1h-.2L71,107.7c-.1,0-.1.1,0,.1l1.7,1C72.8,108.9,72.8,108.9,72.9,108.8Z"/><path class="cls-3" d="M75.8,107.1l1.9-1v-.2l-1.7-1c-.1-.1-.2-.1-.2,0l-1.9,1v.2l1.7,1C75.7,107.2,75.8,107.2,75.8,107.1Z"/><path class="cls-3" d="M78.8,105.4l1.8-1c.1-.1.1-.2,0-.2l-1.7-1c-.1-.1-.1-.1-.2,0l-1.8,1c-.1.1-.1.1,0,.2l1.7,1Z"/><path class="cls-3" d="M81.7,103.7l1.8-1.1c.1,0,.1-.1,0-.1l-1.7-1.1h-.1l-1.9,1.1v.2l1.7,1Z"/><path class="cls-3" d="M84.7,102l1.8-1.1v-.2l-1.7-1h-.2l-1.8,1.1c-.1,0-.1.1,0,.1l1.7,1.1Z"/><path class="cls-3" d="M87.6,100.2l1.8-1c.1-.1.1-.1,0-.2l-1.7-1h-.2l-1.8,1c-.1.1-.1.2,0,.2l1.7,1Z"/><path class="cls-3" d="M90.6,98.5l1.8-1v-.2l-1.7-1h-.2l-1.9,1v.2l1.7,1Z"/><path class="cls-3" d="M93.5,96.8l1.8-1.1c.1,0,.1-.1,0-.1l-1.7-1.1h-.2l-1.8,1.1c-.1,0-.1.1,0,.2l1.7,1Z"/><path class="cls-3" d="M96.4,95.1,98.3,94v-.2l-1.7-1h-.2l-1.9,1.1h0l1.7,1.1Z"/><path class="cls-3" d="M99.4,93.3l1.8-1c.1,0,.1-.1,0-.2l-1.7-1h-.2l-1.8,1.1c-.1,0-.1.1,0,.1l1.7,1C99.2,93.4,99.3,93.4,99.4,93.3Z"/><path class="cls-3" d="M102.3,91.6l1.8-1c.1-.1.1-.2,0-.2l-1.7-1c0-.1-.1-.1-.1,0l-1.9,1v.2l1.7,1C102.2,91.7,102.3,91.7,102.3,91.6Z"/><path class="cls-3" d="M103.4,88.9l1.7,1h.2l1.8-1.1h0l-1.7-1.1h-.2l-1.8,1.1C103.3,88.7,103.3,88.8,103.4,88.9Z"/><path class="cls-3" d="M70.5,112.1h-.2l-1.8,1c-.1.1-.1.2,0,.2l1.7,1c0,.1.1.1.2,0l1.8-1c.1,0,.1-.1,0-.2Z"/><path class="cls-3" d="M73.4,110.4c0-.1-.1-.1-.1,0l-1.9,1v.2l1.7,1c.1,0,.2.1.2,0l1.8-1c.1-.1.1-.2,0-.2Z"/><path class="cls-3" d="M76.4,108.6h-.2l-1.8,1.1c-.1,0-.1.1,0,.2l1.7,1h.2l1.8-1.1c.1,0,.1-.1,0-.1Z"/><path class="cls-3" d="M79.3,106.9h-.2L77.3,108h0l1.7,1.1h.2l1.8-1.1c.1,0,.1-.1,0-.2Z"/><path class="cls-3" d="M94,98.3h-.1l-.9.5h-.1l-12.6,7.5c-.1,0-.1.1,0,.1l1.6,1h.3l2.9-1.7h0l1.8-1h0L88,104h.1l1.8-1.1h0l1-.6H91l1.8-1.1h0l1-.6h.1l1.8-1c.1,0,.1-.1,0-.2Z"/><path class="cls-3" d="M97,96.6h-.2l-1.8,1c-.1.1-.1.2,0,.2l1.7,1c0,.1.1.1.2,0l1.8-1c.1-.1.1-.2,0-.2Z"/><path class="cls-3" d="M99.9,94.9c0-.1-.1-.1-.2,0l-1.8,1v.2l1.7,1h.2l1.8-1c.1-.1.1-.2,0-.2Z"/><path class="cls-3" d="M102.9,93.1h-.2l-1.8,1.1c-.1,0-.1.1,0,.1l1.6,1.1h.3l1.8-1.1h0Z"/><path class="cls-3" d="M105.8,91.4h-.2l-1.8,1.1c-.1,0-.1.1,0,.1l1.7,1h.2l1.8-1.1c.1,0,.1-.1,0-.2Z"/><path class="cls-3" d="M110.5,90.7l-1.7-1c-.1-.1-.2-.1-.2,0l-1.9,1v.2l1.7,1h.3l1.8-1Z"/><path class="cls-11" d="M55.3,102.7l-1.8,1.1h-.2l-1.7-1c-.1-.1-.1-.2,0-.2l1.8-1.1h.2l1.7,1C55.4,102.6,55.4,102.7,55.3,102.7Z"/><path class="cls-11" d="M58.3,101l-1.8,1.1h-.3L54.5,101h0l1.9-1.1h.2l1.7,1.1Z"/><path class="cls-11" d="M61.2,99.3l-1.8,1c-.1.1-.2.1-.2,0l-1.7-1c-.1,0-.1-.1,0-.1l1.8-1.1h.2l1.7,1C61.3,99.2,61.3,99.3,61.2,99.3Z"/><path class="cls-11" d="M64.1,97.6l-1.8,1c0,.1-.1.1-.2,0l-1.7-1v-.2l1.9-1c0-.1.1-.1.1,0l1.7,1C64.2,97.4,64.2,97.5,64.1,97.6Z"/><path class="cls-11" d="M67.1,95.9l-1.8,1h-.2l-1.7-1c-.1-.1-.1-.2,0-.2l1.8-1c.1-.1.1-.1.2,0l1.7,1C67.2,95.7,67.2,95.8,67.1,95.9Z"/><path class="cls-11" d="M70,94.1l-1.8,1.1H68l-1.7-1.1c-.1,0,0-.1,0-.1l1.8-1.1h.2L70,94C70.1,94,70.1,94.1,70,94.1Z"/><path class="cls-11" d="M73,92.4l-1.8,1.1h-.3l-1.6-1c-.1,0-.1-.1,0-.1l1.8-1.1h.2l1.7,1Z"/><path class="cls-11" d="M75.9,90.7l-1.8,1h-.2l-1.7-1c-.1,0-.1-.1,0-.2l1.8-1h.2l1.7,1C76,90.6,76,90.6,75.9,90.7Z"/><path class="cls-11" d="M78.9,89l-1.8,1h-.3l-1.7-1v-.2l1.9-1h.2l1.7,1Z"/><path class="cls-11" d="M81.8,87.2,80,88.3h-.2l-1.7-1c-.1-.1-.1-.2,0-.2L79.9,86h.2l1.7,1.1C81.9,87.1,81.9,87.2,81.8,87.2Z"/><path class="cls-11" d="M84.7,85.5l-1.8,1.1h-.2L81,85.5h0l1.9-1.1H83l1.7,1C84.8,85.4,84.8,85.5,84.7,85.5Z"/><path class="cls-11" d="M87.7,83.8l-1.8,1c-.1.1-.2.1-.2,0l-1.7-1c-.1,0-.1-.1,0-.2l1.8-1H86l1.7,1C87.8,83.7,87.8,83.8,87.7,83.8Z"/><path class="cls-11" d="M90.6,82.1l-1.8,1c0,.1-.1,0-.2,0l-1.7-1c-.1-.1,0-.1,0-.2l1.8-1c.1-.1.2-.1.2,0l1.7,1C90.7,81.9,90.7,82,90.6,82.1Z"/><path class="cls-11" d="M93.6,80.3l-1.8,1.1h-.3l-1.6-1c-.1-.1-.1-.2,0-.2l1.8-1.1h.2l1.7,1.1Z"/><path class="cls-11" d="M58.7,104.8l-1.8,1c-.1.1-.2.1-.2,0l-1.7-1c-.1,0-.1-.1,0-.2l1.8-1H57l1.7,1C58.8,104.7,58.8,104.7,58.7,104.8Z"/><path class="cls-11" d="M61.6,103.1l-1.8,1h-.2l-1.7-1v-.2l1.8-1c.1-.1.2-.1.2,0l1.7,1C61.7,102.9,61.7,103,61.6,103.1Z"/><path class="cls-11" d="M64.6,101.3l-1.8,1.1h-.2l-1.7-1c-.1-.1-.1-.2,0-.2l1.8-1.1h.2l1.7,1.1Z"/><path class="cls-11" d="M67.5,99.6l-1.8,1.1h-.2l-1.7-1.1c-.1,0-.1-.1,0-.1l1.8-1.1h.2l1.7,1C67.6,99.5,67.6,99.6,67.5,99.6Z"/><path class="cls-11" d="M70.5,97.9l-1.8,1h-.3l-1.7-1h0l1.9-1.1h.2l1.7,1Z"/><path class="cls-11" d="M73.4,96.2l-1.8,1h-.2l-1.7-1c-.1-.1-.1-.1,0-.2l1.8-1h.2l1.7,1C73.5,96,73.5,96.1,73.4,96.2Z"/><path class="cls-11" d="M76.3,94.4l-1.8,1.1h-.2l-1.7-1v-.2l1.9-1.1h.2l1.7,1.1A.1.1,0,0,1,76.3,94.4Z"/><path class="cls-11" d="M79.3,92.7l-1.8,1.1h-.2l-1.7-1.1c-.1,0-.1-.1,0-.1l1.8-1.1h.2l1.7,1.1C79.4,92.6,79.4,92.7,79.3,92.7Z"/><path class="cls-11" d="M82.2,91l-1.8,1h-.2l-1.7-1h0l1.8-1.1h.2l1.7,1C82.3,90.9,82.3,91,82.2,91Z"/><path class="cls-11" d="M85.2,89.3l-1.8,1c-.1.1-.2.1-.2,0l-1.7-1c-.1,0-.1-.1,0-.2l1.8-1h.2l1.7,1Z"/><path class="cls-11" d="M88.1,87.5l-1.8,1.1h-.2l-1.7-1c-.1-.1-.1-.2,0-.2l1.8-1.1c.1,0,.2,0,.2.1l1.7,1C88.2,87.4,88.2,87.5,88.1,87.5Z"/><path class="cls-11" d="M91.1,85.8l-1.8,1.1H89l-1.7-1.1h0l1.9-1.1h.2l1.7,1.1Z"/><path class="cls-11" d="M94,84.1l-1.8,1c-.1.1-.2.1-.2,0l-1.7-1c-.1,0-.1-.1,0-.1l1.8-1.1h.2l1.7,1C94.1,84,94.1,84.1,94,84.1Z"/><path class="cls-11" d="M96.9,82.4l-1.8,1h-.2l-1.7-1v-.2l1.9-1c0-.1.1-.1.2,0l1.7,1Z"/><path class="cls-11" d="M64.3,105.5l-4,2.4H60l-1.7-1.1h.1l4-2.4h.2l1.7,1C64.4,105.4,64.4,105.5,64.3,105.5Z"/><path class="cls-11" d="M65,105.1l-1.8,1c-.1.1-.1.1-.2,0l-1.7-1c-.1,0-.1-.1,0-.1l1.8-1.1h.2l1.7,1C65.1,105,65.1,105.1,65,105.1Z"/><path class="cls-11" d="M68,103.4l-1.9,1h-.2l-1.7-1v-.2l1.9-1c0-.1.1-.1.2,0l1.7,1Z"/><path class="cls-11" d="M70.9,101.7l-1.8,1h-.2l-1.7-1c-.1-.1-.1-.2,0-.2l1.8-1h.2l1.7,1C71,101.5,71,101.6,70.9,101.7Z"/><path class="cls-11" d="M73.8,99.9,72,101h-.2l-1.7-1.1h0L72,98.7h.1l1.7,1.1C73.9,99.8,73.9,99.9,73.8,99.9Z"/><path class="cls-11" d="M76.8,98.2,75,99.3h-.2l-1.7-1c-.1,0-.1-.1,0-.1L74.9,97h.2l1.7,1Z"/><path class="cls-11" d="M79.7,96.5l-1.8,1h-.2l-1.7-1c-.1,0-.1-.1,0-.2l1.8-1H78l1.7,1C79.8,96.4,79.8,96.4,79.7,96.5Z"/><path class="cls-11" d="M82.7,94.8l-1.8,1h-.3l-1.6-1c-.1-.1-.1-.1,0-.2l1.8-1H81l1.7,1Z"/><path class="cls-11" d="M85.6,93l-1.8,1.1h-.2l-1.7-1c-.1-.1-.1-.2,0-.2l1.8-1.1h.2l1.7,1.1C85.7,92.9,85.7,93,85.6,93Z"/><path class="cls-11" d="M88.6,91.3l-1.9,1.1h-.2l-1.7-1.1h0l1.9-1.1h.2l1.7,1Z"/><path class="cls-11" d="M91.5,89.6l-1.8,1c-.1.1-.2.1-.2,0l-1.7-1c-.1,0-.1-.1,0-.2l1.8-1h.2l1.7,1C91.6,89.5,91.6,89.5,91.5,89.6Z"/><path class="cls-11" d="M94.4,87.9l-1.8,1h-.2l-1.7-1v-.2l1.9-1c0-.1.1-.1.1,0l1.7,1C94.5,87.7,94.5,87.8,94.4,87.9Z"/><path class="cls-11" d="M97.4,86.1l-1.8,1.1h-.2l-1.7-1c-.1-.1-.1-.2,0-.2l1.8-1.1h.2L97.4,86Z"/><path class="cls-11" d="M100.3,84.4l-4.1,2.4c0,.1-.1.1-.2,0l-1.7-1v-.2l4.1-2.4h.2l1.7,1C100.4,84.3,100.4,84.4,100.3,84.4Z"/><path class="cls-11" d="M65.4,108.9l-1.8,1h-.2l-1.7-1v-.2l1.9-1c0-.1.1-.1.2,0l1.6,1C65.5,108.7,65.5,108.8,65.4,108.9Z"/><path class="cls-11" d="M68.4,107.1l-1.8,1.1h-.2l-1.7-1c-.1-.1-.1-.2,0-.2l1.8-1.1h.2l1.7,1.1C68.5,107,68.5,107.1,68.4,107.1Z"/><path class="cls-11" d="M71.3,105.4l-1.8,1.1h-.2l-1.7-1.1h0l1.8-1.1h.2l1.7,1C71.4,105.3,71.4,105.4,71.3,105.4Z"/><path class="cls-11" d="M74.3,103.7l-1.8,1h-.3l-1.6-1c-.1,0-.1-.1,0-.1l1.8-1.1h.2l1.7,1Z"/><path class="cls-11" d="M77.2,102l-1.8,1h-.2l-1.7-1c-.1-.1-.1-.1,0-.2l1.8-1h.2l1.7,1C77.3,101.8,77.3,101.9,77.2,102Z"/><path class="cls-11" d="M80.2,100.2l-1.8,1.1h-.3l-1.7-1v-.2L78.3,99h.2l1.7,1.1Z"/><path class="cls-11" d="M83.1,98.5l-1.8,1.1h-.2l-1.7-1.1c-.1,0-.1-.1,0-.1l1.8-1.1h.2l1.7,1.1C83.2,98.4,83.2,98.5,83.1,98.5Z"/><path class="cls-11" d="M86,96.8l-1.8,1c0,.1-.1.1-.2,0l-1.7-1h0l1.9-1.1h.2l1.6,1C86.1,96.7,86.1,96.8,86,96.8Z"/><path class="cls-11" d="M89,95.1l-1.8,1c-.1.1-.2.1-.2,0l-1.7-1c-.1,0-.1-.1,0-.2l1.8-1c.1-.1.1-.1.2,0l1.7,1C89.1,94.9,89.1,95,89,95.1Z"/><path class="cls-11" d="M91.9,93.3l-1.8,1.1h-.2l-1.7-1v-.2L90,92.1c.1,0,.2,0,.2.1l1.7,1C92,93.2,92,93.3,91.9,93.3Z"/><path class="cls-11" d="M94.9,91.6l-1.8,1.1h-.3l-1.6-1.1c-.1,0-.1-.1,0-.1L93,90.4h.2l1.7,1.1Z"/><path class="cls-11" d="M97.8,89.9l-1.8,1h-.2l-1.7-1c-.1,0-.1-.1,0-.1l1.8-1.1h.2l1.7,1C97.9,89.8,97.9,89.9,97.8,89.9Z"/><path class="cls-11" d="M100.8,88.2l-1.8,1h-.3l-1.7-1V88l1.9-1h.2l1.7,1Z"/><path class="cls-11" d="M103.7,86.5l-1.8,1h-.2l-1.7-1c-.1-.1-.1-.2,0-.2l1.8-1h.2l1.7,1C103.8,86.3,103.8,86.4,103.7,86.5Z"/><path class="cls-11" d="M68.8,110.9l-1.8,1h-.2l-1.7-1c-.1,0-.1-.1,0-.1l1.8-1.1h.2l1.7,1C68.9,110.8,68.9,110.9,68.8,110.9Z"/><path class="cls-11" d="M71.8,109.2l-1.8,1h-.3l-1.7-1V109l1.9-1h.2l1.7,1Z"/><path class="cls-11" d="M74.7,107.5l-1.8,1h-.2l-1.7-1c-.1-.1-.1-.2,0-.2l1.8-1H73l1.7,1C74.8,107.3,74.8,107.4,74.7,107.5Z"/><path class="cls-11" d="M77.7,105.7l-1.9,1.1h-.2l-1.7-1.1h0l1.9-1.1H76l1.7,1.1Z"/><path class="cls-11" d="M80.6,104l-1.8,1h-.2l-1.7-1c-.1,0-.1-.1,0-.1l1.8-1.1h.2l1.7,1C80.7,103.9,80.7,104,80.6,104Z"/><path class="cls-11" d="M83.5,102.3l-1.8,1c0,.1-.1.1-.2,0l-1.7-1v-.2l1.9-1h.1l1.7,1C83.6,102.1,83.6,102.2,83.5,102.3Z"/><path class="cls-11" d="M86.5,100.6l-1.8,1h-.2l-1.7-1c-.1-.1-.1-.1,0-.2l1.8-1c.1-.1.1-.1.2,0l1.7,1Z"/><path class="cls-11" d="M89.4,98.8l-1.8,1.1h-.2l-1.7-1c-.1-.1-.1-.2,0-.2l1.8-1.1h.2l1.7,1.1C89.5,98.7,89.5,98.8,89.4,98.8Z"/><path class="cls-11" d="M92.4,97.1l-1.8,1.1h-.3l-1.7-1.1h0l1.9-1.1h.2l1.7,1Z"/><path class="cls-11" d="M95.3,95.4l-1.8,1h-.2l-1.7-1c-.1,0-.1-.1,0-.2l1.8-1h.2l1.7,1C95.4,95.3,95.4,95.3,95.3,95.4Z"/><path class="cls-11" d="M98.3,93.7l-1.9,1h-.2l-1.7-1v-.2l1.9-1h.2l1.7,1Z"/><path class="cls-11" d="M101.2,91.9,99.4,93h-.2l-1.7-1c-.1-.1-.1-.2,0-.2l1.8-1.1h.2l1.7,1.1C101.3,91.8,101.3,91.9,101.2,91.9Z"/><path class="cls-11" d="M104.1,90.2l-1.8,1.1h-.2l-1.7-1.1h0l1.9-1.1h.1l1.7,1C104.2,90.1,104.2,90.2,104.1,90.2Z"/><path class="cls-11" d="M107.1,88.5l-1.8,1h-.2l-1.7-1c-.1,0-.1-.1,0-.1l1.8-1.1h.2l1.7,1Z"/><path class="cls-11" d="M72.2,112.9,70.4,114h-.2l-1.7-1c-.1-.1-.1-.2,0-.2l1.8-1.1h.2l1.7,1.1C72.3,112.8,72.3,112.9,72.2,112.9Z"/><path class="cls-11" d="M75.1,111.2l-1.8,1.1h-.2l-1.7-1.1h0l1.9-1.1h.1l1.7,1C75.2,111.1,75.2,111.2,75.1,111.2Z"/><path class="cls-11" d="M78.1,109.5l-1.8,1h-.2l-1.7-1c-.1,0-.1-.1,0-.2l1.8-1h.2l1.7,1C78.2,109.4,78.2,109.5,78.1,109.5Z"/><path class="cls-11" d="M81,107.8l-1.8,1H79l-1.7-1v-.2l1.8-1h.2l1.7,1C81.1,107.6,81.1,107.7,81,107.8Z"/><path class="cls-11" d="M94.7,99.7l-12.5,7.4h-.3l-1.6-1c-.1-.1-.1-.2,0-.2l12.6-7.4H93l1.7,1C94.8,99.6,94.8,99.6,94.7,99.7Z"/><path class="cls-11" d="M86.9,104.3l-1.8,1.1h-.2l-1.7-1.1c-.1,0-.1-.1,0-.1l1.8-1.1h.2l1.7,1C87,104.2,87,104.3,86.9,104.3Z"/><path class="cls-11" d="M89.9,102.6l-1.8,1a.2.2,0,0,1-.3,0l-1.7-1h0l1.9-1.1h.2l1.7,1Z"/><path class="cls-11" d="M92.8,100.9l-1.8,1h-.2l-1.7-1c-.1,0-.1-.1,0-.2l1.8-1c.1-.1.1-.1.2,0l1.7,1C92.9,100.7,92.9,100.8,92.8,100.9Z"/><path class="cls-11" d="M95.7,99.1l-1.8,1.1h-.2l-1.7-1V99l1.9-1.1H94L95.7,99C95.8,99,95.8,99.1,95.7,99.1Z"/><path class="cls-11" d="M98.7,97.4l-1.8,1.1h-.2L95,97.4c-.1,0-.1-.1,0-.1l1.8-1.1H97l1.7,1.1C98.8,97.3,98.8,97.4,98.7,97.4Z"/><path class="cls-11" d="M101.6,95.7l-1.8,1h-.2l-1.7-1h0l1.8-1.1h.2l1.7,1C101.7,95.6,101.7,95.7,101.6,95.7Z"/><path class="cls-11" d="M104.6,94l-1.8,1h-.3l-1.6-1c-.1,0-.1-.1,0-.2l1.8-1h.2l1.7,1Z"/><path class="cls-11" d="M107.5,92.3l-1.8,1h-.2l-1.7-1c-.1-.1-.1-.2,0-.2l1.8-1h.2l1.7,1C107.6,92.1,107.6,92.2,107.5,92.3Z"/><path class="cls-11" d="M110.5,90.5l-1.8,1.1h-.3l-1.7-1.1h0l1.9-1.1h.2l1.7,1.1Z"/><path class="cls-8" d="M25.4,45.4l16.5-9.5a1.2,1.2,0,0,0,.5-.9h0c0-.3-.2-.4-.5-.2L25.4,44.2a1.3,1.3,0,0,0-.6.9h0C24.8,45.5,25.1,45.6,25.4,45.4Z"/><ellipse class="cls-9" cx="53.1" cy="53.2" rx="11.8" ry="6.6" transform="translate(-21.3 64) rotate(-53.3)"/><path class="cls-12" d="M65.5,49.6A28.7,28.7,0,0,1,53,66.3c-7,4.1-12.8,1.7-12.9-5.2s5.8-16.6,13-20.9c4.4-2.5,8.2-2.7,10.6-.8l-1.8,1.9,5.4.2.7-6.6-2.2,2.3c-2.7-2.5-7.4-2.5-12.7.7-8.4,4.9-15.2,15.8-15.3,24.2s6.8,11.5,15.3,6.5S66.3,55.8,68,48.2c.1-.5-.2-.8-.7-.5l-.6.3A3.8,3.8,0,0,0,65.5,49.6Z"/><path class="cls-8" d="M47.9,55.4,51.7,60s3-5.8,4.8-8.5a21.7,21.7,0,0,1,4.3-4.9l-2.2-1.3a36,36,0,0,0-3.7,5c-1.1,2.1-2.7,5.6-2.7,5.6L50.5,52Z"/><polygon class="cls-13" points="114.9 81.1 110.2 78.3 109.3 75.6 114 78.4 114.9 81.1"/><polygon class="cls-14" points="124.5 60.3 119.7 57.5 122.5 56.9 127.3 59.7 124.5 60.3"/><path class="cls-15" d="M120.4,66.4v-.2h0v-.3h.1v-.3a2.8,2.8,0,0,0-1.2-2.6L114.5,60a2.7,2.7,0,0,1,1.2,2.6V63h0v.4h-.1v.2h-.1v.2h0l-.2.3h0c0,.2,0,.3-.1.4h0a.4.4,0,0,0-.1.3H115a.4.4,0,0,1-.1.3h0l-.2.2h0c0,.1-.1.2-.2.3h0l-.2.2h0l-.2.3h0l-.3.3h0l-.3.4h0l-.2.2h0l-.2.2-.2.2h0l-.2.2h-1l-.3.2h0c-.1,0-.2,0-.2.1h-2.4l4.7,2.7h.5c0,.1.1.1.2.1h1a.1.1,0,0,1,.1-.1h1.1l.2-.2h.1a.1.1,0,0,0,.1-.1h.3a.1.1,0,0,0,.1-.1h.6l.2-.2h0l.2-.2h0l.3-.3h.1c0-.1.1-.2.2-.3h0c.1-.1.2-.2.2-.3h.1c0-.1.1-.2.1-.3h.1c0-.1.1-.2.1-.3h.1v-.3h0l.2-.3h0V68h0l.2-.3h0v-.4h.1c0-.1,0-.1.1-.2Z"/><g class="cls-16"><g class="cls-17"><g class="cls-16"><path class="cls-15" d="M108.6,81.2l-4.7-2.8-.4-.3,4.7,2.8.4.3"/></g></g></g><g class="cls-16"><g class="cls-18"><g class="cls-16"><path class="cls-19" d="M123.7,54l-4.8-2.8h.3l4.7,2.8h-.2"/><path class="cls-20" d="M123.9,54.1l-4.7-2.8c.1.1.2.1.2.2l4.8,2.7h-.3"/><path class="cls-21" d="M124.2,54.2l-4.8-2.7h.1l4.7,2.7h0"/></g></g></g><polygon class="cls-13" points="108.2 80.9 103.5 78.1 102.9 77.6 107.7 80.4 108.2 80.9"/><polygon class="cls-22" points="123 53.8 118.3 51 118.9 51.2 123.7 54 123 53.8"/><polygon class="cls-14" points="107.7 80.4 102.9 77.6 104.3 73.8 109 76.6 107.7 80.4"/><polygon class="cls-14" points="120.4 56.9 115.7 54.1 118.3 51 123 53.8 120.4 56.9"/><g class="cls-16"><g class="cls-23"><g class="cls-16"><path class="cls-15" d="M109,76.6l-4.7-2.8a6.1,6.1,0,0,1-.7-1.4l4.8,2.7a5.2,5.2,0,0,0,.6,1.5"/></g></g></g><path class="cls-24" d="M119.2,57h1.2l-4.7-2.8H114l4.8,2.7Z"/><path class="cls-25" d="M108.5,68.9c0-.1.1-.2.1-.3v-.2a.6.6,0,0,1,.1-.4h0l.2-.5-4.7-2.8a1.4,1.4,0,0,0-.2.6h0l-.2.5h0c0,.1-.1.1-.1.2v.2h-.1c0,.2-.1.4-.1.6l4.7,2.7.2-.5Z"/><path class="cls-26" d="M113,60.8h.1l.4-.4h.1c.1-.1.2-.3.4-.4l-4.7-2.7-.5.4h0l-.4.4-.2.2-.2.3h-.1l-.3.4,4.8,2.7.3-.4Z"/><polygon class="cls-14" points="105.5 72.2 100.8 69.5 103.6 66.8 108.3 69.6 105.5 72.2"/><path class="cls-27" d="M105.4,74.8V72.2l-4.7-2.7v1a4.3,4.3,0,0,0,0,1.6V73l4.7,2.7Z"/><path class="cls-14" d="M113.2,51.6l-.9.3-.7.4-.6.4-.9.6,4.8,2.8.8-.7.7-.4.6-.3.9-.4Z"/><polygon class="cls-28" points="114 59.8 109.3 57.1 110.1 53.3 114.9 56.1 114 59.8"/><polygon class="cls-13" points="109 67.4 104.3 64.6 102.9 62.4 107.6 65.2 109 67.4"/><polygon class="cls-29" points="109.8 61.4 105 58.7 107.6 58.8 112.4 61.5 109.8 61.4"/><path class="cls-14" d="M108.5,63.4v-.2a.3.3,0,0,0,.1-.2c.1,0,.1-.1.1-.2l.3-.4.7-1L105,58.7l-.6,1-.3.3h0c0,.1-.1.2-.1.3a.1.1,0,0,0-.1.1h0c-.1,0-.1.1-.2.2v.2h0c0,.1,0,.1-.1.2s0,.1-.1.2h0l-.5,1.1,4.7,2.8.5-1.1a.3.3,0,0,0,.1-.2l.2-.3A.3.3,0,0,1,108.5,63.4Z"/><path class="cls-30" d="M127.4,60.6a3.8,3.8,0,0,1,0,1.5v1.1l-2.8,2.6a18.7,18.7,0,0,1-.7,2.2l1.4,2.2-.5,1.1-1,1.7-.7,1h-2.6a12.9,12.9,0,0,1-1.6,1.7l-.8,3.7-.9.7-.7.4-.6.3-.9.4-.9-2.7h-1.6l-2.6,3.1-.7-.2-.9-.5-.5-.5,1.3-3.8a5.2,5.2,0,0,1-.6-1.5l-2.9.6V72.2l2.8-2.6a18.7,18.7,0,0,1,.7-2.2l-1.4-2.2.5-1.1,1-1.7.7-1h2.6a12.9,12.9,0,0,1,1.6-1.7l.9-3.7.8-.7.7-.4.6-.3.9-.4.9,2.7h1.6l2.6-3.1.7.2.9.5.5.5-1.3,3.8a5.2,5.2,0,0,1,.7,1.5l2.8-.6Zm-11,11.8a9,9,0,0,0,4.1-7c0-2.6-1.9-3.7-4.1-2.4a8.8,8.8,0,0,0-4,7c0,2.6,1.8,3.7,4,2.4"/><polygon class="cls-13" points="98.2 67.3 92 63.6 90.8 60 97 63.7 98.2 67.3"/><polygon class="cls-14" points="110.8 39.8 104.5 36.2 108.3 35.4 114.5 39 110.8 39.8"/><path class="cls-15" d="M105.4,47.9v-.2h0a.6.6,0,0,0,.1-.4h0v-.5c0-1.7-.6-2.9-1.5-3.4l-6.3-3.6c1,.5,1.6,1.7,1.6,3.4v.5h0a1.1,1.1,0,0,0-.1.5h0v.3c-.1,0-.1,0-.1.1v.4a.1.1,0,0,0-.1.1v.2a.1.1,0,0,1-.1.1h0a4.3,4.3,0,0,1-.1.5h0l-.2.5h0c-.1.1-.1.3-.2.4h0l-.2.4v.2c0,.1-.1.2-.1.3h-.1c0,.1-.1.2-.2.4h0c-.1.2-.2.3-.2.4a.1.1,0,0,0-.1.1l-.3.4h0l-.3.5h-.1l-.4.5h0l-.3.3h0c-.1.1-.2.2-.2.3s-.2.1-.2.2h-.1l-.2.3h-.1c0,.1-.1.1-.1.2H95l-.2.2h-.1a.1.1,0,0,1-.1.1h-.7l-.3.2a.1.1,0,0,0-.1.1c-.1,0-.2,0-.2.1H91.9a.1.1,0,0,0-.1.1H90.5a.1.1,0,0,1-.1-.1h-.3l6.3,3.6h3.8c.1-.1.2-.1.2-.2h.1l.2-.2h.1c0-.1.1-.1.2-.1h.2a.1.1,0,0,1,.1-.1l.2-.2h0l.3-.2h.2l.3-.3h0l.2-.3h.1l.4-.5h0l.3-.4h.1c.1-.1.1-.2.2-.4h.1l.2-.3h0l.3-.4h0l.2-.3h0c.1-.2.2-.3.2-.4h0c.1-.1.1-.2.2-.4h0a.8.8,0,0,0,.2-.4h0c.1-.1.1-.3.2-.4h0v-.2a.3.3,0,0,0,.1-.2h0a.3.3,0,0,0,.1-.2Z"/><g class="cls-16"><g class="cls-31"><g class="cls-16"><path class="cls-15" d="M89.9,67.4l-6.2-3.7-.6-.4L89.3,67l.6.4"/></g></g></g><g class="cls-16"><g class="cls-32"><g class="cls-16"><path class="cls-19" d="M109.8,31.5l-6.3-3.6h.3l6.3,3.7-.3-.2"/><path class="cls-20" d="M110.1,31.7,103.8,28l.4.2,6.2,3.6h-.3"/><path class="cls-21" d="M110.4,31.8l-6.2-3.6h0l6.2,3.6h0"/></g></g></g><polygon class="cls-13" points="89.3 67 83.1 63.3 82.4 62.7 88.6 66.3 89.3 67"/><polygon class="cls-22" points="108.9 31.3 102.6 27.6 103.5 27.9 109.8 31.5 108.9 31.3"/><polygon class="cls-14" points="88.6 66.3 82.4 62.7 84.2 57.7 90.4 61.3 88.6 66.3"/><polygon class="cls-14" points="105.4 35.3 99.2 31.7 102.6 27.6 108.9 31.3 105.4 35.3"/><g class="cls-16"><g class="cls-33"><g class="cls-16"><path class="cls-15" d="M90.4,61.3l-6.2-3.6a6.6,6.6,0,0,1-.9-1.9l6.3,3.6a8.4,8.4,0,0,0,.8,1.9"/></g></g></g><path class="cls-24" d="M103.9,35.4h1.5l-6.2-3.6H97.1l6.2,3.7h.6Z"/><path class="cls-25" d="M89.7,51.3c.1-.2.1-.4.2-.5v-.2a1.4,1.4,0,0,0,.2-.6h.1a1.9,1.9,0,0,1,.2-.7l-6.2-3.7-.3.8h0c-.1.2-.1.4-.2.6s0,.2-.1.2v.3c-.1.1-.1.1-.1.2v.2a1.9,1.9,0,0,0-.2.7l6.2,3.6c.1-.2.1-.4.2-.6Z"/><path class="cls-26" d="M95.6,40.6c.1-.1.2-.2.2-.3a1.2,1.2,0,0,0,.5-.5h.1l.6-.5-6.3-3.6-.5.5h-.1l-.5.5-.2.2a.8.8,0,0,1-.4.4h0l-.4.4,6.3,3.6c.1-.1.2-.3.4-.4Z"/><polygon class="cls-14" points="85.8 55.6 79.6 52 83.3 48.5 89.5 52.1 85.8 55.6"/><path class="cls-27" d="M85.7,59a6.7,6.7,0,0,1,0-2V55.6L79.6,52l-.2,1.3v2.1l.2,1.2,6.2,3.6Z"/><path class="cls-14" d="M95.9,28.3l-1.1.5-.9.4-.9.6-1.1.8,6.2,3.7,1.1-.9.9-.5.9-.5,1.1-.4Z"/><polygon class="cls-28" points="97 39.2 90.7 35.6 91.9 30.6 98.1 34.3 97 39.2"/><polygon class="cls-13" points="90.4 49.2 84.2 45.5 82.3 42.6 88.6 46.3 90.4 49.2"/><polygon class="cls-29" points="91.4 41.4 85.2 37.7 88.6 37.8 94.9 41.4 91.4 41.4"/><path class="cls-14" d="M89.7,44l.2-.3a.3.3,0,0,1,.1-.2c.1-.1.1-.3.2-.4l.3-.4.9-1.3-6.2-3.7L84.3,39l-.3.5h0l-.2.3c-.1.1-.1.2-.2.2h0c0,.1-.1.2-.1.3l-.2.2h0c0,.1-.1.2-.1.3l-.2.2h0l-.7,1.4,6.3,3.7.7-1.5v-.2c.1-.1.1-.3.2-.4A.3.3,0,0,0,89.7,44Z"/><path class="cls-30" d="M114.7,40.2v2l-.2,1.4-3.7,3.5a17.1,17.1,0,0,1-.9,3l1.9,2.9-.7,1.4a14.8,14.8,0,0,1-1.3,2.1l-.9,1.4h-3.4L103.4,60l-1.2,4.9-1.1.9-.9.5-.9.5-1.1.5L97,63.7l-2.1.2-3.4,4-.9-.2L89.3,67l-.7-.7,1.8-5a8.4,8.4,0,0,1-.8-1.9l-3.8.8V59a6.7,6.7,0,0,1,0-2V55.6l3.7-3.5a24.6,24.6,0,0,1,.9-2.9l-1.8-2.9.7-1.5a11.3,11.3,0,0,1,1.2-2.1l.9-1.3h3.5A14.5,14.5,0,0,1,97,39.2l1.1-4.9,1.1-.9.9-.5.9-.5,1.1-.4,1.2,3.6a7.6,7.6,0,0,1,2.1-.3l3.5-4,.9.2a4.2,4.2,0,0,1,1.2.8l.7.6-1.8,5a6.6,6.6,0,0,1,.9,1.9l3.7-.8ZM100.2,55.8a12,12,0,0,0,5.3-9.3c0-3.4-2.4-4.7-5.3-3a11.6,11.6,0,0,0-5.4,9.2c0,3.4,2.4,4.8,5.4,3.1"/></svg>