<svg xmlns="http://www.w3.org/2000/svg" viewBox="0 0 140.9 133.9"><defs><style>.cls-1{isolation:isolate;}.cls-2{fill:#33b7c1;}.cls-3{fill:#fff;}.cls-4{fill:#7f411c;}.cls-5{fill:#ac6b49;}.cls-6{fill:#c67a53;}.cls-7{fill:#603010;}.cls-8{fill:#bd8020;}.cls-9{fill:#dfa125;}.cls-10{fill:#af6815;}.cls-11{fill:#f3a300;}.cls-12{fill:#f9d2a6;}.cls-13{fill:#df8c00;}.cls-14,.cls-17{fill:#d9d9d9;}.cls-14,.cls-16{mix-blend-mode:multiply;}.cls-15{fill:#fbd579;}.cls-18{fill:#2c3640;}.cls-19{fill:#1d252b;}.cls-20{fill:#e74044;}.cls-21{fill:#f6b034;}</style></defs><title>icono_turismo</title><g class="cls-1"><g id="Layer_1" data-name="Layer 1"><circle class="cls-2" cx="61.3" cy="68.2" r="49.2" transform="translate(-15.8 117.9) rotate(-80.9)"/><path class="cls-3" d="M30.5,49.3h0C30.4,49.4,30.5,49.4,30.5,49.3Z"/><path class="cls-3" d="M44.6,83.8H44l-.5-.4a1.1,1.1,0,0,0-.6-.4H41.1v-.2c0-.1.2-.2-.3-.3L40,82c-.1,0-.2-.2-.3,0h-.2c-.1,0,0-.1,0-.2l-.5-.2-.3-.3c0-.1,0-.1.1-.2s.2-.3.1-.4-.3-.1-.3-.4.1-.3,0-.4l-.3-.4-.4-.2h-.3l-.4-.2h-.8l-.4-.3a.2.2,0,0,1-.2-.2c-.1,0-.1,0-.1.1h-.1c-.2-.1-.2-.3-.3-.4s0-.1-.2-.4l-.5-.4-.4-.2c-.1-.1-.2-.1-.1-.1s.4-.2,0-.2h-.6c-.2-.1,0,0-.2.1s0,.2-.3,0l-.4-.2h-.2c-.1,0-.2.1-.3,0h-.3l-.4-.4v-.2c-.2-.1-.2,0-.2.1s.1,0,0,.1-.1.2-.3.2-.3.1-.3.3l.2.5c0,.1-.1.1-.2,0h-.1c-.1,0-.3-.1-.2-.2s.2-.3.2-.4,0-.1,0-.2,0-.2.1-.2l.3-.2c-.1,0-.3-.2-.5,0h-.2l-.3.2h-.4l-.3.2-.2.2c0,.1-.2.2-.2.3s.1.1,0,.2-.3,0-.4.2.1.2,0,.2h-.2c0-.1.1-.2-.1-.3l-.6-.2h-.3l-.5.3h-.3l-.4-.2c0-.1-.2-.4-.2-.5l-.2-.3c0-.1-.1-.2,0-.3a1,1,0,0,0,.1-.3c-.1-.1.1-.3.1-.3v-.4l.2-.2c0-.1,0-.4-.1-.4l-.3-.2H24.3l-.4-.2v-.2a1.3,1.3,0,0,0,.3-.5.8.8,0,0,1,.2-.5v-.2a1,1,0,0,0,.1-.4l.3-.2c.1-.1.2-.2.1-.3l-.4-.3h-.8c-.1,0-.2,0-.2.1h-.1c-.1.1-.1.5-.1.5s-.1.2-.2.3,0,.1-.3.1h-.8c-.3.1-.1.2-.3,0s-.1-.2-.3-.2-.5-.2-.5-.3.1-.5.1-.5-.3-.1-.3-.2.1-.1,0-.2a.4.4,0,0,0-.1-.3c0-.1-.1-.3,0-.4a.3.3,0,0,0,.3-.3.4.4,0,0,1,.1-.3c0-.1-.1-.3,0-.5s0-.3.1-.4a.7.7,0,0,0,.3-.5v-.3l.3-.3.4-.2.4-.3H24c.1.1,0,.1.1.2s.2.1.3,0,.2-.1.2-.2l.2.2.2-.2c0-.1-.2-.2.1-.3h1c.1,0,.3,0,.3.1s-.2.3,0,.4h.4c.1-.1.4-.1.4,0s-.2.3,0,.4.2,0,.2.1v.2l-.2.3v.5c.1,0,.1.1.1.2v.3c.1.1.1.3.2.3h.2l.3-.4c0-.2.1-.3.1-.5a.9.9,0,0,0-.1-.5c0-.2-.1-.4-.1-.6a1.1,1.1,0,0,0,.1-.5c.1-.1.1-.4.2-.6s.2-.3.3-.3l.2-.2.4-.2c0-.1.2-.3.5-.4a.6.6,0,0,0,.5-.3h.4c.1-.1.2-.1.2-.2s-.1-.2,0-.2H31v-.3c-.1,0-.2,0-.1-.2s-.1-.2,0-.3a.6.6,0,0,1,.1-.4v-.2h0v.4c0,.1-.1.1-.1.2s0,.1.1.2l.3-.3h.1c.1-.2.1-.2.1-.3s-.1-.1-.1-.2a.1.1,0,0,1,.1-.1v.2l.2-.3c.2-.2.3-.3.3-.4s-.1-.2,0-.3h.8c.2.1.3,0,.4,0s.2-.1.3-.1.2,0,.2-.1a.1.1,0,0,0-.1-.1c-.1,0-.4,0-.2-.3l.3-.3c.1-.1,0-.2.2-.2a.2.2,0,0,0,.3-.1l.2-.2h.6a.2.2,0,0,0,.2-.2c-.1-.1,0-.1.1-.1s.1.1.3,0l.3-.2h.2c.1,0,0,.1,0,.1s-.2.1-.2.2-.3,0-.3.1h-.2v.3a.2.2,0,0,0,.2.2h.3l.2-.3.3-.2h1s.2,0,.1-.1l-.2-.2c-.1-.1,0-.2-.2-.1h-.4c-.1,0,.1-.1-.1-.2a.8.8,0,0,1-.2-.4v-.2c0-.1-.1-.2,0-.3a.3.3,0,0,1,.1-.2h.2c0-.1.2-.2.1-.3s0-.1-.1-.2h-.8l-.5.2c0-.1-.1,0,0-.1h.3c0-.1,0-.2.1-.2l.4-.3.4-.2h1.1c.1,0,.2.2.4.2l.7-.2c.1-.2,0-.3.2-.3h.7a.6.6,0,0,0,.5-.2c0-.1.1-.1.1-.2a4.3,4.3,0,0,0,.1-.5c0-.1,0-.2-.2-.3h-.3a1,1,0,0,0,.1-.3l-.5-.4c0-.1-.2-.2-.2-.3s-.2-.3-.3-.4a.6.6,0,0,1,.1-.4v-.2c0-.2-.1-.4-.2-.4s0-.3-.1-.3v-.2a.2.2,0,0,0,0-.3V53c.1-.1.1-.3,0-.3h-.3l-.2.3a.5.5,0,0,0-.3.3.2.2,0,0,1-.2.2h-.3c0,.1,0,.1-.2,0s-.3,0-.3-.1l-.2-.2c-.2,0-.1-.1-.1-.2s.1,0,.1-.1v-.3c.1-.1.2-.3.1-.4l.2-.2c.1,0-.1.1-.2-.1l-.4-.3a.4.4,0,0,0-.1-.3V51H36l-.2.2c-.1,0,0-.2-.1-.2h-.3l-.4-.2c-.1,0-.3.1-.3.2a.2.2,0,0,0,0,.3v.2h-.1a1.1,1.1,0,0,0-.2.5c0,.1,0,.1-.1.2s-.2.4-.4.5l-.3.2a.1.1,0,0,0,0,.2c.1,0,.5.5.4.6a1.1,1.1,0,0,0-.1.5c0,.2-.2.3-.3.4a.5.5,0,0,1-.3.5h-.8a.3.3,0,0,0-.1.2c.1,0,.1.4.1.5l-.3.4v.3a.5.5,0,0,1-.3.3h-.2c-.1.1-.2.2-.2.1s-.2-.2-.2-.3-.2-.1-.1-.2a.4.4,0,0,0,.1-.3c.1-.1.1-.1.1-.2s-.1-.2,0-.3a.3.3,0,0,0,.1-.2.1.1,0,0,0-.1-.1c0-.1.2-.1.2-.3s0-.3-.1-.4,0-.1-.2-.1-.1.1-.3,0l-.4-.4c-.1,0-.2-.2-.2-.2s-.2,0-.4-.2a1.5,1.5,0,0,1-.3-.5h-.2l-.3-.2h-.4v-.8c0-.1-.2-.2-.2-.2h-.2c0-.1-.1-.2,0-.2s.1-.1.1-.3V51c.1-.2.1-.1.2-.2s.1-.2.2-.3l.4-.3c.1-.1.1-.3.2-.3l.4-.2.2-.2.3-.2h.2l.4-.3h.4a.1.1,0,0,1,.1.1h.4s-.1-.1.1-.2.3-.1.3-.2.1-.1,0-.1.3-.2.1-.2-.3.2-.4.1a.8.8,0,0,1-.4-.4c0-.1-.3-.1-.1-.1s.4,0,.4.1l.3.2c.1,0,.3.1.3,0h.1c.1.1.1.1.1-.1s0-.2.1-.3h.1a.1.1,0,0,1,.1.1c.1.1.1,0,.1.1h.7c.1,0,0-.1.2-.1h.2c.1,0,.1-.1.2-.2h.1s.1.1.2-.1v-.2a.8.8,0,0,0,.1-.4v-.3h.3c0-.1.2-.1.1-.2a.5.5,0,0,1-.1-.3c0-.1-.1-.1-.1-.2l-.2-.2c-.1-.1-.3-.1-.3-.2s-.1-.2-.2-.1h-.1a.3.3,0,0,1-.1.2v.3l-.2.2c-.1,0-.2,0-.2.1a.1.1,0,0,1-.1.1l-.2.2h-.2c-.1.1-.1.3-.2.3s-.1-.4-.2-.5v-.2c0-.1,0,0,.1,0h0c.1,0,.2,0,.2-.1v-.4a.2.2,0,0,0-.2-.2c-.2,0-.3.2-.4.3s0,.3-.1.3-.1-.2-.1-.3a1,1,0,0,0,.1-.3h0a.4.4,0,0,0-.1-.3c0-.1-.2-.2-.2-.2s-.1-.1.2-.1.3-.1.2-.2a1.5,1.5,0,0,0-.2-.4.3.3,0,0,1-.1-.2c.1,0,.2,0,.2-.1v-.3a.1.1,0,0,0,0-.2h-.1c-.1,0-.2-.1-.1-.1A.2.2,0,0,0,32,43h-.3c0,.1,0,.2-.1.2h-.2l-.2.3v.3c0,.1-.2,0-.2.1v.3a.4.4,0,0,1,.2.3c.1.1,0,.1.1.1h.2s-.1.1,0,.1-.1.1-.2.1-.1.2-.1.3.2,0,.2.1l-.2.2-.4.2-.3.2s.1.2,0,.2h-.4c0,.1,0-.1.1-.1h.2s.1-.1,0-.1h-.1v-.2c.1,0,.1-.1,0-.2s0,0-.1-.1-.1-.1-.2-.2h-.4a.3.3,0,0,0,.1.2c.1.1.2.2,0,.2h-.2c-.1-.1,0-.2-.2-.1s-.2,0-.2-.1H29c-.1.1-.2.2-.3.1l-.2-.2h-.2c0-.1.1-.1-.1-.1s-.3.1-.3-.1.1-.2,0-.3v-.2h-.7c-.1-.1-.1-.1-.1,0s0,.1,0,.1-.1.1.1.1h.5c0,.1-.1.1-.2.2h-.5c0,.1-.1.2-.1.3a.3.3,0,0,0-.1.2h.1a.3.3,0,0,1-.1.2h-.2a.1.1,0,0,1-.1-.1c0-.1,0-.1.1-.2s.1-.2,0-.2-.2-.2-.2-.3.1-.3-.2-.2h-.6l-.4-.2s0,.1-.2,0l-.3-.2c0-.1-.1-.2.2-.2H25s.1-.2,0-.3.1.1,0-.1,0-.2-.1-.2-.6-.1-.7-.3-.1-.1-.3-.3l-.3-.3c0-.1-.2-.2-.2-.3a.3.3,0,0,0-.1-.2c-.1,0-.3-.1-.3,0h-.2v.2a.1.1,0,0,1-.2,0v-.2c0-.1,0,0,.1-.2v-.2h-.3c0,.1-.2.2-.2.3s.1.2,0,.2-.1,0-.2-.3-.2-.2-.1-.3.2-.1.2-.2V41h0s-.3-.2-.3-.1-.1.4-.2.4H20.3l-.4.2A47.3,47.3,0,0,0,15,51.4h0a.6.6,0,0,1-.1.4h-.1a.4.4,0,0,0,.1.3H15v0h.1c.1-.1-.1.2-.1.3h0c.1.2.1.2.1.3v.2a.1.1,0,0,1,.1.1h-.1c0,.1-.1.2-.1.3v.6h.3c0,.2.1.1.2.1h-.1c0,.1.1.2.2.3h.2c.1,0,.1,0,.1.2s-.1.1,0,.3.2.3.1.5l-.2.3h-.2c0-.2.2-.3,0-.3h-.3a2,2,0,0,0-.2.6c0,.2-.1.3,0,.4s.2.3,0,.3-.2-.1-.3.1a1.7,1.7,0,0,1-.2.5c-.1.1,0,.1-.3.3l-.4.6a2.4,2.4,0,0,1-.3.7,4.1,4.1,0,0,1-.3.8v.6a1.3,1.3,0,0,1-.1.6.8.8,0,0,0,.2.4c.1.1.2.2.1.3s-.1.6,0,.8a1.4,1.4,0,0,0,.2.6c0,.2-.1.3.1.4l.4.2c.1.2.1,0,.2.2a.9.9,0,0,1,.1.5c0,.2-.1.5-.1.8V66l.2.5.3.5c0,.2.1.3.1.4s.1.1-.1.2h-.2c0,.2.1.3.2.3s.3.1.3.3,0,.3.1.3.2.2.1.3-.2.2-.1.4a.5.5,0,0,1,.3.4s.3.2.3.4.1.2.2.1a.4.4,0,0,0,0-.5c-.1-.1-.3-.1-.3-.3s0-.6-.1-.8v-.4c-.1-.1-.3-.2-.2-.4a.4.4,0,0,0-.1-.5c0-.2.1-.4,0-.5s-.1-.1-.2-.2-.1-.1-.1-.3v-.6l.2.2a.8.8,0,0,1,.2.4v.4a1.1,1.1,0,0,0,.1.5,1.1,1.1,0,0,0,.2.5c.1,0,.1.2.2.4s.3.3.3.4a.2.2,0,0,1,0,.3.6.6,0,0,0,.1.4l.3.2c0,.2,0,.2.1.3a.6.6,0,0,1,.2.4l.3,1a.1.1,0,0,1,0,.2c-.1.2-.2.3-.1.5s.2.4.4.5l.4.5h.4c.1,0,.2.1.2.3a.5.5,0,0,0,.4.3l.7.3.5.3h1.3l.3.4c.1.2.5.4.5.5H23c.2.1.2.2.4.2s.4.2.5.1h.2c0,.1-.1.2,0,.3l.3.3.2.4v.2c0,.1-.1.3,0,.4h.2l.3.2c.2.2.3.1.3.3s.1.2.3.2h.3l.3.2c.1,0,0,.2.2.2l.3-.2c0-.2-.2-.2,0-.3l.4-.4c.2,0,.3.1.3.2h.1c.1.2,0,.2,0,.3l.3.3a.3.3,0,0,1,.1.2c-.1.1-.2.2-.2.3v.8a.8.8,0,0,0-.2.4c0,.1,0,.3-.2.3s-.2.4-.3.5l-.2.2-.3.2v.2c-.1.2,0,.1-.1.2a.6.6,0,0,0-.2.5c.1.2,0,.3,0,.4l.3-.2c.1,0,.1.1.1.2s-.1.2-.2.3-.2.3-.3.4v.4c0,.1.1.1.1.2s-.2.1,0,.3.2.3.3.3l.3.3.2.4a.6.6,0,0,1,.2.5l.2.4c.1.2.1.4.3.5a.5.5,0,0,1,.1.3l.4.5v.3l.2.2h0v.2l.3.4c0,.1,0,.1.2.1h.3l.3.2.5.2.5.4c0,.1.1.2.1.3s.1.3.1.4a4.3,4.3,0,0,1,.1.5v.3c.1.2.2.3.1.4v.3c-.1.3-.2.4-.1.6s.2.2.2.3l-.2.4c0,.1.1.1.1.2l.2.5c-.1.2-.2.3-.2.4v.5c0,.1-.1.3,0,.3a.4.4,0,0,1,.1.3.5.5,0,0,0-.1.3c0,.1.1.1.1.2a2.3,2.3,0,0,1,.1.4v.5c-.1.1,0,.3-.1.4h0v.3l-.2.4a4.3,4.3,0,0,1,.1.5c0,.2-.1.1-.1.2s0,.2,0,.4,0,.2.1.3h0c0,.3.3.2.1.4s-.1.1-.1.3v.3s0,.3.2.4H32c-.1.1-.2.1-.1.2s.1.1.1.3h-.1c-.1.1-.3.1-.1.2s.3,0,.3.1.1.1,0,.2-.1.2-.1.3h.2c.1.1.1.1,0,.2v.4a.4.4,0,0,0-.1.3c0,.1,0,.2-.1.1s-.1-.1-.1-.3h-.2a.1.1,0,0,1-.1.1c0,.1-.2,0-.1.1s.2.1.1.2-.2.1-.2.2l.3.2c0-.1-.1-.2,0-.2H32c.1.1.2.1.1.2h-.2c0,.1.2.1.1.2s-.2.2-.1.2h.3s.1.1,0,.1h-.3v.3s0,.2.1.2l.3.2h0v.3s.1.3,0,.2-.2-.2-.2-.3,0-.2-.1-.2v.4h.3c0,.1.1.2,0,.2s-.1.2,0,.2h.3c0,.1.1.2.1.1H33c-.1.2,0,.1,0,.2a.2.2,0,0,0,.2.2.3.3,0,0,0,.1-.2l.2.2c-.1.1-.2,0-.2.1s-.3,0-.1.1h.3l.2-.2.2.2a.5.5,0,0,0-.1.3c-.1,0-.1.2,0,.2h.3v-.5c0-.1,0-.2.2-.3s.4-.1.4-.2l-.4-.6v-.5c0-.1.1-.1.1,0s.2,0,.2-.1a.5.5,0,0,0,0-.5c0-.1-.1-.1,0-.2l.2-.3c.2,0,.3,0,.3-.2s.1-.3,0-.4l-.5-.2a.4.4,0,0,1-.2-.3c0-.1-.1-.2,0-.3l.4-.4v-.3c.1-.1,0-.1,0-.3s.1-.2.2-.2a.2.2,0,0,0,0-.3s-.2-.1,0-.1h.2c.1,0,.2-.1.1-.2h-.5c-.2-.2-.3-.4-.2-.4h.6c.2,0,.4.1.5-.1s-.1-.2-.1-.4.2-.2.1-.3-.1-.1,0-.2h.8c.1-.1.4-.1.4-.3l.2-.3h.2c.1-.1.1-.1.1-.3s0-.3-.1-.3l-.3-.3c0-.1-.2-.2-.3-.3s-.1-.1-.1-.2.1-.1.2-.1.2.1.3.1h.7l.5-.3.2-.3c.1,0,.2-.3.3-.5l.3-.4c.1-.1.1-.2.2-.4l.2-.3c0-.2.3-.6.3-.7s.1-.2.1-.4v-.3a.5.5,0,0,0-.1-.3.7.7,0,0,1,.1-.5l.6-.4c.1-.1.1-.2.3-.2h.4c.1-.2,0-.3.3-.3l.8-.2c.1-.1.3-.1.3-.3s0-.3.1-.4a5.7,5.7,0,0,0,.4-.7c0-.2-.1-.3,0-.5a1.1,1.1,0,0,0,.2-.6V87.2c0-.1,0-.2.2-.3l.4-.3.4-.5c.1-.2.3-.2.4-.4s.2-.2.2-.5a2.7,2.7,0,0,0,0-.9C44.9,84,44.7,83.8,44.6,83.8Z"/><path class="cls-3" d="M20.1,41.4h.2c.1-.1.1-.1.1,0h.2c.2,0,.2-.1.3-.2h.2c0-.1.2-.2-.2-.1h-.5c-.1.1-.1.1-.2,0s-.2.3-.2.5Z"/><path class="cls-3" d="M89.5,77.4Z"/><path class="cls-3" d="M99.9,40.5h0Z"/><path class="cls-3" d="M108.1,53.1l-.2-.2-.3-.2h-.4a.1.1,0,0,0-.2,0c0,.1.1.1.1.2a.3.3,0,0,1,.1.2h-.3s-.1.1-.1,0-.2,0-.1-.1.1-.2,0-.2h-.2v.2c0,.1.1.3,0,.3a.1.1,0,0,1-.1-.1.1.1,0,0,0-.1-.1c.1-.1.1-.2,0-.2s0-.2-.1-.2h-.5s0-.2.1-.2.1-.1.2-.2a.4.4,0,0,0,.1-.3c.1-.1,0-.1.1-.3s.1-.3.1-.4h.1a.6.6,0,0,1,.1-.4V49.4A46.1,46.1,0,0,0,101,39.2h-.3s0,.2.1.2,0,.1-.1.2h-.1V40c.1,0,0-.1.2-.1h.1c.1,0,.2,0,.1.1v.2h-.1c.1,0,.1.1.2.2a.1.1,0,0,0-.1.1c0,.1-.1,0,0,.1a.3.3,0,0,1-.1.2h-.5s-.1.1-.1,0h-.3c-.1,0-.3,0-.2.1l.2.2a.1.1,0,0,1-.1.1h-.2c0-.1,0,0-.1-.1h-.6c-.1-.1,0-.4-.1-.3s-.2.2-.1.3a.8.8,0,0,0,.1.4c.1.1.2.1.1.2s-.4.2-.5.1l-.2-.2H98a.2.2,0,0,1-.2-.2c-.1-.1.2,0,0-.1h-.9c-.1,0-.3-.1-.3,0s.1.2.1.3.2.2,0,.1a.4.4,0,0,1-.2-.3,1,1,0,0,1,.1-.3h.2c.1,0,0-.2.2-.3s.3-.2.2-.2h-.9c-.1,0-.2,0-.2.1h-.4c-.1,0-.3-.2-.4-.1v.2h.1s.1,0,0,.1h.1s.1,0,0,.1h-.5l-.4.2a.3.3,0,0,0-.1.2h-.3c0-.1,0-.1-.1-.2s.1-.1-.1-.1l-.5.2h-.3a.1.1,0,0,0-.2,0h-.2v.3h-.1v-.2a.3.3,0,0,0-.1-.2h-.1c.1-.1.2-.1,0-.2h-.2a.5.5,0,0,1-.1.3h-.5c0,.1,0,.2-.1.2h-.2c-.1,0,0,.2,0,.2h.5s.1,0,0,.1h-.7v.2h-.4c-.1,0-.1.1-.1.2s.2.1.1.2-.3,0-.3.1h-.2a.3.3,0,0,0,.1-.2c0-.1-.1-.2,0-.2s.1-.1.1-.2.2-.3.4-.3.1-.2.3-.2h.2a.1.1,0,0,0-.1-.1h.2c.1,0,.2-.2.3-.3s.2-.2.3-.2.1,0,0-.2h0c-.1-.2-.1-.3-.2-.3h-.1s0,.1-.2,0l-.2-.2h.5c0-.1.2-.1.1-.1s0-.3-.1-.3a.1.1,0,0,0-.1-.1h-.1c-.1,0-.1-.1-.1,0h-.3a.2.2,0,0,0-.2-.2H90l-.5.2s-.2.1-.2.2h-.2v-.2h-.5a.1.1,0,0,1,0-.2s.2.1.1,0-.1-.1-.1-.2a.1.1,0,0,1-.1-.1c.1-.1.2-.1.1-.1h-.2c-.1,0-.1-.1-.1,0l-.2.2c.1.1,0,.2-.1.2h0c0,.1-.2.2-.2.3a.1.1,0,0,0,.1.1c.1,0,.1,0,.1.1h.3c.1,0,.2-.1.1,0s0,.2-.1.2-.1.2-.2.1,0-.2-.1-.1h-.5c-.1.1,0,.2.1.2v.2h-.3s0,.2-.1.1a.3.3,0,0,0-.1-.2s0,.2-.1.2h-.4v-.2l-.4.3H86s.2,0,0,.1h-.3c.1.1-.1.1-.2.1s-.4,0-.4.1-.1,0-.1.1a.1.1,0,0,0-.1.1v.2h0l-.4.2h0v.3a.1.1,0,0,1,.1.1h.2v.2H85v.2h-.4a.1.1,0,0,1,.1-.1h.1c-.1-.1-.1-.2-.2-.1h-.2a.3.3,0,0,1-.1.2h-.3l-.5.2c-.1,0-.2-.1-.2,0s-.1.3,0,.3h.2v.2c0,.1.1.1.2.1h.1c0,.1,0,0,.2.1H84a.1.1,0,0,0,.2,0h.2v.2a.3.3,0,0,0,.1.2c.1.1.2.2.2.3h-.1a.4.4,0,0,0,.1.3.1.1,0,0,0,.1.1c.2.1.2.2.2.2h-.1l-.3-.2h-.2c-.1-.1-.1-.1-.1-.2h-.2v-.4a.3.3,0,0,0,.1-.2v-.2h-.3c-.2,0-.1.1-.2,0h-.3l-.4-.2c-.1-.1,0-.1-.2-.1h-.4a.1.1,0,0,0,.1.1h.1s.1.1,0,.1h-.1s-.1,0,0,.1h.1a.3.3,0,0,1,.1.2c0,.1-.1.1-.1,0s-.2-.2-.2-.1-.5,0-.5.1,0,.3.1.3,0,.1.2.1h.4l.3-.2h.2v.2h-.4c-.2.1-.2,0-.3,0h-.5a.1.1,0,0,1-.1-.1v-.5c.1-.1.1-.1.1-.2l-.2-.2h-.2v.2c0,.1.1,0,.1.1s0,.1-.1.2,0,.1-.1.2v.2a1,1,0,0,0,.1.3l.2.2c.1.1.1.3.2.3s.1,0,.1.1h-.2v.2c.1,0,0,0,.1.1s.1.1.1.2v.2a.1.1,0,0,0,.1.1h.4s-.1-.1.1-.1.2-.1.3,0H83a.3.3,0,0,1,.1.2l.3.3v.2c.1.1,0,.2.1.2h-.2c0-.1-.1-.2-.1-.3s-.1-.1-.1-.2h-.1c.1,0,.1,0-.1-.1h-.2a.1.1,0,0,1-.1-.1l-.2.2a.1.1,0,0,1-.1.1v.4c0,.1,0,.2.1.2v.2s-.2.2-.2.3-.1.2-.1.3,0,.2-.1.2h-.3c-.1,0,0,.1-.1,0s0-.1-.2-.1h-.3c-.1,0-.1.1-.1,0h0c.1,0,.1,0,.1-.1s0-.1.1,0h.4v-.2c.1-.1.1-.1.1-.2v-.2c0-.1.1-.1.2-.1v-.2c0-.3-.1-.2,0-.3s.1-.1,0-.2h-.2c0-.1-.1-.4-.2-.4s-.2-.2-.2-.3v-.2c-.1-.1-.3-.1-.2-.2s.2-.2.1-.3-.4-.3-.4-.4a.5.5,0,0,0,0-.4v-.2c-.1-.1-.1-.2-.3-.2h-.8V45c0,.2.1.3.1.4v.2c-.1.1,0,.1-.1.1h-.2c-.3.1-.3.2-.3.2s0,.1.1.2h.1c.1,0,.1.2.1.3s.1,0,.1.1h-.2v.3h.2a.1.1,0,0,1,.1-.1h.1l.2.2.2.2h.1V48h-.3c-.1-.1-.1-.2-.2-.2h-.7l-.2-.2H77.8a2.3,2.3,0,0,0,.1.4v.2h-.3c0-.1.1-.2,0-.1h-.4c-.3.1-.3.2-.2.2h-.6a.3.3,0,0,0-.1.2s.2.2,0,.2h-.4a.3.3,0,0,1,.1-.2H76c.1-.2,0-.2.2-.2H76c-.1,0-.1-.1-.2.1s0,.2-.1.2-.3.1-.3.2l-.4.2-.3.2c-.2,0-.3.1-.3.2a.3.3,0,0,1-.1.2h-.1v.2c0,.1.1.2,0,.2h-.7c-.1-.1-.2-.2-.1-.2s-.1-.1,0-.2h.5a.3.3,0,0,0-.1-.2h-.2v-.2h-.8a.3.3,0,0,0-.1-.2c0,.1-.1.1,0,.2h.1c.1,0,.1,0,.1.1s.1,0,.1.1v.4c.1,0,0,.1.1.1l.2.2h.1v.3h0c0,.1-.1-.1-.2-.1V50h-.3c-.1,0-.2,0-.2.1s0,.1-.1.2h-.1c-.1.1-.2,0-.2.1v.2h.1c.1.1.1.1,0,.2h-.5l-.3-.2c-.1,0,0-.1-.2,0H71c0,.1,0,.1.1.1h.2c.1.1,0,.1.1.2h.1c.1,0,.2,0,.2.1h-.8l-.2-.2a.1.1,0,0,1-.1-.1h-.1v-.2c-.1,0-.1-.1-.1-.2h0a.5.5,0,0,0-.3-.3h-.3c-.1-.1,0-.2-.1-.2h-.2s-.3-.1-.1-.2H70c.1,0,.1,0,.1.1h2c.1-.1.1-.1.1-.2a.1.1,0,0,0,0-.2v-.3h0c0-.1,0-.1-.1-.2a.4.4,0,0,0-.4-.2h-.2l-.4-.3-.4-.2H69.4a.1.1,0,0,0-.1-.1c.1-.1.1-.2,0-.2h-.9c-.1,0-.2,0-.2-.1h.3c.1,0,.2-.1.1-.1h-.7c0-.1,0-.3-.1-.1h-.2v.2h-.1v-.2a.1.1,0,0,0-.2,0v.2a.3.3,0,0,1-.1-.2h-.2c0,.1,0,.2.1.2h0c-.1,0,0,.1-.2,0s-.2-.3-.2-.1.1.2,0,.3,0,.2-.1.1,0-.2-.1-.2h-.5c.1.1.2.1.1.1s.1,0-.1.1h-.1c-.1,0,0,0-.1.1s-.1.1-.1,0v-.2a.1.1,0,0,1-.1-.1.5.5,0,0,0-.1.3c0,.1-.1,0-.2.1s0,.1-.1.1,0,0-.1.1l-.3.2h0a.4.4,0,0,0,.1.3c-.1,0-.1-.1-.2,0h-.3c-.1.1-.1,0-.1.1a.1.1,0,0,0,.1.1v.2h-.1v.2c0-.1-.1-.1-.1,0s-.2.1-.2.2h0c.1.1,0,.2-.1.3h-.2s.1,0,0,.1,0,.1-.1.2h-.2c-.1.1-.2.2-.1.2s0,.2.2.1,0-.1.2-.1.3-.2.3-.1,0,.2-.1.2l-.3.2H63l-.2-.2c-.1,0-.3.1-.2.3l.3.2h-.6s-.2-.1-.2,0v.2c.1.1,0,.2-.1.2s-.1.1-.3.2l-.5.2c-.1.1.3,0,.3,0h-.4c.1.1.2,0,.2.1h.2c0,.1.1.1,0,.1h-.4a.1.1,0,0,0-.1.1v.4c.1.1.1,0,.1.1a.3.3,0,0,0,.1.2.1.1,0,0,0,.1.1h0a.1.1,0,0,0-.1.1,1,1,0,0,0,.1.3h0v.3l.2.2h.7c0-.1.3-.1.3-.2v-.2h.1a.2.2,0,0,0,.2-.2c0-.1-.1-.1,0-.1s0-.1,0-.1l.2.2c.1.1.1.1.1.2s-.1,0-.1.1v.2a1.4,1.4,0,0,1,.2.4l.2.2c0,.1.1.1.1.2s.1,0,.1.1.1.1.1.2-.2.1-.2.2h-.4c0-.1-.1-.1-.1-.2v-.2h-.2c0-.1-.1-.2-.1-.1s-.1,0-.1.1h-.1l-.3.2c0-.1-.1-.2-.1-.1s-.2.1-.1.3v.2a.1.1,0,0,0,.1-.1h0a.4.4,0,0,1,.1.3v.2s0,.2.1.2a2.3,2.3,0,0,0-.1.4h-.2a.1.1,0,0,0-.2,0,.4.4,0,0,0-.2.3h-.6a.1.1,0,0,0,0,.2.1.1,0,0,1,.1.1h0a.1.1,0,0,1-.1.1H61c0-.1-.1-.1-.1-.2h0a.3.3,0,0,1-.1.2v.4h-.2l-.2.2h-.2l-.3.2h0a.1.1,0,0,1-.1.1c0,.1.1.1-.1.1h-.2c-.1,0-.1,0-.2.2s-.1.1-.2.1-.1-.2-.2-.2a.1.1,0,0,0-.1-.1c0,.1-.2.1-.1.1a.3.3,0,0,0,.1.2h0c.1,0,.1,0,0,.1s0,.2-.1.2h-.5s-.2,0-.2.1h-.1v.3c0,.1-.1,0,.1.1h.3l.2.2h.3c.1.1.1,0,.1.1a.1.1,0,0,1,.1.1.1.1,0,0,0,.1.1v.2h0a.4.4,0,0,0-.1.3h0v.2a.3.3,0,0,1-.1.2c0,.1-.1.2-.1.3s-.1.1-.1.2H56.5a.1.1,0,0,0-.1-.1l-.5.2v.3c0,.1.1.1.1.2v.2c-.1,0-.1,0-.1.1v.2h0v.5h-.1v.5h0c.1.1,0,.2.1.3h0v.4h.8l.2.3h0v.4c0,.1,0,0-.1.1l-.4.3c-.1.1-.1.2-.2.2l-.2.3h-.2c0,.1-.1,0-.1.1a.3.3,0,0,0-.1.2,4.3,4.3,0,0,0-.1.5v.3c0,.1.1.1,0,.2v.2l-.3.2c-.1,0-.2,0-.2.1h-.6l-.2.2c-.1.1,0,.1-.1.2h-.1l-.2.2h-.2a.4.4,0,0,0-.1.3c0,.1,0,.2-.1.2h-.3c0,.1-.1.1-.1.2v.2c-.1,0-.1.2-.2.2s-.1.2-.1.3h-.2v.2c0,.1,0,.1.1.1h.1c.1.1.1.1.1.2h0v.2c0,.1-.1.1-.1.2l.2.2a.6.6,0,0,0,.1.4v.2a.1.1,0,0,0-.1.1.4.4,0,0,1-.1.3h.1c0,.1,0,.1-.1.2h-.3v.3h.2v.3h.2c.1.1,0,.1.1.1H53c.1.1.1.1.1.2s-.1,0,0,.1h.2c0,.1.3.4.3.5h0c.1,0,.1.1.2.2h.1v.2h.8c.1,0,.1.1.1.2h.3l.2.2c0,.1,0,.1.1.2h.3c.1.1.1.2.3.2h.5l.4-.2h.7c.1,0,.1-.1.3,0h.9l.4-.2h1.6l.2.2h.1c0,.1,0,.2.1.2s.1,0,.1.1h1.6v1a.4.4,0,0,0-.1.3.6.6,0,0,0-.1.4c-.1.1,0,.1-.1.2h-.1c-.1,0,0,.1,0,.2v.2h.1c0,.1-.1.1.1.2s0,.2.2.3.2.1.2.2l.3.2.2.4.3.4h0s-.1,0,0,.1.1.3.1.4.1.2.1.3v.2c-.1.2-.1.2-.1.3s.1.3.2.3,0,.2.1.2v.2h0c0,.1-.1.1-.1.2V87l-.3.2-.2.4c0,.1,0,.1-.1.2V88l-.2.4V89h0v.2c0,.2.1.2.2.3a.2.2,0,0,0,.2.2v.6h.1c.1.1.2,0,.2.2v1c0,.1.1.1.1.3s0,.1.1.3v.2c0,.2,0,.1.1.3v.5h0c0,.1.1.3.2.3H65c.1.1.1.2.2.2v.5a.6.6,0,0,1,.1.4s.1-.1.2.1l.2.3v.2c0,.2-.2.2-.2.3s0,.2.1.2v.3h0l.2.2c.2.1.2,0,.2.1h.1c0,.1.2.1.2.1h0l.2-.2h.2l.4-.2h.9c.1-.1-.1-.1.2-.1h.9c.3-.2.3-.7.6-.8s.3-.1.4-.2l.3-.3.3-.3c.1-.1.1-.3.2-.4l.5-.4c0-.1.1-.1.1-.4s-.1-.3-.1-.5l.4-.2c.3-.2.4-.1.6-.4a1.6,1.6,0,0,0,.3-.8,1.9,1.9,0,0,0-.1-.8c0-.2-.1-.2,0-.4s0-.1.1-.2.1-.2.3-.2l.3-.2.3-.3c.2-.3.1-.3.3-.3s.3,0,.5-.2l.5-.3c.2-.2.2-.3.1-.3s-.2-.2-.1-.4l.2-.3v-.8c0-.2.2-.1,0-.3s-.2-.2-.3-.4a4.3,4.3,0,0,1-.1-.5v-.3c0-.1.1-.3.1-.4a.4.4,0,0,1-.1-.3v-.4a.4.4,0,0,1,.1-.3,1.1,1.1,0,0,0,.2-.5c0-.1,0-.2.1-.2h.2l.2-.3h.2l.2-.2.2-.2c0-.2,0-.2.1-.2l.3-.3c.2-.1.1-.2.3-.2l.3-.3.5-.5c.2-.1.4-.2.4-.3l.2-.2c.1-.1,0-.2.2-.3s.2-.4.3-.5.2,0,.2-.2A.8.8,0,0,0,79,79v-.2c0-.1-.1-.1,0-.2s.1-.2.2-.3,0-.1.1-.2v-.4a.4.4,0,0,1,.1-.3.4.4,0,0,0-.1-.3H77.8l-.3.2h-.7c0-.1-.1-.2-.2-.3l-.3-.2c0-.1-.1-.2,0-.3h.1v-.2c-.1-.1-.1-.2-.2-.2l-.4-.2q0-.2-.3-.3l-.3-.3a.3.3,0,0,1-.1-.2c-.1,0-.4-.1-.3-.2s0-.3-.1-.4l-.2-.3c0-.1-.2-.3-.3-.4l-.2-.2v-.3c-.1-.1-.1-.1-.1-.2a.6.6,0,0,1-.1-.4.4.4,0,0,0-.1-.3c-.1-.2-.2-.2-.3-.3l-.2-.3s-.2-.2-.1-.3h.1l-.2-.3-.4-.3V71l-.3-.3v-.2h-.2v-.3l-.2-.3-.2-.3v-.2h.1v.2l.2.3v.3l.2.3s-.1.1,0,.1h.3v-.6h.2v.3l.2.3h.2v.2h0v.2l.3.3v.2h.1v.2h.2l.3.2h.1v.9h.1a.3.3,0,0,0,.1.2h.5c.1,0,0,.1.1.2l.3.4.2.3.2.4v.8h.1v.4l.2.2.2.2h.4l.2-.2.7-.2.5-.2h.5c.1-.1,0-.1.1-.1h.3c.1,0,0-.1.2-.1h.2c.1,0,.2.1.2,0v-.2l.2-.2.5-.2h.3a.1.1,0,0,0,.1-.1c0-.2,0-.2.1-.2l.3-.2c0-.2,0-.2.1-.2s0-.1.2-.2.2-.1.2-.2a.1.1,0,0,1,0-.2l.2-.2c.1,0,.1,0,.1-.2l.2-.3a.2.2,0,0,0,0-.3c-.1-.2-.1-.4-.2-.4s-.1-.2-.3-.2-.1-.2-.3-.2l-.3-.2-.3-.2c-.1-.1,0-.3,0-.4v-.3h-.1v.2l-.2.3-.2.3h-.2l-.3.3h-.5a.4.4,0,0,1-.4-.2l-.2-.3c0-.1-.1-.2-.2-.4s-.3-.1-.3-.3l-.2-.3c0-.1-.2-.2-.3-.2s.1-.1,0-.3l-.2-.3c0-.2-.1-.2,0-.3h.3c.1-.1.1-.2.2-.1s.1,0,.2.1l.3.2c.1.2,0,.1.1.3V70c.2.2.1.2.3.2h.6a.5.5,0,0,0,.4.2h.2l.4-.2s.1-.1.3,0l.2.2.2.3h3.3l.2.3.4.2H86c.1,0,.2,0,.1.1s-.1,0,0,.1l.3.2h.3v-.2a1,1,0,0,0-.1.3h-.3c-.1,0-.2,0-.2.1l.3.2.3.3c.1.2.3.3.4.2h.3c.1-.2.1-.1.1-.3s-.1-.2,0-.2l.3-.2h0v.2a1,1,0,0,0,.1.3v.2c0,.1-.1.2-.1.3a.5.5,0,0,0,.1.5c.1.3.2.4.2.5v.4c.1,0,.2.3.2.3s.1.2.1.3l.2.2c.1.2.1.2.1.3v.2c.1,0,.1.1.1.2s-.1.2.1.5.3.3.3.4.1.1.1.2h.1a.4.4,0,0,0,.1.3h0a.5.5,0,0,1,.1.3l.2.4v.2h.3l.2-.2c-.1-.1-.1-.1,0-.2h.2c.1,0,.1,0,.1-.2s-.1-.2.1-.2a.2.2,0,0,0,.2-.2v-.3c-.1-.1-.2-.2-.1-.3a.4.4,0,0,0,.1-.3v-1a.9.9,0,0,0,.1-.5l.4-.4c.3-.1.2-.1.4-.3s.1-.3.2-.3.1-.3.2-.4l.3-.2.3-.2c.1,0,.2-.2.2-.3l.2-.2c0-.1-.1-.2-.1-.3h.2l.3-.4s.2.2.2.3h.2c.1-.1,0-.1.2-.1s0,.2.2.1h.5a.8.8,0,0,0,.2.4c0,.2-.1.2.1.3l.3.2v.3c.1.1,0,.2.1.2h.2l.3.4c0,.1.1.1.1.2v.2a.6.6,0,0,0,.1.4c.1.1-.1.3.2.1s.1-.2.2-.2l.3-.2v-.2l.4.5c0,.1.1.2.1.3a.4.4,0,0,0-.1.3.3.3,0,0,1,.1.2v.2l.2.4a.4.4,0,0,1,.1.3h-.1a.4.4,0,0,0,.1.3v.4h0v.5a.4.4,0,0,0-.1.3v.4h.1a.3.3,0,0,1,.1-.2h.1v.2c.1.1.2.3.3.3s.1.1.2.2v.2a1.2,1.2,0,0,1,.2.5c0,.1.1.3.1.4V81c.1.1,0,.2.1.3l.4.3h.7v-.2a1.4,1.4,0,0,1-.2-.4v-.7a.4.4,0,0,0-.1-.3l-.3-.5-.4-.5c-.1-.1-.2-.3-.3-.3l-.3-.3c0-.1.2-.1.1-.3s-.5-.5-.5-.7l.2-.4c.1-.2.1-.1.1-.4v-.5c0-.2,0-.3.1-.3a.2.2,0,0,1,.2.2c.1,0,0,.1.1.2l.5.2h.1l.3.4v.2l.4.2v.2c.1.1.2.2.2.3v.3c0,.1,0,.2.1.2l.3-.2s.1-.3.2-.3h.2c.1-.1,0-.2.2-.2h.5a.8.8,0,0,0,.1-.4,1.1,1.1,0,0,0,.1-.8.4.4,0,0,0-.1-.3v-.4l-.3-.6a1.4,1.4,0,0,1-.4-.4c-.3-.2-.3-.1-.4-.3l-.2-.3c-.1-.1-.3-.3-.3-.4s-.2-.2-.1-.3a.4.4,0,0,0,.1-.3l.3-.2v-.2l.2-.2c0-.1-.1-.1,0-.2h.3a.1.1,0,0,0,.2,0h.1a.1.1,0,0,1,.1.1.6.6,0,0,1,.1.4c0,.1.1.2.1.3h.2c.1,0,.2,0,.1-.2v-.2h.3l.4-.2h.1l.4-.2c.1,0,.1-.2.3-.2h.6c.1-.1.2-.1.2-.2l.2-.2.2-.2a.1.1,0,0,1,0-.2s.2-.1.2-.2.2-.1.2-.4.1-.1.1-.3v-.4l.2-.2c0-.1-.1-.2.1-.3s.3-.1.3-.3-.1-.3-.1-.5v-.2h-.9c-.1.1-.3.1-.2,0l.2-.3h.4l.3-.2a.5.5,0,0,0-.3-.3c-.2-.1-.5-.1-.3-.2l.3-.2-.4-.6c-.2,0-.1,0-.3-.3l-.5-.6c0-.1-.1-.3,0-.4l.5-.5c.1-.1.2-.2.2-.3s.3,0,.1-.1-.1-.2-.3-.1h-.3c-.2,0-.4-.1-.4,0s0,.2,0,.2-.3.2-.4.1l-.2-.2-.4-.3h0v-.3h.1c.1,0,.3.1.3,0s0,.1.1-.1-.1-.3.1-.3.1,0,.2-.2-.1-.1,0-.2l.3-.3h.2c.1.2.1.2.1.3a.3.3,0,0,0-.1.2c-.1.1,0,.3,0,.3s.1.1,0,.1.1,0,.2,0l.2-.2c.1-.1,0-.1.1-.2h.8c.1,0,.1-.1.1.1v.2c0,.2,0,.2.1.3a.4.4,0,0,1,.1.3h.6c.1.1.2,0,.2.1s0,.1-.1.2h0c-.1.1,0,.2,0,.3h.2v.2h-.1a1,1,0,0,0,.1.3l.2.3h.1l.3-.2v-.4h.2l.2-.2a.3.3,0,0,0-.1-.2c-.1,0-.1-.4-.1-.5l-.3-.2c0-.2,0-.1-.1-.3l-.3-.3-.2-.2s-.3-.3-.3-.4a.1.1,0,0,1,0-.2h.1c.1-.1.1-.1.1-.2a.2.2,0,0,0,.2-.2,1,1,0,0,0,.1-.3l-.2-.2a.3.3,0,0,0,.1-.2c.1-.1,0-.2.1-.3a.2.2,0,0,0,.2-.2l-.2-.2h.2c.1-.1.1,0,.2,0s0,.1.1.2h.6a.2.2,0,0,0,.2-.2s-.2-.1-.1-.2.2-.2.2-.3a.5.5,0,0,1,.1-.3c0-.1-.1-.2,0-.3a.6.6,0,0,0,.1-.4v-.2c.1-.1.1-.1.1-.3v-.2c0-.1,0-.4.1-.5h0c.1,0,.1-.1.1-.2S108.5,54.4,108.1,53.1Z"/><path class="cls-3" d="M44.6,39.1a.3.3,0,0,1-.1-.2h-.1a.4.4,0,0,0-.1-.3c0-.1,0-.1-.1-.1h-.4s-.2.1-.2.2v.2s.1.1,0,.1l-.4-.2v.2h-1a.1.1,0,0,1-.1.1v.3c.1,0,0,.1.2.1s.1.1.2,0h.2l.2.3h-.4s.1.1-.1.1H40.9s-.1-.1-.1,0h-.4a.1.1,0,0,0,0,.2v.2c.1,0,.1.1.2.2l.3.2h.7a.2.2,0,0,1,.2.2s-.1.1-.3,0H41c.1.1.2.1.1.1s0,.1-.2.1h-.3c0-.1-.1-.1-.2-.1s-.1-.1-.1,0v.2h.9s-.1.2-.2.2h-.3s-.1-.1-.1,0l-.2.2v.2l.2.2.2.2h.2c.1.1.1,0,.1-.1s-.1-.2,0-.2l.2.2s.2.1.2,0,.1-.3.2-.3a.3.3,0,0,1,.1.2h.2c.1-.1.1-.2.2-.1v.3h.5c.1.1.2.1.2.3a.3.3,0,0,1,.1.2.5.5,0,0,1,0,.4c0,.1.1.2.1.3h.3c.1.1,0,.2,0,.3h0a.1.1,0,0,1,.1.1s.1,0,0,.1h0a.1.1,0,0,0,0,.2h.1c.1,0,0,.1,0,.2v.2h-.1l-.2.3v.2c.1,0,.1.1,0,.1s.1.2.3.1.1-.2.1-.3v-.2c.1-.1.1.2.1.2s-.1.1.1.2.1,0,.1.1h0c-.1.1,0,.2,0,.3h0s0,.2-.1.2H44l-.3-.2h-.2c0,.1.1.1.1.2h.3a.3.3,0,0,0,.1.2s.2.1.3,0,.2-.2.3-.1.1.2.1.3l-.4.2-.2.3c0,.1.1.1,0,.2s-.1,0-.1.1-.1.2-.3.2h-.1c-.1,0-.1,0-.1.1s0,.2.1.2h-.3c-.1,0-.1,0,0,.1h.5c0,.1,0,.2-.1.2h-.5s-.1-.1-.1,0,.4.1.5.1.3,0,.1.1h-.5c0,.1-.2.2-.2.2a.1.1,0,0,0,0,.2c0,.1.1.2.2.1s0-.2.1-.3h.2a.3.3,0,0,1-.1.2.1.1,0,0,0-.1.1c.1.1.1.1.1.2s-.1.1-.1.2v.3h.3c.1,0,.3.1.1.1s0,.2-.1.3l-.3.2h-.1v.3a.3.3,0,0,0,.1.2c.1.1.2,0,.2.1l-.2.2c0,.1-.1.2-.1.3h.3v.2h.1a.1.1,0,0,0,.1.1v.2h.7c.1,0,.1,0,.1.1h0c-.1,0-.2,0-.2.1a.3.3,0,0,1,.1.2h.2a.3.3,0,0,1,.1.2c.1.1,0,.1.1.1h.1c.1-.1.1-.1.2,0s.1.3.2,0v-.4a.4.4,0,0,0,.3-.2.1.1,0,0,0,0-.2.3.3,0,0,1,.1-.2c0-.1.2-.2.1-.3s-.2-.1-.1-.2.2-.1.2,0,0,.2.1.1.1-.1.1-.2h0c0-.1,0-.1.1-.2h.1c.1,0,.1,0,.1-.1s.1-.1,0-.2a.1.1,0,0,1,.1-.1h0c.1,0,.2,0,.2-.2a.3.3,0,0,0-.1-.2s-.1,0,.1-.1h.2c.1,0,0-.2.1-.2s.5.2.5.1-.1-.2,0-.2a.1.1,0,0,1,.1-.1l.2-.2h.2c.1.1-.2.2-.2.2s-.1.1-.1.2a.1.1,0,0,0,0,.2h.1a.1.1,0,0,1,.1-.1c.1-.1.1-.1.1-.2h.3a.3.3,0,0,1-.1.2h.4l.4-.2a.3.3,0,0,0,.1-.2,1,1,0,0,0,.1-.3h.2l.2-.2A.4.4,0,0,0,50,49v-.2h.1v.4H51c.1.1.2,0,.3,0s.2-.1.2-.1h.6c.2,0,.2-.1.2-.2s0,0,.1-.1h.2l.3-.2h.2c.1,0,.1-.1,0-.1h-.5l-.3-.2c-.1.1,0,.1-.1.1H52c-.2,0,0-.1-.3,0h-.3c-.1,0-.1-.1,0-.2h.3c0-.1.2-.1.3-.1h.1c.1,0,.2,0,.1-.1h-.4l-.2-.2a.1.1,0,0,1-.1-.1c0-.1-.1-.1,0-.1s.3.1.3.2h.3c.1,0,.2,0,.2.1h.1s0,.2.1.2.2.1.1.1-.1.2,0,.2v.2a.1.1,0,1,0,.2,0c0-.1,0-.1.1-.1h.2c.1,0,.1.2.2,0h.1a.1.1,0,0,0,0-.2c0-.1-.1-.1,0-.2h0c.1,0-.1-.2-.1-.3h-.2c-.1,0-.3-.3-.4-.2h-.2c-.1-.1,0-.2-.1-.2h-.4a.1.1,0,0,1,.1-.1h.1l-.4-.2s-.1-.1,0-.1h.2a.1.1,0,0,0,.1.1c.1.1.1.2.2.2s.1-.1.1-.2h.1s.1.1.1,0a.3.3,0,0,0-.1-.2h-.1a1,1,0,0,1,.1-.3l.2.2h.5c.2.1.1.1.1.1H54c.1,0,.1-.1.1-.2l-.3-.2h-.3a.3.3,0,0,1,.1-.2h.2c.1,0,.1-.1.2,0h.5c.1-.1.2-.1.1-.2h-.5s-.2,0-.2-.1v-.2h.4c0-.1-.1-.2-.1-.3v-.3c0-.1-.2-.1-.2-.1a.2.2,0,0,1-.2-.2.3.3,0,0,0-.1-.2h.5c0-.1-.3-.3-.3-.3h.3l.3.2h.2c.1,0,.2.1.2,0s.1-.1,0-.2,0-.2-.1-.2h-.2c-.1,0-.1.1-.2,0s.1-.1-.1-.2-.1-.1,0-.2.1-.1.1,0h.2s.2.1.1,0,0-.1-.1-.3l-.3-.2q-.1,0,0-.3c.1-.1,0-.2.1-.2s.2,0,.2-.1l.4-.3c0-.1.1,0,.1,0s.2,0,.1-.1.1-.3,0-.3h-.4c0,.1-.1-.1,0-.1H55c.2,0,.2.1.3,0s.3-.1,0-.1-.4-.1-.2-.1h.4c.2,0,.2.1.3,0s.3,0,.3-.1.1-.3.2-.3.3,0,.3-.1.2-.2-.2-.2h-1s0-.1-.1,0-.1.1-.1.2.1.2-.1.1l-.2-.2h-.2s-.2-.1-.2-.2h-.1v.2c-.1,0-.1,0-.1.1s-.1,0-.1.1,0,0-.1.1h-.2a1,1,0,0,1-.1.3h-.2c-.1.1-.1,0,0-.2l.3-.3a.3.3,0,0,1,.1-.2c0-.1.1-.1.2-.2h.2l-.2-.2c-.1-.1-.1-.2-.2-.2h-.3c-.1,0-.1.1-.1.2s0,.3-.1.3h-.6l-.2.2a.1.1,0,0,1,0-.2c0-.1.2-.1.3-.2l.2-.2h0c-.1,0-.3,0-.3.1H51.2c0,.1-.1.1-.1,0s0-.1.1-.2h.2c.1-.1.2-.1.2-.2v-.2h1.9a.5.5,0,0,1,.1-.3h-.1c-.1.1-.2.2-.3.1H51.2c-.2,0-.1.2-.2.2s-.1.1-.1,0-.2-.1-.2-.1a.3.3,0,0,1,.1-.2c.1,0,.3.1.3,0h0c0-.1-.1-.1,0-.1h.3c.3.1.2.1.3,0H51c-.1-.1,0-.1-.2-.1s-.3-.1-.4,0-.1.2-.3.1h-.3a.3.3,0,0,1-.1.2.3.3,0,0,1,.1.2c.1,0,0,.1,0,.1h-.4c-.1-.1-.4-.2-.4-.3v-.2h-.2c-.1,0-.3,0-.3.1v.2h-.3c.1.1.1,0,.1.1s-.1.1-.1.1,0,.1.2.1h.8l.2.2c-.1.1-.1.1-.2,0h-.8c-.1,0-.2,0-.2.1v.4l-.3-.4c-.1,0-.1-.2-.2-.3h-.3c-.3-.1-.3-.1-.3-.2s0-.1-.2-.1-.2.1-.2.2.1.3,0,.4H46c-.1-.1-.3.1-.3.1v-.2c0-.2.1-.2-.1-.2s.1-.1-.2-.1-.3.1-.5,0h-.5v.2c0,.1.1.1.1.2V39c.1,0,.2.1.1.1h-.1"/><path class="cls-3" d="M41.1,36.7h-.3c0-.1,0-.1-.1-.1h-.3v.2h.1c-.1.1-.2.1-.3-.1s-.1-.2-.2-.2-.1-.1-.2,0a.1.1,0,0,0-.1.1c0,.1,0,.1-.2,0h-.2c0,.1-.2.1-.1.2s.1.1,0,.1-.3,0-.3-.1l-.2-.2-.3-.2-.3-.2h-.3c0,.1,0,.1.1.1h0a.1.1,0,0,1-.1.1h-.2l-.3-.2h-.8c-.1,0-.2,0-.2.1h.8c.1.1.2.1.2,0s0-.1.1-.1h.1a.3.3,0,0,1-.1.2c.1.1.2-.1.3-.1h.4c0,.1-.3.2-.3.2a.1.1,0,0,0-.1.1h.5c0,.1-.1,0-.1.1h1c0-.1,0-.1.1-.2h.3c0,.1-.1.1-.1.2h-.1L39,38a.1.1,0,0,0-.1.1c0,.1.2.1,0,.1h-.4a.2.2,0,0,0-.2.2h0c.1,0,.2.1.1.1s-.4-.1-.4-.2a.1.1,0,0,1-.1-.1v-.2c-.1-.2-.2-.2-.2-.2h-.4a1,1,0,0,0-.1.3h0a1,1,0,0,0,.1.3h.2c0,.1.1.1,0,.1h-.1l.2.2h.2s.1.1,0,.1h0c-.1.1,0,.1-.1.1l-.3-.3h-.7l-.2.2h-.1v.3h.4c.1.1.2,0,.2-.1h.2c0,.1-.1.1-.1.2h-.1c-.1.1-.1.1-.1.2a.1.1,0,0,1,.1.1h.3a.1.1,0,0,1,.1-.1s.1-.1.1,0a.1.1,0,0,1,.1.1h-.1v.2H37c-.1,0-.1,0-.1-.1h-.1c0-.1-.1-.1-.1-.2s0,0-.1-.1-.2-.1-.2-.2l-.4-.2h-.2c-.1.1,0,.1,0,.2s-.1,0,0,.1H36c.1.1,0,.1,0,.2H35a.3.3,0,0,1,.1.2h.2c0,.1,0,.1.1.1h.3c0-.1,0,0,.1,0h.1c.1,0,.1,0,.1.1h.5c.1-.1-.1-.1.1-.1h.2a.1.1,0,0,0,.1.1c.1,0,.1.1.2,0s.1,0,.1.1h0s0-.1.1,0h.2c0,.1,0,.1.1.2h.6c.1-.1.1-.1.1-.2s.1-.1,0-.2H38a.3.3,0,0,1-.1-.2h-.3c.1-.1.1-.1.1-.2h0c.1,0,0,0,.1.1H38c.1,0,.1.1.3,0h.9c.1,0,.1,0,.1-.1h-.1c.1-.1,0-.1.2-.1h.3c.1,0,0,0,0-.1h0s.1,0,0-.1h-.5a.1.1,0,0,1,.1-.1v-.2c.1-.1.1-.1.3,0h.1c.1.1.1,0,.2,0s0,.1.2,0h.2s.4,0,.4-.1h.9c.1,0,0,.2.1,0s0-.1.1-.2h.7c-.2,0-.2-.1-.4,0h-.5c0-.1-.2-.1,0-.1l.4-.2A.1.1,0,0,1,42,38h.5c.2,0,.3.1.3,0h.7c.1-.1.1-.2.2-.2s.1-.2,0-.2h0a.1.1,0,0,1-.1-.1h-.4c0-.1-.1-.1-.1,0h-.3c-.1,0,0,.1-.1,0s-.2-.1-.1-.1h.1c-.1,0-.1.1-.2,0h-.8c-.1-.1-.1-.2-.2-.1s-.1.1-.1.2a.1.1,0,0,0,.1.1v.2h-.1a.4.4,0,0,1-.1-.3h-.2"/><path class="cls-3" d="M37.4,51.1h.3c0,.1.1.1.2.1h.3s0,.1.1,0h.1v-.2h-.2c0-.1,0-.1-.1-.2h-.2v-.2c0-.1-.1-.1,0-.1h0c.1,0,.2,0,.2.1h.1l.3.2h.4a.3.3,0,0,0,.1-.2h0c.1,0,.1.1.1,0s.1-.2.1-.4a.4.4,0,0,1-.1-.3c-.1-.2-.1-.2-.1-.3h-.2l-.2-.2h-.1c0-.1,0-.2.1-.1h.1c.1,0,.1,0,.1-.1h0s-.2-.1-.1-.1h.4c0,.1-.1,0,0,.1l.2.2h.1v.2c.1.1.1.2.2.2s.1.1.1.2h.3s-.1,0,0-.1h0c0-.1,0-.2.1-.2a.1.1,0,0,0,.1.1h.1c0-.1.1,0,.1-.1s.1-.2.1-.2-.1-.2.1-.2.2,0,.2-.1h.2c0-.1,0-.2-.1-.2h-.2c-.1,0-.2,0-.2.1s-.1,0-.1-.1l-.2-.3V48c-.1,0-.2,0-.2-.1h-.1s.1,0,0-.1h-.2v-.2s.1-.1,0-.1l-.2-.2c0-.1-.1-.1,0-.1h.4c0-.1,0-.1-.1-.1h-.2s-.1-.1,0-.1h.4a.1.1,0,0,0,.1-.1c0-.1,0-.1-.1-.2s-.1-.2-.2-.1h-.2c-.1.1,0-.1-.1-.1h-.1v-.2h.4a.1.1,0,0,0,.1-.1.1.1,0,0,1-.1-.1h-.6c.1,0,.2,0,.1-.1h-.4c-.1,0-.1.1-.2,0h0c0-.1,0-.2.1-.2h.3l.2-.2a.1.1,0,0,0-.1-.1h-.5a.3.3,0,0,0-.1.2H38a.1.1,0,0,0-.1-.1h-.2l.2-.2h-.3c-.1,0-.1-.2-.1-.2a.5.5,0,0,0,.1-.3h-.3c-.1-.1-.2-.1-.2,0s-.2-.1-.2,0v.2h-.2c0,.1,0,.2-.1.1s-.1-.1-.1-.2.1-.2,0-.2h-.1c-.1.2-.2.2-.3.2s-.1.1-.1-.1.1-.1.1-.2-.1,0,0-.1.2,0,.2-.1v-.3c0-.1.1-.3.1-.4l-.4-.2c-.1.1-.1.2-.2.2h-.2c-.1,0-.2,0-.2.1v.2h-.1c-.2-.1-.3-.1-.2,0v.3a1,1,0,0,0,.1.3H35c-.1,0-.1.1-.1.2V44s.1-.1,0,.1,0,.2-.1.2,0,.1-.1,0h-.2c-.1,0,.1-.2.1-.3s.1,0,.1-.2.1-.2.1-.3-.1-.1,0-.3,0-.3.2-.4.3,0,.3-.1.2-.1,0-.1h-.9c0,.1-.2.1-.2.2v.2c0,.1-.1,0-.1,0s-.1-.2-.3.1-.1.3-.1.3,0,.1-.1.2a.1.1,0,0,1,0,.2.3.3,0,0,1,.1.2l.2.2c.1,0,.3,0,.2.1s0,.2-.1.2l-.2-.2h-.3c-.1.1,0,.2.1.3v.2c.1,0,0,0,0,.1h.4c.1.1,0,.1.1.2h.2l.2.2h.4l.3.2.3.2a.1.1,0,0,0,.1-.1h.3c.1.1,0,.1.1.2s.4,0,.3-.1a.4.4,0,0,0-.1-.3l.2-.2h.2v.5l.2.2a.5.5,0,0,0,.1.3h0a.3.3,0,0,1-.1.2h-.1a.1.1,0,0,0,.1.1h.4a.4.4,0,0,1,.1.3h.2c.1,0,.1-.1.2,0v.2h0c0,.2,0,.4-.1.4v.2l-.3.3c-.1.1-.3.2-.3.3s0,.1-.1.2.1.5-.2.5-.4.1-.5,0h-.8V49c-.1,0-.2,0-.2.1a.4.4,0,0,0,.1.3h.4l.2-.2c.1,0,.1-.2,0-.2h.3c0,.2.1.4.1.3s.2-.2.2-.2l.2.2c0,.1-.1,0-.1.1v.4c.1.2.3.1.3.2v.2h0c-.1.1,0,.2.1.3h.2c0,.1.2.3.2.3"/><path class="cls-3" d="M35.5,41.1c0-.1-.1,0-.2,0h-.5v-.2h-.3a.1.1,0,0,1-.1-.1h-.2c-.1,0,.1-.1.1-.1h.2c.1,0,.1,0,.1-.2h0c-.1-.1-.1-.1-.1-.2h-.6a.3.3,0,0,0,.1-.2.1.1,0,0,0-.1-.1c-.1,0-.1-.1,0-.2v-.2a.1.1,0,0,1-.1.1h-.5c-.2.1,0,.2,0,.3v.3s.1.2.2.2l.3.2a1,1,0,0,1,.1.4l-.2.2.2.4c.1.2,0,.1.2,0s0,.1,0,.2.1.2.2.3.4-.2.4-.3.3,0,.3.1-.2.2-.2.2H35l.2.2c.2.2.3.1.3.1H36c0-.1,0-.1.1-.1s.1.1.2.2h.6s.4-.2.4-.3h.1v-.2c0-.1-.4-.3-.4-.3h-.1c0-.1-.2-.1-.3-.1h-1"/><path class="cls-3" d="M36.7,37.9s.1-.1-.1-.2-.1-.2-.2-.2l-.3-.2H36c0-.1-.1-.1-.2-.3s.1-.2-.1-.3l-.2-.3h-.3l-.3.2s-.1,0,0,.1a.3.3,0,0,0,.1.2h-.6a.1.1,0,0,0,0,.2h0s-.2.1,0,.1h.7c.1,0,.2,0,.2.1s0,.2-.1.1-.1.1,0,.1h.2s.1,0-.1.1h-.6c-.1.1-.2.1-.2.2h.2l.2.3h0c0,.1.2.2.3.2h.2s-.2.1,0,.1.3-.1.3-.1h.2l.2-.2c0-.1.1-.1.2-.1s.1.1.2,0,.1,0,.1-.1h.1c.1.1.2.1.2,0s-.3-.3-.3-.3h.1"/><path class="cls-3" d="M29.7,43.9s0-.3-.2-.4h-.2l-.2-.2c0-.1-.1-.1-.2-.1v-.2a.3.3,0,0,1,.1-.2c.1,0,0-.2.1-.3s.1-.2.1-.3v-.2a.4.4,0,0,0-.1-.3c0-.1,0-.1-.1-.2l-.2-.3h-.2c0,.1-.1.2-.1.3s-.1.2-.1.2v.2c0,.1.1.1,0,.1h-.3c-.1,0-.1-.3,0-.3s.1-.3,0-.4,0-.3-.1-.3h-.2c-.1.1-.1.1-.1.2h0v.2h-.6s-.2-.1-.1-.1h.4c.1-.1.2-.1,0-.2s.1-.2-.1-.2h-.5c-.1-.1-.1-.1,0-.1s.2-.2.1-.3a.2.2,0,0,0-.2-.2.1.1,0,0,0-.2,0h-.2c-.3.1-.2.2-.4.2h-.5c-.2.1-.1.1-.1.2h-.4a.1.1,0,0,1-.1.1.2.2,0,0,0,.2.2c.1.1.1.3.3.3a.8.8,0,0,0,.5-.2.3.3,0,0,1-.1.2h-.8V42h.5l.3.2H26l.3.2c0-.1-.1,0-.2,0H26l-.3-.2c-.1,0,0-.1-.2,0h-.4c-.2,0-.4.1-.4.2v.2c.1.2.1.2.2.2s0,.1.1.2.4.1.4.2v.4c.1.2-.1.2.3.3h.7a.5.5,0,0,0,.5,0h.4c0-.1.1-.1.2-.1s.1-.2.2-.1,0-.1.2.1.1.1.1.2l.3.3s-.1-.1.1,0h.2s.1-.1.1,0h.2c.1-.1.2-.2.1-.2h-.1c-.1,0-.1.2-.1,0s-.1-.2,0-.2-.1-.3.1-.2a.6.6,0,0,0,.4.2h.2a.1.1,0,0,0,.2,0,.3.3,0,0,0,.1-.2"/><path class="cls-3" d="M26.6,39.8h-.2a.4.4,0,0,0-.1-.3l-.2-.2h-.2c0,.1,0,.2-.1.2v-.2h0c-.1.1-.1.2-.2.2s.1.2,0,.1a1.5,1.5,0,0,1-.1-.6h-.6c-.1,0,0-.1-.2-.1s-.2-.2-.3-.1-.1.3,0,.4a.3.3,0,0,0,.1.2.3.3,0,0,1-.1.2c0,.1.1.2,0,.2a.1.1,0,0,1-.1-.1H24c-.1.1-.2.1-.2.2s-.1-.1-.1.1h0l-.3.2h-.3l.2.2v.2a.2.2,0,0,1,0,.3c0,.2-.1.3,0,.4h.4l.2-.2c.1,0,.1-.1.2,0s.1.1.3-.1h.2l.3-.2.4-.2.6-.2h.4l.3-.2v-.2"/><path class="cls-3" d="M29.1,38.9h-.4a6556220644694.7,6556220644694.7,0,0,0-.2-.4v-.4a.1.1,0,0,0-.1-.1h-.1c-.1,0,0,0-.1-.1h-.2c-.1-.1-.2,0-.3,0h-.1c-.1,0-.1.2,0,.2s-.1.1-.1.1h-.2v.2h.2l-.3.2a.1.1,0,0,1-.1-.1h-.1c-.1,0-.1.3,0,.3h.4s-.1.1.1.1.1.1.3,0H28c0,.1,0,.1.1.1h.3s.1.1,0,.1-.2.1-.3.1,0-.1-.1-.1h-.4s-.1,0,0,.1l.2.3h.8c.1,0,0-.1.2-.1h.5s.2-.1.2,0,.1.2.2.1h.4c.2-.2.2-.1.2-.2s.1-.2,0-.3,0-.3-.1-.3H30a.1.1,0,0,1-.1.1c-.1-.1-.2,0-.2-.2s0,0,.1-.2v-.2c.1-.1.2-.2.1-.3a.3.3,0,0,0-.4,0h-.4l.2.2s.1,0,0,.1h0v.2c-.1.2,0,.2,0,.2s-.2-.2-.2-.2"/><path class="cls-3" d="M27.3,36.7h-.4c0,.1,0,.3-.2.2s0-.1-.3,0H26c-.1,0-.3,0-.3.1v.3s-.1.1,0,.1.5.1.5,0,0,.1.1.1h.5c.1-.1.1-.1.1-.2h.3c0-.1.1-.1.1-.2h.1c0,.1-.2.1-.2.2s.2.4.4.3.1-.2.1-.3h.2v-.2s-.1-.1,0-.1h.2c.1,0,.2,0,.2-.1a.5.5,0,0,0-.4-.2h-.7"/><path class="cls-3" d="M29.2,37.4h.2c.2.1.2.1.4,0h.3c.1-.1,0-.1,0-.2s0,0-.1,0-.3,0-.3-.1l-.4.2a.2.2,0,0,0-.1.3"/><path class="cls-3" d="M29.6,36.7c.1-.1.3,0,.4.1s.2,0,.4,0a.3.3,0,0,0,.1-.2h-.9c-.4.1-.3.2-.3.2h.3"/><path class="cls-3" d="M31.6,37h.3a1,1,0,0,0,.1.3h-.2c0,.1,0-.1-.1-.1a.3.3,0,0,0-.1.2.1.1,0,0,0,.1.1h.8l.2.2.3.2c.1.2.1,0,.1-.1s-.1-.1-.1-.2a.1.1,0,0,0,0-.2c0-.1,0,0-.1-.2h-.1c0-.1,0-.1-.1-.1h-.3l-.2-.2-.4-.2c-.1-.1-.2.2-.2.2"/><path class="cls-3" d="M33.4,37.6c-.1.1,0,.2,0,.3s.1.1.1.2h-.1c-.1,0-.1.1-.2.2s.1.2.3.2.2,0,.3-.1h.4l.2-.2-.2-.2-.3-.2h-.2c0-.1-.2-.1-.3-.1"/><path class="cls-3" d="M33.5,36.6a.1.1,0,0,0-.1.1h.1c0,.1,0,.2.1.2s.2,0,.2-.1h0c-.1-.1-.2-.2-.3-.1"/><path class="cls-3" d="M31.9,39.3c-.1,0,0,0-.1.2s-.1,0-.1,0a.3.3,0,0,0-.1.2h.1c.1,0,.2.1.1.1a.3.3,0,0,1-.1.2v.3c-.1.1-.1.1,0,.1s0,0,.1.1.3.1.4,0,.1-.1.1-.2l.2-.2a.4.4,0,0,0,.1-.3.1.1,0,0,1,.1-.1v-.3c0-.1-.1-.1-.2-.2h-.5"/><path class="cls-3" d="M32.5,38.1h-.3c-.1,0-.1,0-.1.1h.4"/><path class="cls-3" d="M31.3,37.9a.2.2,0,0,0-.2-.2h-.2s-.1,0,0,.2l.2.2v.2l.2-.3h-.1"/><path class="cls-3" d="M30.7,39.6h-.3a.3.3,0,0,0-.1.2.1.1,0,0,1,.1.1h.3v-.2"/><path class="cls-3" d="M29.8,40.9l-.4-.2h-.1c0,.1-.1.2-.1.3a.3.3,0,0,0,.1.2l.3.2h.2a.3.3,0,0,0,.1-.2h-.1"/><path class="cls-3" d="M31.5,41.3h-.6c-.1.1-.1.1-.1.2v.2h-.1c-.1.1.2.3-.1.1l-.3-.2s-.2.1-.2.2h.2v.2a1,1,0,0,1,.1.3h.1a.1.1,0,0,1,.1.1v.2c0,.1-.1.2,0,.2s.2.1.2.1.1-.2.2-.3v-.2c.1,0,.1.3.1.3h.3v-.2c.1-.1,0-.2,0-.3s-.1.1,0-.1.2-.1.1-.2h-.1c-.1-.1-.1-.2-.2-.1s-.1.1-.1.2-.1-.1,0-.2a.1.1,0,0,1,.1-.1h.6c.2-.1.3,0,.2-.1h-.2c0-.1-.1-.1-.2-.2h-.2"/><path class="cls-3" d="M32.5,40.7c0,.1.1.1.1.2h.6c.2,0,.1-.1.1-.2s0-.2,0-.2a.3.3,0,0,0-.1-.2h-.3l-.4.3"/><path class="cls-3" d="M32.5,41.8h-.2c-.1.1-.1.2-.2.2v.2h0l.2.2h0c-.1.1-.1.1,0,.2s.1,0,.1,0H33c.1.1.1.1.2,0s.1-.1.1-.1,0-.1.1-.1h.2l.3-.2c.1,0,.1-.1.2-.2s-.1-.1-.1-.1H32.9c-.1-.1-.3.2-.3.2h-.1"/><path class="cls-3" d="M31.2,38.8h-.1c-.1,0-.1.1-.1.2a.1.1,0,0,1,.1.1h.1v-.2"/><path class="cls-3" d="M31.2,39.2c-.1,0-.2,0-.1.1h.3s0-.2-.1-.1a.1.1,0,0,0-.1.1"/><path class="cls-3" d="M31.1,39.5h.2a.1.1,0,0,1,.1-.1s.1-.1,0-.1h-.2a.1.1,0,0,0-.1.1"/><path class="cls-3" d="M32.1,39.1h-.2s-.1-.1-.1,0a.1.1,0,0,0,.1.1h.2"/><path class="cls-3" d="M31.4,39.5s.1.1-.1.2h.2s0-.2-.1-.2"/><path class="cls-3" d="M34,49.2V49c0-.1.1-.1,0-.1s.1-.1,0-.2h-.3s0,.1-.2,0-.1-.1-.1-.2v-.2h-.1c-.1,0,0-.1,0-.2s-.1-.2-.2-.1h-.1s.1,0,0,.1a.2.2,0,0,0-.2.2h.1l-.2.2c-.1.1-.2,0-.2.1V49h-.3c0,.1,0,.2.1.2h.2c.1,0,.1,0,.1.1v.2c-.1,0-.1.2,0,.2h.4c.1,0,0-.1.1-.1s.2-.1.2-.2-.1-.1,0-.1h.3a.3.3,0,0,1,.1.2c-.1,0-.1.1,0,.1h.2c0,.1-.1.1.1.1h.4a.3.3,0,0,0,.1-.2H34"/><path class="cls-3" d="M33.1,50.1h-.2a.1.1,0,0,1-.1.1c.1.1-.1.1,0,.2H33c.1,0,0,0,.1-.1h.1s0,.1.1,0,.3-.1.2-.2a.3.3,0,0,0-.4,0"/><path class="cls-3" d="M34.2,50.4H34c0,.1-.1.2-.1.3s-.1.1,0,.1h.3v-.2a.4.4,0,0,1-.1-.3"/><path class="cls-3" d="M36.3,47a.1.1,0,0,0-.1.1h-.1v.2s-.1.1,0,.1h.4c.2-.1.2,0,.2-.1s.1-.1.1-.2V47c-.1,0-.3-.3-.5,0"/><path class="cls-3" d="M30.2,44.5a.2.2,0,0,1-.2.2h-.2s-.1.2,0,.2h.1c.1,0,.2,0,.2.1l.2.2h.5c.1-.2.1-.1.1-.2s-.1-.1-.1-.3,0-.2-.1-.2-.4-.2-.5,0"/><path class="cls-3" d="M55,51.7c.1-.1,0-.1,0-.1l.2-.2a.1.1,0,0,0,.1-.1l-.2-.2c-.1-.2-.1-.2-.1-.1h0v-.2h0c0-.1.1-.1,0-.1h-.4c0-.1-.1-.1-.2-.2s0,0-.1,0-.1,0-.1.1v.2c-.1.1-.1,0-.2,0h-.2c0,.1,0,.1-.1.1h0l-.2-.2h-.1c-.1,0,0,.1,0,.2s-.1,0-.1,0h-.2V51h0v.2h-.3a.3.3,0,0,1,.1-.2s0-.2-.1-.2-.2-.1-.3-.1h0v.2h.1s-.1.1-.1,0h-.2a.1.1,0,0,0-.1-.1c-.1,0-.1.1-.1.2h-.2c-.2,0,.1.1.1.1h.4c.1-.1.1-.1.1,0h.1v.2c0,.1,0,.1-.1.1H52s.2-.1.3,0h.1v.2c0,.1-.1.1-.2.1H53l.3.2c.2.1.3-.1.4-.1h.5c.2,0,.1-.1.1-.1h.5l.2-.3h0"/><path class="cls-3" d="M63.7,42.1s-.1-.3-.2-.3h-.8c0,.1.1.1,0,.1h0a.4.4,0,0,0-.1.3.1.1,0,0,0,.1.1c0,.1,0,.1.1.2h.6s0,.1.1,0h.1c0-.1-.1-.1,0-.2s0-.1.1-.1h.4c0,.1,0,.1.1.1h0c.1,0,.1,0,.1.1h-.5a.3.3,0,0,0-.1.2h.1c0-.1.1-.1.1-.2h.2c0,.1-.1.1-.1.2a.1.1,0,0,1-.1.1h-.1a.3.3,0,0,0-.1.2h0c0,.1,0,.1.1.1H64s-.1,0,0,.1,0,.2.1.1a.8.8,0,0,0,.2-.4c.1-.1,0-.1.1-.1h.2a.3.3,0,0,0,.1-.2c.1-.2.1-.3.2-.3a.1.1,0,0,1,.1-.1h.8s.1,0,0-.1l-.4-.2h-.1c0-.1.1-.1,0-.2h-.5c0-.1-.1-.1-.2-.1a.1.1,0,0,1-.2,0c0-.1-.1-.2-.2-.3H64c-.1.1-.1.1-.1,0s-.1,0-.1.1h.1V42s.1,0,0,.1h-.2"/><path class="cls-3" d="M67,41.2h-.4a.2.2,0,0,0-.3,0H66a.2.2,0,0,0-.3,0,.1.1,0,0,0-.1.1h.2c.1.1-.1.2-.1.2h-.2l-.3-.2c-.2,0-.1-.1,0-.2a.1.1,0,0,0-.1-.1.1.1,0,0,1-.1.1h-.2a.3.3,0,0,0,.1.2h-.5a.1.1,0,0,0,.1.1h.1v.2h.2l.3-.2h.4c.4,0,0,.1,0,.1a.1.1,0,0,1-.1.1h-.2c.1.1.1,0,.1,0H66c.1,0,0-.1.1-.2h.7l.2-.3v-.2"/><path class="cls-3" d="M68.1,41v.2h-.1s0,.1.1,0h.4c0-.2-.2-.2-.3-.1"/><path class="cls-3" d="M67.3,42s-.2.1-.2.2h.5c.1-.1,0-.1-.1-.1h-.2"/><path class="cls-3" d="M65.8,42.7h-.2c-.2,0-.2,0-.2.1a.1.1,0,0,0-.1.1h.4c.1,0,.2,0,.1.1h.3a.1.1,0,0,1,.1-.1.1.1,0,0,0,.1-.1c-.1-.1-.3-.1-.3-.2h-.2"/><path class="cls-3" d="M63.4,43.3h-.1c0-.1,0-.1-.1-.2H63s-.1.1,0,.1,0,.1.1.1l.2.2h.1"/><path class="cls-3" d="M75.9,39.6h-.4c-.1,0-.1,0-.1.1h.3a.1.1,0,0,1,.1-.1h.3v-.2h-.3"/><path class="cls-3" d="M76.6,39.1h-.1v.2h-.1c-.1.1-.1.1-.1.2s-.1-.1,0,.1.1.2.1.2h0a.4.4,0,0,0,.4-.2c.1-.1.1-.1.1-.2s0-.1-.1-.2h-.2"/><path class="cls-3" d="M75.1,40h-.2c0,.1,0,.2.1.2h.2a.1.1,0,0,1,.1-.1s.1-.1,0-.1-.2,0-.2,0"/><path class="cls-3" d="M73,40s-.2.1-.2.2h-.1c-.2.1-.3,0-.3.1h.7c0-.1.1-.2,0-.2H73c.1-.1,0-.2.1-.2h.2l-.2-.3s0-.1-.1.1"/><path class="cls-3" d="M74.7,39.4h-.5s-.1.1,0,.1h.1v.2l-.2.2c0,.1.1.1.2.1h.6s.1,0,0-.1h-.5c0-.1,0-.2.1-.2h.3a.3.3,0,0,1,.1-.2s.1,0,0-.1-.2.2-.2.2"/><path class="cls-3" d="M72.6,40.1h-.3c-.1.1-.1,0-.1.1v.2a.2.2,0,0,0,.2-.2h.2c.1-.1.2-.2.1-.2s-.1,0-.1,0"/><path class="cls-3" d="M74,40.3h-.2c-.1-.1-.1-.1-.1,0s0,.1,0,.1H74c0-.1.1,0,.1-.1s0-.1-.1-.1"/><path class="cls-3" d="M74.7,39h-.3s0,.2.1.1h.1a.1.1,0,0,0,.1-.1h0"/><path class="cls-3" d="M76.1,38.7h0a.1.1,0,0,0,.1.1h.1a.2.2,0,0,0-.2-.2"/><path class="cls-3" d="M75.7,39.2h-.2a.1.1,0,0,0,.1.1s0,.1.1,0h0a.1.1,0,0,1,.1-.1h-.1"/><path class="cls-3" d="M73.3,40.5h0c-.1,0-.1.1-.1.2s0,.1.1,0h0"/><path class="cls-3" d="M59.2,57.6l-.2-.3-.3-.4c0-.1,0-.2-.1-.2h-.3l.4-.4V56c0-.1,0-.3-.1-.3s-.2-.2-.4-.2l-.2.3s-.2.2-.2,0,.1-.3.2-.3h.2s.1-.2-.1-.2-.4-.1-.4,0h-.3a.3.3,0,0,0-.1.2.2.2,0,0,1-.2.2s-.2,0,0,.1.2.1.2.2.1,0,.1.1a.2.2,0,0,0-.2.2h0c0,.1.2,0,.2,0a.1.1,0,0,1,.1-.1c0,.1.1.2.1.3h-.1c0,.1-.1.3,0,.3a.1.1,0,0,0,.2,0h.3v.2c-.1,0-.1,0,0,.1v.2c.1.1.1,0,.1.2H58l-.5.2c0,.1,0,.2.1.2a.2.2,0,0,1,.2.2h-.3c0,.1,0,.2.1.2h.6s.2,0,0,.1h-.7c-.1.1-.2.2-.2.3s-.2.1,0,.1h1.4c.1,0,.3.1.4,0h.6c.1,0,.2,0,.1-.1a.1.1,0,0,0-.1-.1h-.1v-.2h.1c.1-.1.2-.2.1-.2s.1-.1,0-.2a.2.2,0,0,0-.2-.2h-.4a.3.3,0,0,1,.1-.2,2.3,2.3,0,0,0-.1-.4"/><path class="cls-3" d="M56.7,56.9l-.2.2h-.1s-.2.1-.3,0h-.3v.2h0s.1,0,0,.1-.1.1,0,.1h.3a.3.3,0,0,1-.1.2h-.2l-.2.2v.2h.1a.1.1,0,0,0,.1.1.1.1,0,0,1,.1-.1h.7c.1-.1,0-.2.2-.2s.2.1.3,0,.2-.2.2-.3V58c-.1,0-.1-.1-.1-.2s-.1-.2,0-.2h.1c.2,0,.4,0,.2-.1l-.3-.3L57,57h-.3"/><path class="cls-3" d="M76.1,44.9a.1.1,0,0,1,0-.2l.3-.2h0v-.2c-.1-.1,0-.1.1-.1h.3c.1,0,.1,0,.1-.1v-.2h.2c.1-.1,0-.2.1-.2a.4.4,0,0,0,.4-.2c0-.1,0-.2.1-.2h.5l.2-.2h.3c.1,0,0-.1.1-.3a.4.4,0,0,0-.1-.3s.1-.1-.1-.1h-.3c-.1,0-.1,0-.1.1s-.1.1-.2.2h-.3c-.1.1,0,.1-.1.1h-.2l-.3.2h-.5a.1.1,0,0,0-.1.1.1.1,0,0,0-.1.1c0,.1,0,.1-.3.2s-.1.1-.2.2v.2h-.4c-.1,0,0,.3,0,.3h.2a.1.1,0,0,1-.1.1v.2c0,.1-.1.1-.1.2h-.2v.2s-.2,0-.1.1h.3c0,.1-.1.1-.1.2h.2c.1-.1,0-.1.2-.1s.1,0,.1.1H76a.2.2,0,0,0,.1-.3"/><path class="cls-3" d="M75.4,45.3h-.2a.2.2,0,0,0-.2.2h0V46h-.2c-.1.2-.1.2-.1.3s.1.2.1.2h.3c0-.1,0,0,.1,0s0,0,.1.1h.2c.1,0,.1.1,0,.1s-.1.1,0,.1-.2.1.1.1h.7l-.3-.2h0v-.2l-.2-.4h0c0-.1,0-.1.1-.1s.1-.2.1-.3h-.5"/><path class="cls-3" d="M77.8,47.3l-.3-.2H77c-.1,0-.1-.2-.1,0v.2h0a.2.2,0,0,0,.2.2h.7"/><path class="cls-3" d="M76.8,46.8c0,.1-.1,0-.2.1h-.1a.1.1,0,0,0,.1.1h.1c.1,0,.1,0,.1-.1h0"/><path class="cls-3" d="M74.3,48.1h-.5v.2c0,.1,0,.1.1.1H74c.1,0,.1,0,.1-.1a.1.1,0,0,0,.1-.1h.2c.1-.1.1-.1,0-.2s0-.1-.1-.1"/><path class="cls-3" d="M86.5,37.5c0-.1,0-.1-.1-.1s-.1,0-.2,0H86c0,.1,0,.1.1.1v.2c.1.1,0,0,0,.1l-.2-.2c-.1-.1-.2,0-.3.1s0,0,0,.1h-.4c-.1.1,0,.1,0,.2a.1.1,0,0,1-.1.1h-.2l-.2.2c-.1.1,0,.1,0,.1h.1a.1.1,0,0,0,.1-.1c.1-.1.1,0,.2.1a.1.1,0,0,0,.2,0v-.3l.2.2c.1.1.1,0,.2-.1h.1c.1,0,.1,0,.1.1h.5c-.1-.1,0,0,0-.1a.3.3,0,0,1,.1-.2v-.2h-.1"/><path class="cls-3" d="M85.2,37.2h-.4c0,.1,0,.2-.1.2s-.4,0-.4,0h0v.2h0a.1.1,0,0,0,.1.1h.3c.1,0-.1,0,.1.1s0-.1.2-.1l.4-.2h.3c.1,0,.1,0,.1-.1s.3-.1,0-.1-.4-.2-.5-.1"/><path class="cls-3" d="M84.4,38h-.2c0,.1-.2,0-.2.1a.1.1,0,0,0,.1.1h.1s0,.1.1,0h.1"/><path class="cls-3" d="M87.9,37.8h-.4c-.1,0-.1,0-.1.1s0,.2-.1.1a.3.3,0,0,1-.1-.2c-.1,0-.1-.2-.2-.1a.3.3,0,0,1-.1.2h.3c0,.1-.1.1,0,.1s.1.2.1.3v.2h.2v-.2c.1-.1,0-.1.2-.1h.5c0-.1.1-.1.1-.2a.3.3,0,0,1-.1-.2h-.3"/><path class="cls-3" d="M86.9,39.6l-.2.3h.2a.1.1,0,0,0,.1-.1.1.1,0,0,0,0-.2h-.1"/><path class="cls-3" d="M87.4,39.9h-.2a.1.1,0,0,0-.1.1h.3"/><path class="cls-3" d="M87,40.2h-.2a.1.1,0,0,0,.1.1H87"/><path class="cls-3" d="M92.3,40.5H92c0,.1-.1.1,0,.2h.5c-.1,0,0-.2-.2,0"/><path class="cls-3" d="M97.6,40.5h-.4a.1.1,0,0,0-.1.1s-.1,0,0,.1h.5"/><path class="cls-3" d="M98.4,37.6h.4c0-.1,0-.1.1,0h.6s.4,0,.2-.2h-.2c0-.1.1-.1.2-.1l-.7-.9h-.5c-.1,0-.1.1-.1.2v.6Z"/><path class="cls-3" d="M100.4,38.8h.3c-.1-.1-.2-.1-.2-.2h0l-.2.2Z"/><path class="cls-3" d="M100.2,37.9v.2c-.1,0-.1,0-.1.1v.2h.2s-.1,0,0-.1h.1l-.2-.2"/><path class="cls-3" d="M99.1,38.8h-.2c0-.1,0-.1-.1-.1h-.2a.3.3,0,0,0,.1.2H99a.1.1,0,0,0,.1-.1"/><path class="cls-3" d="M109.3,65.4l.2-.2h.4l.5-.3a1.3,1.3,0,0,1-.1-.6.1.1,0,0,0-.1.1h-.7l-.2.2c-.1.1,0,.1-.1.2v.2h-.1c-.1.1-.1.1-.1.2h.1C109.1,65.4,109.3,65.4,109.3,65.4Z"/><path class="cls-3" d="M110,66Z"/><path class="cls-3" d="M110.4,65h-.6l-.2.2a.3.3,0,0,1,.1.2l.2.2h.1c0-.1-.1-.3-.1-.4h.5Z"/><path class="cls-3" d="M109.1,65.5h-.4c-.1.1-.2.3-.1.4h.5v.6c0,.1,0,.2.2.2h.3v-.2h0V66h0v-.2a.1.1,0,0,0-.1-.1h-.3"/><path class="cls-3" d="M106.5,70.1l-.5.3a1,1,0,0,1,.1.4l.2.5a1.4,1.4,0,0,1,.2.4.4.4,0,0,0,.2-.3V71c0-.2.1-.2,0-.4v-.4h-.1"/><path class="cls-3" d="M107.4,74.9a1.4,1.4,0,0,1,.2-.4c0-.1.1,0,.1-.2s-.1-.2-.1-.4.1-.2,0-.3h-.7a.1.1,0,0,1,0,.2V74c-.1.1-.1.2,0,.2v.3c0,.1,0,.2-.1.2h-.2l.2.3s-.1,0,.1.2.2.2.2.3h0l.3.4c.1,0,.1-.2.1-.2h.3V76h.1c0-.1-.2-.1,0-.1h.6c-.1-.1,0-.1-.1-.2s-.1-.1-.1-.2h-.7l-.2-.3a1,1,0,0,0-.1-.3"/><path class="cls-3" d="M108.8,76.5a.4.4,0,0,1,.1.3c.1.2,0,.1,0,.1s-.1.1,0,.1h.2c.1.1.2,0,.3,0s-.1-.1-.1-.1a.4.4,0,0,0-.1-.3l-.3-.3h-.1"/><path class="cls-3" d="M108,76.8h-.1c-.1,0-.1.2-.1.2v.2h0c0,.1-.1.2.1.2s.2-.1.2-.1.1.2,0,.3,0,.1-.1.2,0,.3.1.3a.1.1,0,0,0,.1.1c.2,0,.2,0,.2-.1h-.1v-.8h-.3v-.2c0-.1-.1-.2-.2-.1"/><path class="cls-3" d="M109.3,77.9s.1.2,0,.2h-.5c-.1.1-.1.2-.2.1s-.2-.2-.2-.1v.4H108c0,.1-.1.2,0,.2h.3c.1.1.1,0,.2-.1h.3c.1,0,0,.1,0,.1v.2h0c0,.1-.1.1,0,.3h.3a11.6,11.6,0,0,0,.4-1.8h-.2Z"/><path class="cls-3" d="M109,77.2a.1.1,0,0,0-.1-.1h-.2v.4h.4s.2-.1,0-.1h-.2a.3.3,0,0,0-.1-.2"/><path class="cls-3" d="M106.7,76.9s.1,0,0,.1v.2c0,.1.1.1.1.2h-.2a.1.1,0,0,0-.1.1c-.1.1-.2.1-.2.2l-.2.2c-.2.2-.2.2-.1.2s.1,0,.1,0l.2-.3.3-.2h.2c0-.1,0-.1.1-.2h.1c0-.1,0-.1-.1-.2h0v-.2h-.1a.1.1,0,0,0-.1.1"/><path class="cls-3" d="M105.5,79.5h0c0,.1-.1.3-.1.4l-.2.2-.6.4s.2-.1,0,.1-.1.3-.2.3l-.4.2c-.2.2-.2.1-.3.3s-.2.1-.2.3.3.1,0,.2h-.8c0,.1.1.1.1.3s0,.3.1.3V83h.1c.1.1.1,0,.1.2v.7h.5c.1,0,.2-.1.2,0s-.1.1,0,.2h.6c0,.1.1.1.2.1h.2v.4h.3l.2-.2.2-.2v-.4c0-.2,0-.3.1-.3v-.2c-.1-.1,0-.3,0-.4h.2c0-.1.1-.1.2-.2s-.2-.1-.1-.2l.2-.2c.2,0,.5,0,.4-.1l-.2-.3c0-.1-.1-.1-.1-.2s.1-.1,0-.3l-.2-.2c0-.1-.1-.2-.1-.3a1,1,0,0,1,.1-.3v-.2h.5c.1-.1-.1-.1-.1-.1s-.2-.1,0-.1.3-.1.3-.3l-.3-.2-.4-.2c0-.1.1,0,0-.2s-.2-.2-.2-.3h-.2c.1,0,0,.1-.1.2v.2"/><path class="cls-3" d="M108.4,82.2h-.3c0-.1-.1,0-.1,0a.1.1,0,0,1-.1-.1h-.4c0,.1.2.1-.1.2s-.3.2-.3.3v.3H107v.5c.1.1.1.2,0,.2v.2h-.1a.4.4,0,0,0-.1.3c.1.1,0,.1.1.1l.2.2v.5c-.1.1-.2.2-.1.2h.5v-.9s-.1-.2,0-.3v-.5c.1,0,.3.1.3.2h0c0,.1-.1.2,0,.3h0v.2l.3-.8h-.1c0-.1-.2-.3-.2-.3h.3a.1.1,0,0,0,.1-.1c.1-.1.1-.3.2-.4h-.1c-.1.2,0,.2-.2.2h-.4s0,.2-.1.1l-.2-.2v-.3l.2-.2h.6c0-.1-.1-.1.1-.1h.3a.4.4,0,0,1,.1-.3Z"/><path class="cls-3" d="M46.4,106.6c-.1,0-.2-.2-.2-.3h-.6c0,.1-.2,0,0,.1H46c.1,0,0,.1.1.1h.3"/><path class="cls-3" d="M38.1,105.5v.2h-.1l.2-.2h.3c.1-.1,0-.1,0-.2h-.3v.2"/><path class="cls-3" d="M37.7,105.4h0"/><path class="cls-3" d="M34.7,106.2h-.2c-.1-.1-.1-.1-.1,0h-.2s.1.2.2.2h.1a.1.1,0,0,1-.1.1h.4l.2.2h-.2c-.2.1-.1,0-.1,0H34a.3.3,0,0,0,.1.2H36c.2,0,.1-.1.1-.2h-.6l-.3-.3-.2-.2h-.1c-.1,0-.1-.3-.1-.3h-.1"/><path class="cls-3" d="M35.1,107.7h-.2l.2-.2h0"/><path class="cls-3" d="M35.4,107.8h0"/><path class="cls-3" d="M35.6,107.6s-.2.1-.1.1h.1"/><path class="cls-3" d="M33.6,107h0V107h0"/><path class="cls-3" d="M33.7,107.2h0a.1.1,0,0,1,.1.1.1.1,0,0,0,.1-.1h-.2"/><path class="cls-3" d="M33.2,106.8h-.5s-.2.1-.1.1h.6"/><path class="cls-3" d="M32.8,106.1c-.1,0-.1,0-.1.1h.1"/><path class="cls-3" d="M31.9,104.4h0s.1.1.1,0v-.2"/><path class="cls-3" d="M31.6,101.4v-.3h.1c0-.2,0-.2-.1-.2h-.2s-.1-.1,0,.1v.3h0v.2h.1"/><path class="cls-3" d="M22.2,81.4v.2h0v.2h.2c.1,0,0-.1.1-.1h0l-.2-.2h0"/><path class="cls-3" d="M15.8,55.3l-.2-.3-.2-.2v-.2c-.1,0-.3-.1-.3-.2h-.3c-.1,0-.1.1-.1.2h.2a.4.4,0,0,1,.1.3l.3.4v.2c.1.1,0,.1.2.1h.4c.1-.1,0-.3,0-.3"/><path class="cls-3" d="M39.8,58.2a.4.4,0,0,0-.2.3l-.3.2c-.1.1,0,.2-.2.2s-.1.1-.1.2-.1.1-.2.2h-.2c-.1.1-.3,0-.1.1h.3c0,.1-.3.2-.3.2h1.3s.1.1,0,.1-.2,0-.2.1H40c0-.1,0-.1.1-.1h.3a.1.1,0,0,1,.1.1h.2v-.2h-.1s-.1,0,0-.1.1,0,.1-.1-.1,0-.2-.2.2-.1-.1-.2l-.7-.2s-.1,0,0-.2l.2-.2c.1-.2,0-.1.1-.2l.2-.2V58c.1-.1.2-.1.1-.1h-.4s-.2,0-.1.2"/><path class="cls-3" d="M37.8,58.8h-.7l.2.2h.6a.2.2,0,0,0-.1-.3"/><path class="cls-3" d="M37.8,60.1s-.2,0-.2.1v.3c-.1.1,0,.1,0,.2h.3c.1-.1.2-.2.1-.2h-.2s.2-.4,0-.4"/><path class="cls-3" d="M36.7,60.1h.4c.1.1.1,0,.1-.1h-.3c-.1,0-.2-.2-.2-.2s-.1,0,0,.1"/><path class="cls-3" d="M29.8,72.3h-.4c-.2-.2.1-.1-.3-.3l-.6-.3-.3-.3-.4-.2-.6-.2s-.3-.1-.4,0h-.3l-.5.3s-.1.1.1,0h.4c.2,0,.2-.1.3,0h.1a.6.6,0,0,0,.5.2h.3c.2.1,0,.2.3.3h.5a.3.3,0,0,1,.1.2.1.1,0,0,1,0,.2c0,.1-.3,0,0,.1H30l-.2-.2"/><path class="cls-3" d="M28.7,73.1h-.8s.1.2.2.2h1l-.3-.2a.1.1,0,0,0-.1-.1"/><path class="cls-3" d="M32,73.1l-.5-.3-.3-.2h-1a.3.3,0,0,0,.1.2h.2c0,.1.1,0,0,.2a.3.3,0,0,0-.1.2h-.5s-.1.2,0,.2h.9a.3.3,0,0,1,.1.2l.2-.2.2-.2c0,.1-.1.1.2.1h.9a.5.5,0,0,0-.4-.3"/><path class="cls-3" d="M33.1,73.5h-.5c-.1.1-.1.3,0,.3h.5"/><path class="cls-4" d="M75.7,84H71.3V70.6a1.8,1.8,0,0,0-1.8-1.8H54.9a1.8,1.8,0,0,0-1.8,1.8V84H48.8V70.6a6.1,6.1,0,0,1,6.1-6.1H69.5a6.1,6.1,0,0,1,6.2,6.1Z"/><rect class="cls-5" x="24.6" y="75.3" width="76.9" height="53.89" rx="1.1"/><path class="cls-6" d="M100.4,75.3H25.8a1.1,1.1,0,0,0-1.2,1.1v32.3h76.9V76.4A1.1,1.1,0,0,0,100.4,75.3Z"/><rect class="cls-7" x="36.7" y="74.6" width="6.9" height="55.1"/><path class="cls-4" d="M43.5,121.7V74.6H36.7v47.1s.5,4.4,3.4,4.4S43.5,121.7,43.5,121.7Z"/><path class="cls-7" d="M41.3,113.5a1.2,1.2,0,1,1-2.4,0,1.2,1.2,0,1,1,2.4,0Z"/><path class="cls-8" d="M45.3,114.9H43.6v-7a.5.5,0,0,0-.5-.5h-6a.6.6,0,0,0-.6.5v7H34.9v-7a2.1,2.1,0,0,1,2.2-2.1h6a2.1,2.1,0,0,1,2.2,2.1Z"/><path class="cls-9" d="M40.1,113.9a.7.7,0,0,1-.8-.8v-6.5a.7.7,0,0,1,.8-.8.8.8,0,0,1,.8.8v6.5A.8.8,0,0,1,40.1,113.9Z"/><rect class="cls-6" x="34.5" y="81.7" width="11.3" height="20.56"/><rect class="cls-7" x="82.1" y="74.6" width="6.9" height="55.1"/><path class="cls-4" d="M89,121.7V74.6H82.1v47.1s.6,4.4,3.5,4.4S89,121.7,89,121.7Z"/><path class="cls-7" d="M86.8,113.5a1.3,1.3,0,0,1-1.2,1.2,1.3,1.3,0,0,1-1.3-1.2,1.3,1.3,0,0,1,1.3-1.3A1.3,1.3,0,0,1,86.8,113.5Z"/><path class="cls-8" d="M90.7,114.9H89.1v-7a.5.5,0,0,0-.5-.5h-6a.6.6,0,0,0-.6.5v7H80.4v-7a2.1,2.1,0,0,1,2.2-2.1h6a2.1,2.1,0,0,1,2.1,2.1Z"/><path class="cls-9" d="M85.6,113.9a.7.7,0,0,1-.8-.8v-6.5a.7.7,0,0,1,.8-.8.8.8,0,0,1,.8.8v6.5A.8.8,0,0,1,85.6,113.9Z"/><rect class="cls-6" x="80" y="81.7" width="11.3" height="20.56"/><path class="cls-10" d="M115.5,108.5c0,.3-4.3.3-4.3.5s4.3.9,4.2,1.1-4.3-.3-4.3-.1,4.1,1.5,4,1.7-4.2-.9-4.3-.7,3.9,2,3.8,2.2-4.1-1.5-4.2-1.3,3.6,2.5,3.4,2.7-3.8-2-3.9-1.8,3.2,2.9,3,3.1-3.5-2.5-3.7-2.3,2.8,3.3,2.6,3.5-3.1-3-3.3-2.9,2.3,3.7,2.1,3.9-2.7-3.4-2.9-3.3,1.7,4,1.5,4.1-2.2-3.7-2.4-3.6,1.2,4.2,1,4.2-1.7-3.9-1.9-3.9.6,4.3.4,4.4-1.2-4.2-1.4-4.2,0,4.4-.2,4.4-.6-4.3-.8-4.3-.6,4.3-.8,4.3,0-4.4-.2-4.4-1.2,4.2-1.4,4.2.6-4.3.4-4.4-1.7,4-1.9,3.9,1.2-4.1,1-4.2-2.3,3.7-2.5,3.6,1.7-4,1.6-4.1-2.8,3.4-2.9,3.3,2.2-3.7,2-3.9-3.1,3-3.3,2.9,2.8-3.4,2.6-3.6-3.5,2.6-3.7,2.4,3.2-3,3.1-3.1-3.9,2-4,1.8,3.6-2.5,3.5-2.7-4.1,1.5-4.2,1.3,3.8-2,3.8-2.2-4.3.9-4.4.7,4.1-1.5,4.1-1.7-4.3.3-4.4.1,4.3-.8,4.3-1.1-4.4-.2-4.4-.5,4.3-.2,4.4-.5-4.3-.8-4.3-1,4.3.3,4.4,0-4.1-1.4-4.1-1.6,4.3.9,4.4.7-3.9-2-3.8-2.2,4.1,1.5,4.2,1.3-3.6-2.5-3.5-2.7,3.9,2,4,1.8-3.2-3-3.1-3.1,3.6,2.5,3.7,2.3-2.7-3.3-2.6-3.5,3.2,3,3.3,2.8-2.2-3.7-2-3.8,2.7,3.4,2.9,3.3-1.8-4-1.6-4.1,2.3,3.7,2.5,3.6-1.2-4.2-1-4.2,1.7,3.9,1.9,3.9-.6-4.3-.4-4.4,1.2,4.2,1.4,4.2,0-4.4.2-4.4.6,4.3.8,4.3.6-4.3.8-4.3,0,4.3.2,4.4,1.1-4.2,1.4-4.2-.6,4.3-.4,4.4,1.7-4,1.9-3.9-1.2,4.1-1,4.2,2.3-3.7,2.4-3.6-1.7,4-1.5,4.1,2.7-3.4,2.9-3.3-2.3,3.7-2.1,3.8,3.2-2.9,3.3-2.8-2.7,3.4-2.6,3.5,3.6-2.5,3.7-2.3-3.1,2.9-3,3.1,3.8-2,3.9-1.8-3.5,2.5-3.4,2.7,4.1-1.5,4.2-1.3-3.9,2-3.8,2.2,4.3-.9,4.3-.7-4.1,1.4-4,1.6,4.3-.3,4.3,0-4.2.8-4.2,1S115.5,108.3,115.5,108.5Z"/><path class="cls-11" d="M113.2,108.5a9.3,9.3,0,1,1-9.3-9.3A9.4,9.4,0,0,1,113.2,108.5Z"/><path class="cls-12" d="M111.4,108.5a7.5,7.5,0,0,1-7.5,7.6,7.6,7.6,0,1,1,0-15.1A7.5,7.5,0,0,1,111.4,108.5Z"/><path class="cls-13" d="M111.3,108.5a7.5,7.5,0,0,1-7.4,7.5,7.6,7.6,0,0,1-7.5-7.5,7.5,7.5,0,0,1,7.5-7.4A7.4,7.4,0,0,1,111.3,108.5Z"/><path class="cls-14" d="M103.9,101.1a7.1,7.1,0,0,0-5.6,2.6,7.2,7.2,0,0,1,5.2-2.1,7.4,7.4,0,0,1,7.4,7.4,8,8,0,0,1-1.8,4.9,7.6,7.6,0,0,0,2.2-5.4A7.4,7.4,0,0,0,103.9,101.1Z"/><path class="cls-10" d="M103.7,114.4v-1.2a2.9,2.9,0,0,1-1.4-.4,1.7,1.7,0,0,1-1-.9,3.3,3.3,0,0,1-.4-1.5l1.2-.2a2.6,2.6,0,0,0,.4,1.4,2.5,2.5,0,0,0,1.2.7v-3.8a3,3,0,0,1-1.5-.5,2.6,2.6,0,0,1-1.1-2.1,2.5,2.5,0,0,1,.9-2,2.7,2.7,0,0,1,1.7-.7v-.5h.7v.5a3.4,3.4,0,0,1,1.6.6,2.8,2.8,0,0,1,.9,1.8l-1.2.2a1.6,1.6,0,0,0-.4-1.1,1.9,1.9,0,0,0-.9-.5v3.4l1.2.3.8.6a1.6,1.6,0,0,1,.6.8,3.6,3.6,0,0,1,.2,1,3.2,3.2,0,0,1-.8,2.1,2.8,2.8,0,0,1-2,.8v1.2Zm0-10.2a2.4,2.4,0,0,0-1.1.6,1.5,1.5,0,0,0-.3,1,1.5,1.5,0,0,0,1.4,1.6Zm.7,8.1a2.4,2.4,0,0,0,1.1-.6,2.1,2.1,0,0,0,.5-1.3,1.3,1.3,0,0,0-.4-1,2.2,2.2,0,0,0-1.2-.7Z"/><path class="cls-15" d="M104.4,102.7v.5a3.4,3.4,0,0,1,1.6.6,2.8,2.8,0,0,1,.9,1.8l-1.2.2a1.6,1.6,0,0,0-.4-1.1,1.9,1.9,0,0,0-.9-.5v3.4l1.2.3.8.6a1.6,1.6,0,0,1,.6.8,3.6,3.6,0,0,1,.2,1,3.2,3.2,0,0,1-.8,2.1,2.8,2.8,0,0,1-2,.8v1.2h-.7v-1.2a2.9,2.9,0,0,1-1.4-.4,1.7,1.7,0,0,1-1-.9,3.3,3.3,0,0,1-.4-1.5l1.2-.2a2.6,2.6,0,0,0,.4,1.4,2.5,2.5,0,0,0,1.2.7v-3.8a3,3,0,0,1-1.5-.5,2.6,2.6,0,0,1-1.1-2.1,2.5,2.5,0,0,1,.9-2,2.7,2.7,0,0,1,1.7-.7v-.5h.7m-.7,4.7v-3.2a2.4,2.4,0,0,0-1.1.6,1.5,1.5,0,0,0-.3,1,1.5,1.5,0,0,0,1.4,1.6m.7,4.9a2.4,2.4,0,0,0,1.1-.6,2.1,2.1,0,0,0,.5-1.3,1.3,1.3,0,0,0-.4-1,2.2,2.2,0,0,0-1.2-.7v3.6m.1-9.7h-.9v.5a2.9,2.9,0,0,0-1.7.6,2.6,2.6,0,0,0-.9,2.1,2.8,2.8,0,0,0,.3,1.3,2,2,0,0,0,.9.9l1.4.5v3.6a1.7,1.7,0,0,1-1-.7,3.2,3.2,0,0,1-.5-1.3H102l-1.1.2h-.1a3,3,0,0,0,.5,1.6,2.2,2.2,0,0,0,1,.9,4,4,0,0,0,1.3.4v1.1h.9v-1.1a3.1,3.1,0,0,0,1.9-.9,2.5,2.5,0,0,0,.8-2.1,3.4,3.4,0,0,0-.1-1l-.6-.9-.9-.6-1.1-.3v-3.2a1.8,1.8,0,0,1,.7.5,1.3,1.3,0,0,1,.4,1H107a2.6,2.6,0,0,0-.9-1.8,2.3,2.3,0,0,0-1.6-.6v-.5Zm-.9,4.7a1.7,1.7,0,0,1-1-.6,1.2,1.2,0,0,1-.3-.9,1.8,1.8,0,0,1,.4-1,1.9,1.9,0,0,1,.9-.5v3Zm.9,4.9v-3.4l1.1.6a1.7,1.7,0,0,1,.3,1,2.1,2.1,0,0,1-.4,1.2,2.1,2.1,0,0,1-1,.6Z"/><g class="cls-16"><path class="cls-17" d="M102.4,105a1.5,1.5,0,0,0-.4,1.1,1.7,1.7,0,0,0,.3,1l1.2.6v-.4a1.9,1.9,0,0,1-.9-.5,1.7,1.7,0,0,1-.3-1,1.5,1.5,0,0,1,.2-.9Z"/><path class="cls-17" d="M104.1,109v3.5a1.4,1.4,0,0,0,1.2-.6h.1a1.9,1.9,0,0,1-1,.5v-3.2Z"/><path class="cls-17" d="M104.1,103v.5a3.8,3.8,0,0,1,1.7.6,2.8,2.8,0,0,1,.8,1.5h.3a2.8,2.8,0,0,0-.9-1.8,3.4,3.4,0,0,0-1.6-.6v-.5h-.7v.3Z"/><path class="cls-17" d="M102.3,111.8a1.5,1.5,0,0,0,1.2.7v-.3a2.1,2.1,0,0,1-1-.6,2.6,2.6,0,0,1-.4-1.4l-1.2.2v.2h.9A3.2,3.2,0,0,0,102.3,111.8Z"/><path class="cls-17" d="M101.7,104.1a3.8,3.8,0,0,1,1.8-.6v-.2a2.6,2.6,0,0,0-1.5.6l-.4.3C101.7,104.2,101.7,104.2,101.7,104.1Z"/><path class="cls-17" d="M107,109.3a1.6,1.6,0,0,0-.6-.8l-.8-.6-1.2-.3v-3h-.3v3.4l1.2.3a2,2,0,0,1,.9.6,2.2,2.2,0,0,1,.5.8,3,3,0,0,1,.2,1,2.8,2.8,0,0,1-.6,1.8h.1a3.2,3.2,0,0,0,.8-2.1A3.6,3.6,0,0,0,107,109.3Z"/><path class="cls-17" d="M104.1,113.5v.9h.3v-.9Z"/></g><path class="cls-10" d="M140.6,88c0,.3-5.3.4-5.3.6s5.2,1.1,5.2,1.4-5.4-.4-5.4-.1,5.1,1.8,5,2-5.3-1.1-5.3-.8,4.7,2.4,4.6,2.7-5-1.8-5.1-1.6,4.4,3.1,4.2,3.3-4.7-2.5-4.9-2.2,4,3.6,3.8,3.8-4.4-3.1-4.6-2.9,3.4,4.2,3.2,4.4-3.9-3.7-4.1-3.5,2.8,4.6,2.6,4.7-3.4-4.2-3.6-4,2.2,4.9,1.9,5-2.7-4.5-3-4.4,1.5,5.1,1.2,5.2-2.1-4.9-2.4-4.8.8,5.3.5,5.4-1.4-5.2-1.7-5.2,0,5.4-.2,5.4-.7-5.3-1-5.3-.7,5.3-1,5.3,0-5.3-.3-5.4-1.4,5.2-1.7,5.2.8-5.4.5-5.4-2.1,4.9-2.4,4.8,1.5-5.1,1.3-5.2-2.8,4.6-3.1,4.4,2.2-4.9,2-5-3.4,4.2-3.6,4,2.8-4.6,2.5-4.7-3.9,3.7-4.1,3.5,3.4-4.2,3.2-4.4-4.3,3.1-4.5,2.9,3.9-3.6,3.8-3.8-4.8,2.5-5,2.2,4.4-3.1,4.3-3.3-5.1,1.8-5.2,1.6,4.8-2.5,4.7-2.7-5.3,1.1-5.3.8,5-1.8,5-2-5.4.3-5.4.1,5.2-1.1,5.2-1.4-5.4-.3-5.4-.6,5.4-.3,5.4-.6-5.3-1.1-5.2-1.3,5.3.3,5.4.1-5.1-1.8-5-2.1,5.2,1.1,5.3.9-4.8-2.5-4.7-2.7,5.1,1.8,5.2,1.5-4.4-3.1-4.3-3.3,4.8,2.5,5,2.3-4-3.7-3.8-3.9,4.4,3.1,4.5,2.9-3.4-4.2-3.2-4.3,3.9,3.6,4.2,3.5-2.9-4.6-2.6-4.8,3.3,4.2,3.6,4-2.2-4.9-2-5,2.8,4.6,3.1,4.5-1.5-5.2-1.3-5.3,2.2,4.9,2.4,4.9-.7-5.4-.5-5.4,1.5,5.1,1.7,5.1,0-5.4.3-5.4.7,5.3,1,5.3.7-5.3,1-5.3,0,5.4.2,5.4,1.5-5.2,1.7-5.1-.7,5.3-.5,5.4,2.2-5,2.4-4.9-1.4,5.2-1.2,5.3,2.8-4.6,3-4.5-2.1,4.9-1.9,5,3.4-4.1,3.6-4-2.8,4.6-2.6,4.8,4-3.7,4.1-3.5-3.4,4.1-3.2,4.3,4.4-3.1,4.6-2.9-3.9,3.7-3.8,3.9,4.8-2.5,4.9-2.3-4.4,3.1-4.2,3.3,5-1.8,5.1-1.5-4.7,2.4-4.6,2.7,5.2-1.1,5.3-.9-5.1,1.8-5,2.1,5.4-.4,5.4-.1-5.3,1-5.2,1.3S140.6,87.7,140.6,88Z"/><path class="cls-11" d="M137.7,88a11.5,11.5,0,1,1-11.5-11.5A11.4,11.4,0,0,1,137.7,88Z"/><path class="cls-12" d="M135.6,88a9.4,9.4,0,1,1-9.4-9.4A9.4,9.4,0,0,1,135.6,88Z"/><path class="cls-13" d="M135.4,88a9.2,9.2,0,1,1-9.2-9.2A9.2,9.2,0,0,1,135.4,88Z"/><path class="cls-14" d="M126.2,78.8a9.1,9.1,0,0,0-7,3.2,9.5,9.5,0,0,1,6.5-2.6,9.1,9.1,0,0,1,6.9,15.2,9.3,9.3,0,0,0,2.8-6.6A9.2,9.2,0,0,0,126.2,78.8Z"/><path class="cls-10" d="M126,95.3V93.8a4.8,4.8,0,0,1-1.8-.5,3.7,3.7,0,0,1-1.7-3l1.4-.3a3.8,3.8,0,0,0,.6,1.8,1.9,1.9,0,0,0,1.5.8V88a4.5,4.5,0,0,1-1.8-.7,2.2,2.2,0,0,1-1.1-1,4.2,4.2,0,0,1-.4-1.6,3.4,3.4,0,0,1,1.1-2.5,4.1,4.1,0,0,1,2.2-.8v-.6h.8v.6a3.7,3.7,0,0,1,2,.8,3.2,3.2,0,0,1,1.2,2.1l-1.5.3a2.3,2.3,0,0,0-.6-1.3,1.7,1.7,0,0,0-1.1-.6v4.1l1.5.4,1.1.8a3.3,3.3,0,0,1,.6,1,2.5,2.5,0,0,1,.2,1.2,3.5,3.5,0,0,1-.9,2.5,3.3,3.3,0,0,1-2.5,1.1v1.5Zm0-12.6a1.8,1.8,0,0,0-1.3.6,1.7,1.7,0,0,0-.5,1.3,1.6,1.6,0,0,0,.4,1.2,2.4,2.4,0,0,0,1.4.8Zm.8,9.9a2.2,2.2,0,0,0,2-2.3,2.1,2.1,0,0,0-.4-1.2,4.5,4.5,0,0,0-1.6-.9Z"/><path class="cls-15" d="M126.8,80.8v.6a3.7,3.7,0,0,1,2,.8,3.2,3.2,0,0,1,1.2,2.1l-1.5.3a2.3,2.3,0,0,0-.6-1.3,1.7,1.7,0,0,0-1.1-.6v4.1l1.5.4,1.1.8a3.3,3.3,0,0,1,.6,1,2.5,2.5,0,0,1,.2,1.2,3.5,3.5,0,0,1-.9,2.5,3.3,3.3,0,0,1-2.5,1.1v1.5H126V93.8a4.8,4.8,0,0,1-1.8-.5,3.7,3.7,0,0,1-1.7-3l1.4-.3a3.8,3.8,0,0,0,.6,1.8,1.9,1.9,0,0,0,1.5.8V88a4.5,4.5,0,0,1-1.8-.7,2.2,2.2,0,0,1-1.1-1,4.2,4.2,0,0,1-.4-1.6,3.4,3.4,0,0,1,1.1-2.5,4.1,4.1,0,0,1,2.2-.8v-.6h.8m-.8,5.8V82.7a1.8,1.8,0,0,0-1.3.6,1.7,1.7,0,0,0-.5,1.3,1.6,1.6,0,0,0,.4,1.2,2.4,2.4,0,0,0,1.4.8m.8,6a2.2,2.2,0,0,0,2-2.3,2.1,2.1,0,0,0-.4-1.2,4.5,4.5,0,0,0-1.6-.9v4.4m.1-11.9h-1v.6a2.9,2.9,0,0,0-2.1.8,3,3,0,0,0-1.2,2.5,3.8,3.8,0,0,0,.4,1.6,2.3,2.3,0,0,0,1.1,1.1,4.5,4.5,0,0,0,1.8.7v4.4a2.6,2.6,0,0,1-1.3-.8A3.4,3.4,0,0,1,124,90h-.1l-1.4.3h-.1a3.4,3.4,0,0,0,.6,2,2.5,2.5,0,0,0,1.2,1.1,3.8,3.8,0,0,0,1.7.5v1.4h1V93.9a3.6,3.6,0,0,0,3.5-3.7,3.1,3.1,0,0,0-.3-1.3,2.3,2.3,0,0,0-.7-1,3,3,0,0,0-1.1-.7l-1.4-.5V82.8l1,.5a3.2,3.2,0,0,1,.5,1.3h.1l1.5-.3h.1a4,4,0,0,0-1.2-2.2,3.2,3.2,0,0,0-2-.7v-.6Zm-1,5.8a2.2,2.2,0,0,1-1.2-.7,2,2,0,0,1,0-2.4,2.3,2.3,0,0,1,1.2-.6v3.7Zm1,6V88.4a3.5,3.5,0,0,1,1.4.7,2.1,2.1,0,0,1,.4,1.2,2,2,0,0,1-.6,1.5,1.9,1.9,0,0,1-1.2.7Z"/><g class="cls-16"><path class="cls-17" d="M124.3,83.7a1.8,1.8,0,0,0-.4,1.3,1.7,1.7,0,0,0,.4,1.2,2.6,2.6,0,0,0,1.4.8v-.5a1.8,1.8,0,0,1-1.1-.7,1.6,1.6,0,0,1-.4-1.2,2,2,0,0,1,.3-1.1Z"/><path class="cls-17" d="M126.5,88.6V93a2.5,2.5,0,0,0,1.4-.8.1.1,0,0,0,.1-.1,1.7,1.7,0,0,1-1.2.5V88.7Z"/><path class="cls-17" d="M126.5,81.1v.7a3.6,3.6,0,0,1,2,.7,3.3,3.3,0,0,1,1.1,1.9h.4a3.2,3.2,0,0,0-1.2-2.1,3.7,3.7,0,0,0-2-.8v-.6H126v.3Z"/><path class="cls-17" d="M124.2,92.1a2.4,2.4,0,0,0,1.5.9v-.4a3.2,3.2,0,0,1-1.2-.8,3.8,3.8,0,0,1-.6-1.8l-1.4.3v.3l1.1-.2A3.4,3.4,0,0,0,124.2,92.1Z"/><path class="cls-17" d="M123.5,82.6a3.4,3.4,0,0,1,2.2-.8v-.3a4.2,4.2,0,0,0-1.9.7l-.4.5Z"/><path class="cls-17" d="M130,89a3.3,3.3,0,0,0-.6-1l-1.1-.8-1.5-.4V83.1h-.3v4.2l1.5.4a4.1,4.1,0,0,1,1.1.7,3.3,3.3,0,0,1,.6,1,2.7,2.7,0,0,1,.2,1.3,3.2,3.2,0,0,1-.7,2.2h.1a3.5,3.5,0,0,0,.9-2.5A2.5,2.5,0,0,0,130,89Z"/><path class="cls-17" d="M126.5,94.2v1.1h.3V94.1Z"/></g><path class="cls-10" d="M114.5,66.2c0,.3-6.4.4-6.4.7s6.3,1.3,6.2,1.6-6.3-.4-6.4-.1,6,2.1,6,2.4-6.3-1.3-6.4-1,5.7,2.9,5.6,3.2-6-2.1-6.2-1.9,5.3,3.7,5.1,4-5.6-3-5.8-2.7,4.6,4.4,4.4,4.6-5.1-3.7-5.4-3.5,4.1,5,3.9,5.2-4.7-4.3-4.9-4.1,3.3,5.4,3,5.6-4-5-4.2-4.8,2.5,5.9,2.2,6-3.3-5.4-3.5-5.3,1.7,6.1,1.4,6.2-2.5-5.8-2.8-5.7.9,6.3.5,6.4-1.7-6.2-2-6.1,0,6.4-.3,6.4S97.7,77,97.4,77s-.9,6.3-1.2,6.3,0-6.4-.3-6.4-1.7,6.1-2,6.1.9-6.3.5-6.4-2.5,5.8-2.8,5.7,1.8-6.1,1.5-6.2-3.3,5.4-3.6,5.3,2.5-5.8,2.3-6-4.1,5-4.3,4.8,3.3-5.4,3.1-5.6-4.7,4.3-4.9,4.1,4-4.9,3.8-5.2-5.2,3.7-5.4,3.5,4.6-4.3,4.4-4.6-5.6,3-5.8,2.7,5.2-3.7,5.1-4-6,2.2-6.2,1.9,5.7-2.9,5.6-3.2-6.3,1.3-6.3,1,6-2.1,5.9-2.4-6.4.4-6.4.1,6.2-1.3,6.2-1.6-6.4-.4-6.4-.7,6.4-.4,6.4-.8-6.3-1.2-6.2-1.5,6.3.4,6.4.1-6-2.1-5.9-2.4,6.2,1.3,6.3,1-5.7-3-5.6-3.2,6,2.1,6.2,1.8-5.2-3.6-5.1-3.9,5.7,2.9,5.8,2.7-4.6-4.4-4.4-4.6,5.2,3.7,5.4,3.4-4.1-4.9-3.8-5.1,4.6,4.3,4.9,4.1-3.4-5.4-3.1-5.6,4,4.9,4.3,4.8-2.6-5.9-2.3-6,3.3,5.4,3.6,5.3-1.8-6.2-1.5-6.3,2.5,5.9,2.8,5.8-.8-6.3-.5-6.4,1.7,6.1,2,6.1,0-6.4.3-6.4.8,6.3,1.2,6.3.8-6.3,1.1-6.3,0,6.4.3,6.4,1.7-6.2,2-6.1-.8,6.3-.5,6.4,2.5-5.9,2.8-5.8-1.7,6.2-1.4,6.3,3.3-5.5,3.5-5.3-2.5,5.8-2.2,6,4-5,4.2-4.8-3.3,5.4-3,5.6,4.6-4.3,4.9-4.1-4.1,4.9-3.9,5.1,5.2-3.7,5.4-3.4-4.6,4.3-4.4,4.6,5.6-3,5.8-2.7-5.2,3.6-5.1,3.9,6-2.1,6.2-1.8-5.7,2.9-5.6,3.2,6.3-1.3,6.4-1-6,2.1-6,2.4,6.4-.5,6.4-.1-6.2,1.2-6.2,1.5S114.5,65.9,114.5,66.2Z"/><path class="cls-11" d="M111,66.2A13.7,13.7,0,1,1,97.4,52.5,13.7,13.7,0,0,1,111,66.2Z"/><path class="cls-12" d="M108.5,66.2A11.2,11.2,0,1,1,97.4,55.1,11.1,11.1,0,0,1,108.5,66.2Z"/><path class="cls-13" d="M108.3,66.2A11,11,0,1,1,97.4,55.3,10.9,10.9,0,0,1,108.3,66.2Z"/><path class="cls-14" d="M97.4,55.3A11,11,0,0,0,89.1,59a11.1,11.1,0,0,1,7.6-3.1,10.9,10.9,0,0,1,11,10.9A10.7,10.7,0,0,1,105,74a11.1,11.1,0,0,0,3.3-7.8A10.9,10.9,0,0,0,97.4,55.3Z"/><path class="cls-10" d="M97.1,74.8V73.1a6.5,6.5,0,0,1-2.1-.6,4.3,4.3,0,0,1-1.4-1.3,5.2,5.2,0,0,1-.6-2.3l1.7-.3a4.2,4.2,0,0,0,.7,2,2.2,2.2,0,0,0,1.7,1V66.2a6,6,0,0,1-2.1-.8,2.7,2.7,0,0,1-1.3-1.3,3.4,3.4,0,0,1-.4-1.8,3.8,3.8,0,0,1,1.3-3,4.1,4.1,0,0,1,2.5-.9v-.8h1v.8a4.3,4.3,0,0,1,2.4.9,3.6,3.6,0,0,1,1.3,2.5l-1.7.3a2.1,2.1,0,0,0-.7-1.5,2.4,2.4,0,0,0-1.3-.8v5l1.7.5a3.2,3.2,0,0,1,1.3.8,4.2,4.2,0,0,1,.8,1.2,4,4,0,0,1,.3,1.5,4.1,4.1,0,0,1-1.2,3,4.1,4.1,0,0,1-2.9,1.3v1.7Zm0-15a2.7,2.7,0,0,0-1.6.8,3,3,0,0,0-.5,1.6,1.9,1.9,0,0,0,.5,1.4,3.4,3.4,0,0,0,1.6,1Zm1,11.8a2.3,2.3,0,0,0,1.7-.8,2.9,2.9,0,0,0,.6-1.9,2.4,2.4,0,0,0-.4-1.5,5.4,5.4,0,0,0-1.9-1Z"/><path class="cls-15" d="M98.1,57.6v.8a4.3,4.3,0,0,1,2.4.9,3.6,3.6,0,0,1,1.3,2.5l-1.7.3a2.1,2.1,0,0,0-.7-1.5,2.4,2.4,0,0,0-1.3-.8v5l1.7.5a3.2,3.2,0,0,1,1.3.8,4.2,4.2,0,0,1,.8,1.2,4,4,0,0,1,.3,1.5,4.1,4.1,0,0,1-1.2,3,4.1,4.1,0,0,1-2.9,1.3v1.7h-1V73.1a6.5,6.5,0,0,1-2.1-.6,4.3,4.3,0,0,1-1.4-1.3,5.2,5.2,0,0,1-.6-2.3l1.7-.3a4.2,4.2,0,0,0,.7,2,2.2,2.2,0,0,0,1.7,1V66.2a6,6,0,0,1-2.1-.8,2.7,2.7,0,0,1-1.3-1.3,3.4,3.4,0,0,1-.4-1.8,3.8,3.8,0,0,1,1.3-3,4.1,4.1,0,0,1,2.5-.9v-.8h1m-1,7V59.8a2.7,2.7,0,0,0-1.6.8,3,3,0,0,0-.5,1.6,1.9,1.9,0,0,0,.5,1.4,3.4,3.4,0,0,0,1.6,1m1,7a2.3,2.3,0,0,0,1.7-.8,2.9,2.9,0,0,0,.6-1.9,2.4,2.4,0,0,0-.4-1.5,5.4,5.4,0,0,0-1.9-1v5.2m.1-14.1H97v.7a4.1,4.1,0,0,0-2.5.9,4,4,0,0,0-1.4,3.1,4.1,4.1,0,0,0,.5,1.9,3.3,3.3,0,0,0,1.3,1.3,6,6,0,0,0,2.1.8v5.2a2.2,2.2,0,0,1-1.5-1,3.8,3.8,0,0,1-.7-1.9h-.1l-1.8.3h-.1a5.2,5.2,0,0,0,.7,2.3A3.3,3.3,0,0,0,95,72.6a5.2,5.2,0,0,0,2,.6v1.6h1.2V73.2a4.1,4.1,0,0,0,2.9-1.3,4.3,4.3,0,0,0,1.2-3.1,4,4,0,0,0-.3-1.5,3.5,3.5,0,0,0-.8-1.3,4.1,4.1,0,0,0-1.3-.8,5.9,5.9,0,0,0-1.7-.5V60a1.7,1.7,0,0,1,1.1.6,3.4,3.4,0,0,1,.6,1.5h.2l1.8-.3h.1a4.4,4.4,0,0,0-1.4-2.6,4.3,4.3,0,0,0-2.4-.9v-.7ZM97,64.4a2.1,2.1,0,0,1-1.4-.9,1.5,1.5,0,0,1-.5-1.3,2.5,2.5,0,0,1,.5-1.5A2.3,2.3,0,0,1,97,60v4.4Zm1.2,7.1V66.6a5.2,5.2,0,0,1,1.7.9,2.3,2.3,0,0,1,.4,1.4,2.8,2.8,0,0,1-.6,1.8,2.8,2.8,0,0,1-1.5.8Z"/><g class="cls-16"><path class="cls-17" d="M95.2,61a2.5,2.5,0,0,0-.6,1.6,2.4,2.4,0,0,0,.5,1.4,3.8,3.8,0,0,0,1.7,1v-.6a2.6,2.6,0,0,1-1.3-.8,1.9,1.9,0,0,1-.5-1.4,2.3,2.3,0,0,1,.4-1.4Z"/><path class="cls-17" d="M97.8,66.8V72a2.1,2.1,0,0,0,1.6-.8V71a1.7,1.7,0,0,1-1.4.6V67Z"/><path class="cls-17" d="M97.8,58v.8a4,4,0,0,1,2.3.9,3.6,3.6,0,0,1,1.3,2.2h.4a3.6,3.6,0,0,0-1.3-2.5,4.3,4.3,0,0,0-2.4-.9v-.8h-1V58Z"/><path class="cls-17" d="M95,71a2.4,2.4,0,0,0,1.8,1v-.4a2.8,2.8,0,0,1-1.4-1,4.2,4.2,0,0,1-.7-2l-1.7.3v.3l1.3-.2A5.7,5.7,0,0,0,95,71Z"/><path class="cls-17" d="M94.2,59.7a4.4,4.4,0,0,1,2.6-.9v-.4a5,5,0,0,0-2.2.9l-.6.6Z"/><path class="cls-17" d="M101.9,67.3a4.2,4.2,0,0,0-.8-1.2,3.2,3.2,0,0,0-1.3-.8l-1.7-.5V60.3h-.3v5l1.7.5a5.7,5.7,0,0,1,1.3.8,3.7,3.7,0,0,1,.7,1.2,4.3,4.3,0,0,1-.6,4.2.1.1,0,0,0,.1-.1,4.1,4.1,0,0,0,1.2-3A4,4,0,0,0,101.9,67.3Z"/><path class="cls-17" d="M97.8,73.5v1.3h.3V73.4Z"/></g><rect class="cls-18" x="2.7" y="84.7" width="29.6" height="44.74" rx="0.8"/><rect class="cls-19" x="20.5" y="86.7" width="9.4" height="2.42"/><rect class="cls-3" x="5.5" y="90.2" width="24.5" height="6.94"/><rect class="cls-20" x="5.5" y="98.9" width="2.8" height="2.81" rx="0.2"/><rect class="cls-2" x="8.6" y="98.9" width="2.8" height="2.81" rx="0.2"/><rect class="cls-2" x="11.7" y="98.9" width="2.8" height="2.81" rx="0.2"/><path class="cls-2" d="M17.4,98.9H14.8v2.5h0a.1.1,0,0,0,.1.1h2.5c.1,0,.2,0,.2-.1V99.1Z"/><rect class="cls-2" x="17.9" y="98.9" width="2.8" height="2.81" rx="0.2"/><rect class="cls-21" x="21" y="98.9" width="2.8" height="2.81" rx="0.2"/><path class="cls-21" d="M26.7,98.9H24.1v2.5h0c0,.1.1.1.2.1h2.4c.1,0,.2,0,.2-.1V99.1Z"/><rect class="cls-20" x="27.2" y="98.9" width="2.8" height="2.81" rx="0.2"/><rect class="cls-3" x="5.5" y="102.4" width="5.7" height="5.68" rx="0.3"/><rect class="cls-3" x="11.7" y="102.4" width="5.7" height="5.68" rx="0.3"/><rect class="cls-3" x="18" y="102.4" width="5.7" height="5.68" rx="0.3"/><rect class="cls-3" x="5.5" y="108.7" width="5.7" height="5.68" rx="0.3"/><rect class="cls-3" x="11.7" y="108.7" width="5.7" height="5.68" rx="0.3"/><rect class="cls-3" x="18" y="108.7" width="5.7" height="5.68" rx="0.3"/><path class="cls-21" d="M29.6,102.4h-5a.3.3,0,0,0-.3.3V114c0,.2.1.4.3.4h5a.4.4,0,0,0,.4-.4V102.7C30,102.5,29.8,102.4,29.6,102.4Z"/><rect class="cls-3" x="5.5" y="115" width="5.7" height="5.67" rx="0.3"/><rect class="cls-3" x="11.7" y="115" width="5.7" height="5.67" rx="0.3"/><rect class="cls-3" x="18" y="115" width="5.7" height="5.67" rx="0.3"/><rect class="cls-2" x="5.5" y="121.3" width="5.7" height="5.67" rx="0.3"/><rect class="cls-3" x="11.7" y="121.3" width="5.7" height="5.67" rx="0.3"/><rect class="cls-2" x="18" y="121.3" width="5.7" height="5.67" rx="0.3"/><path class="cls-20" d="M29.6,115h-5a.3.3,0,0,0-.3.3v11.3c0,.2.1.4.3.4h5a.4.4,0,0,0,.4-.4V115.3C30,115.1,29.8,115,29.6,115Z"/></g></g></svg>