<svg id="Layer_1" data-name="Layer 1" xmlns="http://www.w3.org/2000/svg" viewBox="0 0 140.9 133.9"><defs><style>.cls-1{fill:#ffc239;}.cls-2{fill:#f49e21;}.cls-3{opacity:0.1;}.cls-4{fill:#fff;}</style></defs><title>icono_finanzas</title><rect class="cls-1" x="55.1" y="106.6" width="65.8" height="16.44"/><rect class="cls-2" x="62.5" y="90.2" width="65.8" height="16.44"/><rect class="cls-1" x="52.8" y="73.7" width="65.8" height="16.44"/><rect class="cls-2" x="56.6" y="57.3" width="65.8" height="16.44"/><rect class="cls-1" x="51.7" y="40.9" width="65.8" height="16.44"/><rect class="cls-2" x="55.1" y="24.4" width="65.8" height="16.44"/><rect class="cls-1" x="49.1" y="8" width="65.8" height="16.44"/><path class="cls-3" d="M72.8,123H54.9c-1-6.8-2-13.6-3.1-20.4h7.4V85H49.5V67.4h3.8V49.8h.3A40,40,0,0,1,85,67.4a39,39,0,0,1,5.1,10.7s.3.9.6,2.2.6,2.4.9,4.7c1.4,11.6-4.2,22.5-4.2,22.5A40.3,40.3,0,0,1,72.8,123Z"/><circle class="cls-2" cx="46.7" cy="88.6" r="40" transform="translate(-13.7 8.7) rotate(-9.3)"/><circle class="cls-1" cx="46.7" cy="88.6" r="31.7" transform="translate(-53.4 85.6) rotate(-60.5)"/><path class="cls-4" d="M51.1,87.1,47,85.3c-2.7-1-5.3-1.9-5.3-4.6s2.2-3.9,5.3-3.9a10.6,10.6,0,0,1,7.3,2.7l2.4-2.9a13,13,0,0,0-8.1-3.7V69.3H44.5V73c-4.5.9-7.4,4.1-7.4,8s3.3,6.7,6.4,7.9l4.2,1.8c3,1.3,5.2,2.1,5.2,5.1s-2.1,4.1-5.9,4.1a12.8,12.8,0,0,1-8.6-3.5l-2.7,3.1a15.2,15.2,0,0,0,9.1,4.3v4h4.1v-4c5.5-.7,8.7-4.3,8.7-8.6S54.8,88.6,51.1,87.1Z"/></svg>