<svg xmlns="http://www.w3.org/2000/svg" xmlns:xlink="http://www.w3.org/1999/xlink" viewBox="0 0 140.9 133.9"><defs><style>.cls-1{isolation:isolate;}.cls-2{fill:#cdcdcd;}.cls-3{fill:#e7edf0;}.cls-4{fill:#ededed;}.cls-5{fill:url(#radial-gradient);}.cls-6{fill:url(#radial-gradient-2);}.cls-7{fill:#527f95;}.cls-8{fill:#fff;}.cls-9{fill:url(#linear-gradient);}.cls-10{fill:#a2bac6;}.cls-11{fill:url(#linear-gradient-2);}.cls-12{fill:url(#linear-gradient-3);}.cls-13{fill:url(#linear-gradient-4);}.cls-14{fill:url(#linear-gradient-5);}.cls-15{mix-blend-mode:soft-light;fill:url(#radial-gradient-3);}.cls-16{mix-blend-mode:multiply;}.cls-17{fill:#2981a1;}</style><radialGradient id="radial-gradient" cx="32.12" cy="-16.09" r="167.34" gradientUnits="userSpaceOnUse"><stop offset="0" stop-color="#60b8dd"/><stop offset="1" stop-color="#0075b6"/></radialGradient><radialGradient id="radial-gradient-2" cx="103.56" cy="8.15" r="192.11" gradientUnits="userSpaceOnUse"><stop offset="0" stop-color="#a6d9f2"/><stop offset="0.51" stop-color="#5ebfe2"/><stop offset="1" stop-color="#15a4d2"/></radialGradient><linearGradient id="linear-gradient" x1="47.64" y1="16.53" x2="31.88" y2="31.13" gradientUnits="userSpaceOnUse"><stop offset="0" stop-color="#f6f8f9"/><stop offset="1" stop-color="#638b9f"/></linearGradient><linearGradient id="linear-gradient-2" x1="56.9" y1="144.4" x2="118.08" y2="51.17" gradientUnits="userSpaceOnUse"><stop offset="0" stop-color="#f6f8f9"/><stop offset="1" stop-color="#648c9f"/></linearGradient><linearGradient id="linear-gradient-3" x1="110.86" y1="32.9" x2="97.87" y2="15.97" xlink:href="#linear-gradient"/><linearGradient id="linear-gradient-4" x1="11.5" y1="19.83" x2="58.69" y2="136.86" gradientUnits="userSpaceOnUse"><stop offset="0" stop-color="#f6f8f9"/><stop offset="1" stop-color="#87a6b5"/></linearGradient><linearGradient id="linear-gradient-5" x1="21.73" y1="28.45" x2="49.32" y2="2.49" xlink:href="#linear-gradient-4"/><radialGradient id="radial-gradient-3" cx="94.05" cy="8.11" r="195.77" gradientUnits="userSpaceOnUse"><stop offset="0" stop-color="#e6f5fc"/><stop offset="0.51" stop-color="#9ed3e6"/><stop offset="1" stop-color="#55b1d0"/></radialGradient></defs><title>icono_seguridad_ciudadana</title><g class="cls-1"><g id="Layer_1" data-name="Layer 1"><path class="cls-2" d="M33.8,88.2c-6-17.9-4.7-46.9-4.3-55.9A24,24,0,0,0,45.3,15.5a97.2,97.2,0,0,1,26.3-3.6V4A100.2,100.2,0,0,0,38.2,9.5a16.1,16.1,0,0,1-16.1,16s-4.8,38.3,4.2,65.2c10.9,32.7,45.3,39.6,45.3,39.6v-8.7C63.9,117.9,41.6,111.5,33.8,88.2Z"/><path class="cls-3" d="M29.5,32.3c-.4,9-1.7,38,4.3,55.9,7.8,23.3,30.1,29.7,37.8,33.4V11.9a97.2,97.2,0,0,0-26.3,3.6A24,24,0,0,1,29.5,32.3Z"/><path class="cls-3" d="M71.6,121.7c7.6-3.7,29.9-10.2,37.8-33.5,5.9-17.8,4.6-46.9,4.2-55.9A24.4,24.4,0,0,1,97.8,15.5a97,97,0,0,0-26.2-3.6Z"/><path class="cls-4" d="M121,25.5a16.1,16.1,0,0,1-16.1-16A100,100,0,0,0,71.6,4v7.9a97,97,0,0,1,26.2,3.6,24.4,24.4,0,0,0,15.8,16.8c.4,9,1.7,38.1-4.2,55.9-7.9,23.3-30.2,29.8-37.8,33.5v8.6s34.3-6.9,45.2-39.6C125.9,63.8,121,25.5,121,25.5Z"/><path class="cls-5" d="M46.1,16.2A25,25,0,0,1,30.4,32.9a267,267,0,0,0,.5,35c.7,7.2,1.8,14.2,3.8,20,7.4,22.3,28.4,28.5,36.9,32.7V12.8A100.4,100.4,0,0,0,46.1,16.2Z"/><path class="cls-6" d="M112.7,32.9A25.2,25.2,0,0,1,97,16.2a99.5,99.5,0,0,0-25.4-3.4V120.6c8.5-4.2,29.4-10.4,36.9-32.7a90.1,90.1,0,0,0,3.7-20A250.3,250.3,0,0,0,112.7,32.9Z"/><path class="cls-7" d="M45.3,15.5l.8.7a100.4,100.4,0,0,1,25.5-3.4v-.9A97.2,97.2,0,0,0,45.3,15.5Z"/><path class="cls-8" d="M34.7,87.9c-5.8-17.2-4.7-45.6-4.3-55l-.9-.6c-.4,9-1.7,38,4.3,55.9,7.8,23.3,30.1,29.7,37.8,33.4v-1C63.1,116.4,42.1,110.2,34.7,87.9Z"/><path class="cls-9" d="M46.1,16.2l-.8-.7A24,24,0,0,1,29.5,32.3l.9.6A25,25,0,0,0,46.1,16.2Z"/><path class="cls-10" d="M97.8,15.5l-.8.7a99.5,99.5,0,0,0-25.4-3.4v-.9A97,97,0,0,1,97.8,15.5Z"/><path class="cls-11" d="M108.5,87.9c5.8-17.2,4.6-45.6,4.2-55l.9-.6c.4,9,1.7,38-4.3,55.9-7.8,23.3-30.1,29.7-37.7,33.4v-1C80.1,116.4,101,110.2,108.5,87.9Z"/><path class="cls-12" d="M97,16.2l.8-.7a24.2,24.2,0,0,0,15.8,16.8l-.9.6A25,25,0,0,1,97,16.2Z"/><path class="cls-13" d="M26.3,90.7c-9-26.9-4.2-65.2-4.2-65.2a8.7,8.7,0,0,1-1.2,1.4S16,65.2,25.2,92.1c11.2,32.7,46.4,39.6,46.4,39.6v-1.4S37.2,123.4,26.3,90.7Z"/><path class="cls-14" d="M38.2,9.5l-.8,1.4c0,8.2-7,13.8-15.3,14.6A16.1,16.1,0,0,0,38.2,9.5Z"/><path class="cls-8" d="M116.8,90.7c9.1-26.9,4.2-65.2,4.2-65.2l1.2,1.4s5,38.3-4.3,65.2c-11.2,32.7-46.3,39.6-46.3,39.6v-1.4S105.9,123.4,116.8,90.7Z"/><path class="cls-8" d="M104.9,9.5l.8,1.4c0,8.2,7,13.8,15.3,14.6A16.1,16.1,0,0,1,104.9,9.5Z"/><path class="cls-15" d="M97,16.2c-1.9-.5-4.6-1.2-7.9-1.8-6,6.1-12,12.2-18.1,18.2L31.4,72.4a77,77,0,0,0,3.3,15.5,41.2,41.2,0,0,0,4.7,9.9L62,75.2l45.3-45A25.6,25.6,0,0,1,97,16.2Z"/><g class="cls-16"><path class="cls-17" d="M72.3,52.8a4,4,0,1,1,0,7.9,4,4,0,0,1,0-7.9Z"/><path class="cls-17" d="M76.8,72.3l-.5-6.9-2.4-3.6H70.7l-2.3,3.6-.6,6.9c0,.2.1.3.1.4h0V84.5a1.9,1.9,0,0,0,1.8,1.9,2,2,0,0,0,1.9-1.9V75.2h1.5v9.3a1.9,1.9,0,1,0,3.7,0V72.8h0Z"/><path class="cls-17" d="M70.7,65.4h-8a1.8,1.8,0,1,1,0-3.6h8a1.8,1.8,0,0,1,0,3.6Z"/><path class="cls-17" d="M81.4,65.4h-8a1.8,1.8,0,0,1,0-3.6h8a1.8,1.8,0,0,1,0,3.6Z"/><path class="cls-17" d="M53.3,35.3a5.1,5.1,0,0,1,5.1,5.2,5.2,5.2,0,1,1-5.1-5.2Z"/><path class="cls-17" d="M62.7,66.6a1.9,1.9,0,0,1-2-1.8h0v-.5c-.1-.4-.1-1-.2-1.7a47.9,47.9,0,0,0-.5-4.9,10.8,10.8,0,0,0-.5-2.9c-.3-1-.6-.9-1.1-1l.7,10.4V83.9a2.4,2.4,0,1,1-4.8,0V67.8H52.2V83.9a2.4,2.4,0,0,1-2.4,2.5,2.5,2.5,0,0,1-2.4-2.5V64.1l.7-10.4c-.3.2-.6,0-1,.9a14.3,14.3,0,0,0-.6,2.6l-.3,2.9c-.2,2-.3,3.8-.4,4.4v.3a1.9,1.9,0,0,1-3.8-.2s.2-4,.7-7.5a15,15,0,0,1,.6-3.3,7.7,7.7,0,0,1,1.8-3.6,10,10,0,0,1,2.6-1.9,8,8,0,0,1,2.5-.7h6.6a9,9,0,0,1,2.6.9,7.4,7.4,0,0,1,2,1.6,7.7,7.7,0,0,1,1.8,3.6,15,15,0,0,1,.6,3.3c.2,1.2.3,2.4.4,3.5s.3,4,.3,4A1.8,1.8,0,0,1,62.7,66.6Z"/><path class="cls-17" d="M90.3,47.5a4.7,4.7,0,1,0-4.7-4.7A4.7,4.7,0,0,0,90.3,47.5Z"/><path class="cls-17" d="M85.7,71.8V84.6a1.8,1.8,0,0,0,1.8,1.8,1.8,1.8,0,0,0,1.7-1.8V71.8h2.2V84.6a1.8,1.8,0,0,0,1.7,1.8,1.8,1.8,0,0,0,1.8-1.8V71.8H85.7Z"/><path class="cls-17" d="M100.6,64.6c-.5-2.8-2-7.8-2.4-9.5a10.6,10.6,0,0,0-1.3-3.2A5.9,5.9,0,0,0,94,49.6l-.6-.2-1.1-.2h-4l-1.1.2a4.3,4.3,0,0,0-1.6.7,6.2,6.2,0,0,0-1.8,1.8,8.6,8.6,0,0,0-1.4,3.2c-.4,1.7-1.9,6.7-2.4,9.5a1.5,1.5,0,1,0,3,.6c.6-2.8,2.1-7.7,2.5-9.4a5,5,0,0,1,.5-1.6,11.1,11.1,0,0,1,.7,2c.7,3-2.9,7.3-3.5,15.6H97.4c-.6-8.3-4.2-12.6-3.5-15.6a8.8,8.8,0,0,1,.7-2,5,5,0,0,1,.5,1.6c.4,1.7,1.9,6.6,2.5,9.4a1.5,1.5,0,1,0,3-.6Z"/></g></g></g></svg>