<svg xmlns="http://www.w3.org/2000/svg" viewBox="0 0 400 400"><defs><style>.cls-1{fill:#f5f5f5;}.cls-2{fill:#ebebeb;}.cls-3{fill:#27debf;}.cls-4{fill:#11aae3;}.cls-10,.cls-5{fill:#fff;}.cls-13,.cls-6{fill:#fafafa;}.cls-7{fill:#e0e0e0;}.cls-8{fill:#455a64;}.cls-11,.cls-9{opacity:0.1;}.cls-10{opacity:0.4;}.cls-12{opacity:0.2;}.cls-13{stroke:#e0e0e0;stroke-miterlimit:10;stroke-width:1.17px;}.cls-14{fill:#37474f;}</style></defs><title>moduloregistrousuario</title><g id="Mobile_Screen" data-name="Mobile Screen"><path id="Floor-2" data-name="Floor" class="cls-1" d="M66.4,308.5c71.1,36.4,186.5,36.4,257.6,0s71.2-95.3,0-131.7-186.5-36.4-257.6,0S-4.8,272.2,66.4,308.5Z"/><path id="Shadow" class="cls-2" d="M299.1,250.4c3.9,2.3,11.5,1.5,17.1-1.7l32-18.6c5.5-3.2,6.9-7.6,3-9.9s-11.6-1.5-17.2,1.7l-32,18.6C296.5,243.7,295.2,248.2,299.1,250.4Z"/><polygon id="Shadow-2" data-name="Shadow" class="cls-2" points="106.3 267.6 73.8 248.8 106.3 230 106.3 267.6"/><polygon id="Shadow-3" data-name="Shadow" class="cls-2" points="198.4 278.8 145.9 248.5 198.4 218.2 198.4 278.8"/><g id="Plants-2" data-name="Plants"><path class="cls-3" d="M62.3,223.6c.1-7.6-5.2-23.4-13-33.4s-20.2-17.4-29-14.5-7.5,13.5,2.4,20.8,24.7,16.4,29,28.8l9,15.3Z"/><path class="cls-4" d="M62.3,223.6c.1-7.6-5.2-23.4-13-33.4s-20.2-17.4-29-14.5-7.5,13.5,2.4,20.8,24.7,16.4,29,28.8l9,15.3Z"/><path class="cls-5" d="M62.7,234a.7.7,0,0,1-.5-.4c-4.8-26.1-25.5-47.5-38.1-52.3a.5.5,0,0,1,.4-1c12.8,4.9,34,26.6,38.8,53.1a.4.4,0,0,1-.4.6Z"/><path class="cls-4" d="M58.6,250.6c-1.1-4.3-6.3-11.4-14.7-17.3s-21-9.7-23.7-14.8,1.9-11.7,11.5-10.4,26.4,14.6,28.8,34.4Z"/><path class="cls-5" d="M60.6,246.2a.7.7,0,0,1-.5-.4c-7.7-22.4-24.6-30.4-32.5-31.5a.6.6,0,0,1-.5-.6c.1-.4.4-.6.7-.5,8.7,1.2,25.5,9.4,33.3,32.2a.5.5,0,0,1-.3.7Z"/></g><g id="Plants-3" data-name="Plants"><path class="cls-3" d="M346.5,201.9s1.1-16,10.5-27.9,8.9-16.9,2.4-19.3-21.7,12-18.3,31.2S346.5,201.9,346.5,201.9Z"/><path class="cls-4" d="M346.5,201.9s1.1-16,10.5-27.9,8.9-16.9,2.4-19.3-21.7,12-18.3,31.2S346.5,201.9,346.5,201.9Z"/><path class="cls-5" d="M343.6,192.8c-.2,0-.3-.2-.4-.4-1.1-17.7,11.4-32.2,16.1-35.5a.4.4,0,0,1,.5.1c.1.2.1.4-.1.5-4.6,3.3-16.8,17.5-15.7,34.9,0,.2-.2.3-.4.4Z"/><path class="cls-4" d="M343.9,215.2a79.1,79.1,0,0,0,13.1,3.1c7.3,1.2,10.5-2.3,10.5-2.3s-2.9-6.9-7-8.8a40.4,40.4,0,0,1,12.7,5.2s4.5.1,6.2-6.8c0,0-2.6-4.1-11.5-6.3,0,0,5.4-1.4,13.2.6.6.3,3.1-8.6,3.8-12.6s-.8-4.1-4-4.9-13.7-3.2-15.7-1.5-3,7.7-3,7.7a14,14,0,0,1-.3-7.5,12.7,12.7,0,0,0-7.3.1c-3.6,1.1-3.8,3.6-3.6,6.4a27.6,27.6,0,0,0,1.5,7s-2.8-3.6-2.9-11.4c0,0-7.4,3.6-8.7,11C340.3,198.2,339.3,209.9,343.9,215.2Z"/><path class="cls-5" d="M345.3,213.8c.2,0,.3-.1.4-.3,5.9-12.3,27.9-26.5,35.8-28.1.2,0,.3-.2.3-.5s-.3-.3-.5-.3c-8,1.6-30.3,16.1-36.3,28.6-.1.2-.1.4.2.5Z"/></g><path class="cls-6" d="M59.4,256.2c-.8,0-1.3-.7-1.3-1.9V119.5L223,24.3V158.4a7.2,7.2,0,0,1-3.2,5.5L60.7,255.8A2.4,2.4,0,0,1,59.4,256.2Z"/><path class="cls-7" d="M222.4,25.3V158.4a6.4,6.4,0,0,1-2.9,5L60.4,255.3a1.7,1.7,0,0,1-1,.3c-.6,0-.7-.8-.7-1.3V119.9L222.4,25.3m1.2-2L57.5,119.2V254.3c0,1.6.8,2.5,1.9,2.5a3.7,3.7,0,0,0,1.6-.5l159.1-91.9a7.7,7.7,0,0,0,3.5-6V23.3Z"/><polygon class="cls-4" points="57.5 119.2 57.5 141.8 223.6 45.9 223.6 23.3 57.5 119.2"/><path class="cls-6" d="M70.5,120.4v3.2c0,.7.5,1,1.1.6l51-29.4V89.1l-51,29.5A2.2,2.2,0,0,0,70.5,120.4Z"/><path class="cls-8" d="M128.1,86c.6-.4,1-.1,1,.6v3.2a2.1,2.1,0,0,1-1,1.8l-5.5,3.2V89.1Z"/><path class="cls-8" d="M57.5,111.9a7.5,7.5,0,0,1,3.5-6L220.1,14c1.9-1.1,3.5-.2,3.5,2v7.3L57.5,119.2Z"/><path class="cls-4" d="M205.1,26.5a3.4,3.4,0,0,0-1.6,2.8c0,1,.7,1.4,1.6.9a3.6,3.6,0,0,0,1.6-2.8C206.7,26.4,206,25.9,205.1,26.5Z"/><path class="cls-4" d="M210.3,23.5a3.7,3.7,0,0,0-1.7,2.8,1,1,0,0,0,1.7.9,3.4,3.4,0,0,0,1.6-2.8C211.9,23.4,211.2,23,210.3,23.5Z"/><path class="cls-4" d="M215.4,20.5a3.6,3.6,0,0,0-1.6,2.8c0,1.1.7,1.5,1.6,1a3.7,3.7,0,0,0,1.6-2.9C217,20.4,216.3,20,215.4,20.5Z"/><g class="cls-9"><path d="M171.5,60.6a7.8,7.8,0,0,0-3.6,6.1c0,2.3,1.6,3.2,3.6,2.1a7.9,7.9,0,0,0,3.5-6.2C175,60.4,173.4,59.4,171.5,60.6Z"/><path d="M155.2,70a7.8,7.8,0,0,0-3.6,6.1c0,2.3,1.6,3.2,3.6,2.1a7.9,7.9,0,0,0,3.5-6.2C158.7,69.8,157.1,68.8,155.2,70Z"/><path d="M187.7,51.2a7.9,7.9,0,0,0-3.5,6.1c0,2.3,1.6,3.2,3.5,2.1a7.8,7.8,0,0,0,3.6-6.2C191.3,51,189.7,50,187.7,51.2Z"/><path d="M204,41.7a8.1,8.1,0,0,0-3.5,6.2c0,2.3,1.6,3.2,3.5,2.1a7.9,7.9,0,0,0,3.6-6.2C207.6,41.5,206,40.6,204,41.7Z"/></g><path class="cls-7" d="M74,143.5l38.6-22.3c1.9-1.1,3.5-.2,3.5,2v37.1a7.7,7.7,0,0,1-3.5,6L74,188.6c-1.9,1.1-3.5.2-3.5-2V149.5A7.7,7.7,0,0,1,74,143.5Z"/><path class="cls-7" d="M129.3,111.6l81-46.8c1.9-1.1,3.5-.2,3.5,2v37.1a7.7,7.7,0,0,1-3.5,6l-81,46.8c-1.9,1.1-3.4.2-3.4-2V117.6A7.6,7.6,0,0,1,129.3,111.6Z"/><path class="cls-7" d="M74,199.9l61.4-35.5c1.9-1.1,3.5-.3,3.5,1.8a7.5,7.5,0,0,1-3.5,5.8L74,207.4c-1.9,1.1-3.5.4-3.5-1.7A7.5,7.5,0,0,1,74,199.9Z"/><path class="cls-7" d="M74,213.1l61.4-35.5c1.9-1.1,3.5-.3,3.5,1.8a7.5,7.5,0,0,1-3.5,5.7L74,220.6c-1.9,1.1-3.5.3-3.5-1.8A7.5,7.5,0,0,1,74,213.1Z"/><path class="cls-7" d="M74,226.2l61.4-35.4c1.9-1.2,3.5-.4,3.5,1.7a7.5,7.5,0,0,1-3.5,5.8L74,233.7c-1.9,1.2-3.5.4-3.5-1.7A7.5,7.5,0,0,1,74,226.2Z"/><g id="Letter"><path class="cls-4" d="M103.1,181.6a4.6,4.6,0,0,1,2.1-3.6l106.5-61.5a4.5,4.5,0,0,1,4.2,0l2.3,1.3a4.6,4.6,0,0,1,2.1,3.7v81.6a4.4,4.4,0,0,1-2.1,3.6L111.7,268.2a4.5,4.5,0,0,1-4.2,0l-2.3-1.3a4.6,4.6,0,0,1-2.1-3.6Z"/><path class="cls-10" d="M103.7,179.6l5.9,3.4,110.1-63.6a4.6,4.6,0,0,0-1.5-1.6l-2.3-1.3a4.5,4.5,0,0,0-4.2,0L105.2,178A3.9,3.9,0,0,0,103.7,179.6Z"/><path class="cls-11" d="M103.1,181.6v81.7a4.6,4.6,0,0,0,2.1,3.6l2.3,1.3.6.3.8.2a4.9,4.9,0,0,0,1.7-.1h.4c.1,0,.2,0,.2-.1a1.2,1.2,0,0,1-1,0c-.4-.2-.6-.7-.6-1.4V185.4a1.8,1.8,0,0,1,1.1-1.8l-1.1-.6-5.9-3.4A3.6,3.6,0,0,0,103.1,181.6Z"/><path class="cls-12" d="M109.6,183l49.3,18.4a8.2,8.2,0,0,0,9.6-3.1l7.9-12.2,43.7-66.9L178,186.6l42.3,16.6a4,4,0,0,1-.7,2l-41.8-18.4-9.2,14.7a8,8,0,0,1-10,3.1l-6.6-2.9-41.8,66.7c-.4-.2-.6-.7-.6-1.4v-1.3l42.2-64.1Z"/></g><path class="cls-13" d="M197.5,89.2V276.7c0,2.2,1.6,3.1,3.5,2l84.2-48.6a7.7,7.7,0,0,0,3.5-6V36.6c0-2.2-1.6-3.1-3.5-2L201,83.2A7.7,7.7,0,0,0,197.5,89.2Z"/><path class="cls-8" d="M202.4,92.7a2,2,0,0,1,.9-1.5l9.6-5.5c.5-.3.9-.1.9.4a2,2,0,0,1-.9,1.5l-9.6,5.5C202.8,93.4,202.4,93.2,202.4,92.7Z"/><path class="cls-8" d="M202.4,96.4a1.8,1.8,0,0,1,.9-1.4l9.6-5.6c.5-.2.9-.1.9.5a1.8,1.8,0,0,1-.9,1.4l-9.6,5.6C202.8,97.1,202.4,97,202.4,96.4Z"/><path class="cls-8" d="M202.4,100.2a2,2,0,0,1,.9-1.5l9.6-5.5c.5-.3.9-.1.9.4a2,2,0,0,1-.9,1.5l-9.6,5.5C202.8,100.9,202.4,100.7,202.4,100.2Z"/><path class="cls-14" d="M282.2,52.1V50.6c0-.1-.1-.1-.2-.1l-1.1.5c-.1.1-.2,0-.2-.1l-.3-.5v-.3l.8-1.6c0-.1,0-.2-.1-.2l-.8-.5H280l-.9,1.4h-.9c-.1,0-.2,0-.2-.1V48.1c0-.1-.1-.1-.2-.1l-1.3.8a.3.3,0,0,0-.1.2v1.5a.2.2,0,0,1-.2.2l-.7.8h-.2l-.9-.3c-.1,0-.2,0-.2.1L273,53a.4.4,0,0,0,.1.3l.6.5a.4.4,0,0,1,.1.3l-.3,1c0,.1-.1.2-.2.3l-1.1.8-.2.2v1.5c0,.1.1.2.2.1l1.1-.5c.1,0,.2,0,.2.1l.3.6v.3L273,60c0,.1,0,.2.1.2l.8.5h.3l.9-1.5h.9a.2.2,0,0,1,.2.2v1.2a.1.1,0,0,0,.1.1l1.3-.7c.1-.1.2-.2.2-.3V58.1c0-.1.1-.2.2-.3l.7-.8s.2-.1.2,0l.9.3h.2l1-1.7c0-.1,0-.2-.1-.2l-.7-.6v-.3l.3-1a.3.3,0,0,1,.1-.2l1.2-.9A.2.2,0,0,0,282.2,52.1Zm-5.1,4.7c-1.2.7-2.2.1-2.2-1.3a4.9,4.9,0,0,1,2.2-3.8c1.2-.7,2.2-.1,2.2,1.3A4.9,4.9,0,0,1,277.1,56.8Z"/><path class="cls-8" d="M243.1,89c9.8-5.6,17.8-1,17.8,10.3s-8,25.2-17.8,30.9-17.8,1.1-17.8-10.3S233.2,94.7,243.1,89Z"/><path class="cls-4" d="M243,98c3.2-1.9,5.7-.4,5.7,3.3a12.6,12.6,0,0,1-5.7,10c-3.2,1.9-5.8.4-5.8-3.3A12.7,12.7,0,0,1,243,98Z"/><path class="cls-4" d="M254.4,117.6c0-6-4.3-8.5-9.5-5.4l-3.3,1.9c-5.3,3-9.5,10.4-9.5,16.4v1.7a9.9,9.9,0,0,0,3,.4,15.8,15.8,0,0,0,8-2.4,36.2,36.2,0,0,0,11.3-11.1Z"/><path class="cls-4" d="M227,147.1l32.2-18.6c.9-.5,1.7-.1,1.7.9a3.9,3.9,0,0,1-1.7,2.9L227,150.9c-1,.5-1.7.1-1.7-.9A3.7,3.7,0,0,1,227,147.1Z"/><path class="cls-8" d="M223.6,160.4l39-22.6c1-.5,1.8-.2,1.8.9a3.9,3.9,0,0,1-1.8,2.9l-39,22.6c-1,.5-1.8.1-1.8-.9A3.5,3.5,0,0,1,223.6,160.4Z"/><path class="cls-14" d="M263.7,156l10.9-6.3c.6-.3,1.1-.2,1.1.3a2.2,2.2,0,0,1-1.1,1.6l-10.9,6.3c-.6.3-1.1.2-1.1-.3A2,2,0,0,1,263.7,156Z"/><path class="cls-4" d="M209,183.8l16.1-9.3c.9-.5,1.7-.1,1.7,1v11.1a4,4,0,0,1-1.7,3L209,198.9c-.9.5-1.7.1-1.7-1V186.8A4,4,0,0,1,209,183.8Z"/><path class="cls-6" d="M211.6,185.4l10.9-6.4c.6-.3,1.1-.1,1.1.4a2,2,0,0,1-1.1,1.5l-10.9,6.3c-.6.4-1.1.2-1.1-.3A2,2,0,0,1,211.6,185.4Z"/><path class="cls-6" d="M210.5,190.9v3.3c0,.6.5.9,1.1.6l10.9-6.4a2.2,2.2,0,0,0,1.1-1.8v-3.2c0-.7-.5-.9-1.1-.6l-10.9,6.3A2.5,2.5,0,0,0,210.5,190.9Z"/><path class="cls-4" d="M235.1,168.8l16-9.3c1-.5,1.8-.1,1.8,1v11a3.7,3.7,0,0,1-1.8,3l-16,9.3c-1,.6-1.8.1-1.8-1v-11A3.7,3.7,0,0,1,235.1,168.8Z"/><path class="cls-6" d="M237.6,170.3l11-6.3c.5-.3,1-.2,1,.3a2.1,2.1,0,0,1-1,1.6l-11,6.3c-.6.3-1,.2-1-.3A2,2,0,0,1,237.6,170.3Z"/><path class="cls-6" d="M236.6,175.9v3.2c0,.7.4,1,1,.6l11-6.3a2.4,2.4,0,0,0,1-1.8v-3.2c0-.7-.5-1-1-.6l-11,6.3A2.1,2.1,0,0,0,236.6,175.9Z"/><path class="cls-4" d="M261.1,153.7l16.1-9.2c.9-.6,1.7-.1,1.7,1v11a3.9,3.9,0,0,1-1.7,3l-16.1,9.3c-1,.5-1.7.1-1.7-1V156.7A3.8,3.8,0,0,1,261.1,153.7Z"/><path class="cls-6" d="M263.7,155.3l10.9-6.3c.6-.4,1.1-.2,1.1.3a2,2,0,0,1-1.1,1.5l-10.9,6.4c-.6.3-1.1.1-1.1-.4A2,2,0,0,1,263.7,155.3Z"/><path class="cls-6" d="M262.6,160.8v3.3c0,.6.5.9,1.1.6l10.9-6.3a2.5,2.5,0,0,0,1.1-1.8v-3.3c0-.6-.5-.9-1.1-.6L263.7,159A2.5,2.5,0,0,0,262.6,160.8Z"/><path class="cls-7" d="M210.7,209.1l64.7-37.3c2-1.1,3.5-.3,3.5,1.7a7.3,7.3,0,0,1-3.5,5.8l-64.7,37.4c-1.9,1.1-3.4.3-3.4-1.8A7.4,7.4,0,0,1,210.7,209.1Z"/><path class="cls-7" d="M210.7,224.2l64.7-37.4c2-1.1,3.5-.3,3.5,1.8a7.1,7.1,0,0,1-3.5,5.7l-64.7,37.4c-1.9,1.1-3.4.3-3.4-1.8A7.4,7.4,0,0,1,210.7,224.2Z"/><path class="cls-4" d="M231.8,230.8l22.6-13c.9-.6,1.7-.1,1.7,1v7.3a4,4,0,0,1-1.7,3l-22.6,13c-1,.6-1.7.1-1.7-1v-7.3A3.8,3.8,0,0,1,231.8,230.8Z"/><path class="cls-6" d="M212.2,210.2a3.9,3.9,0,0,0-1.7,2.9c0,1,.8,1.4,1.7.9a3.6,3.6,0,0,0,1.6-2.8C213.8,210.1,213.1,209.7,212.2,210.2Z"/><path class="cls-6" d="M217.3,207.3a3.4,3.4,0,0,0-1.6,2.8c0,1,.7,1.4,1.6.9a3.6,3.6,0,0,0,1.6-2.8C218.9,207.2,218.2,206.7,217.3,207.3Z"/><path class="cls-6" d="M222.5,204.3a3.7,3.7,0,0,0-1.7,2.8,1,1,0,0,0,1.7.9,3.4,3.4,0,0,0,1.6-2.8C224.1,204.2,223.4,203.8,222.5,204.3Z"/><path class="cls-6" d="M227.6,201.3a3.6,3.6,0,0,0-1.6,2.8c0,1.1.7,1.5,1.6,1a3.9,3.9,0,0,0,1.7-2.9C229.3,201.2,228.5,200.8,227.6,201.3Z"/><path class="cls-6" d="M232.8,198.3a3.6,3.6,0,0,0-1.6,2.8c0,1.1.7,1.5,1.6,1a3.6,3.6,0,0,0,1.6-2.8C234.4,198.2,233.7,197.8,232.8,198.3Z"/><path class="cls-6" d="M237.9,195.3a3.6,3.6,0,0,0-1.6,2.9c0,1,.7,1.4,1.6.9a3.7,3.7,0,0,0,1.7-2.8C239.6,195.2,238.8,194.8,237.9,195.3Z"/><path class="cls-6" d="M243.1,192.3a3.7,3.7,0,0,0-1.6,2.9c0,1,.7,1.4,1.6.9a3.6,3.6,0,0,0,1.6-2.8C244.7,192.3,244,191.8,243.1,192.3Z"/><path class="cls-6" d="M212.2,225.3a3.7,3.7,0,0,0-1.7,2.8c0,1.1.8,1.5,1.7,1a3.7,3.7,0,0,0,1.6-2.9C213.8,225.2,213.1,224.8,212.2,225.3Z"/><path class="cls-6" d="M217.3,222.3a3.6,3.6,0,0,0-1.6,2.8c0,1.1.7,1.5,1.6,1a3.6,3.6,0,0,0,1.6-2.8C218.9,222.2,218.2,221.8,217.3,222.3Z"/><path class="cls-6" d="M222.5,219.3a3.9,3.9,0,0,0-1.7,2.9c0,1,.8,1.4,1.7.9a3.6,3.6,0,0,0,1.6-2.8C224.1,219.2,223.4,218.8,222.5,219.3Z"/><path class="cls-6" d="M227.6,216.4a3.4,3.4,0,0,0-1.6,2.8c0,1,.7,1.4,1.6.9a3.7,3.7,0,0,0,1.7-2.8A1,1,0,0,0,227.6,216.4Z"/><path class="cls-6" d="M232.8,213.4a3.6,3.6,0,0,0-1.6,2.8c0,1,.7,1.4,1.6.9a3.6,3.6,0,0,0,1.6-2.8C234.4,213.3,233.7,212.8,232.8,213.4Z"/><path class="cls-6" d="M237.9,210.4a3.6,3.6,0,0,0-1.6,2.8c0,1,.7,1.5,1.6.9a3.5,3.5,0,0,0,1.7-2.8C239.6,210.3,238.8,209.9,237.9,210.4Z"/><path class="cls-6" d="M243.1,207.4a3.6,3.6,0,0,0-1.6,2.8c0,1.1.7,1.5,1.6,1a3.7,3.7,0,0,0,1.6-2.9C244.7,207.3,244,206.9,243.1,207.4Z"/><path class="cls-8" d="M315.4,241.3a15.2,15.2,0,0,1-7.8-2.1c-5.8-3.3-9.1-10.3-9.1-19.1,0-15.6,9.8-33.5,22.4-40.7,6.8-4,13.6-4.4,19-1.2s9.1,10.3,9.1,19.1c0,15.6-9.9,33.4-22.5,40.7A21.8,21.8,0,0,1,315.4,241.3Zm16.6-54a11.9,11.9,0,0,0-5.5,1.8c-9.1,5.2-16.9,19.4-16.9,31,0,4.6,1.4,8.2,3.5,9.4s6-.1,7.8-1.2c9.2-5.3,16.9-19.5,16.9-31,0-4.6-1.3-8.2-3.5-9.4A3.8,3.8,0,0,0,332,187.3Z"/><path class="cls-14" d="M339.8,199.8c0-8.7-5.5-11.9-5.5-11.9h0c2.2,1.2,3.5,4.8,3.5,9.4,0,11.5-7.7,25.7-16.9,31-1.8,1.1-5.3,2.7-7.8,1.2,0,0,4.7,2.9,11.1-.6C333.5,223.8,339.8,211.3,339.8,199.8Z"/><path class="cls-14" d="M331,90.7a5.8,5.8,0,0,0-5.8-5.8,5.7,5.7,0,0,0-5.7,5.8h0v92h0a3,3,0,0,0,1.6,2.4,9.1,9.1,0,0,0,8.2,0,2.9,2.9,0,0,0,1.7-2.4h0v-92Z"/><path class="cls-8" d="M326.4,111.3a7.4,7.4,0,0,0-3.3-5.8,2.2,2.2,0,0,0-2.4-.2h0l-14.3,8.2-.3.2h-.2l-.7.5a5.2,5.2,0,0,0-1.4,3.4,4.9,4.9,0,0,0,2.5,4.2,5.6,5.6,0,0,0,2.3.5,5.4,5.4,0,0,0,2.2-.5l.3-.2,14.3-8.3h0A2.3,2.3,0,0,0,326.4,111.3Z"/><path class="cls-8" d="M326.4,134.3a7.6,7.6,0,0,0-3.3-5.8,2.4,2.4,0,0,0-2.4-.2h0l-16.8,9.6-.3.2h-.1l-.7.5a4.8,4.8,0,0,0-1.4,3.4,4.9,4.9,0,0,0,2.4,4.2,5.5,5.5,0,0,0,4.6,0c0-.1.1-.1.2-.2l16.8-9.6h0A2.2,2.2,0,0,0,326.4,134.3Z"/></g></svg>