<svg xmlns="http://www.w3.org/2000/svg" viewBox="0 0 445.9 61.5"><defs><style>.cls-1{opacity:0.4;}.cls-2{fill:#fff;}</style></defs><title>dsdsds</title><g id="TEXTO"><g class="cls-1"><path class="cls-2" d="M218.1,40.4l-2.3,14.4h-9.1l6.2-39.1A68.6,68.6,0,0,1,226,14.5h3.3a23,23,0,0,1,5.6,1.1,7.8,7.8,0,0,1,3.8,3,9.9,9.9,0,0,1,1.4,5.5,18.2,18.2,0,0,1-.3,3.2c-.7,4.4-2.2,7.6-4.7,9.7a13.7,13.7,0,0,1-5.7,2.7,29.4,29.4,0,0,1-7.1.7ZM221,22.2l-1.7,10.7,3.9.2a10.2,10.2,0,0,0,5.1-1.1,6.1,6.1,0,0,0,2.5-4.6,9.7,9.7,0,0,0,.1-1.6,3.3,3.3,0,0,0-1.3-3,8.4,8.4,0,0,0-4.5-.9A25.4,25.4,0,0,0,221,22.2Z"/><path class="cls-2" d="M240,43.5l3.1-19.2h8.5l-2.9,18.6a8.2,8.2,0,0,0-.2,2.1,3,3,0,0,0,.9,2.4,5,5,0,0,0,3.2.7,10.2,10.2,0,0,0,3.7-.6l.9-4.1,3-19.1h8.5l-3.5,21.9q-.4,3-1.2,6a28.2,28.2,0,0,1-13.6,3,18,18,0,0,1-7.5-1.3,8.3,8.3,0,0,1-2-1.6,8.4,8.4,0,0,1-1.3-4.7A23.3,23.3,0,0,1,240,43.5Z"/><path class="cls-2" d="M289.4,47.3l-.4,6.6a38.5,38.5,0,0,1-10.4,1.3,10.9,10.9,0,0,1-6.7-1.9,7.2,7.2,0,0,1-1.7-2.2,13.4,13.4,0,0,1-1.2-6,33.2,33.2,0,0,1,.5-5.8c.3-1.6.5-2.9.8-4a21,21,0,0,1,2.6-6.3,10.6,10.6,0,0,1,4.8-3.8,18.5,18.5,0,0,1,7.6-1.3,23.1,23.1,0,0,1,8.2,1.3l-1.7,6.4-1.9-.4-1.7-.3h-1.9q-4.2-.2-6,1.8a4.8,4.8,0,0,0-.9,1.6,14.2,14.2,0,0,0-.7,2.2,23.5,23.5,0,0,0-.6,2.9,35.7,35.7,0,0,0-.4,4.4,5.9,5.9,0,0,0,.2,2,2.6,2.6,0,0,0,1,1.3,3,3,0,0,0,1.8.8,11.7,11.7,0,0,0,2.9.3A32.5,32.5,0,0,0,289.4,47.3Z"/><path class="cls-2" d="M293,43.5l3.1-19.2h8.5l-2.9,18.6a18.3,18.3,0,0,0-.2,2.1,3,3,0,0,0,.9,2.4,5.2,5.2,0,0,0,3.2.7,10.2,10.2,0,0,0,3.7-.6,27.1,27.1,0,0,0,.9-4.1l3-19.1h8.5l-3.4,21.9-1.2,6a28.6,28.6,0,0,1-13.7,3,18,18,0,0,1-7.5-1.3,7.7,7.7,0,0,1-1.9-1.6,7.7,7.7,0,0,1-1.4-4.7A39.7,39.7,0,0,1,293,43.5Z"/><path class="cls-2" d="M335.6,46a1.8,1.8,0,0,0-1.1-2.2,9.1,9.1,0,0,0-2.3-.8l-.5-.2-1.7-.6-1.6-.6-1.5-.9a6.3,6.3,0,0,1-2.3-2.3,6.9,6.9,0,0,1-.9-3.6,12.1,12.1,0,0,1,.1-1.8c1-6,5.1-9.1,12.3-9.1a46.7,46.7,0,0,1,5.7.3c1.7.3,3.5.6,5.4,1.1l-1.8,6.3a39.6,39.6,0,0,0-7.6-.9h-2.3l-1.2.2a3.1,3.1,0,0,0-1.3.6,1.4,1.4,0,0,0-.6,1.2,1.4,1.4,0,0,0,0,.9,1.8,1.8,0,0,0,.5.7l.7.5.9.4h.7l.5.2.7.2h.4l3.8,1.5a6.3,6.3,0,0,1,3.2,3,7.5,7.5,0,0,1,.6,3.1,17.9,17.9,0,0,1-.1,2.1,11,11,0,0,1-3.3,6.5,11.9,11.9,0,0,1-2.9,1.8,19.4,19.4,0,0,1-7.2,1.2c-1.8,0-3.7-.2-5.7-.4a51.3,51.3,0,0,1-5.1-1l1.8-6.5,4.2.7,4,.3a13.5,13.5,0,0,0,3.4-.3A2.6,2.6,0,0,0,335.6,46Z"/><path class="cls-2" d="M373.3,33.9l-2,12.3q-.4,2.8-1.2,6-5.4,3-13.8,3c-3.6,0-6.2-.6-7.9-1.9a6.6,6.6,0,0,1-2.5-5.6,22.9,22.9,0,0,1,.2-2.5,12,12,0,0,1,3.1-6.6,12.1,12.1,0,0,1,7-3.2,68.4,68.4,0,0,1,8.6-.7c0-.5.1-.8.1-1a2.2,2.2,0,0,0-1-2.1,5.1,5.1,0,0,0-3.1-.7,94.7,94.7,0,0,0-10.8.8l.3-6.6a74.4,74.4,0,0,1,12.1-1.2,17.1,17.1,0,0,1,6.5,1c3,1,4.5,3.3,4.6,6.8C373.5,32.3,373.4,33,373.3,33.9ZM358.2,41a6.9,6.9,0,0,0-1.9.7,4.4,4.4,0,0,0-1.7,3.4,2.5,2.5,0,0,0-.1.9,2.2,2.2,0,0,0,.9,1.9,6.3,6.3,0,0,0,2.8.5,13.1,13.1,0,0,0,4.3-.6,34.6,34.6,0,0,0,.8-4l.6-3.4H360Z"/><path class="cls-2" d="M385.5,35.7l-3,19.1H374l3.4-21.9a57.9,57.9,0,0,1,1.2-6,28.6,28.6,0,0,1,13.7-3,18.2,18.2,0,0,1,7.6,1.3,7.7,7.7,0,0,1,1.9,1.6,7.7,7.7,0,0,1,1.3,4.7,37.6,37.6,0,0,1-.3,4l-3.1,19.3h-8.5l2.9-18.6c.1-.9.2-1.7.2-2.1a3,3,0,0,0-.9-2.4,5.4,5.4,0,0,0-3.3-.7,11.2,11.2,0,0,0-3.8.6C386,32.9,385.7,34.2,385.5,35.7Z"/><path class="cls-2" d="M431.1,33.9l-1.9,12.3q-.6,2.8-1.2,6c-3.6,2-8.2,3-13.9,3-3.5,0-6.2-.6-7.8-1.9s-2.5-3.1-2.5-5.6a11,11,0,0,1,.2-2.5,11.3,11.3,0,0,1,3-6.6,12.4,12.4,0,0,1,7-3.2,72.1,72.1,0,0,1,8.6-.7,4.6,4.6,0,0,0,.1-1,2.2,2.2,0,0,0-1-2.1,4.9,4.9,0,0,0-3.1-.7,94.7,94.7,0,0,0-10.8.8l.4-6.6a72.4,72.4,0,0,1,12.1-1.2,17.4,17.4,0,0,1,6.5,1c2.9,1,4.4,3.3,4.5,6.8C431.3,32.3,431.2,33,431.1,33.9ZM416,41a7.5,7.5,0,0,0-1.8.7,4.8,4.8,0,0,0-1.8,3.4c0,.3-.1.5-.1.9a2.2,2.2,0,0,0,.9,1.9,6.3,6.3,0,0,0,2.8.5,12.7,12.7,0,0,0,4.3-.6,31.3,31.3,0,0,0,.9-4l.5-3.4h-3.9Z"/><path class="cls-2" d="M8.9,28.9H26.3l-.7,4.2H19.4L16,54.5H10.9l3.4-21.4H8.2Z"/><path class="cls-2" d="M29.5,54.8c-2.5,0-4.4-.5-5.6-1.5s-1.7-2.7-1.7-5a17.1,17.1,0,0,1,.4-3.6,31.3,31.3,0,0,1,1.1-4.6,8.7,8.7,0,0,1,2-3.1,7.9,7.9,0,0,1,2.9-1.8,15.8,15.8,0,0,1,4.1-.5c2.6,0,4.5.5,5.6,1.5s1.7,2.7,1.7,5a24.7,24.7,0,0,1-.3,3.5,22.8,22.8,0,0,1-1.2,4.7,9.1,9.1,0,0,1-1.9,3,6.8,6.8,0,0,1-2.9,1.8A12.9,12.9,0,0,1,29.5,54.8ZM27,47.9a2.9,2.9,0,0,0,.7,2.3,3.8,3.8,0,0,0,2.4.6,4.7,4.7,0,0,0,2.8-.7,6.2,6.2,0,0,0,.9-1.2,11.4,11.4,0,0,0,1.1-4.2,21.9,21.9,0,0,0,.4-3.1,3.3,3.3,0,0,0-.7-2.3,3.3,3.3,0,0,0-2.4-.7,5.5,5.5,0,0,0-2.5.5A4.1,4.1,0,0,0,28.3,41a15.8,15.8,0,0,0-1,3.7A25,25,0,0,0,27,47.9Z"/><path class="cls-2" d="M54.7,35.1l1.2-7.7h4.8L57.2,49.2c-.2,1.3-.4,2.5-.7,3.8a17.1,17.1,0,0,1-3.8,1.3,21.8,21.8,0,0,1-4.2.5,16.1,16.1,0,0,1-3.5-.4,5.3,5.3,0,0,1-2.4-1.1c-1.3-1-1.9-2.7-1.9-5.1a22.6,22.6,0,0,1,.3-3.5,23.9,23.9,0,0,1,1.2-4.8,8.5,8.5,0,0,1,2.1-3,6.6,6.6,0,0,1,2.9-1.7,14.8,14.8,0,0,1,3.9-.5A15.9,15.9,0,0,1,54.7,35.1Zm-3.3,3.4c-1.9,0-3.3.5-4.1,1.6A6.4,6.4,0,0,0,46,43.2a10.4,10.4,0,0,1-.2,1.5,19.1,19.1,0,0,0-.3,2.8,3.9,3.9,0,0,0,.7,2.5,3.7,3.7,0,0,0,2.9.9,6.7,6.7,0,0,0,3-.5c.2-.7.4-1.6.6-2.6L54,39A7.5,7.5,0,0,0,51.4,38.5Z"/><path class="cls-2" d="M67.6,54.8c-2.6,0-4.5-.5-5.6-1.5s-1.7-2.7-1.7-5a26,26,0,0,1,.3-3.6,21.8,21.8,0,0,1,1.2-4.6A8.6,8.6,0,0,1,63.7,37a8.8,8.8,0,0,1,2.9-1.8,16.7,16.7,0,0,1,4.2-.5c2.5,0,4.4.5,5.5,1.5s1.8,2.7,1.8,5a24.7,24.7,0,0,1-.3,3.5,22.8,22.8,0,0,1-1.2,4.7,9.3,9.3,0,0,1-2,3,6.8,6.8,0,0,1-2.9,1.8A12.2,12.2,0,0,1,67.6,54.8ZM65,47.9a3.3,3.3,0,0,0,.7,2.3,3.8,3.8,0,0,0,2.4.6,4.7,4.7,0,0,0,2.8-.7,2.7,2.7,0,0,0,.9-1.2A13.4,13.4,0,0,0,73,44.7a20,20,0,0,0,.3-3.1,2.9,2.9,0,0,0-.7-2.3,3.3,3.3,0,0,0-2.4-.7,5.4,5.4,0,0,0-2.4.5A4.2,4.2,0,0,0,66.3,41a16.6,16.6,0,0,0-.9,3.7A30.2,30.2,0,0,0,65,47.9Z"/><path class="cls-2" d="M88.1,48.6a1.5,1.5,0,0,0-.7-1.3,2.3,2.3,0,0,0-1-.4h-.6l-.6-.2-.9-.3-.8-.3a2,2,0,0,1-.8-.4l-.7-.3c-.3-.2-.5-.3-.6-.5a1.7,1.7,0,0,1-.6-.6,4.7,4.7,0,0,1-.8-2.6c0-.3.1-.7.1-1.1a6.5,6.5,0,0,1,2.7-4.5,9.9,9.9,0,0,1,5.1-1.2l3.5.2,3.4.6-1,3.6a23.2,23.2,0,0,0-4.8-.6H86.8a2.3,2.3,0,0,0-1.2.5,1.6,1.6,0,0,0-.7,1.1,1.5,1.5,0,0,0,.1.7.7.7,0,0,0,.3.6l.5.4.7.3.8.3H88l2.4.9a4.7,4.7,0,0,1,2.2,1.9,4,4,0,0,1,.4,2,5.3,5.3,0,0,1-.1,1.3,6.5,6.5,0,0,1-2.1,4.1A5.4,5.4,0,0,1,89,54a11.9,11.9,0,0,1-4.6.8L81,54.5a16.1,16.1,0,0,1-3.3-.6l1.1-3.6a26.7,26.7,0,0,0,5.1.6h2.8l.5-.2.6-.6a3.4,3.4,0,0,0,.3-.8Z"/><path class="cls-2" d="M111.4,48.6a1.6,1.6,0,0,0-.8-1.3,1.9,1.9,0,0,0-1-.4.1.1,0,0,0-.1-.1H109l-.6-.2-.9-.3-.8-.3a2,2,0,0,1-.8-.4l-.7-.3-.6-.5-.6-.6a4,4,0,0,1-.7-2.6,4.5,4.5,0,0,1,.1-1.1,5.9,5.9,0,0,1,2.7-4.5,9.5,9.5,0,0,1,5-1.2l3.6.2,3.3.6-1,3.6a22.4,22.4,0,0,0-4.8-.6H110a3.3,3.3,0,0,0-1.2.5,1.6,1.6,0,0,0-.7,1.1,1.5,1.5,0,0,0,.1.7,3.3,3.3,0,0,0,.3.6l.6.4.6.3.8.3h.8l2.4.9a4.4,4.4,0,0,1,2.1,1.9,3.9,3.9,0,0,1,.5,2c0,.5-.1.9-.1,1.3a6.5,6.5,0,0,1-2.1,4.1,5.4,5.4,0,0,1-1.8,1.1,12.6,12.6,0,0,1-4.6.8l-3.5-.3a14,14,0,0,1-3.2-.6l1-3.6a26.7,26.7,0,0,0,5.1.6h2.8l.5-.2a1.7,1.7,0,0,0,.6-.6,3.4,3.4,0,0,0,.3-.8C111.3,48.9,111.4,48.7,111.4,48.6Z"/><path class="cls-2" d="M125.3,54.8c-2.6,0-4.5-.5-5.6-1.5s-1.7-2.7-1.7-5a26,26,0,0,1,.3-3.6,21.8,21.8,0,0,1,1.2-4.6,8.6,8.6,0,0,1,1.9-3.1,8.8,8.8,0,0,1,2.9-1.8,16.7,16.7,0,0,1,4.2-.5c2.5,0,4.4.5,5.5,1.5s1.8,2.7,1.8,5a24.7,24.7,0,0,1-.3,3.5,22.8,22.8,0,0,1-1.2,4.7,9.3,9.3,0,0,1-2,3,6.8,6.8,0,0,1-2.9,1.8A12.2,12.2,0,0,1,125.3,54.8Zm-2.6-6.9a3.3,3.3,0,0,0,.7,2.3,3.8,3.8,0,0,0,2.4.6,4.7,4.7,0,0,0,2.8-.7,2.7,2.7,0,0,0,.9-1.2,13.4,13.4,0,0,0,1.2-4.2,20,20,0,0,0,.3-3.1,2.9,2.9,0,0,0-.7-2.3,3.3,3.3,0,0,0-2.4-.7,5.4,5.4,0,0,0-2.4.5A4.2,4.2,0,0,0,124,41a16.6,16.6,0,0,0-.9,3.7A30.2,30.2,0,0,0,122.7,47.9Z"/><path class="cls-2" d="M164,42.1l-2,12.4h-4.7l1.9-12a8.6,8.6,0,0,0,.1-1.5,2.4,2.4,0,0,0-.6-1.8,3.4,3.4,0,0,0-2.2-.6,5.8,5.8,0,0,0-2.8.7v.5a21.5,21.5,0,0,1-.2,2.3l-2,12.4h-4.7l1.9-12a7.6,7.6,0,0,0,.1-1.5,2.4,2.4,0,0,0-.6-1.8,2.9,2.9,0,0,0-2.1-.6l-1.3.2-1.2.3-.6,2.6-2,12.8h-4.7l2.2-14.3c.2-1.1.5-2.4.8-3.7a13.7,13.7,0,0,1,3.9-1.3,23,23,0,0,1,4.5-.5,7.5,7.5,0,0,1,4.4,1.1,19.1,19.1,0,0,1,6-1.1,8.3,8.3,0,0,1,4.3.9,5.7,5.7,0,0,1,1.1,1.1,5,5,0,0,1,.7,2.9A11.9,11.9,0,0,1,164,42.1Z"/><path class="cls-2" d="M173,54.8c-2.6,0-4.5-.5-5.6-1.5s-1.8-2.7-1.8-5a28.1,28.1,0,0,1,.4-3.6,21.8,21.8,0,0,1,1.2-4.6,7.4,7.4,0,0,1,1.9-3.1,7.9,7.9,0,0,1,2.9-1.8,16.4,16.4,0,0,1,4.1-.5c2.6,0,4.5.5,5.6,1.5s1.7,2.7,1.7,5a24.7,24.7,0,0,1-.3,3.5,22.8,22.8,0,0,1-1.2,4.7,7.7,7.7,0,0,1-1.9,3,6.8,6.8,0,0,1-2.9,1.8A12.7,12.7,0,0,1,173,54.8Zm-2.6-6.9a3.3,3.3,0,0,0,.7,2.3,3.8,3.8,0,0,0,2.4.6,4.7,4.7,0,0,0,2.8-.7,6.2,6.2,0,0,0,.9-1.2,13.4,13.4,0,0,0,1.2-4.2,20,20,0,0,0,.3-3.1,3.3,3.3,0,0,0-.7-2.3,3.3,3.3,0,0,0-2.4-.7,5.8,5.8,0,0,0-2.5.5,4.9,4.9,0,0,0-1.4,1.9,12.4,12.4,0,0,0-.9,3.7A16,16,0,0,0,170.4,47.9Z"/><path class="cls-2" d="M193.5,48.6a1.5,1.5,0,0,0-.7-1.3,2.3,2.3,0,0,0-1-.4h-.7l-.6-.2-.8-.3-.8-.3-.8-.4-.7-.3-.7-.5-.5-.6a4,4,0,0,1-.8-2.6,4.5,4.5,0,0,1,.1-1.1,5.9,5.9,0,0,1,2.7-4.5,9.5,9.5,0,0,1,5-1.2l3.6.2,3.3.6-1,3.6a22.3,22.3,0,0,0-4.7-.6h-2.2a3.2,3.2,0,0,0-1.3.5,2,2,0,0,0-.6,1.1,1.6,1.6,0,0,0,0,.7,3.3,3.3,0,0,0,.3.6l.6.4.7.3.8.3h.7l2.4.9a4.7,4.7,0,0,1,2.2,1.9,4,4,0,0,1,.4,2,5.3,5.3,0,0,1-.1,1.3,6.5,6.5,0,0,1-2.1,4.1,5.4,5.4,0,0,1-1.8,1.1,11.9,11.9,0,0,1-4.6.8l-3.5-.3a16.5,16.5,0,0,1-3.2-.6l1.1-3.6a26.7,26.7,0,0,0,5.1.6h2.8l.5-.2.5-.6a1.5,1.5,0,0,0,.4-.8Z"/></g></g></svg>