<svg id="Capa_1" data-name="Capa 1" xmlns="http://www.w3.org/2000/svg" xmlns:xlink="http://www.w3.org/1999/xlink" viewBox="0 0 329 457"><defs><style>.cls-1,.cls-10,.cls-11,.cls-12,.cls-13,.cls-16,.cls-17,.cls-18,.cls-19,.cls-2,.cls-20,.cls-21,.cls-22,.cls-23,.cls-7,.cls-8,.cls-9{fill-rule:evenodd;}.cls-1{fill:url(#GradientFill_6);}.cls-2{fill:url(#GradientFill_8);}.cls-3{fill:#94d4f4;}.cls-4{fill:#5ec4f0;}.cls-5{fill:#5daade;}.cls-16,.cls-6{fill:#0095d5;}.cls-7{fill:#008cce;}.cls-8{fill:#0079c0;}.cls-9{fill:#0073bc;}.cls-10{fill:#0086ca;}.cls-11{fill:#37a6df;}.cls-12{fill:#0097d7;}.cls-13{fill:#77b4e2;}.cls-14{fill:#00a1de;}.cls-15,.cls-22{fill:#008acd;}.cls-17{fill:#0065b1;}.cls-18{fill:#0058a8;}.cls-19{fill:#00a3df;}.cls-20{fill:#00b5ec;}.cls-21{fill:#0071ba;}.cls-23{fill:#00a2de;}</style><linearGradient id="GradientFill_6" x1="-510.18" y1="997.56" x2="40.35" y2="447.03" gradientUnits="userSpaceOnUse"><stop offset="0" stop-color="#b8c8e6"/><stop offset="1" stop-color="#b7e0f7"/></linearGradient><linearGradient id="GradientFill_8" x1="66.86" y1="465.24" x2="4.45" y2="527.64" gradientUnits="userSpaceOnUse"><stop offset="0" stop-color="#76caf2"/><stop offset="1" stop-color="#6eb9e7"/></linearGradient></defs><title>de</title><path class="cls-1" d="M44.1,456.9l30.6-30.7-8.6-18.4L16.9,456.9"/><path class="cls-2" d="M106.4,456.9,74.7,426.2,44.1,456.9"/><rect class="cls-3" x="23.9" y="322.8" width="152.6" height="42.15" transform="translate(-213.8 171.6) rotate(-45)"/><rect class="cls-4" x="45.6" y="355.9" width="152.6" height="19.17" transform="translate(-222.8 193.2) rotate(-45)"/><rect class="cls-5" x="154.4" y="227.9" width="74.1" height="24.77" transform="translate(-113.8 205.8) rotate(-45)"/><rect class="cls-6" x="196.5" y="150.5" width="144.6" height="24.77" transform="translate(-36.5 237.8) rotate(-45)"/><polygon class="cls-7" points="328.7 120.6 328.7 145.1 238.7 235.1 226.4 222.8 328.7 120.6"/><polygon class="cls-8" points="328.7 172.2 328.7 145.1 238.7 235.1 252.3 248.7 328.7 172.2"/><polygon class="cls-9" points="328.7 172.2 328.7 235.3 283.8 280.2 252.3 248.7 328.7 172.2"/><polygon class="cls-10" points="311.2 103 328.7 85.5 328.7 120.6 311.2 103"/><polygon class="cls-11" points="317.7 11 295.9 32.7 328.7 65.5 328.7 22 317.7 11"/><polygon class="cls-12" points="295.9 32.7 268.4 60.3 311.2 103 328.7 85.5 328.7 65.5 295.9 32.7"/><polygon class="cls-13" points="169 304.8 139.2 275 156.5 257.7 174.1 275.2 226.4 222.8 238.7 235.1 169 304.8"/><rect class="cls-14" x="161.4" y="267.1" width="98.5" height="19.17" transform="translate(-134 230) rotate(-45)"/><rect class="cls-6" x="183.9" y="277" width="98.5" height="44.55" transform="translate(-143.3 252.5) rotate(-45)"/><rect class="cls-15" x="217.4" y="307.7" width="98.5" height="50.15" transform="translate(-157.2 286) rotate(-45)"/><path class="cls-16" d="M233.4,456.8H235l43-43-28.4-28.5-71.9,71.9C196.2,456.9,214.8,456.6,233.4,456.8Z"/><polygon class="cls-17" points="328.7 306.2 328.7 235.3 283.8 280.2 319.2 315.6 328.7 306.2"/><polygon class="cls-18" points="328.7 325.1 319.2 315.6 328.7 306.2 328.7 325.1"/><polygon class="cls-8" points="278 413.8 249.6 385.3 319.2 315.6 328.7 325.1 328.7 363.1 278 413.8"/><path class="cls-19" d="M177.7,457.2l71.9-71.9-35.5-35.5-90.5,90.6,17.2,17.2Z"/><path class="cls-20" d="M140.8,457.6l-17.2-17.2,90.5-90.6-31.5-31.5L74.7,426.2l31.7,30.7"/><path class="cls-21" d="M328.4,456.7l.3-93.6L278,413.8l41.9,42.9C322.9,456.6,325.5,456.8,328.4,456.7Z"/><path class="cls-22" d="M319.9,456.7,278,413.8l-43,43C263.3,456.9,291.6,457.3,319.9,456.7Z"/><polygon class="cls-23" points="317.7 11 328.7 0 328.7 22 317.7 11"/></svg>