<svg xmlns="http://www.w3.org/2000/svg" viewBox="0 0 130.3 167.8"><defs><style>.cls-1{fill:#d1d1d1;}.cls-2{fill:#eebf9f;}.cls-3{fill:#cc4d75;}.cls-4{fill:#f5ddc3;}.cls-5{fill:#fff;}.cls-6{fill:#282644;}.cls-7{fill:#e0718f;}.cls-8{fill:#f0c952;}.cls-9{fill:#3c3a50;}</style></defs><title>diseño_navegacion_personaconusuarioenmano</title><g id="ELEMENTS"><path class="cls-1" d="M108.7,159.9A317.1,317.1,0,0,1,72.4,162,317.9,317.9,0,0,1,36,159.9a315.7,315.7,0,0,1,72.7,0Z"/><polygon class="cls-2" points="73.1 71.1 78.5 63 84.5 60.9 84.6 61.9 81.1 64.2 85 65.2 89.3 61.8 90.1 62.6 85.5 67.1 79.6 66.6 76.8 72 73.1 71.1"/><path class="cls-3" d="M57.4,58.1s-9.3,19-5.8,24.5,14,1.9,14,1.9Z"/><path class="cls-4" d="M79.9,158.1v1.8H69l.5-5.3.2-2.1.9-8.5h4.2s-.2,4.8-.1,8.2a10.7,10.7,0,0,0,.2,2.9v.2C75.5,157.2,79.9,158.1,79.9,158.1Z"/><path class="cls-5" d="M79.9,158.1v1.8H69l.5-5.3.2-2.1h.4a7.3,7.3,0,0,0,4.6-.4,10.7,10.7,0,0,0,.2,2.9v.2C75.5,157.2,79.9,158.1,79.9,158.1Z"/><path class="cls-6" d="M79.9,158.1v1.8H69l.5-5.3h.1a7.2,7.2,0,0,0,2.7.9,7.5,7.5,0,0,0,2.6-.4v.2C75.5,157.2,79.9,158.1,79.9,158.1Z"/><path class="cls-4" d="M68.6,158.1v1.8H57.7l.5-5.3.3-2.1.8-8.5h4.2s-.2,4.8-.1,8.2a17.5,17.5,0,0,0,.2,2.9v.2C64.2,157.2,68.6,158.1,68.6,158.1Z"/><path class="cls-5" d="M68.6,158.1v1.8H57.7l.5-5.3.3-2.1h.3a7.3,7.3,0,0,0,4.6-.4,17.5,17.5,0,0,0,.2,2.9v.2C64.2,157.2,68.6,158.1,68.6,158.1Z"/><path class="cls-6" d="M68.6,158.1v1.8H57.7l.5-5.3h.2a6.2,6.2,0,0,0,2.6.9,7.5,7.5,0,0,0,2.6-.4v.2C64.2,157.2,68.6,158.1,68.6,158.1Z"/><path class="cls-7" d="M72.8,84.7s1.8-27.6.3-28.8a4.7,4.7,0,0,0-4.1-.6l-4.7.3-1.8-.5s-3.8.7-5.1,3-2.4,27-2.4,27S62.7,88.7,72.8,84.7Z"/><path class="cls-4" d="M64,54.5a11.5,11.5,0,0,0,6.4,0,5.3,5.3,0,0,1-.7-2.6,4.9,4.9,0,0,1-.1-1.2c0-1.2.1-2.2.1-2.2l-4.6-.3v.7l-.5,2.9Z"/><path class="cls-2" d="M64.5,51.8a22.1,22.1,0,0,0,5.2.1,4.9,4.9,0,0,1-.1-1.2s-3.4-.6-4.6-1.8Z"/><path class="cls-4" d="M75.3,37.6s.1,12.9-5.1,13.8-7.1-6.6-7.1-6.6l1.3-8.7Z"/><path class="cls-2" d="M72.9,46.4a.8.8,0,1,1-.2-1.1A.7.7,0,0,1,72.9,46.4Z"/><path class="cls-5" d="M70.4,54.5l1.5.8s-1.5,1.5-5,1.4a7.1,7.1,0,0,1-4.4-1.6l1.5-.6A16.2,16.2,0,0,0,70.4,54.5Z"/><path class="cls-6" d="M57.4,120.5l.7,28.3h6c0-6.6,1.5-29.4,1.5-29.4s-3.8-21.5-1.1-22c1.1-.1,4.7,21.8,4.7,21.8L69,148.8h6.5l2.6-29.3L72.8,84.7,55,85.1s-2.2,7.5-2.1,9.8S57.4,120.5,57.4,120.5Z"/><polygon class="cls-7" points="56.7 147.1 57 150.5 64.8 150.1 64.8 147.7 56.7 147.1"/><rect class="cls-8" x="82.1" y="43.4" width="21.3" height="21.25" rx="2.3"/><path class="cls-5" d="M94,53.6a3.2,3.2,0,0,0,2-3,3.3,3.3,0,1,0-6.6,0,3.2,3.2,0,0,0,2,3,6.1,6.1,0,0,0-4.8,5.9v.4H98.7v-.4A6,6,0,0,0,94,53.6Z"/><polygon class="cls-7" points="76.4 146.7 76.1 150.1 68.3 149.6 68.3 147.3 76.4 146.7"/><polygon class="cls-4" points="88.1 71.2 93.6 63.1 99.5 61.1 99.7 62.1 96.2 64.3 100.1 65.4 104.4 62 105.1 62.8 100.6 67.3 94.7 66.8 91.9 72.2 88.1 71.2"/><path class="cls-3" d="M72.2,55.4a8.9,8.9,0,0,1,4.7,5.5c1.1,3.8,4.7,15.5,5.4,15.7s5.9-8.2,5.9-8.2l5.9,4.1s-5.3,13-11.8,13.7c-4.2.5-7.9-10.3-10-17.8a26,26,0,0,1-.1-13Z"/><polygon class="cls-5" points="86.3 70.4 88.1 67.5 95 72.6 94.1 74 86.3 70.4"/><path class="cls-6" d="M75.3,39.5v-.7a6.2,6.2,0,0,0-4.8,5.1,6.3,6.3,0,0,0,3.2,6.3,29.6,29.6,0,0,1-11.1-.5c-3.6-1-7.5-3.4-9.1-6.8a2.1,2.1,0,0,0,2-.4c2.2-2.2,2.9-5.4,4-8.3a7.3,7.3,0,0,1,1.9-3,2.9,2.9,0,0,1,3.2-.4c.7-.9,2.3-1.1,3.4-1a9.6,9.6,0,0,1,8.6,6.5,4,4,0,0,1,.2,1.9A2.2,2.2,0,0,1,75.3,39.5Z"/><path class="cls-9" d="M56.8,43.4h.6a2,2,0,0,0,1-.9,7.7,7.7,0,0,0,.7-2l1-2.5c.3-.9.7-1.8,1-2.5a5.7,5.7,0,0,1,1.3-1.9,2.9,2.9,0,0,1,1.4-.8h.4l-.4.2a2.7,2.7,0,0,0-1.1.9,10,10,0,0,0-.9,1.8,16.1,16.1,0,0,1-.9,2.6c-.3.9-.7,1.7-1,2.5a13.2,13.2,0,0,1-1.2,2,2.7,2.7,0,0,1-1.3.8h-.6Z"/><path class="cls-9" d="M73.5,34l-.7-.4-2.2-.8a4.3,4.3,0,0,0-3.1.3A7.4,7.4,0,0,0,64.9,36a31,31,0,0,0-1.3,4,16.3,16.3,0,0,1-1.3,3.2,8.3,8.3,0,0,1-1.5,1.9l-.6.5.5-.6a7,7,0,0,0,1.2-2,13.5,13.5,0,0,0,.9-3.2,20,20,0,0,1,1.3-4.2,12.7,12.7,0,0,1,1.3-1.9,11.8,11.8,0,0,1,1.8-1.3,4.3,4.3,0,0,1,1.9-.4l1.7.4,2.1,1.1.5.3A.3.3,0,0,1,73.5,34Z"/><path class="cls-9" d="M73.3,35.5h-.1l-.5-.2a5.4,5.4,0,0,0-1.8,0,3.6,3.6,0,0,0-2.4.9,5.4,5.4,0,0,0-.9,1.2,8,8,0,0,0-.8,1.6,21.4,21.4,0,0,0-.8,3.2,14.2,14.2,0,0,1-.7,2.8,10.1,10.1,0,0,1-1.1,1.7l-.5.4.4-.5a9.8,9.8,0,0,0,.7-1.7,18.8,18.8,0,0,0,.4-2.8,11.9,11.9,0,0,1,.8-3.4,8.9,8.9,0,0,1,.8-1.7A8.1,8.1,0,0,1,68,35.5a3,3,0,0,1,1.5-.7h1.3a3.7,3.7,0,0,1,2,.4l.4.2Z"/><path class="cls-9" d="M73.4,37.1h-.5l-1.2.6a5.3,5.3,0,0,0-1.3,1.3,10.3,10.3,0,0,0-1.1,2.1,18.9,18.9,0,0,0-.5,2.3,6.5,6.5,0,0,1-.4,2,5.3,5.3,0,0,1-.6,1.3l-.2.4v-.5a13,13,0,0,0,.3-1.3c.1-.6,0-1.2.1-2a7.7,7.7,0,0,1,.4-2.5,5.8,5.8,0,0,1,1.3-2.3,5.3,5.3,0,0,1,1.7-1.2l1.4-.3h.5Z"/><rect class="cls-7" x="16.4" y="8.9" width="8.9" height="8.9"/><rect class="cls-8" x="23.3" y="20.8" width="8.9" height="8.9"/></g></svg>