<svg xmlns="http://www.w3.org/2000/svg" viewBox="0 0 176.8 42.8"><defs><style>.cls-1{fill:#6fc486;}</style></defs><title>diseño_navegacion_grassverde</title><g id="ELEMENTS"><path class="cls-1" d="M165.4,31.1a5.9,5.9,0,0,0-2.3.5v-.7a8.7,8.7,0,0,0-8.6-8.6,8.5,8.5,0,0,0-5.8,2.2,10.1,10.1,0,0,0-3.9-1.4V18.5a9.2,9.2,0,0,0-18.3-1.2,13.4,13.4,0,0,0-3.5-.5,13.2,13.2,0,0,0-7.1,2.1,12.5,12.5,0,0,0-8.4-3.2A12.7,12.7,0,0,0,94.8,28.4a2.8,2.8,0,0,0,.1.9,8.6,8.6,0,0,0-3.6-.7,7.9,7.9,0,0,0-4,1,8.5,8.5,0,0,0-8.5-7.3,8.3,8.3,0,0,0-5.7,2.2,10.6,10.6,0,0,0-4-1.4V18.5a9.1,9.1,0,0,0-18.2-1.2,13.6,13.6,0,0,0-3.6-.5,12.8,12.8,0,0,0-7,2.1,12.7,12.7,0,0,0-21.1,9.5v.9a8.1,8.1,0,0,0-3.5-.7A8.8,8.8,0,0,0,7,36.4H171.3A5.9,5.9,0,0,0,165.4,31.1Z"/></g></svg>