<svg xmlns="http://www.w3.org/2000/svg" viewBox="0 0 419.2 335.1"><defs><style>.cls-1{fill:#f5f5f5;}.cls-2{fill:#407bff;}.cls-11,.cls-14,.cls-3,.cls-5,.cls-8{fill:#fff;}.cls-4{fill:#b55b52;}.cls-5{opacity:0.7;}.cls-12,.cls-6,.cls-8{opacity:0.2;}.cls-7{fill:#263238;}.cls-9{fill:#a02724;}.cls-10,.cls-14,.cls-15{opacity:0.5;}.cls-11,.cls-13{opacity:0.6;}.cls-11,.cls-13,.cls-14,.cls-15{isolation:isolate;}</style></defs><title>diseño_navegacion_personaconllave</title><g id="ELEMENTS"><ellipse id="_Path_" data-name="&lt;Path&gt;" class="cls-1" cx="200.1" cy="318.2" rx="193.9" ry="11.3"/><polygon class="cls-2" points="77.5 41.6 80.8 52.2 84.1 41.6 77.5 41.6"/><rect class="cls-2" x="45.1" y="16.1" width="71.5" height="28.75" rx="8.6"/><path class="cls-3" d="M61.9,30.4l1.9,1.1-.5.9-1.9-1.1v2.1h-1V31.3l-1.9,1.1-.5-.9,1.9-1.1-1.9-1,.5-.9,1.9,1.1V27.5h1v2.1l1.9-1.1.5.9Z"/><path class="cls-3" d="M68.5,30.4l1.9,1.1-.5.9L68,31.3v2.1h-.9V31.3l-1.9,1.1-.5-.9,1.9-1.1-1.9-1,.5-.9,1.9,1.1V27.5H68v2.1l1.9-1.1.5.9Z"/><path class="cls-3" d="M75.2,30.4,77,31.5l-.4.9-2-1.1v2.1h-1V31.3l-1.9,1.1-.5-.9,1.9-1.1-1.9-1,.5-.9,1.9,1.1V27.5h1v2.1l2-1.1.4.9Z"/><path class="cls-3" d="M81.8,30.4l1.9,1.1-.5.9-1.9-1.1v2.1h-1V31.3l-2,1.1-.4-.9,1.9-1.1-1.9-1,.4-.9,2,1.1V27.5h1v2.1l1.9-1.1.5.9Z"/><path class="cls-3" d="M88.4,30.4l1.9,1.1-.5.9-1.9-1.1v2.1H87V31.3l-1.9,1.1-.5-.9,1.9-1.1-1.9-1,.5-.9L87,29.6V27.5h.9v2.1l1.9-1.1.5.9Z"/><path class="cls-3" d="M95.1,30.4,97,31.5l-.5.9-1.9-1.1v2.1h-1V31.3l-1.9,1.1-.5-.9,1.9-1.1-1.9-1,.5-.9,1.9,1.1V27.5h1v2.1l1.9-1.1.5.9Z"/><path class="cls-3" d="M101.7,30.4l1.9,1.1-.5.9-1.9-1.1v2.1h-.9V31.3l-1.9,1.1-.5-.9,1.9-1.1-1.9-1,.5-.9,1.9,1.1V27.5h.9v2.1l1.9-1.1.5.9Z"/><path class="cls-4" d="M124.2,116.1l6.1-4-6.9-4.2s-5.2,3.9-3.1,6.5Z"/><polygon class="cls-4" points="133.4 105.6 126.3 104 123.4 107.9 130.3 112.1 133.4 105.6"/><path class="cls-4" d="M99.1,103.3l6,9.2c1.1,1.6,2.2,3,3.3,4.4a26.7,26.7,0,0,0,3.1,3.4l.6.5h-.4c-.2,0-.1.1.4,0a13.7,13.7,0,0,0,3.1-2.7,45.6,45.6,0,0,0,3.1-4.2l1.4-2.3.7-1.1h0c0,.1-.1.3,0,.4v.2c.1.1-.3-.2.4,1.2a2.7,2.7,0,0,0,2.7,1.1l.7-.3a1,1,0,0,0,.6-.5h.1l.2-.2H125l-.4.5-4.4-1.9.3-.8a.3.3,0,0,1,.1-.2v-.2h.1c0-.1.1-.2.2-.3s-.1,0,.1-.1l.6-.5a1.3,1.3,0,0,1,.8-.3,2.4,2.4,0,0,1,2.7,1.1c.6,1.4.3,1.1.4,1.2v1.3a12.4,12.4,0,0,0-.4,1.6c-.3,1-.6,2-1,3a36.7,36.7,0,0,1-2.7,5.7,15.5,15.5,0,0,1-4.9,5.5,8.1,8.1,0,0,1-5.2,1.6,9.2,9.2,0,0,1-3-.8l-2-1.1a37.9,37.9,0,0,1-5-4.6c-1.4-1.6-2.6-3.2-3.9-4.8-2.4-3.3-4.5-6.5-6.6-10Z"/><path class="cls-2" d="M96.1,98.9c3.9,1.3,12.1,19.7,12.1,19.7l-13.8,6.6s-2.8-14.5-2.3-19.2A10.7,10.7,0,0,1,96.1,98.9Z"/><path class="cls-5" d="M96.1,98.9c3.9,1.3,12.1,19.7,12.1,19.7l-13.8,6.6s-2.8-14.5-2.3-19.2A10.7,10.7,0,0,1,96.1,98.9Z"/><polygon class="cls-4" points="112.3 312.5 105.2 314.5 103.6 303.6 102.7 297.8 109.7 295.8 110.9 303.6 112.3 312.5"/><polygon class="cls-4" points="71.9 313.1 64.7 314.1 64.6 303.6 64.5 297.1 71.8 296.1 71.8 303.6 71.9 313.1"/><polygon class="cls-6" points="71.8 296.1 71.8 303.6 64.6 303.6 64.5 297.1 71.8 296.1"/><polygon class="cls-6" points="110.9 303.6 103.6 303.6 102.7 297.8 109.7 295.8 110.9 303.6"/><path class="cls-7" d="M112.2,311.4l-8-.2a.6.6,0,0,0-.6.5l-1.7,6.4a1.1,1.1,0,0,0,1,1.4c2.9,0,7-.1,10.6,0s7-.1,11.9.1c3,0,3.9-3,2.7-3.3-5.7-1.4-9.4-1.1-14.2-4.2A3.6,3.6,0,0,0,112.2,311.4Z"/><path class="cls-2" d="M112.7,312.3h.1c.4-.2,3.4-1.6,4.2-1.1a.5.5,0,0,1,.3.5.9.9,0,0,1-.4.8c-.8.7-2.9.3-4,.1h-.1C112.8,312.4,112.7,312.4,112.7,312.3Zm.8-.1c1.6.4,2.8.3,3.2-.1a.5.5,0,0,0,.3-.5.3.3,0,0,0-.1-.2h-.1C116.2,311.2,114.6,311.7,113.5,312.2Z"/><path class="cls-2" d="M112.8,312.4h-.1c.1-.1.3-2,1.3-2.8a1.6,1.6,0,0,1,.9-.3,1,1,0,0,1,.7.5c.1.9-1.7,2.4-2.6,2.8h-.2Zm2.1-2.8a.8.8,0,0,0-.7.2,5.1,5.1,0,0,0-1.1,2.2c1-.5,2.2-1.7,2.1-2.2a.3.3,0,0,0-.1-.2Z"/><path class="cls-7" d="M71.6,311.4l-8-.2a.6.6,0,0,0-.6.5l-1.7,6.4a1.1,1.1,0,0,0,1,1.4c2.9,0,7.1-.1,10.7,0s6.9-.1,11.8.1c3,0,4-3,2.7-3.3-5.6-1.4-9.3-1.1-14.2-4.2A3.6,3.6,0,0,0,71.6,311.4Z"/><path class="cls-2" d="M72.2,312.3a.1.1,0,0,1,.1-.1c.3-.2,3.3-1.6,4.2-1.1a.8.8,0,0,1,.2.5,1.1,1.1,0,0,1-.3.8c-.8.7-2.9.3-4.1.1h0Zm.7-.1c1.6.4,2.8.3,3.3-.1a.8.8,0,0,0,.2-.5c0-.1,0-.2-.1-.2h-.1C75.7,311.2,74.1,311.7,72.9,312.2Z"/><path class="cls-2" d="M72.2,312.4h0a5.4,5.4,0,0,1,1.2-2.8,1.7,1.7,0,0,1,1-.3c.5.1.6.4.6.5s-1.7,2.4-2.6,2.8h-.2Zm2.1-2.8a1,1,0,0,0-.7.2,4,4,0,0,0-1,2.2c.9-.5,2.1-1.7,2.1-2.2l-.2-.2Z"/><path class="cls-7" d="M57,154c-3.9,16.6,2.7,147.4,2.7,147.4H72.4l5.5-109,20,109,13.6-1C102.6,216,94.7,165.6,94.7,165.6v-6.4Z"/><path class="cls-8" d="M111.5,300.4l-13.6,1L82.1,215.6l-4.2-23.2-5.5,109H59.7S53.1,170.6,57,154l37.8,5.2v6.4S102.6,216,111.5,300.4Z"/><path class="cls-2" d="M56.1,97.8a163.3,163.3,0,0,1,2.2,23.7c.2,5.6.1,10.9-.2,15.7-.5,11.2-1.5,19.6-1.5,22.5l38.2.7c9.1-39.9,1.3-61.5,1.3-61.5a77.7,77.7,0,0,0-9-1.9l-2-.3a142.8,142.8,0,0,0-16.2-.3l-3.1.2C60.7,97,56.1,97.8,56.1,97.8Z"/><path class="cls-4" d="M86.3,98s-2.2,3.3-4.1,3.5-12-5.4-12-5.4c2.2-1.6,3.3-5.1,3.7-8.8a47.4,47.4,0,0,0,.2-9.1l8.8,9.6c-1.1,2.9-1.8,6.2.5,8.4h0A8,8,0,0,0,86.3,98Z"/><path class="cls-6" d="M83.4,96.2a25.5,25.5,0,0,1-9.5-8.9,47.4,47.4,0,0,0,.2-9.1l8.8,9.6C81.8,90.7,81.1,94,83.4,96.2Z"/><path class="cls-7" d="M93.2,69.6c.7,2.7,0,8.4-3.8,6.4S91.9,64.8,93.2,69.6Z"/><path class="cls-4" d="M73.3,72.4c-.8,7-1.6,11.1,1.4,15.2,4.4,6.2,13.5,4.4,16.4-2.3S94.4,68.8,88,65A9.7,9.7,0,0,0,73.3,72.4Z"/><path class="cls-7" d="M78.4,68.8l.3-7.9s-8.4-1-8.2,3.3c-4.7,2.1-2.8,9.5,3.3,13.3,3.5-2.6,3.4-9.2,3.4-9.2Z"/><path class="cls-4" d="M69.6,77.8a6.8,6.8,0,0,0,2.6,4.3c1.9,1.4,3.7-.1,3.9-2.3s-.7-5.1-2.9-5.6A3,3,0,0,0,69.6,77.8Z"/><path class="cls-7" d="M83.5,76c-.1.6.2,1.1.5,1.1s.8-.3.9-.9-.2-1.1-.5-1.1S83.6,75.4,83.5,76Z"/><path class="cls-7" d="M89.9,77c0,.6.2,1.1.6,1.1s.7-.3.8-.9-.1-1.1-.5-1.1S90,76.4,89.9,77Z"/><path class="cls-9" d="M87.9,77a22.6,22.6,0,0,0,1.9,5.1,3.3,3.3,0,0,1-2.7,0Z"/><path class="cls-7" d="M83.7,83.8l.7.2a.2.2,0,0,0,.2-.2l-.2-.2a4.1,4.1,0,0,1-3.3-2.3h-.3c0,.1-.1.2,0,.3A4.4,4.4,0,0,0,83.7,83.8Z"/><path class="cls-7" d="M81.9,73.6c.1.1.2,0,.3,0a2.6,2.6,0,0,1,2.3-.8c.2,0,.4-.1.4-.3s0-.3-.2-.4a3.6,3.6,0,0,0-3,1,.3.3,0,0,0,0,.4Z"/><path class="cls-7" d="M93.1,75.2h.2c.2,0,.3-.2.2-.4a3,3,0,0,0-2.1-2.2c-.2-.1-.4,0-.4.2s0,.4.2.4A2.7,2.7,0,0,1,92.9,75,.2.2,0,0,0,93.1,75.2Z"/><path class="cls-7" d="M70.5,64.2S66.2,60,80.9,60.4,98,69,91.3,70.9l-.4-1.4a8.7,8.7,0,0,1-7.5.4l1.1-.7S74.5,70.3,70.5,64.2Z"/><path class="cls-2" d="M82.2,101.5a54.2,54.2,0,0,1-4,4.3c-3.1-1.6-10.4-5.8-10-9.7.4-1.1,3.3-1.8,3.3-1.8S74.8,98.5,82.2,101.5Z"/><path class="cls-2" d="M82.2,101.5a18.9,18.9,0,0,1,4,4.3c2.3-1.5,1.2-8.7.3-9.5a8.4,8.4,0,0,0-3.9-1.1A6.8,6.8,0,0,1,82.2,101.5Z"/><g class="cls-10"><path class="cls-3" d="M82.2,101.5a54.2,54.2,0,0,1-4,4.3c-3.1-1.6-10.4-5.8-10-9.7.4-1.1,3.3-1.8,3.3-1.8S74.8,98.5,82.2,101.5Z"/><path class="cls-3" d="M82.2,101.5a18.9,18.9,0,0,1,4,4.3c2.3-1.5,1.2-8.7.3-9.5a8.4,8.4,0,0,0-3.9-1.1A6.8,6.8,0,0,1,82.2,101.5Z"/></g><path class="cls-6" d="M82.1,215.6l-4.2-23.2.8-12.3S84.5,201.4,82.1,215.6Z"/><path class="cls-4" d="M60.1,108.4l-6.6,10.7-3.1,5.3a56.5,56.5,0,0,0-2.9,5.3,10.9,10.9,0,0,0-.9,2.3,22.9,22.9,0,0,0-.8,2.8c-.5,2-.9,4-1.4,6-.9,4.1-1.7,8.3-2.7,12.4l-4.8-.4c-.1-4.3-.1-8.6.2-13,.1-2.1.3-4.3.6-6.5s.3-2.3.5-3.4a32.5,32.5,0,0,1,1.1-3.7c.9-2.3,1.9-4.2,2.9-6.2s2-3.9,3-5.8c2.2-3.7,4.4-7.4,6.7-11Z"/><path class="cls-2" d="M56.1,97.8c-5.4,1.4-14.9,20.7-14.9,20.7l11.4,7.4,10.3-10a25.3,25.3,0,0,0-.7-10.9C60.5,99,56.1,97.8,56.1,97.8Z"/><path class="cls-5" d="M56.1,97.8c-5.4,1.4-14.9,20.7-14.9,20.7l11.4,7.4,10.3-10a25.3,25.3,0,0,0-.7-10.9C60.5,99,56.1,97.8,56.1,97.8Z"/><path class="cls-7" d="M45.7,111.6H161.2a4.7,4.7,0,0,1,4.7,4.7V119a4.7,4.7,0,0,1-4.7,4.7H45.7a0,0,0,0,1,0,0V111.6a0,0,0,0,1,0,0Z" transform="translate(-52.4 114) rotate(-46.7)"/><path class="cls-11" d="M45.7,111.6H161.2a4.7,4.7,0,0,1,4.7,4.7V119a4.7,4.7,0,0,1-4.7,4.7H45.7a0,0,0,0,1,0,0V111.6a0,0,0,0,1,0,0Z" transform="translate(-52.4 114) rotate(-46.7)"/><path class="cls-6" d="M146.7,73.6l1.4,1.3a4.6,4.6,0,0,1,.2,6.6L69,165.6l-1.3-1.2,79.2-84.1A4.7,4.7,0,0,0,146.7,73.6Z"/><polygon class="cls-7" points="121.4 106.2 136.1 120 138 118 136.1 116.2 139.2 113 138.1 111.9 142.6 107.1 143.7 108.2 146.5 105.2 148.4 107 150.4 104.9 149.3 103.8 152.1 100.8 149.9 98.7 151.8 96.7 155.1 99.9 158.5 96.3 143.8 82.4 121.4 106.2"/><polygon class="cls-11" points="121.4 106.2 136.1 120 138 118 136.1 116.2 139.2 113 138.1 111.9 142.6 107.1 143.7 108.2 146.5 105.2 148.4 107 150.4 104.9 149.3 103.8 152.1 100.8 149.9 98.7 151.8 96.7 155.1 99.9 158.5 96.3 143.8 82.4 121.4 106.2"/><g class="cls-12"><rect class="cls-13" x="135" y="117.5" width="2.8" height="1.82" transform="translate(-43.3 136.4) rotate(-46.7)"/><polygon class="cls-13" points="143.7 108.2 142.6 107.1 138.1 111.9 139.2 113 136.1 116.2 134.8 114.9 137.8 111.7 136.7 110.7 141.3 105.9 142.4 106.9 145.2 103.9 146.5 105.2 143.7 108.2"/><polygon class="cls-13" points="148 102.6 150.8 99.5 152.2 100.8 149.3 103.8 150.4 104.9 148.4 107 147.1 105.7 149.1 103.6 148 102.6"/><rect class="cls-13" x="148.8" y="96.2" width="2.7" height="1.82" transform="translate(-23.5 139.7) rotate(-46.7)"/><rect class="cls-13" x="153.7" y="96.5" width="5" height="1.82" transform="translate(-21.9 144.2) rotate(-46.7)"/></g><rect class="cls-7" x="111.6" y="84.6" width="37.5" height="14.24" rx="1.1" transform="translate(-25.8 123.6) rotate(-46.7)"/><path class="cls-7" d="M69.5,192.8h0a20.5,20.5,0,0,1-29,.8l-6.6-6.2a20.5,20.5,0,0,1-.9-29h0a20.5,20.5,0,0,1,29-.8l6.6,6.2A20.6,20.6,0,0,1,69.5,192.8Z"/><path class="cls-3" d="M61.8,185.6h0a10.1,10.1,0,0,1-14.4.4l-6.3-6a10.1,10.1,0,0,1-.4-14.4h0a10.1,10.1,0,0,1,14.4-.4l6.3,6A10.1,10.1,0,0,1,61.8,185.6Z"/><rect class="cls-14" x="111.6" y="84.6" width="37.5" height="14.24" rx="1.1" transform="translate(-25.8 123.6) rotate(-46.7)"/><g class="cls-15"><path class="cls-3" d="M69.5,192.8h0a20.5,20.5,0,0,1-29,.8l-6.6-6.2a20.5,20.5,0,0,1-.9-29h0a20.5,20.5,0,0,1,29-.8l6.6,6.2A20.6,20.6,0,0,1,69.5,192.8Z"/><path class="cls-3" d="M61.8,185.6h0a10.1,10.1,0,0,1-14.4.4l-6.3-6a10.1,10.1,0,0,1-.4-14.4h0a10.1,10.1,0,0,1,14.4-.4l6.3,6A10.1,10.1,0,0,1,61.8,185.6Z"/></g><path class="cls-6" d="M145,79.7l2.7,2.5a1.1,1.1,0,0,1,0,1.5l-24.3,25.8a1.1,1.1,0,0,1-1.5,0l-2.7-2.5a1.1,1.1,0,0,0,1.5,0L145,81.2A1.1,1.1,0,0,0,145,79.7Z"/><g class="cls-12"><path d="M53.1,163.3l2,1.9a10.8,10.8,0,0,0-7.3-2.8,10.4,10.4,0,0,0-7.1,3.2,10.1,10.1,0,0,0,.4,14.4l-2-1.8a10.1,10.1,0,0,1-.4-14.4,9.6,9.6,0,0,1,7.1-3.2A10.2,10.2,0,0,1,53.1,163.3Z"/><path d="M66.6,162l2,1.8a20.5,20.5,0,1,1-28.1,29.8l-2-1.8A20.5,20.5,0,1,0,66.6,162Z"/></g><g class="cls-12"><path d="M53.1,163.3l2,1.9a10.8,10.8,0,0,0-7.3-2.8,10.4,10.4,0,0,0-7.1,3.2,10.1,10.1,0,0,0,.4,14.4l-2-1.8a10.1,10.1,0,0,1-.4-14.4,9.6,9.6,0,0,1,7.1-3.2A10.2,10.2,0,0,1,53.1,163.3Z"/><path d="M53.1,163.3l2,1.9a10.8,10.8,0,0,0-7.3-2.8,10.4,10.4,0,0,0-7.1,3.2,10.1,10.1,0,0,0,.4,14.4l-2-1.8a10.1,10.1,0,0,1-.4-14.4,9.6,9.6,0,0,1,7.1-3.2A10.2,10.2,0,0,1,53.1,163.3Z"/></g><polygon class="cls-4" points="37.9 164.2 45.3 162.4 44.4 157 35.5 158.8 37.9 164.2"/><path class="cls-4" d="M37.2,151.8l-1.7,7,8.9-1.8s.2-6.3-3.2-6.7Z"/></g></svg>