<svg xmlns="http://www.w3.org/2000/svg" viewBox="0 0 26.9 42.8"><defs><style>.cls-1{fill:#407bff;}.cls-2,.cls-3,.cls-5{fill:#fff;isolation:isolate;}.cls-2{opacity:0.2;}.cls-3{opacity:0.3;}.cls-4{fill:#263238;}.cls-5{opacity:0.4;}</style></defs><title>diseño_navegacion_cactus</title><g id="ELEMENTS"><path class="cls-1" d="M9.8,24.7a12.9,12.9,0,0,1-3.5,0c-1-.3-.6-5-1.7-5.1s-2,6-1,7.3,6.4.8,6.4.8Z"/><path class="cls-2" d="M9.8,24.7a12.9,12.9,0,0,1-3.5,0c-1-.3-.6-5-1.7-5.1s-2,6-1,7.3,6.4.8,6.4.8Z"/><path class="cls-1" d="M10,35.8s-3.6-32,.7-32.4,5.4,11,3.7,32Z"/><path class="cls-3" d="M10,35.8s-3.6-32,.7-32.4,5.4,11,3.7,32Z"/><polygon class="cls-4" points="4.9 32 19.1 32 17.9 41 6.1 41 4.9 32"/><path class="cls-1" d="M14.3,13.9a26.7,26.7,0,0,0,4,0c.1-.2.1-4.7,1.8-4.5s.9,5.8,0,6.4-5.8,1-5.8,1S13.6,14.8,14.3,13.9Z"/><path class="cls-5" d="M14.3,13.9a26.7,26.7,0,0,0,4,0c.1-.2.1-4.7,1.8-4.5s.9,5.8,0,6.4-5.8,1-5.8,1S13.6,14.8,14.3,13.9Z"/><path class="cls-1" d="M11.8,32.9c-.7-4.9-1.1-9.8-1.5-14.7-.2-2.4-.3-4.9-.4-7.3s0-2.5.1-3.7a11.5,11.5,0,0,1,.1-1.9l.3-1c0-.2.1-.3.2-.5l.3-.3a.6.6,0,0,1,.6.1c.3.2.3.4.4.5l.2.5c.1.3.1.6.2.9l.3,1.9.3,3.7.3,7.4c0,4.9,0,9.8-.1,14.7-.2-4.9-.3-9.8-.5-14.7-.2-2.5-.3-4.9-.4-7.4s-.2-2.4-.4-3.6a11.3,11.3,0,0,0-.3-1.8,2.9,2.9,0,0,0-.2-.9,2,2,0,0,0-.2-.6h.1c.1,0,0,.1,0,.1v.3a1.9,1.9,0,0,0-.2.8,11,11,0,0,0-.2,1.8c-.1,1.2-.1,2.4-.1,3.7l.3,7.3C11.1,23.1,11.5,28,11.8,32.9Z"/><path class="cls-1" d="M14.8,15l2.3-.4h1.6v-.1a18.5,18.5,0,0,1,.4-2.3,19.5,19.5,0,0,1,.8-2.2,16.4,16.4,0,0,1-.2,2.3c0,.8-.2,1.6-.2,2.2h0v.2c0,.1-.1.1-.1.2H18.2a4,4,0,0,1-1.1,0A8.6,8.6,0,0,1,14.8,15Z"/><path class="cls-1" d="M14.8,16.1a11.4,11.4,0,0,1,2.5-.6l1.3-.2,1.2-.3h0a.4.4,0,0,1,.1-.3,1.3,1.3,0,0,1,.1-.6c.1-.4.1-.8.2-1.2s.3-1.8.4-2.6a11.4,11.4,0,0,1,.2,2.6,5.7,5.7,0,0,1-.1,1.3c0,.3-.1.5-.1.7s-.1.2-.1.4v.2l-.3.2-1.4.3H14.8Z"/><path class="cls-1" d="M8.6,25.6a8.1,8.1,0,0,1-2.2.1H5.2a.1.1,0,0,0-.1-.1l-.2-.2L4.6,25c0-.2-.1-.4-.1-.6a8.2,8.2,0,0,1-.2-2.2A8.3,8.3,0,0,1,4.6,20l.3,2.2.3,2a.9.9,0,0,1,.1.5.1.1,0,0,1,.1.1h.1l1,.2Z"/><path class="cls-1" d="M3.8,20.6a22.1,22.1,0,0,1,.5,2.5l.3,2.5c.1.1.1.4.2.5s0,.1.2.2a3.5,3.5,0,0,0,1.1.3l2.5.5a11.3,11.3,0,0,1-2.6.1A3.2,3.2,0,0,1,4.7,27l-.4-.2L4,26.4c0-.3-.1-.5-.1-.7A17.4,17.4,0,0,1,3.8,20.6Z"/></g></svg>