<svg xmlns="http://www.w3.org/2000/svg" viewBox="0 0 93.7 197"><defs><style>.cls-1{fill:#ff8b7b;}.cls-2{fill:#263238;}.cls-3{fill:#ff5652;}.cls-4{opacity:0.2;}.cls-10,.cls-5,.cls-9{fill:#407bff;}.cls-6{opacity:0.4;}.cls-10,.cls-7{opacity:0.3;}.cls-8{fill:#fff;}.cls-9{opacity:0.6;}</style></defs><title>diseño_navegacion_personaconllave_nuve</title><g id="ELEMENTS"><path class="cls-1" d="M37.2,73.9l1.5,3.2a30.9,30.9,0,0,1,1.4,3.2,50.5,50.5,0,0,1,2.2,6.9,2.9,2.9,0,0,1,.2.9v1.1a10.6,10.6,0,0,1-.1,2.6,12.4,12.4,0,0,1-1.4,3.7,31.5,31.5,0,0,1-3.8,5.9l-1.9-1.6c.9-2,1.8-4,2.5-6a10.7,10.7,0,0,0,.6-2.9,1.4,1.4,0,0,0,0-.9l-.2-.6a1.9,1.9,0,0,0-.2-.7,44.9,44.9,0,0,0-2.3-6.1c-.8-2-1.8-4-2.7-5.9Z"/><path class="cls-1" d="M36,99.1l-2,1.2,2.3,3.1a4.3,4.3,0,0,0,1.5-2.8Z"/><polygon class="cls-1" points="31.3 102.2 33.8 104.5 36.3 103.4 34 100.3 31.3 102.2"/><path class="cls-2" d="M22.9,57.4c-.1.3-.2.5-.4.5s-.3-.3-.2-.6.2-.5.4-.4S22.9,57.2,22.9,57.4Z"/><path class="cls-3" d="M22.7,57.9A11.3,11.3,0,0,1,21.1,60a1.3,1.3,0,0,0,1.1.6Z"/><path class="cls-1" d="M21.9,67.8V64.5l3.8.5s-.1,2.9-2.2,3.7Z"/><polygon class="cls-1" points="23 62.1 25.6 63 25.7 65 21.9 64.5 23 62.1"/><path class="cls-4" d="M25.6,63,23,62.1l-.5,1.2a4.8,4.8,0,0,0,2.4,4.2,4.8,4.8,0,0,0,.8-2.5Z"/><path class="cls-2" d="M24,56.1h.1a.2.2,0,0,0,0-.3,1.1,1.1,0,0,0-1.2-.5c-.1,0-.1.1-.1.2s.1.1.2.1h0a.9.9,0,0,1,.9.5Z"/><path class="cls-1" d="M29.6,62.5c-.4,2.6-.7,6.2.9,7.9,0,0-.6,2.7-4.8,2.7s-2.2-2.4-2.2-2.4c1.9-.6,1.9-3.1,1.4-5.1Z"/><path class="cls-5" d="M31.3,72.2c.4-.7.4-2.8,0-3.2s-3.7-.7-7.8.4a3.4,3.4,0,0,1-.5,3.1Z"/><path class="cls-5" d="M44.9,191.5c-.3,0-.6.1-.7-.1s-.1-.2-.1-.4l.2-.2c.4-.3,1.4.2,1.4.2h0Zm-.4-.6h-.1v.2a.1.1,0,0,0,0,.2,2,2,0,0,0,1.2-.2C45.2,191,44.7,190.8,44.5,190.9Z"/><path class="cls-5" d="M45.7,191.2h0c-.4-.1-1.1-.8-1.1-1.2s0-.2.1-.2.3-.1.4,0,.6,1.2.7,1.3h-.1Zm-.9-1.3h-.1c0,.3.5.8.9.9s-.3-.8-.6-.9Z"/><path class="cls-5" d="M22.3,192.1c-.4,0-.8-.1-.9-.3s-.1-.2,0-.4l.2-.2c.6-.1,1.6.6,1.7.6h-1Zm-.5-.7h-.3v.2a2.3,2.3,0,0,0,1.5.1A4.2,4.2,0,0,0,21.8,191.4Z"/><path class="cls-5" d="M23.2,192h0c-.4-.1-1.1-.9-1-1.3s0-.2.2-.2.3,0,.4.1a2.6,2.6,0,0,1,.5,1.4h-.1Zm-.7-1.5h-.2a2.1,2.1,0,0,0,.8,1.1,1.7,1.7,0,0,0-.4-1.1Z"/><polygon class="cls-1" points="26.6 191.9 23.5 191.9 23.2 183.7 26.3 183.7 26.6 191.9"/><polygon class="cls-1" points="49.1 190.2 46.1 191 43.1 183.4 46.1 182.6 49.1 190.2"/><path class="cls-2" d="M45.8,190.6l3.4-.8c.1,0,.2,0,.3.2l1.2,2.9a.6.6,0,0,1-.4.7l-3.2.7-4.2,1.1c-1.3.3-1.7-1-1.2-1.3a9.4,9.4,0,0,0,3.7-3.1Z"/><path class="cls-2" d="M23.6,191.5h3.3l.3.2.6,3.1c0,.4-.2.7-.5.7H17.5c-1.3,0-1.6-1.5-1.1-1.6,2.4-.6,4.4-.7,6.4-2.2Z"/><path class="cls-5" d="M36,71.2c2.8.8,5.2,9.2,5.2,9.2l-5.8,5.1a14.9,14.9,0,0,1-3-6.5C31.4,74.5,33,70.5,36,71.2Z"/><path class="cls-6" d="M36,71.2c2.8.8,5.2,9.2,5.2,9.2l-5.8,5.1a14.9,14.9,0,0,1-3-6.5C31.4,74.5,33,70.5,36,71.2Z"/><path class="cls-1" d="M20.8,81.3l-2.1,2.5L17.5,85l-.5.6h-.2l-.2.3-.9.6a2.2,2.2,0,0,1-1,.2,1.5,1.5,0,0,1-.9-.2,2,2,0,0,1-.9-.6,2.8,2.8,0,0,1-.7-1.3,2.5,2.5,0,0,1-.1-.8,2.7,2.7,0,0,1,0-.9,1.3,1.3,0,0,1,.1-.6,9.7,9.7,0,0,1,.5-2l.6-1.9.9-1.6a37.7,37.7,0,0,1,3.6-5.8,51.1,51.1,0,0,1,4.5-4.8l1.6,1.9c-1.1,1.7-2.2,3.6-3.2,5.4a43,43,0,0,0-2.8,5.7,7.5,7.5,0,0,0-.6,1.3c-.1.5-.3.9-.4,1.4a6.9,6.9,0,0,0-.2,1.3v.2s.1,0,0-.1v-.3a2.1,2.1,0,0,0-.5-.9l-.7-.6H13.9l-.2.2.2-.2.5-.6,1-1.1,2.1-2.3Z"/><path class="cls-4" d="M33.5,77.4c1.6,1.8,2.1,5.1,2.2,7.9l-.3.2a14.9,14.9,0,0,1-3-6.5c-.1-.3-.1-.5-.2-.8Z"/><path class="cls-5" d="M17.8,74.8c-.6,3.8-1,11.6.8,27.2H35c.1-2.9-1.5-17.1,1-30.8a51.2,51.2,0,0,0-5.5-.8,54.4,54.4,0,0,0-7,0l-2.2.4A4.5,4.5,0,0,0,17.8,74.8Z"/><path class="cls-6" d="M17.8,74.8c-.6,3.8-1,11.6.8,27.2H35c.1-2.9-1.5-17.1,1-30.8a51.2,51.2,0,0,0-5.5-.8,54.4,54.4,0,0,0-7,0l-2.2.4A4.5,4.5,0,0,0,17.8,74.8Z"/><path class="cls-4" d="M20.3,80.4l-3-.8c0,2.1-.1,4.6.1,7.8C18.7,85.6,20.5,82.8,20.3,80.4Z"/><polygon class="cls-4" points="23.2 183.7 23.4 187.9 26.5 187.9 26.3 183.7 23.2 183.7"/><polygon class="cls-4" points="46.1 182.6 43.1 183.4 44.7 187.3 47.7 186.5 46.1 182.6"/><path class="cls-1" d="M31.1,58.8c-.8,3.3-1.1,5.4-3,6.8s-6.1-.3-6.2-3.9,1.2-8.3,4.4-8.9S31.8,55.4,31.1,58.8Z"/><path class="cls-2" d="M24.2,58.9c-.2-.5-.8-4-.2-4.9s7.9-.2,9,1,.5,3.8-1.4,6.1-1.6,3.7-2.3,4-3.3.1-3.7-1.5S24.2,58.9,24.2,58.9Z"/><path class="cls-2" d="M32.1,51c-2.6-1.3-7.4.1-10-.6a4.5,4.5,0,0,0,3.3,4.7,32.5,32.5,0,0,0,6.6.7C34.8,55.7,34.3,52.1,32.1,51Z"/><path class="cls-2" d="M32.5,55.1a4.3,4.3,0,0,0,2.7-.6C35.7,55.8,33,56.2,32.5,55.1Z"/><path class="cls-1" d="M25.6,59a4.6,4.6,0,0,1-.9,2.4c-.7.8-1.4.3-1.5-.7s.1-2.5,1-3S25.6,58,25.6,59Z"/><path class="cls-5" d="M24.4,102s3.5,27,5.4,37.1,13.3,47.7,13.3,47.7l5.5-1.3s-7.8-29.9-9.6-45.4c-1.3-11.9-4-38.1-4-38.1Z"/><path class="cls-2" d="M41.8,184.7l1,2.3,6.2-1.5-.5-2.2Z"/><path class="cls-7" d="M26.6,111.6c4,.9,3.6,18.2,3.1,27.1-1.1-6.3-2.8-18.4-4-27A1.4,1.4,0,0,1,26.6,111.6Z"/><path class="cls-5" d="M18.6,102s-.4,26.4-.1,37.2,3.8,47.9,3.8,47.9h5.1s.2-36.1.5-47.1,1.5-38,1.5-38Z"/><path class="cls-2" d="M21.3,184.7a21.1,21.1,0,0,0,.2,2.5h6.4V185Z"/><path class="cls-5" d="M24.2,75.9c1.5,4.6-7.1,10-7.1,10l-3.8-5.6s2.5-5.7,5.6-8.3S23.1,72.5,24.2,75.9Z"/><path class="cls-6" d="M24.2,75.9c1.5,4.6-7.1,10-7.1,10l-3.8-5.6s2.5-5.7,5.6-8.3S23.1,72.5,24.2,75.9Z"/><ellipse class="cls-5" cx="58.1" cy="29.7" rx="15.7" ry="11.6"/><path class="cls-8" d="M52.4,35.5a4,4,0,0,1-2.5-.9,4.9,4.9,0,0,1-1.8-3.3c-.4-2.6,1.1-5.2,3.3-5.8h0a4.1,4.1,0,0,1,4.7,2.3l10.1-2.5a1.7,1.7,0,0,1,1.9,1.3,2.2,2.2,0,0,1-.2,1.4,1.6,1.6,0,0,1-1,.8h-.2a.2.2,0,0,0-.2.2c-.1.1-.1.2,0,.2v.6a.8.8,0,0,1-.2.9,1.2,1.2,0,0,0-.4.8,1.3,1.3,0,0,1-.5.7h-.3c-.2.1-.5-.1-.7-.4a.9.9,0,0,0-.9-.5,1.3,1.3,0,0,0-.7.9.8.8,0,0,1-.5.7h-.2c-.3.1-.5-.1-.7-.4a1.5,1.5,0,0,0-.6-.5.7.7,0,0,1-.6-.7v-.6c0-.1,0-.2-.1-.2H60l-3.3.8a4.6,4.6,0,0,1-3.4,4.2ZM51.5,26a4.6,4.6,0,0,0-3,5.2,4.8,4.8,0,0,0,1.7,3,3.3,3.3,0,0,0,3,.7,4.3,4.3,0,0,0,3.1-4h.1l3.5-.9a.7.7,0,0,1,.6.2,1.1,1.1,0,0,1,.2.6v.6c.1.1.1.2.3.3a1.2,1.2,0,0,1,.9.7c0,.1.1.2.2.1h.2c.2,0,.2-.2.2-.3a1.7,1.7,0,0,1,1-1.3,1.3,1.3,0,0,1,1.4.8h.5a.4.4,0,0,0,.1-.3,2.4,2.4,0,0,1,.6-1.1.2.2,0,0,0,.1-.3v-.6a.8.8,0,0,1,0-.7,1,1,0,0,1,.5-.4h.2a1.1,1.1,0,0,0,.7-.6,1.6,1.6,0,0,0,.2-1,1.3,1.3,0,0,0-1.4-.9L55.9,28.3h-.1A3.6,3.6,0,0,0,51.5,26Zm.9,7.7a2,2,0,0,1-1.5-.6,2.7,2.7,0,0,1-1.2-2,3.3,3.3,0,0,1,.4-2.4,2.6,2.6,0,0,1,1.7-1.4,2.5,2.5,0,0,1,2.1.4,2.8,2.8,0,0,1,1.2,2.1,3.4,3.4,0,0,1-.4,2.4A2.9,2.9,0,0,1,53,33.6h-.6Zm0-6h-.5a2.3,2.3,0,0,0-1.5,1.1,3.7,3.7,0,0,0-.3,2.1,2.7,2.7,0,0,0,1,1.7,2.3,2.3,0,0,0,1.8.4h0a2.9,2.9,0,0,0,1.5-1.2,3.4,3.4,0,0,0,.3-2,2.7,2.7,0,0,0-1-1.7A2.1,2.1,0,0,0,52.4,27.7Z"/><ellipse class="cls-9" cx="45.3" cy="44.2" rx="5.2" ry="3.8"/><ellipse class="cls-10" cx="37" cy="48" rx="2.1" ry="1.6"/></g></svg>