<svg xmlns="http://www.w3.org/2000/svg" viewBox="0 0 130.3 167.8"><defs><style>.cls-1{fill:#d1d1d1;}.cls-2{fill:#f0c952;}.cls-3{fill:#e89f37;}.cls-4{fill:#282644;}.cls-5{fill:#f5ddc3;}.cls-6{fill:#fff;}.cls-7{fill:#7ddc93;}.cls-8{fill:#eebf9f;}.cls-9{fill:#eabfa0;}.cls-10{fill:#3c3a50;}</style></defs><title>diseño_navegacion_personaencuadronaranjaconbarra</title><g id="ELEMENTS"><path class="cls-1" d="M124.3,163.4c-5.9-.5-15-1.1-25.1-1.1s-17.7.5-23.5,1-14.2-1-23.5-1a271.7,271.7,0,0,0-32.1,1.9A286.6,286.6,0,0,0,52.2,166c9.3,0,17.6-.5,23.5-1s14.2,1,23.5,1,19.2-.6,25.1-1.1Z"/><rect class="cls-2" x="31.5" y="139.5" width="38.5" height="24.21"/><polygon class="cls-3" points="31.5 139.6 70 163.8 31.5 163.8 31.5 139.6"/><rect class="cls-2" x="81.6" y="139.5" width="38.5" height="24.21"/><polygon class="cls-3" points="81.6 139.6 120.1 163.8 81.6 163.8 81.6 139.6"/><rect class="cls-2" x="90.8" y="122.4" width="27.3" height="17.17"/><polygon class="cls-3" points="90.8 122.4 118.1 139.6 90.8 139.6 90.8 122.4"/><rect class="cls-2" x="96.2" y="112.4" width="15.9" height="10.01"/><polygon class="cls-3" points="96.2 112.4 112.1 122.4 96.2 122.4 96.2 112.4"/><path class="cls-4" d="M56,139.5h3.9v-1.2c1.5,1.1,6.8,1.3,11.1,1.3v-1.5a32.5,32.5,0,0,1-10.4-4.6h0a15.1,15.1,0,0,1-.7-4.4H56.1l.7,5.4h-.1C56.1,135.8,56,139.5,56,139.5Z"/><path class="cls-5" d="M56.8,134.5h-.1a10.6,10.6,0,0,0,4-1,15.1,15.1,0,0,1-.7-4.4H56.1Z"/><rect class="cls-6" x="62.4" y="135.6" width="2.1" height="0.68" transform="translate(-84.4 110.8) rotate(-55.3)"/><rect class="cls-6" x="61.5" y="135" width="2.1" height="0.68" transform="translate(-84.4 109.8) rotate(-55.3)"/><rect class="cls-6" x="60.4" y="134.5" width="2.1" height="0.68" transform="translate(-84.4 108.7) rotate(-55.3)"/><path class="cls-4" d="M45.3,139.5h-4v-1.2c-1.5,1.1-6.8,1.3-11.1,1.3v-1.5a31.3,31.3,0,0,0,10.4-4.6h0a15.1,15.1,0,0,0,.7-4.4h3.9l-.7,5.4h.1C45.2,135.8,45.3,139.5,45.3,139.5Z"/><path class="cls-5" d="M44.4,134.5h.1a10.6,10.6,0,0,1-4-1,15.1,15.1,0,0,0,.7-4.4h3.9Z"/><rect class="cls-6" x="37.4" y="134.9" width="0.7" height="2.12" transform="translate(-70.6 45.6) rotate(-34.7)"/><rect class="cls-6" x="38.3" y="134.3" width="0.7" height="2.12" transform="translate(-70.1 46) rotate(-34.7)"/><rect class="cls-6" x="39.4" y="133.7" width="0.7" height="2.12" transform="translate(-69.6 46.5) rotate(-34.7)"/><path class="cls-4" d="M60,77.5s2.9,49.1,2.3,52.8H54.9s-1.6-40.9-3.6-41.8-3.8,41.8-3.8,41.8H40.3l3.9-52Z"/><rect class="cls-6" x="12.5" y="22.3" width="65.9" height="8.14" rx="0.9" transform="translate(-3.8 8) rotate(-9.7)"/><path class="cls-3" d="M65.8,17.8H77.1a.9.9,0,0,1,.9.9V25a.9.9,0,0,1-.9.9H65.8a0,0,0,0,1,0,0V17.8A0,0,0,0,1,65.8,17.8Z" transform="translate(-2.6 12.4) rotate(-9.7)"/><path class="cls-6" d="M75.5,23.4l-1.9-1.3a2.3,2.3,0,0,0-.8-2.8A2.4,2.4,0,1,0,70,23.2a2.4,2.4,0,0,0,2.9-.2l1.9,1.4c.2.1.3,0,.4-.1l.4-.5C75.7,23.7,75.6,23.5,75.5,23.4ZM71.7,23a1.8,1.8,0,0,1-2-1.5,1.8,1.8,0,0,1,1.4-2,1.7,1.7,0,0,1,2,1.5A1.8,1.8,0,0,1,71.7,23Z"/><path class="cls-7" d="M43.2,84.1s.7-28.4,2-29.6a4.3,4.3,0,0,1,2.9-1.3l4.1.3,4.2-.4s2.2,1.2,2.5,2.4,2,28.9,2,28.9A26.7,26.7,0,0,1,43.2,84.1Z"/><path class="cls-5" d="M55,52.5a10.5,10.5,0,0,1-5.6.1,4.4,4.4,0,0,0,.6-2.3,4.5,4.5,0,0,0,.1-1.1c0-1.1-.1-2-.1-2l4.1-.2v.6l.4,2.6Z"/><path class="cls-8" d="M54.6,50.2a22.8,22.8,0,0,1-4.6.1,4.5,4.5,0,0,0,.1-1.1s3-.6,4.1-1.6Z"/><path class="cls-5" d="M47.4,35.8s-3.1,11,1.1,13,7.6-3.9,7.6-3.9l1-7.7Z"/><path class="cls-9" d="M52.6,44.1l.2.3a2.5,2.5,0,0,1-.1.8.9.9,0,0,1-.4.6L52,46h.4a1.2,1.2,0,0,0,.6-.6,1.3,1.3,0,0,0-.1-.9l-.2-.3Z"/><path class="cls-8" d="M47.4,43.9a.7.7,0,0,0,.9.5.7.7,0,0,0-.4-1.4A.7.7,0,0,0,47.4,43.9Z"/><path class="cls-4" d="M58.5,45.1a9,9,0,0,0,2.7-5.6,5.3,5.3,0,0,0-.5-3.7c-.6-1-2.1-1.8-3.2-1.2a2.3,2.3,0,0,0-.9-1.4,5.9,5.9,0,0,0-4-1c-1.1.2-2.3.6-3.2,0a.7.7,0,0,1-.3-1.1,1.9,1.9,0,0,0-.8,2.6,2,2,0,0,1-.8-.4.7.7,0,0,1-.4-.8,3.8,3.8,0,0,0-1.6,2.3,3.9,3.9,0,0,0,.6,2.8,4.6,4.6,0,0,0,2.6,1.5,14.6,14.6,0,0,0,3,.2,24.4,24.4,0,0,1,0,5.4,6.1,6.1,0,0,1,.7-1,.9.9,0,0,1,1.1,0c.3.2.3.6.3.9a2.8,2.8,0,0,1-.6,1.6,1.7,1.7,0,0,1-1.4.8c-.5,2.7,2.3,3.8,2.6,3.9a1.4,1.4,0,0,1,.1-1.1,1.8,1.8,0,0,0,1.1.8c-.3-.5,0-1.1.3-1.6A20.4,20.4,0,0,1,58.5,45.1Z"/><path class="cls-10" d="M53.2,38.1h-.4l-.9.3a7,7,0,0,1-3.1-.3,5.1,5.1,0,0,1-1.6-.9,4.7,4.7,0,0,1-.9-1.2,5.1,5.1,0,0,1-.2-.9v-.4l.2.3a2,2,0,0,0,.4.8,3.8,3.8,0,0,0,.9.9l1.5.6a11.4,11.4,0,0,0,2.8.7h1.3Z"/><path class="cls-10" d="M56.2,41.7h-.1l.5-.8a5.2,5.2,0,0,0,.6-1.5c.4-1.4.3-2.7.1-2.6h.2l.4.5a4,4,0,0,1,.1,2.2,3.7,3.7,0,0,1-1,1.6,3.5,3.5,0,0,1-.9.6h.1Z"/><path class="cls-10" d="M56.8,42.8l.3-.2.5-.6a6.4,6.4,0,0,0,1.1-2.2,12,12,0,0,0,.3-2.4c0-.3-.1-.6-.1-.8v-.3l.2.3c0,.1.2.4.3.7a5.3,5.3,0,0,1,0,2.8,4.1,4.1,0,0,1-1.5,2.2l-.8.4Z"/><path class="cls-10" d="M55.2,36.1s0,.1-.2.2l-.8.3a6.6,6.6,0,0,1-2.9.2,3.7,3.7,0,0,1-1.5-.3,2.4,2.4,0,0,1-1.2-.7,1,1,0,0,1-.5-.7l-.2-.3.3.3a1.5,1.5,0,0,0,.6.4,6,6,0,0,0,2.6.5,14.2,14.2,0,0,0,2.7.2h1.1Z"/><path class="cls-10" d="M55,34.9a1.4,1.4,0,0,1-.6.3,2.9,2.9,0,0,1-1.7.3,3,3,0,0,1-1.5-.6,1.7,1.7,0,0,1-.5-.5h.7l1.4.2,1.5.2Z"/><path class="cls-10" d="M55.1,34.3h-1l-.6-.4-.3-.2.4-.2a2.1,2.1,0,0,1,.8,0,1,1,0,0,1,.6.5A1,1,0,0,1,55.1,34.3Z"/><path class="cls-6" d="M49.4,52.6l-1.3.6s1.3,1.4,4.4,1.2a6,6,0,0,0,3.9-1.3L55,52.5A13.2,13.2,0,0,1,49.4,52.6Z"/><path class="cls-5" d="M38.7,29.8,38,28.6l-.7-2-1.5-.3-1.4,1.2s-1.9.4-2.2,1.2a21.5,21.5,0,0,0-.1,4.3l1,.9v1L31.4,46.5h4.1l1.3-11.3v-.8l2-1.6Z"/><path class="cls-7" d="M37.1,48.2c-1-1.5-.3-3.8.3-7.6l-6.2-.7c-.5,3.5-1.2,7.5,0,10.9s8.5,8.8,15.1,11.1l1.8-8.7C42.4,53.5,38.8,50.9,37.1,48.2Z"/><path class="cls-5" d="M64.8,25.3l.5-1.2.4-2.1,1.5-.4,1.5,1s2,.1,2.4.9a19.9,19.9,0,0,1,.6,4.2l-.9,1.1.2.9,3,11.4-4.1.5L67.3,30.5l-.2-.8-2.2-1.3Z"/><path class="cls-7" d="M68.6,43.4c.7-1.6-.2-3.7-1.2-7.4l6.1-1.6c.8,3.5,2,7.4,1.2,10.9S64.8,57.6,58.6,60.7l-2.2-7.6C61.9,52,67.2,46.3,68.6,43.4Z"/></g></svg>