<svg xmlns="http://www.w3.org/2000/svg" viewBox="0 0 97.5 120.1"><defs><style>.cls-1{fill:#056d92;}.cls-2{fill:#595957;}.cls-3{fill:#deeff3;}.cls-4{fill:#fac11f;}.cls-5{fill:#21a9e1;}.cls-6{fill:#fff;}</style></defs><title>42</title><g id="TEXTO"><rect class="cls-1" x="50.2" y="75.2" width="0.9" height="74.19" transform="translate(162.9 61.6) rotate(90)"/><path class="cls-2" d="M24.6,93.4l1,.7a1.8,1.8,0,0,1,.5,2.7h0a2.1,2.1,0,0,1-3,.5l-1-.6C22.9,95.6,23.8,94.5,24.6,93.4Zm.1.6-2,2.7.7.4a1.7,1.7,0,0,0,2.3-.5h0a1.5,1.5,0,0,0-.3-2.2Z"/><path class="cls-2" d="M28.1,95.6l.4.2c-.7,1.2-1.4,2.4-2.2,3.6l-.4-.3C26.7,98,27.4,96.8,28.1,95.6Z"/><path class="cls-2" d="M27.5,99.4l.5-.2a1.4,1.4,0,0,0,.8,1,.9.9,0,0,0,1.2-.3h0c.1-.3.1-.5-.5-1.1s-.9-1.1-.6-1.6h0a1.3,1.3,0,0,1,1.7-.5,1.9,1.9,0,0,1,1,1l-.4.2a2,2,0,0,0-.8-.8.9.9,0,0,0-1.1.2h0c-.1.4-.1.6.6,1.2s.8,1.1.5,1.6h0a1.3,1.3,0,0,1-1.7.5A2.3,2.3,0,0,1,27.5,99.4Z"/><path class="cls-2" d="M33.2,98.3l-1.1-.4c0-.1.1-.3.1-.4l2.8,1-.2.4-1.1-.4c-.5,1.1-1,2.3-1.4,3.4h-.5C32.3,100.6,32.8,99.5,33.2,98.3Z"/><path class="cls-2" d="M35.7,98.7l1.5.4a1.5,1.5,0,0,1,1,.7,1.3,1.3,0,0,1,.1.9h0a1.3,1.3,0,0,1-1.4.9c.2.6.5,1.2.7,1.9l-.6-.2-.6-1.8-1-.2c-.1.5-.3,1-.4,1.5h-.5Zm.8,2.4c.7.2,1.2,0,1.3-.5h0c.2-.6-.1-1-.8-1.1l-.9-.3a10.9,10.9,0,0,0-.5,1.7Z"/><path class="cls-2" d="M39.6,99.7h.5c-.3,1.3-.6,2.7-1,4h-.4Z"/><path class="cls-2" d="M42.1,100.5l-1.3-.2v-.4l2.9.5v.4l-1.3-.2-.6,3.7h-.5C41.7,103,41.9,101.8,42.1,100.5Z"/><path class="cls-2" d="M44,102.5h0a2,2,0,0,1,2.1-2,2,2,0,0,1,1.8,2.3h0a2.1,2.1,0,0,1-2.2,2A2,2,0,0,1,44,102.5Zm3.4.3h0a1.5,1.5,0,0,0-1.3-1.8,1.6,1.6,0,0,0-1.6,1.6h0a1.6,1.6,0,0,0,1.3,1.9A1.6,1.6,0,0,0,47.4,102.8Z"/><path class="cls-2" d="M51.6,101.2H50.4v-.4h2.9v.4H52.1c0,1.2.1,2.5.1,3.7h-.5C51.7,103.7,51.7,102.4,51.6,101.2Z"/><path class="cls-2" d="M54.3,103.3a21.1,21.1,0,0,0-.2-2.6h.5c.1.9.1,1.8.2,2.6a1.1,1.1,0,0,0,1.3,1.1c.7,0,1.1-.5,1-1.3l-.3-2.6h.5l.3,2.6a1.7,1.7,0,0,1-3.3.3Z"/><path class="cls-2" d="M58.3,100.3l1.5-.3a2.2,2.2,0,0,1,1.2.2,1.4,1.4,0,0,1,.5.8h0a1.3,1.3,0,0,1-.8,1.4l1.5,1.4h-.6l-1.4-1.4-1,.2.3,1.6H59C58.8,103,58.5,101.6,58.3,100.3Zm1.8,1.8c.7-.1,1-.5.9-1h0c-.1-.5-.5-.8-1.2-.7l-1,.2.3,1.7Z"/><path class="cls-2" d="M62.6,98.4h.5a1.8,1.8,0,0,0-.5.7h-.4Zm-.4,1.2h.5c.3,1.3.7,2.6,1,4h-.4C62.9,102.2,62.6,100.9,62.2,99.6Z"/><path class="cls-2" d="M64.6,102.7c.1-.1.1-.2.2-.4a2.3,2.3,0,0,0,1.4.2q.8-.3.6-.9h0c-.1-.4-.3-.5-1.2-.5s-1.4-.3-1.6-.9h0c-.2-.6.2-1.2,1-1.4a2.3,2.3,0,0,1,1.4.1c-.1.1-.1.3-.2.4a2.2,2.2,0,0,0-1.1-.1c-.5.2-.8.5-.6.9h0c.1.3.3.5,1.2.5s1.4.3,1.6.8h0a1.2,1.2,0,0,1-1,1.5A2.5,2.5,0,0,1,64.6,102.7Z"/><path class="cls-2" d="M68.1,98.3l-1.2.4c0-.1-.1-.2-.1-.3l2.7-1.1c.1.2.1.3.2.4l-1.2.5,1.5,3.4-.5.2C69,100.6,68.5,99.5,68.1,98.3Z"/><path class="cls-2" d="M70.3,97l.4-.2c.6,1.3,1.2,2.5,1.9,3.7l-.5.2Z"/><path class="cls-2" d="M72.6,98.3h0a1.9,1.9,0,0,1,2-2.9c0,.2-.1.3-.1.5a1.4,1.4,0,0,0-1.1.1A1.4,1.4,0,0,0,73,98h0a1.7,1.7,0,0,0,2.2.8,1.3,1.3,0,0,0,.7-.9l.4.2a1.9,1.9,0,0,1-.9,1.1A2.1,2.1,0,0,1,72.6,98.3Z"/><path class="cls-2" d="M76,96.4h0a1.8,1.8,0,0,1,.2-2.8,2,2,0,0,1,2.8.7h0c.8,1,.8,2.1-.1,2.7A2,2,0,0,1,76,96.4Zm2.6-1.8h0a1.6,1.6,0,0,0-2.2-.5c-.6.4-.7,1.3,0,2.1h0a1.5,1.5,0,0,0,2.2.6C79.3,96.3,79.3,95.4,78.6,94.6Z"/><path class="cls-2" d="M20,8.9h.4l.9,1.6,1-1.6h.3v3h-.3V9.5l-1,1.6h0l-.9-1.6v2.4H20Z"/><path class="cls-2" d="M23.4,10.8V8.9h.3v1.9a.7.7,0,0,0,.8.8c.5,0,.8-.2.8-.8V8.9h.3v1.9a1.1,1.1,0,1,1-2.2,0Z"/><path class="cls-2" d="M26.4,8.9h.3l1.6,2.4V8.9h.4v3h-.3L26.7,9.5v2.4h-.3Z"/><path class="cls-2" d="M29.5,8.9h.4v3h-.4Z"/><path class="cls-2" d="M30.6,10.4h0a1.4,1.4,0,0,1,2.3-1.2l-.2.3a1,1,0,0,0-.8-.3,1.1,1.1,0,0,0-1,1.2h0a1.1,1.1,0,0,0,1,1.2,1,1,0,0,0,.8-.3l.2.2a1.2,1.2,0,0,1-1,.4A1.4,1.4,0,0,1,30.6,10.4Z"/><path class="cls-2" d="M33.5,8.9h.4v3h-.4Z"/><path class="cls-2" d="M34.7,8.9h1a1,1,0,0,1,1.1,1h0c0,.6-.5.9-1.2.9h-.5v1.1h-.4Zm.9,1.7a.7.7,0,0,0,.8-.7h0c0-.5-.3-.7-.8-.7h-.5v1.4Z"/><path class="cls-2" d="M38,8.9h.4l1.1,3h-.3l-.3-.8H37.5l-.3.8h-.3Zm.8,1.9-.6-1.5-.6,1.5Z"/><path class="cls-2" d="M40.2,8.9h.3v2.7h1.4v.3H40.2Z"/><path class="cls-2" d="M42.6,8.9h.3v3h-.3Z"/><path class="cls-2" d="M43.7,8.9h.9a1.4,1.4,0,0,1,1.5,1.5h0a1.4,1.4,0,0,1-1.5,1.5h-.9Zm.4.3v2.4h.5a1.1,1.1,0,0,0,1.1-1.2h0a1.1,1.1,0,0,0-1.1-1.2Z"/><path class="cls-2" d="M47.6,8.9h.3l1.2,3h-.4l-.3-.8H47l-.3.8h-.3Zm.7,1.9-.6-1.5-.6,1.5Z"/><path class="cls-2" d="M49.7,8.9h.8A1.4,1.4,0,0,1,52,10.4h0a1.4,1.4,0,0,1-1.5,1.5h-.8Zm.3.3v2.4h.5a1.2,1.2,0,0,0,1.2-1.2h0a1.2,1.2,0,0,0-1.2-1.2Z"/><path class="cls-2" d="M53.9,8.9h.9a1.4,1.4,0,0,1,1.5,1.5h0a1.4,1.4,0,0,1-1.5,1.5h-.9Zm.4.3v2.4h.5a1.1,1.1,0,0,0,1.1-1.2h0a1.1,1.1,0,0,0-1.1-1.2Z"/><path class="cls-2" d="M57,8.9h.3v3H57Z"/><path class="cls-2" d="M58,11.5l.2-.2a1.2,1.2,0,0,0,.9.3.6.6,0,0,0,.6-.5h0c0-.2-.1-.4-.7-.6s-.9-.4-.9-.8h0a.8.8,0,0,1,.9-.8,1.7,1.7,0,0,1,1,.3l-.2.3a1.3,1.3,0,0,0-.8-.3c-.3,0-.6.2-.6.4h0c0,.3.2.4.8.7s.8.4.8.8h0a.8.8,0,0,1-.9.8A1.5,1.5,0,0,1,58,11.5Z"/><path class="cls-2" d="M61.3,9.2h-.9V8.9h2.1v.3h-.9v2.7h-.3Z"/><path class="cls-2" d="M63.1,8.9h1.1a1.1,1.1,0,0,1,.8.3,1.1,1.1,0,0,1,.2.6h0a.9.9,0,0,1-.7.9l.8,1.2h-.4l-.8-1.2h-.7v1.2h-.3Zm1,1.5c.5,0,.8-.2.8-.6h0c0-.4-.3-.6-.8-.6h-.7v1.2Z"/><path class="cls-2" d="M66,8.9h.3v3H66Z"/><path class="cls-2" d="M67.8,9.2H67V8.9h2v.3h-.8v2.7h-.4Z"/><path class="cls-2" d="M70.3,8.9h.3l1.2,3h-.4l-.3-.8H69.7l-.3.8h-.3Zm.7,1.9-.6-1.5-.6,1.5Z"/><path class="cls-2" d="M72.4,8.9h.3v2.7h1.4v.3H72.4Z"/><path class="cls-2" d="M76,8.9h.9a1.4,1.4,0,0,1,1.4,1.5h0a1.4,1.4,0,0,1-1.4,1.5H76Zm.3.3v2.4h.6A1.1,1.1,0,0,0,78,10.4h0a1.1,1.1,0,0,0-1.1-1.2Z"/><path class="cls-2" d="M79,8.9h1.9v.3H79.4v1h1.4v.3H79.4v1.1h1.5v.3H79Z"/><path class="cls-1" d="M20.3,13.4H23c1.8,0,3,.9,3,2.6h0c0,1.8-1.3,2.6-3,2.7h-.7v2.1h-2Zm2.6,3.7c.7,0,1.2-.4,1.2-1h0A1.1,1.1,0,0,0,22.9,15h-.6v2.1Z"/><path class="cls-1" d="M27.6,17.9V13.4h2v4.5c0,.9.4,1.3,1.1,1.3s1.1-.4,1.1-1.3V13.4h2v4.4c0,2.2-1.2,3.1-3.1,3.1S27.6,20,27.6,17.9Z"/><path class="cls-1" d="M35.5,17.2h0a3.6,3.6,0,0,1,3.6-3.8,3.5,3.5,0,0,1,2.7,1.1l-1.3,1.3a2.1,2.1,0,0,0-1.4-.7c-.9,0-1.5.8-1.5,2.1h0c0,1.3.7,2.1,1.5,2.1a1.7,1.7,0,0,0,1.4-.8l1.3,1.3A3.5,3.5,0,0,1,39,20.9,3.5,3.5,0,0,1,35.5,17.2Z"/><path class="cls-1" d="M43.3,17.9V13.4h2v4.5a1.1,1.1,0,0,0,1.2,1.3c.6,0,1.1-.4,1.1-1.3V13.4h2v4.4c0,2.2-1.3,3.1-3.2,3.1A2.8,2.8,0,0,1,43.3,17.9Z"/><path class="cls-1" d="M51,19.8l1-1.4a3.6,3.6,0,0,0,2.1.9c.5,0,.8-.3.8-.6h0c0-.3-.2-.5-1.1-.8s-2.5-.9-2.5-2.3h0c0-1.4,1.1-2.3,2.7-2.3a4.5,4.5,0,0,1,2.8.9l-1,1.4a3.1,3.1,0,0,0-1.8-.7.7.7,0,0,0-.7.5h0c0,.4.2.5,1.2.9s2.4,1,2.4,2.3h0c0,1.4-1.2,2.3-2.8,2.3A4.4,4.4,0,0,1,51,19.8Z"/><path class="cls-1" d="M60.6,13.4h2l2.8,7.4H63.3l-.5-1.3H60.4L60,20.8H57.9ZM62.3,18l-.7-2.2L60.9,18Z"/><path class="cls-1" d="M66.8,13.4h1.9l2.5,3.7V13.4h2v7.4H71.4l-2.6-3.9v3.9h-2Z"/><path class="cls-1" d="M77.4,13.4h2l2.7,7.4H80l-.4-1.3H77.1l-.4,1.3h-2ZM79.1,18l-.8-2.2L77.6,18Z"/><path class="cls-3" d="M53.1,41.1l2.7.7c2-.9,4.1-1.7,5.5-1.4a19.4,19.4,0,0,1,4.4,1.9c1.9-.8,3.9-1.4,5.2-1.1s9.3,3,13.5,4.6V26.5H17.3v18a7.6,7.6,0,0,1,2.1-.3,125.1,125.1,0,0,1,15-.1l8.5.2C44.2,43.6,50.3,40.6,53.1,41.1Z"/><path class="cls-3" d="M53.1,41.1l2.7.7c2-.9,4.1-1.7,5.5-1.4a19.4,19.4,0,0,1,4.4,1.9c1.9-.8,3.9-1.4,5.2-1.1s9.3,3,13.5,4.6V26.5H17.3v18a7.6,7.6,0,0,1,2.1-.3,125.1,125.1,0,0,1,15-.1l8.5.2C44.2,43.6,50.3,40.6,53.1,41.1Z"/><rect class="cls-1" x="69.9" y="38.7" width="0.7" height="0.08"/><path class="cls-1" d="M70.6,38.7c0-.1-.2-.1-.3-.1s-.4,0-.4.1h.7Z"/><path class="cls-1" d="M14,23.4v43s.4,30,36.8,30.3S87.6,66.4,87.6,66.4v-43Zm71.5,43c0,1.1-.9,27.9-34.7,28.2h0c-33.7-.3-34.6-27.1-34.6-28.2V25.5H85.5Z"/><path class="cls-4" d="M51.4,93.5c32.1-.6,33-26,33-27.1v-10h-33Z"/><path class="cls-1" d="M51.5,34.8s2-2.7,6-.9c0,0,1.2-2.3,4.9-.5,0,0-3.1-.5-4.8,1A6.5,6.5,0,0,0,51.5,34.8Z"/><path class="cls-1" d="M60.7,31.7s1.7-1.7,4.2.1c0,0,1.1-1.4,3.3.3,0,0-2-.8-3.3,0A4.5,4.5,0,0,0,60.7,31.7Z"/><path class="cls-1" d="M54.5,30.9a2,2,0,0,1,2.6.1s.6-.9,2,.1a2.7,2.7,0,0,0-2,.1A2.9,2.9,0,0,0,54.5,30.9Z"/><rect class="cls-1" x="51.4" y="56.4" width="33" height="1.07"/><path class="cls-5" d="M26.8,69.7a3.9,3.9,0,0,1,0-2.6A1.6,1.6,0,0,0,26.8,69.7Z"/><path class="cls-5" d="M27.6,68.6l.2-.2a.2.2,0,0,0-.2-.2c-.2-.1-.3.1-.3.2S27.4,68.6,27.6,68.6Z"/><path class="cls-5" d="M41.6,78.2a1.6,1.6,0,0,0,0,2.6A3.9,3.9,0,0,1,41.6,78.2Z"/><path class="cls-5" d="M32,65.6v-.4a3.2,3.2,0,0,1,.1-1.7h0a1.7,1.7,0,0,0-.6,1.2,1.6,1.6,0,0,0,.6,1.4C32.1,65.8,32.1,65.7,32,65.6Z"/><path class="cls-5" d="M32.9,79.9l.2-.2c0-.2-.1-.3-.2-.3s-.2.2-.2.3A.2.2,0,0,0,32.9,79.9Z"/><path class="cls-5" d="M42.3,79.7a.2.2,0,1,0,0-.4l-.2.2Z"/><path class="cls-5" d="M27.6,75.9l.2-.2a.2.2,0,0,0-.2-.2c-.2,0-.3.1-.3.2S27.4,75.9,27.6,75.9Z"/><path class="cls-5" d="M32,80.2a3.7,3.7,0,0,1,.1-1.8h0a2.1,2.1,0,0,0-.6,1,1.8,1.8,0,0,0,.6,1.6C32.1,80.7,32,80.5,32,80.2Z"/><path class="cls-5" d="M26.8,77a3.9,3.9,0,0,1,0-2.6A1.6,1.6,0,0,0,26.8,77Z"/><path class="cls-5" d="M26.8,62.4a3.9,3.9,0,0,1,0-2.6A1.6,1.6,0,0,0,26.8,62.4Z"/><path class="cls-5" d="M37.6,68.5a.2.2,0,0,0,0-.4l-.2.2A.2.2,0,0,0,37.6,68.5Z"/><path class="cls-5" d="M41.6,70.7a1.5,1.5,0,0,0,0,2.5A3.6,3.6,0,0,1,41.6,70.7Z"/><path class="cls-5" d="M42.3,72.2c.1,0,.2-.1.2-.3a.2.2,0,0,0-.4,0Z"/><path class="cls-5" d="M41.5,65.9h0Z"/><path class="cls-5" d="M36.9,76.9a3.9,3.9,0,0,1,0-2.6A1.6,1.6,0,0,0,36.9,76.9Z"/><path class="cls-5" d="M42.3,64.9l.2-.2a.2.2,0,1,0-.4,0Z"/><path class="cls-5" d="M36.9,62.4a3.9,3.9,0,0,1,0-2.6A1.6,1.6,0,0,0,36.9,62.4Z"/><path class="cls-5" d="M27.6,61.3a.2.2,0,0,0,.2-.2c0-.2-.1-.3-.2-.3a.3.3,0,0,0-.3.3C27.3,61.2,27.4,61.3,27.6,61.3Z"/><path class="cls-5" d="M41.5,65.9c0-.2-.1-.5-.1-.8a4.3,4.3,0,0,1,.1-1.6h.1a1,1,0,0,0-.6.9,1.6,1.6,0,0,0,.4,1.6Z"/><path class="cls-5" d="M36.9,84.9a3.9,3.9,0,0,1,0-2.6A1.6,1.6,0,0,0,36.9,84.9Z"/><path class="cls-5" d="M46.3,67a1.6,1.6,0,0,0,0,2.6A3.9,3.9,0,0,1,46.3,67Z"/><path class="cls-5" d="M37.6,75.3c-.1,0-.2.1-.2.3a.2.2,0,0,0,.4,0C37.8,75.4,37.7,75.3,37.6,75.3Z"/><path class="cls-5" d="M47,68.1l-.2.2a.2.2,0,0,0,.2.2c.2,0,.3-.1.3-.2S47.2,68.1,47,68.1Z"/><path class="cls-5" d="M47,75.4l-.2.2c0,.2.1.3.2.3a.3.3,0,0,0,.3-.3C47.3,75.5,47.2,75.4,47,75.4Z"/><path class="cls-5" d="M32,72.5a3.7,3.7,0,0,1,.1-1.8h0a2.4,2.4,0,0,0-.6,1.1,1.7,1.7,0,0,0,.6,1.5C32.1,73,32,72.8,32,72.5Z"/><path class="cls-5" d="M46.3,59.8a1.6,1.6,0,0,0,0,2.6A3.9,3.9,0,0,1,46.3,59.8Z"/><path class="cls-5" d="M32.9,72.1l.2-.2a.2.2,0,0,0-.4,0C32.7,72.1,32.8,72.2,32.9,72.1Z"/><path class="cls-5" d="M17.3,56.4v9.9c0,1.1.8,26.5,32.8,27.2V56.4Zm13.4,4.5a2,2,0,0,1-.3-1.1h.1a3.8,3.8,0,0,1,1.5.9c0,.1.1.1.1,0a5.1,5.1,0,0,1,4.3-1H37A3.6,3.6,0,0,1,38.8,61c.1,0,.1.1,0,.1a4.4,4.4,0,0,1-3.1,1.5,4.8,4.8,0,0,1-3.6-1.1c0-.1-.1-.1-.1,0a1.8,1.8,0,0,1-.7.5l-.9.4a2.7,2.7,0,0,1,.3-1.2C30.8,61.1,30.7,61,30.7,60.9Zm4.7,18.5a2.3,2.3,0,0,1-.3-1.1c0-.1,0-.2.1-.1a2.5,2.5,0,0,1,1.4.8h.3A4.5,4.5,0,0,1,40,77.9a4.5,4.5,0,0,1,1.6.3,3.9,3.9,0,0,1,1.9,1.2c.1.1.1.1,0,.2a4.6,4.6,0,0,1-3.1,1.5A4.9,4.9,0,0,1,36.9,80h-.3a2.2,2.2,0,0,1-1.3.8c-.2.1-.2.1-.2-.1a2.3,2.3,0,0,1,.3-1.1C35.5,79.5,35.5,79.5,35.4,79.4Zm3.4-3.7a4.9,4.9,0,0,1-6.7.3h-.2a2.8,2.8,0,0,1-1.4.9c-.1,0-.1,0-.1-.1a2,2,0,0,1,.3-1.1.2.2,0,0,0,0-.3,2,2,0,0,1-.3-1.1h.1a2.8,2.8,0,0,1,1.4.9c.1.1.2.1.2,0A5.1,5.1,0,0,1,35.2,74h.7a5.1,5.1,0,0,1,2.9,1.5C38.9,75.5,38.9,75.6,38.8,75.7ZM26,71.8a2,2,0,0,1-.3-1.1c-.1-.1,0-.1.1-.1a3.4,3.4,0,0,1,1.4.9h.2a4.5,4.5,0,0,1,3.5-1.1,5.2,5.2,0,0,1,3.2,1.4V72a4.4,4.4,0,0,1-1.8,1.2h-.2l-1.2.2a4.9,4.9,0,0,1-3.5-1.1c-.1-.1-.1-.1-.2,0a3.4,3.4,0,0,1-1.4.9c-.1,0-.2,0-.1-.1a2,2,0,0,1,.3-1.1Zm0-7.2a2.6,2.6,0,0,1-.3-1.1c-.1-.2,0-.2.1-.2a3.4,3.4,0,0,1,1.4.9h.3a5.7,5.7,0,0,1,1.3-.8,4.6,4.6,0,0,1,2.6-.2.8.8,0,0,1,.7.2h.2a5.4,5.4,0,0,1,1.6,1c.3.3.4.2,0,.6a5,5,0,0,1-3.7,1.3,4.7,4.7,0,0,1-2.8-1.2h-.2a3.4,3.4,0,0,1-1.4.9c-.1.1-.2,0-.1-.1a2,2,0,0,1,.3-1.1Zm4.7,3.6a2,2,0,0,1-.3-1.1c0-.1,0-.2.1-.1a2.5,2.5,0,0,1,1.4.8h.3a4.3,4.3,0,0,1,3.1-1.2h.8a4.7,4.7,0,0,1,2.7,1.4c.1.1.1.1,0,.2l-.4.4a4.9,4.9,0,0,1-2.9,1.1,4.3,4.3,0,0,1-3.3-1.1h-.3a2.5,2.5,0,0,1-1.4.8c-.1.1-.1,0-.1-.1a2.3,2.3,0,0,1,.3-1.1C30.8,68.3,30.8,68.3,30.7,68.2Zm6.2,4.2a.2.2,0,0,0-.3,0,3,3,0,0,1-1.3.9c-.2,0-.2,0-.2-.2a2.3,2.3,0,0,1,.3-1.1c.1,0,.1-.1,0-.2a2,2,0,0,1-.3-1.1c0-.1,0-.1.1-.1a3.4,3.4,0,0,1,1.4.9h.3A5,5,0,0,1,40,70.3a4.5,4.5,0,0,1,1.6.3,4.7,4.7,0,0,1,1.9,1.2c.1.1.1.1,0,.2a4.6,4.6,0,0,1-3.1,1.5A4.9,4.9,0,0,1,36.9,72.4Zm0-7.3h-.3a2.2,2.2,0,0,1-1.4.9h-.1a2.3,2.3,0,0,1,.3-1.1c.1-.1.1-.1,0-.2a2.3,2.3,0,0,1-.3-1.1c0-.2,0-.2.2-.1a2.9,2.9,0,0,1,1.4.8h.2A4.9,4.9,0,0,1,40,63.1h.5a4.4,4.4,0,0,1,3,1.5c.1.1.1.1,0,.2a4.9,4.9,0,0,1-3.9,1.5A4.7,4.7,0,0,1,36.9,65.1ZM20.7,60.9a3.6,3.6,0,0,1-.4-1.1h.2a4.2,4.2,0,0,1,1.4.9c.1.1.1.1.2,0a4.8,4.8,0,0,1,4.2-1H27A3.3,3.3,0,0,1,28.7,61c.1,0,.1.1,0,.1a4.4,4.4,0,0,1-3,1.5,4.6,4.6,0,0,1-3.6-1.1c-.1-.1-.1-.1-.2,0l-.6.5-1,.4a2.8,2.8,0,0,1,.4-1.2Zm0,7.6v-.3a3.6,3.6,0,0,1-.4-1.1h.2a4.2,4.2,0,0,1,1.4.9h.2a4.8,4.8,0,0,1,4.2-1c.2,0,.4,0,.5.2H27a3.3,3.3,0,0,1,1.7,1.2c.1,0,.1.1,0,.2a4.7,4.7,0,0,1-3,1.4,4.3,4.3,0,0,1-3.6-1.1h-.2l-.6.5a1.8,1.8,0,0,1-1,.4A2.8,2.8,0,0,1,20.7,68.5Zm1.4,7.6h-.2l-.6.6a2.9,2.9,0,0,1-1,.3,2.8,2.8,0,0,1,.4-1.2v-.3a4.2,4.2,0,0,1-.4-1c0-.2.1-.2.2-.1a2.9,2.9,0,0,1,1.4.8h.2a4.8,4.8,0,0,1,4.2-1l.5.2H27a5.2,5.2,0,0,1,1.7,1.2c.1.1.1.1,0,.2a4.8,4.8,0,0,1-3,1.5A4.7,4.7,0,0,1,22.1,76.1Zm5.1,4a3.4,3.4,0,0,1-1.4.9c-.1,0-.2,0-.1-.1a2,2,0,0,1,.3-1.1v-.3a1.9,1.9,0,0,1-.3-1c-.1-.2,0-.2.1-.2a3.4,3.4,0,0,1,1.4.9h.2a4.9,4.9,0,0,1,3.5-1.1,4.8,4.8,0,0,1,3.2,1.5v.2a4.2,4.2,0,0,1-1.8,1.1h-.2l-1.2.2a4.9,4.9,0,0,1-3.5-1.1ZM32.1,84h-.2a1.9,1.9,0,0,1-1.4.9c-.1.1-.1,0-.1-.1a2.3,2.3,0,0,1,.3-1.1c.1-.1.1-.1,0-.2a2.3,2.3,0,0,1-.3-1.1c0-.1,0-.2.1-.1a1.9,1.9,0,0,1,1.4.9h.2A4.7,4.7,0,0,1,35.2,82h.7a5.1,5.1,0,0,1,2.9,1.5c.1.1.1.1,0,.2A4.9,4.9,0,0,1,32.1,84Zm11.4,3.5A4.6,4.6,0,0,1,40.4,89a4.9,4.9,0,0,1-3.5-1.1.2.2,0,0,0-.3,0,3,3,0,0,1-1.3.9c-.2,0-.2,0-.2-.2a2.6,2.6,0,0,1,.3-1.1c.1,0,.1-.1,0-.2a2,2,0,0,1-.3-1.1c0-.1,0-.1.1-.1a3.4,3.4,0,0,1,1.4.9h.3A5,5,0,0,1,40,85.8a9,9,0,0,1,1.6.3,6.2,6.2,0,0,1,1.9,1.2C43.6,87.4,43.6,87.5,43.5,87.5Zm4.7-3.9A4.8,4.8,0,0,1,45,85.1,4.7,4.7,0,0,1,41.6,84h-.2a2.8,2.8,0,0,1-1.5.8c-.1.1-.1,0-.1-.1a3.6,3.6,0,0,1,.4-1.1v-.2a2.1,2.1,0,0,1-.4-1.1c0-.2,0-.2.2-.1a2.9,2.9,0,0,1,1.4.8h.2a4.5,4.5,0,0,1,3.2-1.2,4.5,4.5,0,0,1,3.4,1.5C48.3,83.5,48.3,83.5,48.2,83.6Zm0-7.8A4.7,4.7,0,0,1,45,77.2a4.7,4.7,0,0,1-3.4-1.1h-.2a3.8,3.8,0,0,1-1.5.9h-.1a5.6,5.6,0,0,1,.4-1.2h0a2.8,2.8,0,0,1-.4-1.2c0-.1,0-.1.2-.1a4.2,4.2,0,0,1,1.4.9h.2A5,5,0,0,1,44.8,74a5.3,5.3,0,0,1,3.4,1.5A.2.2,0,0,1,48.2,75.8Zm0-7.4A4.8,4.8,0,0,1,45,69.9a4.7,4.7,0,0,1-3.4-1.1h-.2a2.8,2.8,0,0,1-1.5.8c-.1.1-.1.1-.1-.1a3.6,3.6,0,0,1,.4-1.1v-.2a2.1,2.1,0,0,1-.4-1.1c0-.2,0-.2.2-.1a2.4,2.4,0,0,1,1.4.9h.2a4.5,4.5,0,0,1,3.2-1.2,4.5,4.5,0,0,1,3.4,1.5C48.3,68.3,48.3,68.3,48.2,68.4Zm0-7.2A4.8,4.8,0,0,1,45,62.7a4.7,4.7,0,0,1-3.4-1.2h-.2a2.4,2.4,0,0,1-1.5.9c-.1.1-.1,0-.1-.1a3.6,3.6,0,0,1,.4-1.1V61a2.1,2.1,0,0,1-.4-1.1c0-.2,0-.2.2-.1a2.9,2.9,0,0,1,1.4.8c0,.1.1.1.2,0a5,5,0,0,1,3.2-1.1A4.5,4.5,0,0,1,48.2,61C48.3,61.1,48.3,61.1,48.2,61.2Z"/><path class="cls-5" d="M47,60.9a.2.2,0,0,0,0,.4c.2,0,.3-.1.3-.2S47.2,60.9,47,60.9Z"/><path class="cls-5" d="M41.6,86.2a1.5,1.5,0,0,0,0,2.5A3.6,3.6,0,0,1,41.6,86.2Z"/><path class="cls-5" d="M36.8,67a1.6,1.6,0,0,0,.1,2.6A4.6,4.6,0,0,1,36.8,67Z"/><path class="cls-5" d="M37.6,61.3a.2.2,0,0,0,.2-.2c0-.2-.1-.3-.2-.3s-.2.1-.2.3A.2.2,0,0,0,37.6,61.3Z"/><path class="cls-5" d="M37.6,83.4l-.2.2a.2.2,0,0,0,.4,0Z"/><path class="cls-5" d="M46.3,74.4a1.5,1.5,0,0,0,0,2.5A3.6,3.6,0,0,1,46.3,74.4Z"/><path class="cls-5" d="M42.3,87.2a.2.2,0,0,0-.2.2c0,.2.1.3.2.3s.2-.1.2-.3A.2.2,0,0,0,42.3,87.2Z"/><path class="cls-5" d="M47,83.3a.2.2,0,0,0,0,.4c.2,0,.3-.1.3-.2S47.2,83.3,47,83.3Z"/><path class="cls-5" d="M46.3,82.2a1.6,1.6,0,0,0,0,2.6A3.9,3.9,0,0,1,46.3,82.2Z"/><path class="cls-5" d="M32.9,64.9l.2-.2a.2.2,0,1,0-.2.2Z"/><path class="cls-4" d="M77.6,27.7h.2a.4.4,0,0,0-.1.3l.3.3h.1l.3.3a.8.8,0,0,1,.1.4.4.4,0,0,1-.1.3c0,.1,0,.1-.1.1h-.7l.2-.3a.6.6,0,0,0-.1-.4.5.5,0,0,1-.2-.4.2.2,0,0,1,0-.3A.4.4,0,0,1,77.6,27.7Z"/><path class="cls-4" d="M78.1,36.5h-.2a.4.4,0,0,0-.2-.5,1.3,1.3,0,0,1-.6-.7c0-.1.1-.2.1-.4H78c-.1.2-.2.3-.1.4s0,.3.1.4h.1a.6.6,0,0,1,.1.4h0A.4.4,0,0,1,78.1,36.5Z"/><path class="cls-4" d="M75.3,28.3h.2a.4.4,0,0,0,.1.3h.5l.5.2a.9.9,0,0,1,.3.6c0,.1,0,.1-.1.1l-.4.2h-.2v-.4a.2.2,0,0,0-.2-.2c0-.1-.1-.1-.2-.1a.8.8,0,0,1-.5-.5Z"/><path class="cls-4" d="M80,28.2h.1a.1.1,0,0,1-.1.1h0a.4.4,0,0,0-.1.3c0,.1.1.2.1.3h.1v.7h0c-.1.1-.2.1-.2.2h-.1l-.7-.4c.3-.1.6-.3.5-.7v-.3a.4.4,0,0,1,.1-.3Z"/><path class="cls-4" d="M75.7,36.1h-.1a.4.4,0,0,0,.1-.3c.1-.1,0-.2,0-.3a.8.8,0,0,1-.2-.5.4.4,0,0,1,.1-.3h0c.1,0,.1-.1.1-.2H76l.5.3h-.1c-.1.1-.2.1-.2.2s0,.3,0,.4,0,.3-.1.4v.2Z"/><path class="cls-4" d="M79.7,35.6h-.5l-.2-.2-.2-.2v-.2c0-.1,0-.1.1-.2h.6a.6.6,0,0,0,.3.6h.5a.6.6,0,0,1,.1.4V36h-.1C80.1,35.7,80,35.6,79.7,35.6Z"/><path class="cls-4" d="M80.3,33.4c.1,0,.1-.1.1,0l.3.3h.9c.2.1.3.2.3.4h0c0,.1,0,0-.1,0h-.1a.5.5,0,0,0-.5,0h-.4c-.1.1-.2.1-.4,0A.5.5,0,0,1,80,34h0A.9.9,0,0,0,80.3,33.4Z"/><path class="cls-4" d="M75.2,33.4l.2.3H75a.2.2,0,0,0-.2.2c-.1.1-.1.3-.3.4l-.5.2h-.2c0-.1,0-.1.1-.1H74l.2-.2a.8.8,0,0,0,.1-.4.5.5,0,0,1,.2-.4.7.7,0,0,1,.6-.4.4.4,0,0,0,.1.3Z"/><path class="cls-4" d="M75.6,30.2h0l-.2.3v.2h-.1v-.2h-.3c-.1-.1-.3,0-.4,0H74l-.2-.2a.3.3,0,0,0-.1-.2c0-.1-.1-.1,0-.2h.1c0,.1.1.1.2.1h.4l.4-.2h.4A.5.5,0,0,1,75.6,30.2Z"/><path class="cls-4" d="M81.7,29.7a.1.1,0,0,1,.1.1h-.1c-.2.1-.3.2-.3.4a.8.8,0,0,1-.1.4.8.8,0,0,1-.5.5.1.1,0,0,1-.1.1h-.3l-.2-.4h.2a.5.5,0,0,0,.5-.3.5.5,0,0,1,.2-.4h.6Z"/><path class="cls-4" d="M80.6,32.3c.1-.1,0-.2,0-.4h.6l.5-.3h.4l.4.2c.1.1.1.1,0,.1a.4.4,0,0,0-.6.2,1.8,1.8,0,0,1-.7.5h-.5c-.1,0-.1,0-.1-.1S80.7,32.4,80.6,32.3Z"/><path class="cls-4" d="M75,31.8a.8.8,0,0,0-.1.4h-.2c-.1-.1-.3,0-.4.1l-.3.2h-.8c0-.1-.1-.1-.1-.2h.5a.1.1,0,0,0,.1-.1c.1,0,.1-.2.2-.3H74l.6-.3h.1c.3,0,.3,0,.3.3Z"/><path class="cls-4" d="M80.3,32.2a2.5,2.5,0,1,1-2.5-2.5A2.5,2.5,0,0,1,80.3,32.2Z"/><path class="cls-1" d="M69.1,73l.2.2a5.9,5.9,0,0,1-2.2,3.5,12.6,12.6,0,0,1-5.6,1.6H59a14.2,14.2,0,0,0,4.8.8,7.2,7.2,0,0,0,5.5-2.1,6.7,6.7,0,0,0,1.2-1.6h0A3.5,3.5,0,0,0,69.1,73Z"/><path class="cls-5" d="M67.1,76.7a5.9,5.9,0,0,0,2.2-3.5l-.2-.2H69a.1.1,0,0,1-.1-.1h-.3a.1.1,0,0,0-.1-.1H68a.1.1,0,0,1-.1-.1h-.5a2.4,2.4,0,0,1,0,2.2c-.1.1-.1.3-.2.4l-.2.2a.5.5,0,0,1-.2.4l-.2.3a.2.2,0,0,0-.2.2l-.5.4h-.2c-.1.2-.2.3-.4.3s0,.1-.1.2l-.5.3h-.2l-.3.2H64l-.5.2h-2A12.6,12.6,0,0,0,67.1,76.7Z"/><path class="cls-1" d="M77.7,74a10.2,10.2,0,0,0-4.3-3.6,6.5,6.5,0,0,1-.9,5.5,11,11,0,0,1-8.7,3.4H64a7.9,7.9,0,0,0,6.2-2.6c.1-.3.4-.5.5-.8s-.4.5-.5.8A7.9,7.9,0,0,1,64,79.3a13.3,13.3,0,0,1-4.7-.7l-.3-.2a6.2,6.2,0,0,1-3.6-4.2A8.1,8.1,0,0,0,56.6,78c2.3,3.7,7.6,4.9,12.1,3.4s7.5-3.6,10.7-2A9.6,9.6,0,0,0,77.7,74Z"/><path class="cls-5" d="M64,79.3h-.2a11,11,0,0,0,8.7-3.4,6.5,6.5,0,0,0,.9-5.5h-.1l-.4-.2h-.2l-.6-.2H69.2c-.1,0-.1,0-.1.1a4.1,4.1,0,0,1,2.4,2.9V74a8.5,8.5,0,0,1-.6,1.7l-.2.2c-.1.3-.4.5-.5.8A7.9,7.9,0,0,1,64,79.3Z"/><path class="cls-6" d="M60.3,59.9h.1s.1-.1.1,0,.1,0,0,.1v.4a.6.6,0,0,0,.5.5h.1l.5.6a1.3,1.3,0,0,1,.1.6c0,.2-.1.3-.1.5H61c-.2-.1-.5,0-.7,0h0c.2-.1.2-.2.3-.4a1,1,0,0,0-.2-.7l-.3-.5c0-.2-.1-.4,0-.6S60.2,60.1,60.3,59.9Z"/><path class="cls-6" d="M61.1,73.6l-.2.2h-.1a.1.1,0,0,1-.1-.1c.1-.1.1-.1.1-.2a.7.7,0,0,0-.4-.8,1.6,1.6,0,0,1-.8-1,1.3,1.3,0,0,1,.1-.6h1c.1,0,.2-.1.2,0a1.1,1.1,0,0,0-.2.6c0,.2.1.3.3.5h0c.2.2.2.4.3.6h0Z"/><path class="cls-6" d="M56.8,61h0c0-.1,0-.1.1-.1s.1,0,.1.1a.5.5,0,0,0,.2.4.7.7,0,0,0,.6.2H58a1.3,1.3,0,0,1,.8.3,1.3,1.3,0,0,1,.5.9c0,.1-.2.1-.2.1l-.6.3h-.3a.9.9,0,0,0-.1-.5.3.3,0,0,0-.3-.3c0-.1-.1-.1-.2-.2a1.4,1.4,0,0,1-.8-.7A.6.6,0,0,1,56.8,61Z"/><path class="cls-6" d="M64.1,60.7h0a.1.1,0,0,0-.1.1.5.5,0,0,0-.1.6.5.5,0,0,0,.2.4v.2a1.3,1.3,0,0,1,.1.6v.4l-.2.2q0,.1-.3.3h-.1a3.3,3.3,0,0,0-1-.6c.5-.2.8-.5.7-1v-.5c.1-.2.1-.4.2-.5Z"/><path class="cls-6" d="M57.4,73h-.3c0-.1.1-.1.1-.2s.2-.2.2-.4,0-.3-.1-.5a1.4,1.4,0,0,1-.2-.7,1.3,1.3,0,0,1,.1-.6h0c.1-.1.2-.1.2-.2s.2-.2.4-.1l.8.5h-.1l-.4.4c-.1.2,0,.4,0,.6a1.3,1.3,0,0,1-.1.6l-.2.3Z"/><path class="cls-6" d="M63.5,72.2l-.7-.2-.3-.2-.3-.3v-.3c-.1-.2-.1-.3.1-.3l.6-.3h0l.3-.2h0v.2a.9.9,0,0,0,.5.8l.5.2.2.2a1.4,1.4,0,0,1,.2.6v.4a.1.1,0,0,1-.2,0C64.2,72.3,64,72.2,63.5,72.2Z"/><path class="cls-6" d="M64.5,68.8h.2a1,1,0,0,0,.4.5h.2c.2.1.4,0,.6,0l.6.2a.8.8,0,0,1,.5.5h0c0,.1.1.1,0,.2h-.1l-.3-.2a.6.6,0,0,0-.7.1l-.6.2h-.6a1,1,0,0,1-.7-.4c0-.1-.1-.1,0-.2A2.2,2.2,0,0,0,64.5,68.8Z"/><path class="cls-6" d="M56.7,68.8a.8.8,0,0,0,.2.4h-.7c-.1.1-.2.2-.2.3a.9.9,0,0,1-.4.6,1.6,1.6,0,0,1-.9.3h-.2c.1,0,.2,0,.2-.1s.3-.1.4-.3,0-.4.1-.6a1.9,1.9,0,0,1,.2-.7,1.4,1.4,0,0,1,1-.5l.2.5Z"/><path class="cls-6" d="M57.2,63.9h.1c0,.1-.1.1-.1.2l-.3.4c0,.1-.1.2-.2.3h-.1c0-.1-.1-.2-.2-.3l-.4-.2H54.7l-.3-.3c0-.1-.1-.2-.1-.3s-.1-.2,0-.2.1,0,.1.1l.3.2h.7l.6-.2h.6Z"/><path class="cls-6" d="M66.6,63.1h0a.5.5,0,0,0-.4.6,1.3,1.3,0,0,0-.1.6c-.2.4-.4.7-.8.8h-.2c-.3.1-.3.1-.4-.2h-.1c0-.2-.2-.4-.3-.6h.4a.6.6,0,0,0,.6-.5,2.1,2.1,0,0,1,.4-.6h.2Z"/><path class="cls-6" d="M65,67.1c.1-.2,0-.3,0-.5h.3a.7.7,0,0,0,.6.1l.7-.4h.6a.9.9,0,0,1,.7.3c.1.1.1.2-.1.2a.6.6,0,0,0-.9.3,3.9,3.9,0,0,1-1,.8h-.8c-.1,0-.2-.1-.1-.2Z"/><path class="cls-6" d="M56.2,66.4V67h-1l-.5.3a.7.7,0,0,1-.6.1l-.6-.2-.2-.2h.2a.5.5,0,0,0,.6-.1h.2l.3-.5h.1a1.3,1.3,0,0,1,1-.4h.2c.4,0,.4,0,.3.4Z"/><ellipse class="cls-6" cx="60.6" cy="66.9" rx="3.9" ry="3.7"/><path class="cls-5" d="M58.3,77.7h0A7.7,7.7,0,0,0,66,75.4a2.5,2.5,0,0,0-1.9-1.9C64.3,76.3,61.1,77.8,58.3,77.7Z"/><path class="cls-1" d="M70.9,41.2c-1.3-.3-3.3.3-5.2,1.1a19.4,19.4,0,0,0-4.4-1.9c-1.4-.3-3.5.5-5.5,1.4l-2.7-.7c-3.1-.6-10.5,3.3-10.5,3.3h2.6c2.9.1,5.9.2,8.8.5,10.3,1,20.2,4.7,30.4,5.3v2h0V45.8C80.2,44.2,73.3,41.7,70.9,41.2Z"/><rect class="cls-1" x="59.8" y="38.4" width="0.3" height="2.16"/><rect class="cls-1" x="59.9" y="38.4" width="0.3" height="1.39" transform="translate(20.9 99.1) rotate(-90)"/><polygon class="cls-1" points="70.7 40.3 69.8 40.3 69.6 41.3 70.9 41.3 70.7 40.3"/><rect class="cls-1" x="70" y="38.8" width="0.5" height="1.57"/><rect class="cls-6" x="70.1" y="40" width="0.4" height="0.29"/><rect class="cls-6" x="70.1" y="39.4" width="0.4" height="0.29"/><rect class="cls-6" x="70.1" y="38.8" width="0.4" height="0.29"/><rect class="cls-1" x="70.2" y="38.5" width="0.1" height="0.07"/><path class="cls-5" d="M23.2,45a4.4,4.4,0,0,1,.2-1C23.1,44.3,22.9,44.6,23.2,45Z"/><path class="cls-5" d="M42.1,54.4Z"/><path class="cls-5" d="M43.1,54.5H43l.3.2h0l1.1.2h0l-.3-.4Z"/><path class="cls-5" d="M46.4,54.3h-.6l1,.7h-.6l-.8-.5a.3.3,0,0,0-.1-.2h-.7a1,1,0,0,0,.5.4.3.3,0,0,1,.1.2h2.1v-.3C47.1,54.3,47,54.1,46.4,54.3Z"/><path class="cls-5" d="M19.9,44.2h-.5a7.6,7.6,0,0,0-2.1.3V45l1.9,1.3A12.9,12.9,0,0,0,19.9,44.2Z"/><path class="cls-5" d="M23,46.1c-.4.1-.4-.1-.4-.4a5.6,5.6,0,0,0-.9,2.1l1.3.7Z"/><path class="cls-5" d="M32.7,44.1h0Z"/><path class="cls-5" d="M29.5,46.8c0-.4,0-.7-.4-.9A5.6,5.6,0,0,0,27.5,48c-.2.3-.3.7-.5,1s-.2.2-.3.3a8.5,8.5,0,0,1,2.1-3.7,8.3,8.3,0,0,0-.9-1.6,6.7,6.7,0,0,0-2,0v.3l-.2-.3h-.8v.5H23.7a15.6,15.6,0,0,0-.3,4.3,43.7,43.7,0,0,0,6.7,2.8,12.6,12.6,0,0,0-.4-2.7A6.2,6.2,0,0,1,29.5,46.8Z"/><path class="cls-5" d="M24.5,44.2h-.6Z"/><path class="cls-5" d="M35.1,52.4h0l-.3.2h-.2l1.1.3h.1A2.3,2.3,0,0,1,35.1,52.4Z"/><path class="cls-5" d="M33.4,52h.1l.2-.2c.1,0,.1-.1.1-.2l-.7-.4h0a.1.1,0,0,0-.1.1h0a4.1,4.1,0,0,1,.1,1.1Z"/><path class="cls-5" d="M35.6,51.8l-.2.3h0l.5.6v-.2c0-.2,0-.4-.2-.5S35.6,51.9,35.6,51.8Z"/><path class="cls-5" d="M34.5,52.4l.3-.2a.1.1,0,0,1,.1-.1h-.1c-.1-.2-.3-.2-.4-.3h-.2L34,52c0,.1-.1.1-.2.2h-.1c-.1.1-.1.2-.2.2h0l.6.2Z"/><path class="cls-5" d="M34.1,51.2a.8.8,0,0,1,.4-.4h-.9a.1.1,0,0,0-.1.1Z"/><path class="cls-5" d="M34.4,51.4h.1l.6.4.2-.3h0l-.5-.5Z"/><path class="cls-5" d="M54,44.8c-2.9-.3-5.9-.4-8.8-.5H43.1l1.4.5a18.9,18.9,0,0,1,5.1,2.1l1.2.6.2.3c-.1,0-.3.1-.4,0l-2.2-1.2-3.2-1.3-.7-.2v.2l2.9,1.4,3.9,1.5.8.3h.3c.1,0,.1,0,.1.1h0l1.3.6h.2l1.4.7,1,.6a.7.7,0,0,1,.3.6c0,.1-.3.2-.5.2a5.5,5.5,0,0,1-2.8-.4l-1.1-.4a1.8,1.8,0,0,0,.7.5H53l.3.3h.2c.1.1.3.2.4.4a4.6,4.6,0,0,0,3.4,1h1.4c-.1.2-.1.2-1.2.2H56.2a.1.1,0,0,1,.1.1h0a.1.1,0,0,1,.1.1h0c.1,0,.1,0,.1.1h.2l.2.2H57a.1.1,0,0,1,.1.1h0l.3.2h.4c.1,0,.2,0,.2.1h.1l.3.2h.9a.1.1,0,0,0,.1.1h25V50.1C74.2,49.5,64.3,45.8,54,44.8Z"/><path class="cls-5" d="M36.3,51.5c0,.5.2.8.8,1.1S37.1,51.7,36.3,51.5Z"/><path class="cls-5" d="M37.8,48.4a10.4,10.4,0,0,0,.4-1l-1.2.4Z"/><path class="cls-5" d="M35.8,47.3h0l-.7-.5c.1.1.1.1.1.2h.2a.1.1,0,0,1,.1.1h.7a.1.1,0,0,1,.1-.1h.2l-.6-.5A.1.1,0,0,1,35.8,47.3Z"/><path class="cls-5" d="M36.1,48.8h.1a4.3,4.3,0,0,1-.1-.5h-.4a.6.6,0,0,0,.1.4h.3Z"/><path class="cls-5" d="M36.3,50.1c0-.3-.1-.6-.1-.9h-.3c.1.3.1.6.2.8Z"/><path class="cls-5" d="M36.3,50.5h-.1c.1.3.1.5.2.6A1.3,1.3,0,0,0,36.3,50.5Z"/><path class="cls-5" d="M36.6,48.7l.6-.3h-.7A.9.9,0,0,1,36.6,48.7Z"/><path class="cls-5" d="M36.7,49.1h-.1c0,.3.1.6.1.9l.8-.4h0a4.3,4.3,0,0,1,.1-.5h0c0-.1,0-.1-.1-.2Z"/><path class="cls-5" d="M37.4,50.1l-.7.3a2.5,2.5,0,0,1,.1.8h.3a1.9,1.9,0,0,1,.2-.8h0A.4.4,0,0,1,37.4,50.1Z"/><path class="cls-5" d="M42.7,49.5l-.6.6h.1c.2.1.4.1.6.3l.2-1Z"/><path class="cls-5" d="M41.5,49.8l.2.2.4-.5h-.6Z"/><path class="cls-5" d="M42,50.5h-.2c0,.1-.1.2-.2.3h-.1l1.1.6v-.6h-.1Z"/><path class="cls-5" d="M41.5,50.3h-.3l-.3-.3h0l-.6.2.9.6c0-.1,0-.1.1-.1S41.4,50.4,41.5,50.3Z"/><path class="cls-5" d="M33.9,45a3.1,3.1,0,0,1-.5-1H33A2.2,2.2,0,0,0,33.9,45Z"/><path class="cls-5" d="M37.2,46.9l-.5.2.3.3h.5Z"/><path class="cls-5" d="M36.3,47.3Z"/><path class="cls-5" d="M38.4,47l.3-1-1.2.7.4.4h.5Z"/><path class="cls-5" d="M36.4,46.3H36l.4.4.5-.3-.2-.3Z"/><path class="cls-5" d="M35.6,46.5h-.3l.3.3h0l.3.2H36Z"/><path class="cls-5" d="M37.5,45.7l-.4.3H37l.3.3,1.6-.9a.4.4,0,0,1,.1-.3h-.6l-.6.2h0Z"/><path class="cls-5" d="M36.8,45.7a.1.1,0,0,0,.1-.1h-.1Z"/><path class="cls-5" d="M35.3,46.1l-.5-.7a.4.4,0,0,1,.1-.3l-.3-.2-.3-.2h-.2a6,6,0,0,0,.9,1.3Z"/><path class="cls-5" d="M35.7,46h.8v-.2h-.6c-.1,0-.1,0-.1-.1h-.2a.1.1,0,0,1-.1-.1h-.1Z"/><path class="cls-5" d="M41.7,45.8c0,.3.1.6.1.8h.3c.7-.3.7-.3.5-1h0Z"/><path class="cls-5" d="M40.4,46.1H40a.4.4,0,0,1-.1.3.6.6,0,0,1-.1.4c0,.1-.1.3-.1.4h.8a2.7,2.7,0,0,0,0-.9Z"/><path class="cls-5" d="M40.9,45.6h.4v-.9h-.5a2.7,2.7,0,0,0,0,.9A.3.3,0,0,0,40.9,45.6Z"/><path class="cls-5" d="M39.4,46.7a.8.8,0,0,0,.1-.4h-.6v.5c-.1.1-.1.2-.1.4h.5A4.3,4.3,0,0,1,39.4,46.7Z"/><path class="cls-5" d="M39.6,45.4v-.7h-.1c-.1,0-.1,0-.1.1h-.1a.4.4,0,0,0-.1.3.1.1,0,0,0,.1.1.4.4,0,0,1-.1.3h.4Z"/><path class="cls-5" d="M41.7,44.6v.8l.7-.3-.2-.3-.3-.2Z"/><path class="cls-5" d="M40,44.6v1.1h.5c-.1-.1-.1-.1-.1-.2s-.1-.6-.1-.9H40Z"/><path class="cls-5" d="M40.9,46a2.8,2.8,0,0,1,.1.9h.4c0-.3-.1-.6-.1-.9Z"/><path class="cls-5" d="M43,48.4v-.5h-.1l-.6.3a3,3,0,0,1,.2,1h.2c.1,0,.4-.2.4-.3A4.3,4.3,0,0,0,43,48.4Z"/><path class="cls-5" d="M41.9,48.4l-.8.3v.7H42A.9.9,0,0,0,41.9,48.4Z"/><path class="cls-5" d="M39.9,48.4h.8v-1h-.9A2.9,2.9,0,0,1,39.9,48.4Z"/><path class="cls-5" d="M41.1,48.3l.7-.3h0c-.1-.2-.1-.3-.2-.4s-.1-.3-.1-.5l-.5.2h0Z"/><path class="cls-5" d="M39.6,49.3c-.1,0-.1-.1-.1-.2v-.3h-1l.3.2h.1l.4.3.3.2Z"/><path class="cls-5" d="M40.7,48.8h-.8V49c0,.1.1.2.1.3s.1.3,0,.5h.2l.6-.3h0Z"/><path class="cls-5" d="M39.3,47.6H39c-.6,0-.6.4-.7.7h1.2C39.4,48.1,39.4,47.8,39.3,47.6Z"/><path class="cls-5" d="M42.2,47.8h0l.6-.2H43a.6.6,0,0,0-.1-.4.3.3,0,0,1-.1-.2c0-.1.1-.1.1-.2h-.2l-.6.3c-.1,0-.2,0-.2.1a4.3,4.3,0,0,1,.1.5Z"/><path class="cls-5" d="M36.2,44.9h-.5l.2.2c0,.1.1.1.1.2h.6Z"/><path class="cls-5" d="M35.3,45c0-.1-.1-.2-.1-.3h-.1l-.4-.2H35l.4.3C35.4,45,35.4,45,35.3,45Z"/><path class="cls-5" d="M35,44.1h0Z"/><path class="cls-5" d="M37.4,44.3h0Z"/><path class="cls-5" d="M35.5,44.4h.6v-.2h-.6Z"/><path class="cls-5" d="M36.5,44.3H37v-.2h-.5Z"/><path class="cls-5" d="M34.2,44.1h-.1l.2.2h-.1Z"/><path class="cls-5" d="M37.3,44.7h-.7c.1.2.2.4.4.4a.1.1,0,0,0,.1.1h.3c.1,0,.1,0,.1-.1H38l-.5-.2Z"/><path class="cls-5" d="M37.9,44.5l.5.2h.1l.3-.2-.2-.2h0c0-.1-.1-.1-.1-.2A.9.9,0,0,1,37.9,44.5Z"/><path class="cls-5" d="M47,48.7h.1c0,.1.2.2.3.2h1.9l-.7-.5h0A5.3,5.3,0,0,1,47,48.7Z"/><path class="cls-5" d="M46.4,46.8h-.2l-.5.2.4.6,1.3-.2Z"/><path class="cls-5" d="M45.5,46.6h0Z"/><path class="cls-5" d="M46.7,48.4l1.5-.4h0l-.4-.3h0l-1.4.2Z"/><path class="cls-5" d="M49.1,49.5h-.2Z"/><path class="cls-5" d="M48.1,49.7h.5c0-.1-.1-.1-.1-.2s-.1-.1,0-.2H47.4l.4.5a.1.1,0,0,1,.1-.1Z"/><path class="cls-5" d="M50.4,50h-1l.3.4h1.5l-.4-.3-.2-.2A.2.2,0,0,1,50.4,50Z"/><path class="cls-5" d="M50.4,51.1h1.9l-.6-.5H50Z"/><path class="cls-5" d="M53.8,52.4l-.9-.8h-2l.7.4a.3.3,0,0,1,.1.2h.4l1.9.5C54,52.5,53.9,52.5,53.8,52.4Z"/><path class="cls-5" d="M49,50.3h.1l-.2-.3h-.8v.2h.1Z"/><path class="cls-5" d="M50.2,51.5h-.9l.3.3h1.5l-.9-.7Z"/><path class="cls-5" d="M49.9,51.2l-.4-.5h-.9l.4.6.7-.2Z"/><path class="cls-5" d="M53.8,53.5l-.6-.4a.2.2,0,0,1-.1-.3h0l-1.5-.3h0l1,.9Z"/><path class="cls-5" d="M52.4,53.8l-.9-.2h0l.8.6h.6Z"/><path class="cls-5" d="M50.8,53.1l1.1.2-.7-.6a.2.2,0,0,1,0-.3H51a1.4,1.4,0,0,0-.9.1l.4.3.3.3Z"/><path class="cls-5" d="M53.6,54.3h1.1l-.3-.3H53.3Z"/><path class="cls-5" d="M55.5,53.5h-.3l-.8-.3h-.8a2.4,2.4,0,0,1,.9.6Z"/><path class="cls-5" d="M57.1,54.3h0a2.7,2.7,0,0,1-1.2.3l.6.3h.3c.1,0,.1.1.1.2h-.8l-.6-.3-.3-.3h-1l.8.5h-.8l-.7-.5H53l.8.6h5.1l-.9-.5h0Z"/><path class="cls-5" d="M55.3,54.2h1.3l-.4-.3h-.9Z"/><path class="cls-5" d="M50,53.3h.3a.8.8,0,0,0-.4-.4c-.2-.2-.3-.2-.5,0a.1.1,0,0,0-.1.1Z"/><path class="cls-5" d="M50.3,53.6l.9.7h.4l-1-.8h0Z"/><path class="cls-5" d="M48,53.9a.1.1,0,0,1-.1-.1l-.5.3.5.2.4.2h0l.4-.3Z"/><path class="cls-5" d="M49.1,53.9l.5-.3h0l-.6-.4h0l-.7.4a2,2,0,0,0,.8.4Z"/><path class="cls-5" d="M49.2,54.9l.5-.2-.6-.3-.4.3h.5Z"/><path class="cls-5" d="M51.8,54.5h-.2l.6.6h-.6l-.5-.4h-.3l.5.3h1.9l-.9-.6h-.5Z"/><path class="cls-5" d="M49.8,53.9l-.3.2.8.5.5-.2-.8-.6Z"/><path class="cls-5" d="M49.1,55.1h-.8a.1.1,0,0,1-.1-.1l-.7-.3a2.5,2.5,0,0,1,.2.7h1.4Z"/><path class="cls-5" d="M45.7,47.6l-.4-.5h-.8v.4Z"/><path class="cls-5" d="M44.1,46.5l.2.3H45c-.1-.1-.2-.2-.2-.3l-.7-.2Z"/><path class="cls-5" d="M44.9,48c0,.1.1.1.1.2v.2h1.2c0-.1-.1-.2-.2-.3H44.9Z"/><path class="cls-5" d="M45.9,48.8h-.6c.1.1.1.3.2.4s.3.3.6.2l.8-.3-.3-.3h-.7Z"/><path class="cls-5" d="M43.7,47.9h-.4v.5h1.4c-.1-.1-.1-.3-.2-.4Z"/><path class="cls-5" d="M43.7,47.5h.6l-.2-.3h-.8v.3Z"/><path class="cls-5" d="M43.8,46.5c-.1-.1-.3-.2-.4-.1s-.2.2-.2.3h.7A.4.4,0,0,1,43.8,46.5Z"/><path class="cls-5" d="M43.4,48.7v.2c0,.1.1.3.2.3a7.4,7.4,0,0,0,1.7.3,4.3,4.3,0,0,1-.4-.7Z"/><path class="cls-5" d="M44.2,45.8l-1-.9C43.6,45.8,43.8,45.9,44.2,45.8Z"/><path class="cls-5" d="M50.7,48.4l-.3-.2h.3Z"/><path class="cls-5" d="M52.6,49.7l1.1.4h0v-.2a.4.4,0,0,1-.1-.3L52.3,49h0c.1.2.1.4.2.5S52.6,49.6,52.6,49.7Z"/><path class="cls-5" d="M54.9,51.1h1l-1.3-.4Z"/><path class="cls-5" d="M52,50.1a.1.1,0,0,1,.1.1l.5.3c-.1-.2-.2-.3-.2-.4a.1.1,0,0,1-.1-.1l-.5-.2C51.9,49.9,52,50,52,50.1Z"/><path class="cls-5" d="M53.6,50.4l-.6-.2.4.4h.2l.7.3h0l-.3-.5Z"/><path class="cls-5" d="M48.6,47.8h.1l1.2.4h-.1l-1.9-.7Z"/><path class="cls-5" d="M52,49.5c0-.2-.1-.4-.1-.6h-1l.3.4Z"/><path class="cls-5" d="M54.3,50.3l1.6.5h0l-.9-.5h0l-.9-.4C54.2,50,54.2,50.1,54.3,50.3Z"/><path class="cls-5" d="M50.4,48.9h-.2l-.8-.2h.1a.1.1,0,0,0,.1.1h0Z"/><path class="cls-5" d="M50.8,49.5h.3c-.1,0-.1,0-.1-.1Z"/><path class="cls-5" d="M43.3,46a1,1,0,0,0-.5-.8l.3.9Z"/><path class="cls-5" d="M38.8,44.2H39a.1.1,0,0,0,.1.1h0a.1.1,0,0,1,.1.1h.4l-.3-.2Z"/><path class="cls-5" d="M40.1,44.2h0Z"/><path class="cls-5" d="M38,51.1c-.1.1-.2.2-.2.3h.3Z"/><path class="cls-5" d="M37.9,50.4a.3.3,0,0,1,.1-.2l-.3-.2v.4h.3Z"/><path class="cls-5" d="M37.6,50.8V51a.3.3,0,0,0,.1-.2Z"/><path class="cls-5" d="M37.8,49.6l.4.3.3-.5-.6-.5v.7Z"/><path class="cls-5" d="M38.8,50.3l.4.2.4-.4h0l-.7-.4-.3.5A.2.2,0,0,1,38.8,50.3Z"/><path class="cls-5" d="M38.4,50.4l-.2.2h0l.3.3h0l.3-.2h0c-.1-.1-.1-.2-.2-.2S38.4,50.5,38.4,50.4Z"/><path class="cls-5" d="M38.4,51.5V52H39a1.9,1.9,0,0,0-.2-.7h-.4Z"/><path class="cls-5" d="M38,52.4h.1Z"/><path class="cls-5" d="M38.1,53.1h-.5a.1.1,0,0,1,.1.1H38a.1.1,0,0,0,.1.1h0Z"/><path class="cls-5" d="M39,53.1h-.5v.4H39v-.3Z"/><path class="cls-5" d="M39.6,53.1h-.2v.4h.2v-.5Z"/><path class="cls-5" d="M40.5,53.2h-.4v.5h.3A1.3,1.3,0,0,1,40.5,53.2Z"/><path class="cls-5" d="M41.7,52.9H42l.2-.5h0l-.4-.2C41.8,52.5,41.7,52.7,41.7,52.9Z"/><path class="cls-5" d="M41.9,51.9l.4.2h0a.1.1,0,0,0-.1-.1H42A.4.4,0,0,1,41.9,51.9Z"/><path class="cls-5" d="M41,53.6c0-.1.1-.2.1-.3h-.2a1.3,1.3,0,0,0-.1.6h.1a.4.4,0,0,1,.1-.3Z"/><path class="cls-5" d="M41.2,51.1a1.7,1.7,0,0,1-.1.7h.4a.6.6,0,0,0,.1-.4h0l-.4-.3Z"/><path class="cls-5" d="M39.5,50.8l-.2.2c-.1,0-.1,0-.1-.1h0a2.9,2.9,0,0,1,.2.9h.3a5.6,5.6,0,0,0,0-1.3h0c-.1,0-.1,0-.1.1h-.1Z"/><path class="cls-5" d="M40.2,51.8h.5a2.7,2.7,0,0,0,0-.9h0l-.2-.2h-.4C40.1,50.9,40.2,51.3,40.2,51.8Z"/><path class="cls-5" d="M38,51.7h-.5v.3H38Z"/><path class="cls-5" d="M40.1,52.3v.5h.4c0-.1.1-.2.1-.3v-.3h-.5Z"/><path class="cls-5" d="M41.1,52.2a.8.8,0,0,0-.1.4c0,.1,0,.2-.1.2h.3a1.9,1.9,0,0,0,.2-.7Z"/><path class="cls-5" d="M41.5,53.3c0,.1-.1.3-.1.4h0a.3.3,0,0,0-.1.2h.1c.1,0,.3-.1.3-.2l.2-.5Z"/><path class="cls-5" d="M38.4,52.4v.3H39v-.4Z"/><path class="cls-5" d="M39.5,52.7h.2v-.3h-.2Z"/><path class="cls-5" d="M40.4,54.2h-.3v.2Z"/><path class="cls-5" d="M40.8,54.2h0Z"/><path class="cls-5" d="M39.6,53.9h0v-.2Z"/><path class="cls-5" d="M41.2,54.4h0Z"/><path class="cls-5" d="M39,53.8h-.2v.2H39Z"/><path class="cls-5" d="M36.2,52.7h0V53a.3.3,0,0,1-.1.2h0l.9.3h.2v-.2l-1-.9Z"/><path class="cls-5" d="M46.9,50h.5c0-.1,0-.1-.1-.1h-.7Z"/><path class="cls-5" d="M46.5,50.1l-.3-.4h0l-.4.2.2.4Z"/><path class="cls-5" d="M47.5,50.4H47c.1.2.2.3.2.5l.8-.3-.3-.3h-.2Z"/><path class="cls-5" d="M46.4,51.1h.4l-.2-.5h-.5l.2.5A.1.1,0,0,1,46.4,51.1Z"/><path class="cls-5" d="M47.5,52.4l-.4.3h0c0,.1,0,.2-.1.2l.3.7.7-.4Z"/><path class="cls-5" d="M48.9,51.8l-.6.2-.5.2.5.9h0l.5-.3.4-.3c.1,0,.1-.3,0-.4Z"/><path class="cls-5" d="M47.6,51.9l.5-.3h.6l-.4-.4-1,.3Z"/><path class="cls-5" d="M47.3,52.1l-.4-.7h-.3a.1.1,0,0,0-.1.1l.3.9Z"/><path class="cls-5" d="M45.1,53.3l-.4.4,1.1.3h.5l-.7-.4Z"/><path class="cls-5" d="M42.9,53.4H43l-.6-.3v.2L42,54h.5Z"/><path class="cls-5" d="M43.8,54.1c.1-.1.2-.2.2-.3l-.7-.2h0a1,1,0,0,0-.4.5h.9Z"/><path class="cls-5" d="M43.7,53.1a.1.1,0,0,0-.1.1l.7.3c.2-.1.3-.3.4-.4l-.8-.5Z"/><path class="cls-5" d="M44.5,54l-.3.2H45Z"/><path class="cls-5" d="M43.3,52.9c.1-.2.2-.3.2-.5l-.7-.3-.3.6h0l.7.4C43.2,53,43.3,53,43.3,52.9Z"/><path class="cls-5" d="M46.3,52.8l-.4-.2h-.1l.3.8h0l.7.3h.1c-.1-.2-.1-.5-.2-.7A.5.5,0,0,1,46.3,52.8Z"/><path class="cls-5" d="M44.2,49.7H44c-.5-.2-.7-.1-.8.4a.6.6,0,0,1-.1.4h1.1A1.4,1.4,0,0,1,44.2,49.7Z"/><path class="cls-5" d="M43.8,52.2l.5.3v-.6h-.4l-.9-.2h.1l.6.4Z"/><path class="cls-5" d="M44.1,51H43v.3l.9.2h.4a.9.9,0,0,1-.1-.5Z"/><path class="cls-5" d="M45.5,51.4a1.4,1.4,0,0,0,.2.6l.4.3.4.2h0l-.3-.7h0Z"/><path class="cls-5" d="M45.4,52.7c0-.2,0-.3-.1-.4l-.6-.3h0v.6h.2a.1.1,0,0,0,.1.1h.3l.2.2h.1Z"/><path class="cls-5" d="M44.6,51.1c.1.1.1.2.1.4h.4a4.3,4.3,0,0,1-.1-.5Z"/><path class="cls-5" d="M44.6,50.7h.3a2.8,2.8,0,0,1-.1-.9h-.2A2.7,2.7,0,0,0,44.6,50.7Z"/><path class="cls-5" d="M46,51.2a11.7,11.7,0,0,0-.5-1.1h-.3c0,.3.1.7.1,1Z"/><path class="cls-5" d="M33.2,50.1l-.2-.2h-.2v.6h.3Z"/><path class="cls-5" d="M33.7,50.2l.2.2h.2l-.2-.2h-.2Z"/><path class="cls-5" d="M32.7,48.5h-.1a.1.1,0,0,0,.1-.1Z"/><path class="cls-5" d="M32.8,49.1l.3.4h.2l.2.2h.1l-.5-.7H33l-.2.2Z"/><path class="cls-5" d="M33.4,50.4a.1.1,0,0,1-.1.1h.2A.1.1,0,0,1,33.4,50.4Z"/><path class="cls-5" d="M34.8,50c.1,0,.1-.1.2-.2l-.5-.6-.3.5h0c0,.1.1.2.2.3h0a.2.2,0,0,1,.2.2h.1C34.7,50.1,34.8,50.1,34.8,50Z"/><path class="cls-5" d="M35.7,50.1h0a.9.9,0,0,0-.1-.5h0c0,.1,0,.1-.1.2Z"/><path class="cls-5" d="M33.5,47.8a2.5,2.5,0,0,0-.2.7v.2h0l.3.4.3.4h0a2.5,2.5,0,0,1,.4-.7Z"/><path class="cls-5" d="M32.4,46.7a.3.3,0,0,1,.1-.2v.2Z"/><path class="cls-5" d="M33.8,47.5l.7.9.4-.7h0l-.3-.5h-.1l-.3-.5h0l-.4.7Z"/><path class="cls-5" d="M32.7,46l.3-.8h0l-.6-.8v1.5h.1Z"/><path class="cls-5" d="M34.7,48.8l.5.6a.5.5,0,0,0,.2-.4h0c0-.1-.1-.2-.1-.4h0l-.2-.4A2.5,2.5,0,0,1,34.7,48.8Z"/><path class="cls-5" d="M32.7,47.8h0l.2.3a2.5,2.5,0,0,1,.4-.7l-.5-.6a.8.8,0,0,0-.2.5h0v.3Z"/><path class="cls-5" d="M35.3,50.1v.2c-.1,0-.1.1-.2.2h.7Z"/><path class="cls-5" d="M33,46.4l.5.7a3,3,0,0,0,.4-.8l-.4-.5-.2-.3Z"/><path class="cls-1" d="M45.6,55.2h-.4a.3.3,0,0,0-.1-.2,1,1,0,0,1-.5-.4h.7a.3.3,0,0,1,.1.2l.8.5h.6l-1-.7h.6c.6-.2.7,0,.9.5a.6.6,0,0,0,.1.4h.3a2.5,2.5,0,0,0-.2-.7l.7.3a.1.1,0,0,0,.1.1h1.6c0-.1,0-.1-.1-.1h1.5l-.5-.3h.3l.5.4h.6l-.6-.6h.7l.9.6h.6l-.8-.6h.5l.7.5H55l-.8-.5h1l.3.3.6.3h.8c0-.1,0-.2-.1-.2h-.3l-.6-.3a2.7,2.7,0,0,0,1.2-.3h0l1.8.9h.7L57.1,54a.1.1,0,0,0-.1-.1l-.8-.5h1.3c1.1,0,1.1,0,1.2-.2H57.3a4.6,4.6,0,0,1-3.4-1l-.9-.8h-.1a1.8,1.8,0,0,1-.7-.5l1.1.4a5.5,5.5,0,0,0,2.8.4c.2,0,.5-.1.5-.2a.7.7,0,0,0-.3-.6l-1-.6-1.4-.7h-.2l-1.3-.6c0-.1,0-.1-.1-.1H52l-.8-.3-3.9-1.5-2.9-1.4v-.2l.7.2,3.2,1.3,2.2,1.2c.1.1.3,0,.4,0l-.2-.3-1.2-.6a18.9,18.9,0,0,0-5.1-2.1l-1.4-.5-.8-.5c-.1-.1-.3-.3-.3-.4a1,1,0,0,0-.6-.9l-1.6-1.4-1-1.2a20.9,20.9,0,0,1-2-2.2l-1.4-1.5a.4.4,0,0,1-.1-.3,1.9,1.9,0,0,0-.5-1.6,2.8,2.8,0,0,1-.1-.9c-.1-.3.1-.3.4-.3a.3.3,0,0,0,.1-.2c.1-.1.1-.3.2-.4l1-1.3.4-.3c.6-.1.9-.5.6-1.1s-.2-.2-.1-.3-.4-1-.8-1.3a3.7,3.7,0,0,0-2.5-.5,1.3,1.3,0,0,0-1.2.5,8.6,8.6,0,0,0-.7,1c-.2.2-.2.4-.6.2l-2.3-1.1a5.1,5.1,0,0,0-1.7-.3l-2.9.2-2.3.7c-.5.1-.6.6-.4,1.1a3.5,3.5,0,0,0,.5,1.3l1.3,1.9c.1.1.1.4.1.5s-.9,1.1-1.4,1.5-.4.1-.7.2h-.3l.4.3a.8.8,0,0,0-.4.4c-.1.1-.2.3-.1.4a1,1,0,0,1-.9,1.4,2.7,2.7,0,0,1-.9,0c-.9-.1-1.4.2-1.4,1a4.8,4.8,0,0,0,0,1.2,1.6,1.6,0,0,0,.5.9l1.7.5c-.1.7-.2,1.7-.4,2.6h0a12.9,12.9,0,0,1-.7,2.1L17.3,45V55.2H45.6ZM20.4,40.7a1,1,0,0,1-.5.4,1.1,1.1,0,0,1-1.1-.2,2.3,2.3,0,0,1-.2-2.4l.6-.2h1.6A22.3,22.3,0,0,0,20.4,40.7Zm12,6v-.2A.3.3,0,0,0,32.4,46.7Zm0-.9V44.3l.6.8h0l-.3.8-.2-.2Zm.9-3v.4c0-.1,0-.1-.1-.1a6.1,6.1,0,0,1-.9-1.8l1,1.3h-.1C33.2,42.7,33.2,42.8,33.3,42.8Zm-.5.2a.1.1,0,0,0-.1.1c-.1.1,0,.2.1.3H33l.4.5a3.1,3.1,0,0,0,.5,1,2.2,2.2,0,0,1-.9-1,6,6,0,0,1-.9-2.2A7.5,7.5,0,0,0,32.8,43Zm5.7,1.2.3.4-.3.2h-.1l-.5-.2A.9.9,0,0,0,38.5,44.2Zm-.3-.7h.3l.2.3h-.2Zm.9.5.5.4c-.2.1-.4.2-.6-.1h.1Zm-.1-.7h.2Zm-.1,5.9h0l-.4-.3h1v.3c0,.1,0,.2.1.2v.4Zm.7.9h0l-.4.4-.4-.2a.2.2,0,0,0-.2-.2l.3-.5Zm-6,.7h.9a.8.8,0,0,0-.4.4l-.6-.3A.1.1,0,0,1,33.6,50.8Zm-.4-.2h.1a.1.1,0,0,1,.2,0Zm.1-2.1a2.5,2.5,0,0,1,.2-.7l.8,1a2.5,2.5,0,0,0-.4.7l-.6-.8h0Zm1.4.3a2.5,2.5,0,0,0,.4-.7l.3.8h0a.5.5,0,0,1-.2.4Zm.3,1c-.1.1-.1.2-.2.2s-.1.1-.1.2h-.1l-.4-.5h0l.3-.5Zm-.5-1.4-.7-.9h0l.4-.7.7,1Zm-1-1.3-.5-.7.3-.9.2.3.4.5A3,3,0,0,1,33.5,47.1Zm.6,3.2h-.2l-.2-.2h.2Zm.7.7.5.5-.2.3-.6-.4h-.1Zm.2-.5h0c.1-.1.1-.2.2-.2v-.2l.4.6h0Zm.5-.7c.1-.1.1-.1.1-.2a.9.9,0,0,1,.1.5Zm.2-1.3.4-.2a4.3,4.3,0,0,0,.1.5h-.4A.6.6,0,0,1,35.7,48.5Zm.5-.4c-.4.1-.6-.1-1.1-1.3l.7.5h0a.1.1,0,0,0,.1.1l.6.5h-.2A.1.1,0,0,0,36.2,48.1Zm3.1-2.7a.1.1,0,0,1-.1-.1.4.4,0,0,1,.1-.3q0-.2.3-.3v1.1h-.4A.4.4,0,0,0,39.3,45.4Zm.3.8h-.1a.8.8,0,0,1-.1.4,4.3,4.3,0,0,0-.1.5h-.5c0-.3.1-.6.1-.9Zm-1.3,2c.1-.3.1-.7.7-.7h.3c.1.2.1.5.2.8H38.2C38.2,48.3,38.2,48.2,38.3,48.2Zm-.2-1.1h-.2l-.4-.4,1.2-.7-.3,1Zm.8-1.7-1.6.9L37,46h.1l.4-.3.3-.2h0l1.2-.3A.4.4,0,0,0,38.9,45.4Zm-1.7,1.5.3.4H37l-.3-.3Zm0,1.5-.6.3a.9.9,0,0,0-.1-.5h.2Zm-.3-1.9-.5.3-.4-.4h.7Zm-.1-.9h.1a.1.1,0,0,1-.1.1Zm-.5,1.7ZM36,47h-.1l-.6-.5h.3Zm.3,3.5a1.3,1.3,0,0,1,.1.6c-.1-.1-.1-.3-.2-.6Zm0,1c.8.2.9.2.8,1.1S36.3,52,36.3,51.5Zm.3-2.4h.1l.8-.4a.6.6,0,0,1,.1.4,4.3,4.3,0,0,0-.1.5h0l-.8.4C36.7,49.7,36.6,49.4,36.6,49.1Zm1,1.7h0a.3.3,0,0,1-.1.2Zm-.6-3,1.2-.4a10.4,10.4,0,0,1-.4,1Zm.7,2.2.3.2a.3.3,0,0,0-.1.2h-.3Zm.1-.4h0v-.7l.6.5-.3.5Zm-.3-5.4h-.1v-.4a.8.8,0,0,1,.8.1Zm0,.6.5.2h-.5c0,.1,0,.1-.1.1h-.3a.1.1,0,0,1-.1-.1c-.2,0-.3-.2-.4-.4h.9Zm-.5-.5h-.5v-.2h.4a.4.4,0,0,1,.1.3Zm-.4,1.1H36c0-.1-.1-.1-.1-.2l-.2-.2h.5Zm-.8-1h-.3v-.3h.6v.2Zm.6,1.3h0v.2h-.8l-.4-.6A3.5,3.5,0,0,0,36.4,45.7Zm-1.7-1.1h0l.4.2h.1c0,.1.1.2.1.3s.1,0,.1.1Zm0-.6c-.1-.1-.1-.1-.1-.2l.4.2v.2Zm.2,1.1a.4.4,0,0,0-.1.3l.5.7H35a6,6,0,0,1-.9-1.3h.2Zm-.8-1h.2Zm.1-.5h0l-.4-.3c0-.1-.1-.2-.1-.3h.2l.3.4Zm-1.6,3.8a.8.8,0,0,1,.2-.5l.5.6a2.5,2.5,0,0,0-.4.7,1.9,1.9,0,0,1-.3-.8Zm0,1.3h.1A.1.1,0,0,1,32.6,48.7Zm.2.4.2-.2.6.8h-.1l-.2-.2h-.2l-.3-.4Zm0,.6H33l.2.2h-.3Zm.3,2.7a4.1,4.1,0,0,0-.1-1.1h0a.1.1,0,0,1,.1-.1h0l.7.4c0,.1,0,.2-.1.2l-.2.2h-.1Zm1,.3-.6-.2c.1,0,.1-.1.2-.2h.1c.1-.1.2-.1.2-.2l.2-.3h.2c.1.1.3.1.4.3h.1a.1.1,0,0,0-.1.1l-.3.2Zm1.6.4-1.1-.3h.2l.3-.2h0a2.3,2.3,0,0,0,.7.7Zm.2-.4-.5-.6h0l.2-.3c0,.1.1.1.1.2s.2.3.2.5Zm0-3.4h.3c0,.3.1.6.1.9h-.2C36,49.9,36,49.6,35.9,49.3Zm1.3,4.2H37l-.9-.3h0a.3.3,0,0,0,.1-.2v-.6l1,.9Zm.1-3.1h0a1.9,1.9,0,0,0-.2.8h-.3a2.5,2.5,0,0,0-.1-.8l.7-.3A.4.4,0,0,0,37.3,50.4Zm.2,1.4H38V52h-.5Zm0,.8H38v.3h-.6Zm.1.5h.5v.3h0Zm.2-1.7c0-.1.1-.2.2-.3v.2Zm.4-.8.2-.2c0,.1.1.1.2.2s.1.1.2.2l-.3.2-.3-.3Zm.2.9h.4a1.9,1.9,0,0,1,.2.7h-.6Zm.3,2.4v-.2h-.1Zm.3-.7v.3h-.5v-.4H39Zm0-.5h-.5v-.3H39Zm.4,1.3h.2v.2Zm0-.4v-.4h.2v.5Zm.3-1h-.2v-.4h.2Zm0-.8h-.3a2.9,2.9,0,0,0-.2-.9h0c0,.1,0,.1.1.1l.2-.2h-.1l.3-.2A5.6,5.6,0,0,1,39.7,51.8Zm.7,2.4h-.3V54h.3Zm0-.4h-.3v-.5h.4A1.3,1.3,0,0,0,40.4,53.8Zm.2-1.3c0,.1-.1.2-.1.3h-.4v-.5h.5Zm.1-.7h-.5c0-.5-.1-.9-.1-1.4l.4.2.2.2h0A2.7,2.7,0,0,1,40.7,51.8Zm2.2-4.7a.6.6,0,0,1,.1.4h-.2l-.6.2h0l-.2-.3a4.3,4.3,0,0,0-.1-.5l.8-.4h.2c0,.1-.1.1-.1.2A.3.3,0,0,0,42.9,47.1Zm8.3,5.6.7.6-1.1-.2h0l-.7-.6a1.4,1.4,0,0,1,.9-.1h.2A.2.2,0,0,0,51.2,52.7Zm-10.1-.9a1.7,1.7,0,0,0,.1-.7h0l.4.3a.6.6,0,0,1-.1.4Zm.3.4a1.9,1.9,0,0,1-.2.7h-.3c.1,0,.1-.1.1-.2a.8.8,0,0,1,.1-.4Zm.3-2.2-.2-.2h-.2l.8-.2Zm1-.5H43l-.2,1c-.2-.2-.4-.2-.6-.3h-.1Zm-1.2,1.4h.1c.1-.1.2-.2.2-.3H42l.6.3h.1v.6Zm.8,1.2-.4-.2a.4.4,0,0,0,.1-.3h.2A.6.6,0,0,1,42.3,52.1Zm-.5.2.4.2a1.7,1.7,0,0,1-.2.5h-.3C41.7,52.7,41.8,52.5,41.8,52.3Zm.6.8.6.3h-.1l-.4.7H42Zm.1-.4.3-.6.7.3c0,.2-.1.3-.2.5s-.1.1-.1.2Zm.6-.9a.3.3,0,0,1-.1-.2l.9.2h.4v.6l-.5-.3h-.1Zm.6,1.3.2-.5.8.5c-.1.1-.2.3-.4.4l-.7-.3A.1.1,0,0,1,43.7,53.1Zm1.2-2.3h-.3a2.7,2.7,0,0,1,0-.9h.2A2.8,2.8,0,0,0,44.9,50.8Zm.1.4a4.3,4.3,0,0,0,.1.5h-.4c0-.2,0-.3-.1-.4Zm-.3,1.5h0v-.6h0l.6.3c.1.1.1.2.1.4l.2.5-.3-.2H45a.1.1,0,0,1-.1-.1ZM46,51.2l-.7-.3c0-.3-.1-.7-.1-1s.3.1.3.2A11.7,11.7,0,0,1,46,51.2Zm-.2-1.3.4-.2h0l.3.4-.5.2Zm-.3,1.5.7.4h0l.3.7-.4-.2-.4-.3A1.4,1.4,0,0,1,45.5,51.4Zm.9-.3a.1.1,0,0,0-.1.1l-.2-.6h.5l.2.5h-.4Zm.2.4h.3l.4.7-.5.4-.3-.9A.1.1,0,0,1,46.6,51.5Zm.6-.6c0-.2-.1-.3-.2-.5h.7l.3.3Zm1.3-1.5c0,.1.1.1.1.2h-.7a.1.1,0,0,0-.1.1l-.4-.5,1.1-.2C48.4,49.3,48.4,49.3,48.5,49.4Zm.4.6.2.3H49l-.7.2h0l-.2-.3h.8Zm-.6,1,.4.5h-.6l-.5.3-.3-.6Zm0,1,.6-.2.3.3c.1.1.1.4,0,.4l-.9.6-.5-.9Zm.7,1.1h0l.6.4h0l-.5.3h0a2,2,0,0,1-.8-.4Zm.3-.2a.1.1,0,0,1,.1-.1c.2-.2.3-.2.5,0a.8.8,0,0,1,.4.4H50Zm.7-.8h-.4l-.3-.3h.9l.9.7Zm-.3-.9-.7.2-.4-.6h.9l.4.5Zm0-.9-.3-.4h1a.2.2,0,0,0,.2-.2l.2.2.4.3Zm-.6-.8-.2-.3,1.2.3Zm.2-.7-1.9.2c-.1,0-.3-.1-.3-.2H47a5.3,5.3,0,0,0,1.6-.4h0l.7.5Zm-1.9,1.1h-.5l-.3-.4C47,49.5,47.2,49.5,47.4,49.9Zm-1.3-.5c-.3.1-.5.1-.6-.2s-.1-.3-.2-.4h1.3l.3.3Zm-.3-1h-.7c-.1-.1-.1-.3-.2-.4H46l.3.4Zm-.9.4a4.3,4.3,0,0,0,.4.7,7.4,7.4,0,0,1-1.7-.3c-.1,0-.2-.2-.2-.3v-.2Zm-1.6-.5v-.5h1.2c.1.1.1.3.2.4Zm.5-.8h-.5v-.3h.8l.2.3Zm-.6-.8h0c0-.1.1-.3.2-.3s.3,0,.4.1a.4.4,0,0,0,.1.3Zm0,3.4c.1-.5.3-.6.8-.4h.2a1.4,1.4,0,0,0,0,.9H43.1A.6.6,0,0,0,43.2,50.1Zm.9.9h.1a.9.9,0,0,0,.1.5h-.4l-.9-.2v-.3Zm-1.4-1.8h-.2a3,3,0,0,0-.2-1l.6-.3H43c0,.3.1.6.1,1S42.8,49.2,42.7,49.2Zm-.8-.8a.9.9,0,0,1,.1.7h0l-.8.2v-.7Zm-.7,1.8h.3c-.1.1-.2.2-.2.3s-.1,0-.1.1l-.9-.6.6-.2Zm-.4,4.1Zm.2-.7h0a.4.4,0,0,0-.1.3h-.1a1.3,1.3,0,0,1,.1-.6h.2C41.1,53.4,41,53.5,41,53.6Zm.4.8h0Zm0-.4h-.1a.3.3,0,0,1,.1-.2h0c0-.1.1-.3.1-.4h.4l-.2.5C41.7,53.9,41.5,54,41.4,54Zm.5.5h0c.1-.1.3,0,.6,0h-.6Zm1.4-.8h0l.7.2c0,.1-.1.2-.2.3h-.9A1,1,0,0,1,43.3,53.7Zm0,1.1-.3-.2h1.1l.3.4Zm.9-.6.3-.2.5.2Zm1.6-.1h0l-1.1-.3.4-.4,1.2.7Zm1-.3-.7-.3h0l-.3-.8h.1l.4.2a.5.5,0,0,0,.4.2c.1.2.1.5.2.7ZM47,53c.1,0,.1-.1.1-.2h0l.4-.3.5.9-.7.4Zm1.3,1.5-.9-.4.5-.3a.1.1,0,0,0,.1.1l.7.3Zm.9.4h0l-.5-.2.4-.3.6.3Zm1.1-.3-.8-.5.3-.2H50l.8.6Zm.9-.3-.9-.7.3-.2,1,.8Zm1.1-.1-.8-.6.9.2.5.4Zm.3-.8-1-.9,1.5.3h0a.2.2,0,0,0,.1.3l.6.4Zm1,.9-.3-.3h1.1l.3.3Zm2.6-.5.4.3h-.4Zm-1.7-.2a2.4,2.4,0,0,0-.9-.6H54l1.5.5Zm-1.6-2,.9.8c.1.1.2.1.2.3l-1.9-.5h-.4a.3.3,0,0,0-.1-.2l-.7-.4h2Zm-.6-.4H50.4l-.4-.4h1.7Zm2.7,0h-.1l-.3-.3,1.3.4Zm.9-.4-1.6-.5c-.1-.2-.1-.3-.2-.4ZM54,50.6l.3.5-.7-.3h-.2l-.4-.4.6.2Zm-.4-1a.4.4,0,0,0,.1.3v.2h0l-1.1-.4c0-.1-.1-.1-.1-.2s-.1-.3-.2-.5Zm-1.3.4a.1.1,0,0,0,.1.1c0,.1.1.2.2.4l-.5-.3a.1.1,0,0,0-.1-.1c0-.1-.1-.2-.2-.3Zm-.4-1.1c0,.2.1.4.1.6l-.8-.3-.3-.4Zm-.9.6c0,.1,0,.1.1.1H51Zm-.3-1.1h-.3Zm-.4.4h.1l-.8-.3h-.2l.8.2Zm-.5-.8h.1l-1.2-.4h-.1l-.7-.5Zm-1.6,0-1.5.4-.3-.5,1.4-.2Zm-1.8-1.2,1,.6-1.3.2-.4-.6.5-.2Zm-1-.4h0Zm.3,1.2h-1l-.2-.4h.8Zm-.9-1.2c0,.1.1.2.2.3h-.7l-.2-.3v-.3Zm-.6-.6c-.4.1-.6,0-1-.9Zm-.9.2h-.2l-.3-.9A1,1,0,0,1,43.3,46Zm-.7-.5c.2.7.2.7-.5,1h-.3c0-.2-.1-.5-.1-.8l.9-.3Zm-.7-.9.3.2.2.3-.7.3v-.8h.2Zm-.4,2.5c0,.2.1.3.1.5s.1.2.2.4h0l-.7.3v-1Zm-.1-.3H41a2.8,2.8,0,0,0-.1-.9h.4C41.3,46.2,41.4,46.5,41.4,46.8Zm-.6-2.3h.5v.9h-.4a.3.3,0,0,1-.1-.2A2.7,2.7,0,0,1,40.8,44.5Zm0,5-.6.3H40c.1-.2,0-.4,0-.5s-.1-.2-.1-.3v-.2h.8Zm-.2-2.1v1h-.8a2.9,2.9,0,0,0-.2-.9Zm-.1-.4-.8.2c0-.1.1-.3.1-.4a.6.6,0,0,0,.1-.4.4.4,0,0,0,.1-.3h.5A2.7,2.7,0,0,1,40.5,47Zm-.1-1.5c0,.1,0,.1.1.2H40V44.6h.3C40.3,44.9,40.4,45.2,40.4,45.5Zm-.5-1.8H40l.3.4H40l-.5-.4h.4Zm-7.2-7.4a4.7,4.7,0,0,0,.7,1.2l1,1,.3.5c.1.2.1.4.3.5a16.9,16.9,0,0,0,4.3,3.1l.4.3h-1a.2.2,0,0,0-.3,0h-.1a.9.9,0,0,0-.6.3,3.2,3.2,0,0,1-4.1-.8h0l-.3-.4c-.7-1.1-1.2-2.2-1.8-3.2l-.8-1.3ZM30.4,38l.3.2a14,14,0,0,0,1,1.6v.5a7.7,7.7,0,0,1-.9-1.3l-.4-.6C30.3,38.3,30.4,38.2,30.4,38Zm2.2,6h-.2c-.4-.1-.6-.5-.8-.9a13.6,13.6,0,0,1-1.4-4C31.2,40.7,31.8,42.4,32.6,44ZM25.4,31.1l-.7.9c-.1-.4-.1-.8-.2-1.3ZM23.9,42.8H24l.6,1.2h-.1l-.6-.2-.3-.2Zm-2.2,5a5.6,5.6,0,0,1,.9-2.1c0,.3,0,.5.4.4v2.4ZM23.4,44a4.4,4.4,0,0,0-.2,1C22.9,44.6,23.1,44.3,23.4,44Zm.3.3h1.2V44c0-.1,0-.1-.1-.2l-.4-1.2.9.7a1.6,1.6,0,0,1,.4.7l.2.3V44c.1-.9-1-1.2-1.3-1.8s.9-.7,1.6-.1A15.4,15.4,0,0,1,27.9,44a8.3,8.3,0,0,1,.9,1.6,8.5,8.5,0,0,0-2.1,3.7c.1-.1.3-.2.3-.3s.3-.7.5-1a5.6,5.6,0,0,1,1.6-2.1c.4.2.4.5.4.9a6.2,6.2,0,0,0,.2,1.9,12.6,12.6,0,0,1,.4,2.7,43.7,43.7,0,0,1-6.7-2.8A15.6,15.6,0,0,1,23.7,44.3Z"/></g></svg>