<svg xmlns="http://www.w3.org/2000/svg" viewBox="0 0 28.5 33.5"><defs><style>.cls-1{fill:#7e8593;}</style></defs><title>icono_ordenpago</title><g id="ELEMENTS"><path class="cls-1" d="M27.2.2H6.1A1.1,1.1,0,0,0,5,1.3V2.6H3.5A2.7,2.7,0,0,0,.7,5.4V20.2a1,1,0,0,0,1,1.1H15.4V20.1H1.9V5.4A1.6,1.6,0,0,1,3.5,3.8H18.2a.3.3,0,0,1-.1.2H18v.2h0v.2h0V15l1.1,1.1V12.4h.1V9.8h6.4a3.4,3.4,0,0,0,1.9-.9,2.8,2.8,0,0,0,.8-2V1.3A1.1,1.1,0,0,0,27.2.2Zm-8,8.4V5h.3c.1,0,.1,0,.1-.1h.3a1.1,1.1,0,0,1,.8-.3h.2a1.6,1.6,0,0,1,1.5,1,.6.6,0,0,1,.1.4V7.4h.1A2.1,2.1,0,0,0,23,8.6Zm7.9-1.7a1.8,1.8,0,0,1-1.4,1.7h-.3a1.6,1.6,0,0,1-1.6-1.3V5.5h0a1.3,1.3,0,0,1-.1-.6,3.2,3.2,0,0,0-2.3-2.3H6.2V1.4H27.1Z"/><path class="cls-1" d="M14.8,26V24.4a.8.8,0,0,0-.8-.7,1.3,1.3,0,0,1-.7-.4.8.8,0,0,1-.3-.7V21.2H11.8v1.3a2.2,2.2,0,0,0,1.8,2.2v1.3h1.2Z"/><path class="cls-1" d="M19.1,13.1v.8L21,15.5a2.2,2.2,0,0,1,.9,1.9V26h.3a1.5,1.5,0,0,1,.9.2V17.4a3.9,3.9,0,0,0-1.3-2.9l-2.6-2.1h-.1Z"/><path class="cls-1" d="M15.4,23.1a1.1,1.1,0,0,0,1.1,1.1H17a.6.6,0,0,0,.6-.6h0A.6.6,0,0,0,17,23h-.3c-.1,0-.1-.1-.1-.2V20.1h0a2.3,2.3,0,0,0-.7-1.4l-1.8-1.8a1.5,1.5,0,0,1,0-2,1.4,1.4,0,0,1,1.9,0l1.9,1.8,1.2,1.2.9.8a.6.6,0,0,0,.8,0,.4.4,0,0,0,.2-.4c0-.2,0-.4-.2-.5l-1.7-1.6L18,15h-.1l-1.1-1a2.4,2.4,0,0,0-3.7.2,2,2,0,0,0-.6,1.4,2.4,2.4,0,0,0,.7,2l1.9,1.8a1.4,1.4,0,0,1,.2.6h.1v3Z"/><path class="cls-1" d="M21.9,26H13.6l-.8.5a2.1,2.1,0,0,0-.7,1.5v3.7a1.5,1.5,0,0,0,1.5,1.5h9.3a1.5,1.5,0,0,0,1.4-1.5V28.1a2.1,2.1,0,0,0-1.2-1.9,1.5,1.5,0,0,0-.9-.2Zm1.2,2.1v3.7c0,.2-.1.3-.2.3H13.6a.3.3,0,0,1-.3-.3V28.1a1.1,1.1,0,0,1,.3-.7l.7-.2h7.9A.9.9,0,0,1,23.1,28.1Z"/><circle class="cls-1" cx="21.4" cy="29" r="0.8"/><path class="cls-1" d="M7.8,11.2a3.6,3.6,0,1,0,3.6,3.6A3.6,3.6,0,0,0,7.8,11.2Zm.3,5.7v.3a.3.3,0,1,1-.6,0v-.3a1.3,1.3,0,0,1-.8-.3c-.2-.1-.2-.3-.1-.5s.3-.2.5-.1h.6c.4,0,.5-.1.5-.4S6.5,15,6.5,13.9a1.2,1.2,0,0,1,1-1.2v-.3c0-.2.1-.4.3-.4s.3.2.3.4v.3l.7.2c.1.2.2.4,0,.6s-.3.2-.4.1l-.5-.2a.5.5,0,0,0-.5.4c0,.7,1.7.6,1.7,1.8A1.3,1.3,0,0,1,8.1,16.9Z"/><rect class="cls-1" x="4.2" y="5.7" width="2.7" height="1.21"/><rect class="cls-1" x="7.9" y="5.6" width="8" height="1.21"/><rect class="cls-1" x="4.2" y="8.5" width="11.7" height="1.21"/></g></svg>