<svg xmlns="http://www.w3.org/2000/svg" viewBox="0 0 42.7 33.5"><defs><style>.cls-1{fill:#7e8593;}</style></defs><title>icono_papeletas</title><g id="ELEMENTS"><path class="cls-1" d="M42.2,20.2h0c-.4-2.5-1.2-4.4-2.4-5.5a2.6,2.6,0,0,0,1.8-2.4,1.7,1.7,0,0,0-.4-1.6,1.8,1.8,0,0,0-1.5-.6H38.2a2.1,2.1,0,0,0-1.3.5L36.1,8a6,6,0,0,0-5.7-4.2H20.5a.7.7,0,1,0,0,1.4h9.9a4.5,4.5,0,0,1,4.3,3.3l1.2,3.7a.6.6,0,0,0,.6.5.9.9,0,0,0,.7-.3l.6-.8.4-.2h1.9s.1.1.1.5-.1,1.3-2.2,1.3a.9.9,0,0,0-.7.6.7.7,0,0,0,.4.8c1.6.8,2.6,2.5,3,5.5.1.1.1.1.1.2q1.1,6-1.8,7.5a1,1,0,0,0-.4.7v2.1a1.1,1.1,0,0,1-1.1,1.1H34.2a1.1,1.1,0,0,1-1.1-1.1v-.7H35a.8.8,0,0,0,.7-.8.7.7,0,0,0-.7-.7H20.5a.7.7,0,0,0-.7.7.8.8,0,0,0,.7.8H31.7v.7a2.5,2.5,0,0,0,2.5,2.5h3.3a2.6,2.6,0,0,0,2.6-2.5V29.1C42.3,27.7,43,24.7,42.2,20.2Z"/><path class="cls-1" d="M34,12.9H22.7a.7.7,0,1,0,0,1.4H34a.7.7,0,0,0,0-1.4Z"/><path class="cls-1" d="M29.8,23.4c.1,1.3,1.4,1.5,3,1.5h2.1c3-.2,4.8-.5,4.8-3.1a2.1,2.1,0,0,0-.9-1.8q-1.3-1-4.5-.3C32,20.2,29.6,21.8,29.8,23.4ZM38,21a1.1,1.1,0,0,1,.3.7c0,1,0,1.5-3.5,1.7-.9.1-3.3.2-3.6-.1h0c0-.4,1.3-1.7,3.5-2.3S37.6,20.8,38,21Z"/><path class="cls-1" d="M17.7,2.1H13.5V.9a.7.7,0,0,0-.7-.7H5.9a.8.8,0,0,0-.8.7V2.1H.9a.7.7,0,0,0-.7.7V32.6a.7.7,0,0,0,.7.7H17.7a.8.8,0,0,0,.8-.7V2.8A.8.8,0,0,0,17.7,2.1ZM17,31.9H1.6V3.5H5.9a.7.7,0,0,0,.7-.7V1.6h5.5V2.8a.7.7,0,0,0,.7.7H17Z"/><path class="cls-1" d="M15.2,28.5H3.5a.7.7,0,1,0,0,1.4H15.2a.7.7,0,1,0,0-1.4Z"/><path class="cls-1" d="M15.2,24.7H3.5a.7.7,0,1,0,0,1.4H15.2a.7.7,0,1,0,0-1.4Z"/><path class="cls-1" d="M15.2,20.8H3.5a.8.8,0,0,0-.8.7.9.9,0,0,0,.8.8H15.2a.8.8,0,0,0,.7-.8A.7.7,0,0,0,15.2,20.8Z"/><path class="cls-1" d="M15.2,17H3.5a.7.7,0,1,0,0,1.4H15.2a.7.7,0,0,0,0-1.4Z"/><path class="cls-1" d="M15.2,13.1H3.5a.9.9,0,0,0-.8.8.8.8,0,0,0,.8.7H15.2a.7.7,0,0,0,.7-.7A.8.8,0,0,0,15.2,13.1Z"/><path class="cls-1" d="M15.2,9.3H3.5a.8.8,0,0,0-.8.7.9.9,0,0,0,.8.8H15.2a.8.8,0,0,0,.7-.8A.7.7,0,0,0,15.2,9.3Z"/><path class="cls-1" d="M2.7,6.2a.8.8,0,0,0,.8.7H15.2a.7.7,0,1,0,0-1.4H3.5A.8.8,0,0,0,2.7,6.2Z"/></g></svg>