<svg xmlns="http://www.w3.org/2000/svg" viewBox="0 0 26.8 33.5"><defs><style>.cls-1{fill:none;}.cls-1,.cls-2{stroke:#7e8593;stroke-miterlimit:10;}.cls-2{fill:#7e8593;}</style></defs><title>icono_reporte</title><g id="ELEMENTS"><path class="cls-1" d="M5,6.7a2,2,0,0,1-2-2A2.1,2.1,0,0,1,5,2.6H23.1V4.5h1.8V.6H4.5A4,4,0,0,0,.6,4.5V29a4,4,0,0,0,3.9,3.9H26V6.7Zm14.7,5.1h.9v8.1h-.9ZM16.2,16h1.1v3.9H16.2Zm-3.5-4.2h.8v8.1h-.8ZM9.4,16h.9v3.9H9.4ZM21.2,28.2H8.8V23.9H21.2Z"/><rect class="cls-2" x="9" y="24.1" width="12" height="3.61"/><rect class="cls-1" x="16.1" y="16" width="1.2" height="3.9"/><rect class="cls-2" x="16.5" y="16.6" width="0.4" height="2.56"/></g></svg>