<svg xmlns="http://www.w3.org/2000/svg" viewBox="0 0 18.2 18"><defs><style>.cls-1{fill:#fff;}</style></defs><title>icono_modulos_blanco</title><g id="ELEMENTS"><g id="icon"><path class="cls-1" d="M6.7,9.8h-4A1.9,1.9,0,0,0,.8,11.7v3.9a2,2,0,0,0,1.9,2h4a2,2,0,0,0,1.9-2V11.7A1.9,1.9,0,0,0,6.7,9.8Zm.5,5.8c0,.4-.2.6-.5.6h-4c-.3,0-.5-.2-.5-.6V11.7a.5.5,0,0,1,.5-.5h4a.5.5,0,0,1,.5.5Z"/><path class="cls-1" d="M15.9,9.8H12a1.9,1.9,0,0,0-2,1.9v3.9a2,2,0,0,0,2,2h3.9a2,2,0,0,0,2-2V11.7A1.9,1.9,0,0,0,15.9,9.8Zm.6,5.8a.6.6,0,0,1-.6.6H12a.6.6,0,0,1-.6-.6V11.7a.6.6,0,0,1,.6-.5h3.9a.6.6,0,0,1,.6.5Z"/><path class="cls-1" d="M6.7.5h-4a2,2,0,0,0-1.9,2V6.4a2,2,0,0,0,1.9,2h4a2,2,0,0,0,1.9-2V2.5A2,2,0,0,0,6.7.5Zm.5,5.9a.6.6,0,0,1-.5.6h-4a.6.6,0,0,1-.5-.6V2.5a.6.6,0,0,1,.5-.6h4a.6.6,0,0,1,.5.6Z"/><path class="cls-1" d="M11.4,5.1h1.8V6.9a.8.8,0,0,0,.7.7.8.8,0,0,0,.8-.7V5.1h1.7a.8.8,0,0,0,.8-.7.9.9,0,0,0-.8-.7H14.7V1.9a.9.9,0,0,0-.8-.7.8.8,0,0,0-.7.7V3.7H11.4a.8.8,0,0,0-.7.7A.8.8,0,0,0,11.4,5.1Z"/></g></g></svg>