<svg xmlns="http://www.w3.org/2000/svg" viewBox="0 0 34.1 24.7"><defs><style>.cls-1{fill:none;stroke:#7e8593;stroke-miterlimit:10;}</style></defs><title>icono_usuarios</title><g id="ELEMENTS"><path class="cls-1" d="M5.7,10.7A3.3,3.3,0,1,0,2.4,7.4,3.3,3.3,0,0,0,5.7,10.7Z"/><path class="cls-1" d="M28.5,10.7a3.3,3.3,0,0,0,3.2-3.3,3.3,3.3,0,0,0-6.5,0A3.3,3.3,0,0,0,28.5,10.7Z"/><path class="cls-1" d="M30.1,12.3H26.8a3.2,3.2,0,0,0-2.3.9,7.9,7.9,0,0,1,3.9,5.6h3.3a1.6,1.6,0,0,0,1.6-1.6V15.5A3.2,3.2,0,0,0,30.1,12.3Z"/><path class="cls-1" d="M17.1,12.3a5.8,5.8,0,0,0,5.7-5.7,5.7,5.7,0,1,0-5.7,5.7Z"/><path class="cls-1" d="M21,13.9h-.5a7.6,7.6,0,0,1-6.9,0,5.9,5.9,0,0,0-6.3,5.9v1.4a2.5,2.5,0,0,0,2.4,2.5H24.4a2.5,2.5,0,0,0,2.4-2.5V19.8A5.8,5.8,0,0,0,21,13.9Z"/><path class="cls-1" d="M9.6,13.2a3.2,3.2,0,0,0-2.3-.9H4A3.2,3.2,0,0,0,.8,15.5v1.7a1.6,1.6,0,0,0,1.6,1.6H5.8A7.5,7.5,0,0,1,9.6,13.2Z"/></g></svg>