<svg xmlns="http://www.w3.org/2000/svg" viewBox="0 0 17 18"><defs><style>.cls-1{fill:#7f8390;}</style></defs><title>icono_cerrarsesion</title><g id="ELEMENTS"><g id="icon"><path class="cls-1" d="M5,2.5v3a.8.8,0,0,0,.7.7.8.8,0,0,0,.7-.7v-3a.9.9,0,0,1,.9-.9h7.2a.9.9,0,0,1,.8.9V15.4a.9.9,0,0,1-.8.8H7.3a.9.9,0,0,1-.9-.8v-3a.7.7,0,1,0-1.4,0v3a2.2,2.2,0,0,0,2.3,2.2h7.2a2.2,2.2,0,0,0,2.2-2.2V2.5A2.2,2.2,0,0,0,14.5.3H7.3A2.2,2.2,0,0,0,5,2.5Z"/><path class="cls-1" d="M3.1,5.8.5,8.5h0L3.1,12A.6.6,0,0,0,4,12a.6.6,0,0,0,0-.9L2.6,9.6h7.9a.7.7,0,0,0,.7-.7.7.7,0,0,0-.7-.6H2.6L4,6.8a.7.7,0,0,0,0-1A.7.7,0,0,0,3.1,5.8Z"/></g></g></svg>