<svg xmlns="http://www.w3.org/2000/svg" viewBox="0 0 27.3 33.9"><defs><style>.cls-1{fill:none;}.cls-1,.cls-2{stroke:#fff;stroke-miterlimit:10;}.cls-2{fill:#fff;}</style></defs><title>icono_reporte_blanco</title><g id="ELEMENTS"><path class="cls-1" d="M5,6.9a2,2,0,0,1-2-2A2,2,0,0,1,5,2.8H23.1V4.7h1.8V.8H4.5A3.9,3.9,0,0,0,.6,4.7V29.2a4,4,0,0,0,3.9,3.9H26V6.9ZM19.7,12h.9v8.1h-.9Zm-3.5,4.2h1.1v3.9H16.2ZM12.7,12h.8v8.1h-.8ZM9.3,16.2h1v3.9h-1ZM21.2,28.3H8.7V24.1H21.2Z"/><rect class="cls-2" x="9" y="24.3" width="12" height="3.61"/></g></svg>