<svg xmlns="http://www.w3.org/2000/svg" viewBox="0 0 43.2 34"><defs><style>.cls-1{fill:#fff;}</style></defs><title>icono_papeletas_blanco</title><g id="ELEMENTS"><path class="cls-1" d="M42.5,20.5h-.1c-.4-2.6-1.1-4.4-2.3-5.6a2.6,2.6,0,0,0,1.4-3.9,2,2,0,0,0-1.6-.6,3.3,3.3,0,0,0-1.4,0,1.5,1.5,0,0,0-1.3.5l-.8-2.5A6.2,6.2,0,0,0,30.7,4H20.8a.9.9,0,0,0-.8.8.8.8,0,0,0,.8.7h9.9A4.7,4.7,0,0,1,35,8.8l1.2,3.7a1,1,0,0,0,.6.5,1.1,1.1,0,0,0,.7-.3l.5-.8.5-.2h1.3l.6.2s.1,0,0,.4-.1,1.3-2.2,1.4a.6.6,0,0,0-.6.6.7.7,0,0,0,.3.8c1.7.7,2.6,2.5,3.1,5.5v.2c.8,4,.2,6.5-1.7,7.5a.6.6,0,0,0-.4.6v2.2a1,1,0,0,1-1.1,1H34.5a1,1,0,0,1-1.1-1v-.8h1.9a.7.7,0,1,0,0-1.4H20.8a.7.7,0,1,0,0,1.4H31.9v.8a2.6,2.6,0,0,0,2.6,2.5h3.3a2.5,2.5,0,0,0,2.5-2.5V29.4C42.6,27.9,43.3,25,42.5,20.5Z"/><path class="cls-1" d="M34.3,13.1H23a.8.8,0,0,0-.8.7.9.9,0,0,0,.8.8H34.3a.8.8,0,0,0,.7-.8A.7.7,0,0,0,34.3,13.1Z"/><path class="cls-1" d="M30,23.7c.2,1.2,1.5,1.5,3.1,1.5h2.1c2.9-.2,4.8-.5,4.8-3.1a2.3,2.3,0,0,0-.9-1.9c-.9-.7-2.4-.8-4.5-.2S29.8,22.1,30,23.7Zm8.2-2.4a.7.7,0,0,1,.3.7c0,1,0,1.4-3.4,1.7-.9,0-3.3.2-3.6-.2h0c-.1-.4,1.2-1.6,3.5-2.2S37.9,21.1,38.2,21.3Z"/><path class="cls-1" d="M18,2.3H13.8V1.1A.8.8,0,0,0,13,.4H6.1a.7.7,0,0,0-.7.7V2.3H1.2a.9.9,0,0,0-.8.8V32.9a.8.8,0,0,0,.8.7H18a.7.7,0,0,0,.7-.7V3.1A.8.8,0,0,0,18,2.3Zm-.7,29.8H1.9V3.8H6.1a.7.7,0,0,0,.7-.7V1.9h5.5V3.1a.7.7,0,0,0,.7.7h4.3Z"/><path class="cls-1" d="M15.4,28.7H3.7a.8.8,0,0,0-.7.8.7.7,0,0,0,.7.7H15.4a.8.8,0,0,0,.8-.7A.9.9,0,0,0,15.4,28.7Z"/><path class="cls-1" d="M15.4,24.9H3.7a.7.7,0,0,0-.7.7.8.8,0,0,0,.7.8H15.4a.9.9,0,0,0,.8-.8A.8.8,0,0,0,15.4,24.9Z"/><path class="cls-1" d="M15.4,21.1H3.7a.7.7,0,0,0,0,1.4H15.4a.7.7,0,1,0,0-1.4Z"/><path class="cls-1" d="M15.4,17.2H3.7A.8.8,0,0,0,3,18a.7.7,0,0,0,.7.7H15.4a.8.8,0,0,0,.8-.7A.9.9,0,0,0,15.4,17.2Z"/><path class="cls-1" d="M15.4,13.4H3.7a.7.7,0,0,0-.7.7.8.8,0,0,0,.7.8H15.4a.9.9,0,0,0,.8-.8A.8.8,0,0,0,15.4,13.4Z"/><path class="cls-1" d="M15.4,9.6H3.7a.7.7,0,1,0,0,1.4H15.4a.8.8,0,0,0,.8-.7A.8.8,0,0,0,15.4,9.6Z"/><path class="cls-1" d="M3,6.5a.7.7,0,0,0,.7.7H15.4a.8.8,0,0,0,.8-.7.9.9,0,0,0-.8-.8H3.7A.8.8,0,0,0,3,6.5Z"/></g></svg>