<svg xmlns="http://www.w3.org/2000/svg" viewBox="0 0 27.8 22"><defs><style>.cls-1{fill:#fff;}</style></defs><title>icono_consulta_blanco</title><g id="ELEMENTS"><path class="cls-1" d="M26.3,15.4l1-.6a5.7,5.7,0,0,0-3.4-2.7,32.4,32.4,0,0,0-4.4-7.2h.4a.6.6,0,0,0,.6-.6V.9a.6.6,0,0,0-.6-.6A3,3,0,0,0,17,2H13.8a.6.6,0,0,0-.6.6.6.6,0,0,0,.6.6h2.9c1,3.1,1.6,8.2.5,9.8s-.5.5-.9.5H13.2A1.5,1.5,0,0,1,12,13a5.3,5.3,0,0,1-.5-2.9h0a1.6,1.6,0,0,0,.6-1.2V8.5a1.8,1.8,0,0,0-1.7-1.8h-7A1.8,1.8,0,0,0,1.7,8.5v.4a1.3,1.3,0,0,0,.4,1C.8,11.2.3,14.6.3,16a3.7,3.7,0,0,0,.2,1.2c.1.8.6.9.8.9H2.5a4.1,4.1,0,0,0,4,3.6,4,4,0,0,0,4-3.6h6.3l1.2-.9v.6a4,4,0,0,0,4,4.1,4.1,4.1,0,0,0,4.1-4.1,4.2,4.2,0,0,0-3.5-4l.8-.6A5.1,5.1,0,0,1,26.3,15.4Zm-7-13.8V3.7c-.7-.2-1.2-.6-1.2-1.1S18.6,1.7,19.3,1.6ZM2.9,8.5a.6.6,0,0,1,.5-.6h7a.6.6,0,0,1,.5.6v.4a.5.5,0,0,1-.5.5h-7a.5.5,0,0,1-.5-.5Zm3.6,12a2.8,2.8,0,0,1-2.8-2.4H9.4A2.9,2.9,0,0,1,6.5,20.5Zm18.4-2.8a2.9,2.9,0,0,1-5.8,0,3.2,3.2,0,0,1,1-2.2l.4-.2a2.5,2.5,0,0,1,1.5-.5A2.9,2.9,0,0,1,24.9,17.7Zm-5.1-3.4-.4.3-3.1,2.3H1.6a11.7,11.7,0,0,1,.9-5.7c.3-.4.5-.6.7-.6h7.1a4.7,4.7,0,0,0,.8,3.1,2.6,2.6,0,0,0,2.1.9h3.1a2.1,2.1,0,0,0,1.8-.9c1.3-1.8.9-5.5.3-8.4a31.6,31.6,0,0,1,4.3,6.9Z"/><path class="cls-1" d="M7.6,12.7H4.1v1.1H7.7a1.3,1.3,0,0,1,.8.3,1.5,1.5,0,0,1,.3,1H10a2.5,2.5,0,0,0-.7-1.8A2.6,2.6,0,0,0,7.6,12.7Z"/></g></svg>