<svg xmlns="http://www.w3.org/2000/svg" viewBox="0 0 28.5 34"><defs><style>.cls-1{fill:#fff;}</style></defs><title>icono_ordenpago_blanco</title><g id="ELEMENTS"><path class="cls-1" d="M26.8.5H5.8A1.2,1.2,0,0,0,4.6,1.7V3H3.1A2.7,2.7,0,0,0,.3,5.8V20.6a1.1,1.1,0,0,0,1.1,1.1h10v-.2H15v-1H1.5V5.8A1.6,1.6,0,0,1,3.1,4.2H17.8v.3h-.1a.3.3,0,0,0-.1.2h0v9.6l1.2,1.1V12.7h0V10.2h6.4a2.7,2.7,0,0,0,1.9-.8,3.2,3.2,0,0,0,.8-2V1.7A1.1,1.1,0,0,0,26.8.5Zm-8,8.4V5.8a.6.6,0,0,1,.1-.4h.2a.1.1,0,0,1,.1-.1h0c.1,0,.1,0,.1-.1h.2a1.1,1.1,0,0,1,.8-.3h.2a1.5,1.5,0,0,1,1.5,1,.4.4,0,0,1,.1.3.4.4,0,0,1,.1.3V7.7h0a2.2,2.2,0,0,0,.5,1.1Zm7.9-1.6a1.6,1.6,0,0,1-1.4,1.6H25a1.5,1.5,0,0,1-1.6-1.3V5.8h0a1.1,1.1,0,0,0-.1-.5A2.8,2.8,0,0,0,21,3H5.8V1.7H26.7Z"/><path class="cls-1" d="M14.4,26.3V24.7a.7.7,0,0,0-.7-.7,1,1,0,0,1-1.1-1.1V21.5H11.4v1.4a2.4,2.4,0,0,0,1.8,2.3v1.2h1.2Z"/><path class="cls-1" d="M18.8,13.5v.8l1.8,1.5a2.5,2.5,0,0,1,.9,1.9v8.6h.3l1,.2V17.7a3.5,3.5,0,0,0-1.4-2.8l-2.6-2.2h0Z"/><path class="cls-1" d="M15,23.4a1.1,1.1,0,0,0,1.1,1.2h.5a.6.6,0,0,0,.6-.6h0a.5.5,0,0,0-.6-.6h-.2a.2.2,0,0,1-.2-.2V20.3a2.7,2.7,0,0,0-.7-1.4l-1.8-1.8a1.5,1.5,0,0,1-.4-.9,1.8,1.8,0,0,1,.4-1,1.4,1.4,0,0,1,1.9,0l2,1.8,1.2,1.1.8.9a.6.6,0,0,0,.8,0,.5.5,0,0,0,.3-.5.8.8,0,0,0-.2-.4l-1.7-1.6-1.2-1.1h0l-1.1-1a2.7,2.7,0,0,0-3.8.2,3.4,3.4,0,0,0-.6,1.5,2.7,2.7,0,0,0,.8,2l1.8,1.8.3.5v.2h0v2.9Z"/><path class="cls-1" d="M21.5,26.3H13.2a2.4,2.4,0,0,0-.8.6,2,2,0,0,0-.6,1.5v3.7a1.4,1.4,0,0,0,1.4,1.4h9.3A1.5,1.5,0,0,0,24,32.2V28.5a2.3,2.3,0,0,0-1.2-2l-1-.2Zm1.3,2.2v3.7c0,.1-.1.2-.3.2H13.2a.2.2,0,0,1-.2-.2V28.5a1.4,1.4,0,0,1,.2-.7.9.9,0,0,1,.7-.3h7.9A1.1,1.1,0,0,1,22.8,28.5Z"/><circle class="cls-1" cx="21" cy="29.3" r="0.8"/><path class="cls-1" d="M7.4,11.6a3.6,3.6,0,0,0,0,7.1,3.6,3.6,0,1,0,0-7.1Zm.3,5.6v.4a.3.3,0,0,1-.3.3l-.3-.3v-.4L6.3,17c-.2-.1-.2-.4-.1-.6a.4.4,0,0,1,.5-.1l.6.2c.4,0,.5-.2.5-.4s-1.6-.7-1.6-1.8a1,1,0,0,1,.9-1.2v-.4a.3.3,0,0,1,.3-.3.3.3,0,0,1,.3.3v.4l.7.2c.2.1.2.4.1.6h-1c-.3,0-.4.1-.4.4s1.6.6,1.6,1.8A1.1,1.1,0,0,1,7.7,17.2Z"/><rect class="cls-1" x="3.9" y="6.1" width="2.7" height="1.21"/><rect class="cls-1" x="7.6" y="6" width="8" height="1.21"/><rect class="cls-1" x="3.9" y="8.9" width="11.7" height="1.21"/></g></svg>