<svg xmlns="http://www.w3.org/2000/svg" viewBox="0 0 27.6 22.3"><defs><style>.cls-1{fill:#7e8593;}</style></defs><title>icono_consulta</title><g id="ELEMENTS"><path class="cls-1" d="M26.3,15.8l1-.6a6.1,6.1,0,0,0-3.5-2.8,39.1,39.1,0,0,0-4.3-7.2h.3a.5.5,0,0,0,.6-.6V1.2c0-.3-.2-.5-.6-.5A2.8,2.8,0,0,0,17,2.4H13.7a.6.6,0,0,0-.6.5.6.6,0,0,0,.6.6h2.9c1,3.2,1.7,8.2.5,9.8a.9.9,0,0,1-.9.5H13.1a1.7,1.7,0,0,1-1.2-.5c-.6-.7-.5-2.3-.4-2.9h0A1.7,1.7,0,0,0,12,9.2V8.8a1.7,1.7,0,0,0-1.7-1.7H3.4A1.7,1.7,0,0,0,1.6,8.8v.4A2.1,2.1,0,0,0,2,10.3C.7,11.6.3,15,.3,16.4a4.1,4.1,0,0,0,.1,1.2c.2.7.6.8.9.8H2.4A4.2,4.2,0,0,0,6.5,22a4.2,4.2,0,0,0,4-3.6h6.3l1.1-.9v.7a4.1,4.1,0,0,0,8.1,0,3.9,3.9,0,0,0-3.5-4l.8-.6A4.9,4.9,0,0,1,26.3,15.8Zm-7-13.9V4c-.7-.2-1.3-.6-1.3-1.1S18.6,2,19.3,1.9ZM2.8,8.8a.6.6,0,0,1,.6-.6h6.9a.6.6,0,0,1,.6.6v.4a.6.6,0,0,1-.6.6H3.4a.6.6,0,0,1-.6-.6Zm3.7,12a2.8,2.8,0,0,1-2.9-2.4H9.3A2.8,2.8,0,0,1,6.5,20.8Zm18.3-2.7a2.9,2.9,0,0,1-5.7,0,2.6,2.6,0,0,1,1-2.2l.3-.3a2.8,2.8,0,0,1,1.5-.4A2.9,2.9,0,0,1,24.8,18.1Zm-5.1-3.4-.4.3-3.1,2.3H1.5a10.6,10.6,0,0,1,1-5.7c.2-.4.5-.7.7-.7h7.1a4.7,4.7,0,0,0,.7,3.2,2.6,2.6,0,0,0,2.1.9h3.1a2.4,2.4,0,0,0,1.9-1c1.2-1.7.8-5.5.2-8.4a34.2,34.2,0,0,1,4.3,6.9Z"/><path class="cls-1" d="M7.6,13H4v1.2H7.6a1.3,1.3,0,0,1,.8.3,1.3,1.3,0,0,1,.3,1H9.9a2.5,2.5,0,0,0-.7-1.9A2.4,2.4,0,0,0,7.6,13Z"/></g></svg>