<svg xmlns="http://www.w3.org/2000/svg" viewBox="0 0 17 18"><defs><style>.cls-1{fill:#7f8390;}</style></defs><title>icono_modulos</title><g id="ELEMENTS"><g id="icon"><path class="cls-1" d="M6.3,9H2.7A1.8,1.8,0,0,0,.9,10.8v3.6a1.8,1.8,0,0,0,1.8,1.7H6.3a1.8,1.8,0,0,0,1.8-1.7V10.8A1.8,1.8,0,0,0,6.3,9Zm.5,5.4a.6.6,0,0,1-.5.5H2.7a.5.5,0,0,1-.5-.5V10.8a.5.5,0,0,1,.5-.5H6.3a.5.5,0,0,1,.5.5Z"/><path class="cls-1" d="M14.7,9H11.1a1.9,1.9,0,0,0-1.8,1.8v3.6a1.8,1.8,0,0,0,1.8,1.7h3.6a1.8,1.8,0,0,0,1.8-1.7V10.8A1.8,1.8,0,0,0,14.7,9Zm.5,5.4a.5.5,0,0,1-.5.5H11.1a.6.6,0,0,1-.5-.5V10.8a.5.5,0,0,1,.5-.5h3.6a.5.5,0,0,1,.5.5Z"/><path class="cls-1" d="M6.3.5H2.7A1.8,1.8,0,0,0,.9,2.3V5.9A1.8,1.8,0,0,0,2.7,7.7H6.3A1.8,1.8,0,0,0,8.1,5.9V2.3A1.8,1.8,0,0,0,6.3.5Zm.5,5.4a.6.6,0,0,1-.5.5H2.7a.5.5,0,0,1-.5-.5V2.3a.5.5,0,0,1,.5-.5H6.3a.5.5,0,0,1,.5.5Z"/><path class="cls-1" d="M10.7,4.7h1.6V6.4a.6.6,0,0,0,.6.6.7.7,0,0,0,.7-.6V4.7h1.6a.7.7,0,0,0,.7-.6.7.7,0,0,0-.7-.7H13.6V1.8a.7.7,0,0,0-.7-.7.7.7,0,0,0-.6.7V3.4H10.7a.7.7,0,0,0-.7.7A.7.7,0,0,0,10.7,4.7Z"/></g></g></svg>