<svg xmlns="http://www.w3.org/2000/svg" xmlns:xlink="http://www.w3.org/1999/xlink" viewBox="0 0 258.1 234"><defs><style>.cls-1{fill:#4656af;}.cls-2{fill:url(#Gradiente_sem_nome_8);}.cls-3{fill:url(#Gradiente_sem_nome_8-2);}.cls-4{fill:#2d1f7f;}.cls-5{fill:url(#Gradiente_sem_nome_8-3);}.cls-6{fill:url(#Gradiente_sem_nome_4);}.cls-7{fill:url(#Gradiente_sem_nome_4-2);}.cls-8{fill:#c39a77;}.cls-9{fill:url(#Gradiente_sem_nome_4-3);}.cls-10{fill:url(#Gradiente_sem_nome_4-4);}.cls-11{fill:url(#Gradiente_sem_nome_8-4);}.cls-12{fill:url(#Gradiente_sem_nome_8-5);}.cls-13{fill:url(#Gradiente_sem_nome_4-5);}.cls-14{fill:url(#Gradiente_sem_nome_11);}.cls-15{fill:url(#Gradiente_sem_nome_4-6);}.cls-16{fill:#289be8;}</style><linearGradient id="Gradiente_sem_nome_8" x1="148.79" y1="116.52" x2="118.89" y2="124.75" gradientUnits="userSpaceOnUse"><stop offset="0" stop-color="#4656af"/><stop offset="1" stop-color="#2d1f7f"/></linearGradient><linearGradient id="Gradiente_sem_nome_8-2" x1="9.03" y1="124.44" x2="46.62" y2="130.34" xlink:href="#Gradiente_sem_nome_8"/><linearGradient id="Gradiente_sem_nome_8-3" x1="76.93" y1="38.48" x2="76.93" y2="177.69" xlink:href="#Gradiente_sem_nome_8"/><linearGradient id="Gradiente_sem_nome_4" x1="90.5" y1="55.97" x2="84.96" y2="67.15" gradientUnits="userSpaceOnUse"><stop offset="0" stop-color="#eeebe1"/><stop offset="1" stop-color="#d1a982"/></linearGradient><linearGradient id="Gradiente_sem_nome_4-2" x1="99.95" y1="90.43" x2="73.66" y2="80.85" xlink:href="#Gradiente_sem_nome_4"/><linearGradient id="Gradiente_sem_nome_4-3" x1="115.87" y1="103.07" x2="67.82" y2="56.26" xlink:href="#Gradiente_sem_nome_4"/><linearGradient id="Gradiente_sem_nome_4-4" x1="110.04" y1="109.05" x2="61.99" y2="62.24" xlink:href="#Gradiente_sem_nome_4"/><linearGradient id="Gradiente_sem_nome_8-4" x1="66.58" y1="75.38" x2="63.9" y2="111.31" xlink:href="#Gradiente_sem_nome_8"/><linearGradient id="Gradiente_sem_nome_8-5" x1="82.09" y1="76.54" x2="79.42" y2="112.46" xlink:href="#Gradiente_sem_nome_8"/><linearGradient id="Gradiente_sem_nome_4-5" x1="50.13" y1="91.2" x2="52.57" y2="150.62" xlink:href="#Gradiente_sem_nome_4"/><linearGradient id="Gradiente_sem_nome_11" x1="87.75" y1="72.17" x2="83.72" y2="126.59" gradientUnits="userSpaceOnUse"><stop offset="0" stop-color="#eeebe1"/><stop offset="1" stop-color="#4656af"/></linearGradient><linearGradient id="Gradiente_sem_nome_4-6" x1="111.03" y1="87.59" x2="103.44" y2="141.22" xlink:href="#Gradiente_sem_nome_4"/></defs><title>olainferior</title><g id="ELEMENTS"><polygon class="cls-1" points="151.9 116.5 76.7 116.5 76.7 105.9 147.9 105.9 147.9 106.6 77.4 106.6 77.4 115.8 151.1 115.8 151.1 109.9 151.9 109.9 151.9 116.5"/><path class="cls-1" d="M155.5,110.2h-8v-7.9h8Zm-7.3-.7h6.6V103h-6.6Z"/><rect class="cls-1" x="151.1" y="104.6" width="0.7" height="3.2" transform="translate(-30.8 138.2) rotate(-45)"/><rect class="cls-1" x="149.9" y="105.9" width="3.2" height="0.71" transform="translate(-30.8 138.2) rotate(-45)"/><rect class="cls-1" x="81.1" y="109.3" width="63.8" height="1.32"/><rect class="cls-1" x="81.1" y="111.8" width="63.8" height="1.32"/><polygon class="cls-1" points="151.9 132.6 76.7 132.6 76.7 122 147.9 122 147.9 122.7 77.4 122.7 77.4 131.9 151.1 131.9 151.1 126 151.9 126 151.9 132.6"/><path class="cls-1" d="M155.5,126.3h-8v-7.9h8Zm-7.3-.7h6.6v-6.5h-6.6Z"/><rect class="cls-1" x="151.1" y="120.8" width="0.7" height="3.2" transform="translate(-42.2 143) rotate(-45)"/><rect class="cls-1" x="149.9" y="122" width="3.2" height="0.71" transform="translate(-42.2 143) rotate(-45)"/><rect class="cls-1" x="81.1" y="125.4" width="63.8" height="1.32"/><rect class="cls-1" x="81.1" y="127.9" width="63.8" height="1.32"/><path class="cls-2" d="M114.9,94.3c1.1,1.1-3.3,18.2-7.4,35.7v17.7c4.9,11.2,19.1,10.4,23-.2S124,100.6,114.9,94.3Z"/><path class="cls-3" d="M41,137l5.8-2.2.4-4.8h0l-.7-3.7c-2.7-9.7-7.7-19.5-7.7-29.9-16.9,9.8-23.5,49.6-12.5,61.4,2.6,2.7,6.9,3.6,11.6,2.9C32.6,161.5,29.4,137,41,137Z"/><path class="cls-4" d="M43.7,222.1s-1.2-13.4,1.1-33.6h59.3l8.1,33.6H83.8l-3.7-10a5.3,5.3,0,0,0-4.6,4.3c-.9,4-1.1,5.7-1.1,5.7Z"/><path class="cls-5" d="M38.8,96.4S49.7,90.2,73.5,88s39.4,4.4,41.4,6.3-14.1,56.4-13.4,70.7a152,152,0,0,0,2.6,23.5H44.8s2.6-35.6,3.2-49.4S38.8,111.4,38.8,96.4Z"/><path class="cls-6" d="M87.9,65.9c-.3,2-1.5,3.4-2.7,3.2s-1.9-2-1.6-4,1.6-3.4,2.8-3.2S88.3,63.9,87.9,65.9Z"/><path class="cls-4" d="M84.5,86.1c0,2.5-5.2,4.9-11.5,5.3s-11.4-1.3-11.4-3.9,5.1-4.9,11.4-5.3S84.5,83.5,84.5,86.1Z"/><path class="cls-7" d="M65.9,66.5s1,15.5-2.6,22.6l10.2,5.2,9.2-6.6,1.5-16.5Z"/><path class="cls-8" d="M84.2,71.2,65.9,66.5s1,15.5-2.6,22.6l2.4,1.2c3.5-3.9,2.9-13.7,4.4-11.9,6.4,7.7,12.4,11.2,13,5l.8-8.6Z"/><path class="cls-9" d="M87.3,66.5c-.6,6.7-2.9,13.9-8.7,13.9s-13-8-12.3-15.9,6-13.8,11.8-13.3S87.9,58.6,87.3,66.5Z"/><path class="cls-10" d="M67.5,65.2c.3,2-.4,3.7-1.6,3.9s-2.4-1.3-2.7-3.3.4-3.7,1.6-3.9S67.2,63.2,67.5,65.2Z"/><path class="cls-4" d="M65.6,62c.8.4,1.3,2.1,1.6,3.4s.8.7,1.1.1A32.5,32.5,0,0,0,71,58a1.1,1.1,0,0,1,1.7-.6c1.9,1.6,5.8,4.3,8.8,4.2s5-2.1,5-2.1a11.5,11.5,0,0,1,.6,2.4s2.5-3.9-.8-8.7A5.7,5.7,0,0,0,79.1,51a3.3,3.3,0,0,0-3.7-2.6A3.9,3.9,0,0,0,72,51.7s-1.1-1.2-1.9-.6a1.4,1.4,0,0,0-.4,1.7s-6.1.5-5.9,9.7A1.5,1.5,0,0,1,65.6,62Z"/><path class="cls-4" d="M57.1,90.5c.7,5.2,6.8,9.7,10,10.6.5,0,1.7-2.3,1.7-4s.5-3,1.1-3.3,3.6.5,3.6.5L63.3,89.1Z"/><path class="cls-11" d="M66.9,99.7a4.3,4.3,0,0,0,1.3-2.8c.2-1.9,1-3.6,1.7-3.6a24.4,24.4,0,0,1,3.6,1s-7.2-3.5-10.2-5.2-.8-4,1.6-4.7v-.5s-3.4.9-3.9,3.1-4,2.3-4,3.5C57.1,93.4,62.1,98.3,66.9,99.7Z"/><path class="cls-4" d="M73.5,94.3a18.2,18.2,0,0,1,3.4-.9c2,.5.6,4.8,3.9,6.5,0,0,8.1-4,7.6-12.2L76.8,92Z"/><path class="cls-12" d="M88.4,87.7c-.4-1-2.8-.6-3.7-2.8a2.9,2.9,0,0,0-1.6-1.5,1.5,1.5,0,0,1-.1.7c1.1.8,1.5,2.2-.3,3.6s-9.2,6.6-9.2,6.6a23.7,23.7,0,0,1,3.4-1.5c.6-.1,1.7,1.4,2.2,3.3a4.3,4.3,0,0,0,1.7,2.5C85.4,96.6,89.2,90.3,88.4,87.7Z"/><path class="cls-13" d="M64.4,118.7l-4.3,3.9a4.2,4.2,0,0,0-1.1,1.8l-.3.9a3.9,3.9,0,0,0-1.5,1.6l-2.5,5L41,137c-11.6,0-8.4,24.5-3.1,23.7,9-1.3,19.8-8.7,25.4-22,2.9.9,8-4.9,8-4.9Z"/><path class="cls-14" d="M101.5,133.8H63.3a1,1,0,0,1-1-1.2l3.3-21.9a1,1,0,0,1,1-.9h38.2a1,1,0,0,1,1,1.2l-3.2,21.9A1,1,0,0,1,101.5,133.8Z"/><polygon class="cls-4" points="83.7 127.7 91.7 133.8 97.5 133.8 83.7 127.7"/><path class="cls-4" d="M91,118.7l13.8-.8v.8Z"/><path class="cls-15" d="M115.9,132.2l-4.7-4.9-.7-7a12.7,12.7,0,0,0-1.1-3.8l-.7-1.5a2.8,2.8,0,0,1-.2-1.8c.4-1.9-.4-3.4-1.8-3.4a1.4,1.4,0,0,0-1.1.4.8.8,0,0,1,.2.8l-1.1,7.7H84.1a1.8,1.8,0,0,0-1.8,1.8h-.8a1.3,1.3,0,0,0-1.3,1.3,1.4,1.4,0,0,0,1,1.3h0a1.2,1.2,0,0,0-1,1.2,1.2,1.2,0,0,0,1.2,1.2h.1a1.8,1.8,0,0,0,1.1,1.7l19.5,8.7s2.7,12.2,9.2,17,16.7.7,17.5-7C129.8,136.3,121.6,130.2,115.9,132.2Z"/><path class="cls-16" d="M276.3,242.7c-5.7-5.1,4.4.1-3.4-1.7-17.9-4.3-16.7-3.6-29.5-10.5-10.1-5.5-48.8-23-65.2-31-18.7-9.1-35.2-4.3-56.7,6.3s-26.4,22.4-71.3,12.5C18.8,211.4,1.7,174.8-14.5,183L5.9,260.7Z"/></g></svg>