<svg xmlns="http://www.w3.org/2000/svg" viewBox="0 0 258.1 108.3"><title>olasuperior</title><g id="ELEMENTS"><path d="M272.4-2.1c-5.2,4.5,1.6.4-6.5,2.4-18.6,4.6-9.4-3.9-23.8-3.7s-36.7,16.2-52.9,23.9c-18.4,8.7-37.5,5.8-63.2-1.5S85.9,15.2,56.2,30.5c-23.4,12-37.8,11.7-57.2,6V-.9Z" fill="#62a8e0"/><path d="M31.8,69.4l-1.1,6.9H26.4l2.9-18.7a32.2,32.2,0,0,1,6.3-.5h1.6a14.6,14.6,0,0,1,2.7.5A4.4,4.4,0,0,1,41.7,59a5.4,5.4,0,0,1,.7,2.7,7.7,7.7,0,0,1-.2,1.5c-.3,2.1-1,3.7-2.2,4.6a5.7,5.7,0,0,1-2.7,1.3,11.8,11.8,0,0,1-3.4.4Zm1.4-8.7-.8,5.2h1.9a4.1,4.1,0,0,0,2.4-.5,2.6,2.6,0,0,0,1.2-2.2,2.3,2.3,0,0,0,.1-.7,1.6,1.6,0,0,0-.7-1.5,3.7,3.7,0,0,0-2.1-.4Z" fill="#3d6c8e"/><path d="M42.3,70.9l1.5-9.2h4.1l-1.4,8.9a4.1,4.1,0,0,0-.1,1,1.5,1.5,0,0,0,.4,1.2,2.8,2.8,0,0,0,1.5.3,4.8,4.8,0,0,0,1.8-.3,10.6,10.6,0,0,0,.4-1.9L52,61.7h4.1L54.4,72.2l-.6,2.9a14.2,14.2,0,0,1-6.5,1.4,8.4,8.4,0,0,1-3.6-.6,2.4,2.4,0,0,1-.9-.8,3.2,3.2,0,0,1-.7-2.2A19.1,19.1,0,0,1,42.3,70.9Z" fill="#3d6c8e"/><path d="M65.9,72.7v3.2a20.1,20.1,0,0,1-5,.6,4.9,4.9,0,0,1-3.2-.9,2.8,2.8,0,0,1-.8-1.1,5.8,5.8,0,0,1-.6-2.8c0-.8.1-1.7.2-2.8s.3-1.4.4-1.9a8.4,8.4,0,0,1,1.3-3,4.7,4.7,0,0,1,2.3-1.8,7.4,7.4,0,0,1,3.6-.7,9.4,9.4,0,0,1,3.9.7l-.8,3-.9-.2H64.5a3.9,3.9,0,0,0-2.9.9,2.8,2.8,0,0,0-.5.8l-.3,1c-.1.3-.1.8-.2,1.4a12.6,12.6,0,0,0-.3,2.1,3,3,0,0,0,.2,1,2.1,2.1,0,0,0,.4.6,1.9,1.9,0,0,0,.9.4h1.4A11.6,11.6,0,0,0,65.9,72.7Z" fill="#3d6c8e"/><path d="M67.7,70.9l1.5-9.2h4l-1.4,8.9c0,.4-.1.8-.1,1a1.5,1.5,0,0,0,.5,1.2,2.8,2.8,0,0,0,1.5.3,4.8,4.8,0,0,0,1.8-.3,10.6,10.6,0,0,0,.4-1.9l1.4-9.2h4.1L79.8,72.2l-.6,2.9a14.5,14.5,0,0,1-6.5,1.4,8.4,8.4,0,0,1-3.6-.6,3.9,3.9,0,0,1-1-.8,3.8,3.8,0,0,1-.6-2.2A19.1,19.1,0,0,1,67.7,70.9Z" fill="#3d6c8e"/><path d="M88.1,72.1a1.3,1.3,0,0,0-.6-1.1l-1.1-.3h-.2l-.8-.3-.8-.3-.7-.4a3.8,3.8,0,0,1-1.1-1.1,3.4,3.4,0,0,1-.5-1.7c0-.3.1-.6.1-.9.5-2.9,2.4-4.4,5.9-4.4l2.7.2,2.6.5-.9,3a17.1,17.1,0,0,0-3.6-.4H87.5l-.7.3a.9.9,0,0,0-.3.6v.4l.2.3.4.3.4.2h1.1a8.3,8.3,0,0,1,1.8.8A2.8,2.8,0,0,1,92,69.5a3.2,3.2,0,0,1,.3,1.4,4.5,4.5,0,0,1-.1,1.1,5.2,5.2,0,0,1-1.6,3.1,4.7,4.7,0,0,1-1.4.8,8.3,8.3,0,0,1-3.4.6l-2.7-.2a13.7,13.7,0,0,1-2.5-.5l.9-3.1,2,.3,1.9.2H87C87.6,72.9,88,72.6,88.1,72.1Z" fill="#3d6c8e"/><path d="M106.1,66.3l-1,5.9c-.1.9-.3,1.9-.5,2.9A14.6,14.6,0,0,1,98,76.5a6.2,6.2,0,0,1-3.8-.9A3.2,3.2,0,0,1,93,72.9a5.7,5.7,0,0,1,.1-1.2,5.6,5.6,0,0,1,1.4-3.1A6.4,6.4,0,0,1,97.9,67l4.1-.3a4.3,4.3,0,0,1,.1-.5,1.2,1.2,0,0,0-.5-1,2.8,2.8,0,0,0-1.5-.3,35.6,35.6,0,0,0-5.2.4l.2-3.2a33.6,33.6,0,0,1,5.8-.6,8.7,8.7,0,0,1,3.1.5,3.3,3.3,0,0,1,2.2,3.3C106.2,65.6,106.1,65.9,106.1,66.3Zm-7.2,3.4a1.9,1.9,0,0,0-.9.4c-.5.2-.7.8-.9,1.6v.4a1,1,0,0,0,.4.9,2.4,2.4,0,0,0,1.4.3,5.6,5.6,0,0,0,2-.3,17.3,17.3,0,0,0,.4-2l.3-1.6H98.9Z" fill="#3d6c8e"/><path d="M111.9,67.2l-1.4,9.1h-4.1l1.7-10.5a27.4,27.4,0,0,1,.5-2.8,13.4,13.4,0,0,1,6.6-1.5,8.2,8.2,0,0,1,3.6.7,2.2,2.2,0,0,1,.9.7,3.3,3.3,0,0,1,.7,2.3c0,.4-.1,1.1-.2,1.9l-1.5,9.2h-4.1l1.4-8.9a4.1,4.1,0,0,0,.1-1,1.2,1.2,0,0,0-.4-1.1,2.8,2.8,0,0,0-1.6-.4,4.8,4.8,0,0,0-1.8.3C112.2,65.8,112,66.5,111.9,67.2Z" fill="#3d6c8e"/><path d="M133.7,66.3l-.9,5.9a16.7,16.7,0,0,1-.6,2.9,14,14,0,0,1-6.6,1.4,6.1,6.1,0,0,1-3.7-.9,3.2,3.2,0,0,1-1.2-2.7,5.7,5.7,0,0,1,.1-1.2,5.6,5.6,0,0,1,1.4-3.1,6.4,6.4,0,0,1,3.4-1.6l4.1-.3v-.5a1.2,1.2,0,0,0-.4-1,2.8,2.8,0,0,0-1.5-.3,34.6,34.6,0,0,0-5.2.4l.2-3.2a32.6,32.6,0,0,1,5.8-.6,9.1,9.1,0,0,1,3.1.5,3.1,3.1,0,0,1,2.1,3.3A3.8,3.8,0,0,1,133.7,66.3Zm-7.2,3.4-.9.4a2,2,0,0,0-.8,1.6v.4a1,1,0,0,0,.4.9,2.3,2.3,0,0,0,1.3.3,6.2,6.2,0,0,0,2.1-.3l.4-2,.2-1.6h-2.7Z" fill="#3d6c8e"/><path d="M43,45.9h8.3l-.3,2H48L46.4,58H44l1.6-10.1H42.7Z" fill="#585857"/><path d="M52.8,58.2a4.3,4.3,0,0,1-2.6-.7,2.9,2.9,0,0,1-.8-2.4,10.3,10.3,0,0,1,.1-1.7,21.8,21.8,0,0,1,.6-2.2,3.8,3.8,0,0,1,.9-1.5,3.9,3.9,0,0,1,1.4-.8,5.6,5.6,0,0,1,2-.3,3.7,3.7,0,0,1,2.6.8c.6.4.8,1.2.8,2.3a10.9,10.9,0,0,1-.1,1.7,21.8,21.8,0,0,1-.6,2.2,3.8,3.8,0,0,1-.9,1.5,3.9,3.9,0,0,1-1.4.8A5.6,5.6,0,0,1,52.8,58.2Zm-1.2-3.3A1.2,1.2,0,0,0,52,56a1.6,1.6,0,0,0,1.1.3,1.7,1.7,0,0,0,1.3-.4c.2-.1.3-.3.5-.5a7.2,7.2,0,0,0,.5-2,10.4,10.4,0,0,0,.2-1.5,1.3,1.3,0,0,0-1.5-1.4l-1.2.2a2.2,2.2,0,0,0-.7.9,12.7,12.7,0,0,0-.4,1.8C51.7,54.1,51.6,54.6,51.6,54.9Z" fill="#585857"/><path d="M64.8,48.8l.6-3.6h2.2L66,55.5a11.6,11.6,0,0,1-.4,1.8,7.5,7.5,0,0,1-1.8.7l-2,.2L60.2,58a3.3,3.3,0,0,1-1.2-.5,3,3,0,0,1-.9-2.5,10,10,0,0,1,.2-1.6,7,7,0,0,1,.6-2.3,3.4,3.4,0,0,1,2.3-2.2,5.4,5.4,0,0,1,1.9-.3Zm-1.6,1.7a2.2,2.2,0,0,0-1.9.7,2.6,2.6,0,0,0-.6,1.5c-.1.1-.1.4-.1.7a10.5,10.5,0,0,0-.2,1.3,1.6,1.6,0,0,0,.4,1.2,1.6,1.6,0,0,0,1.3.5,3.3,3.3,0,0,0,1.5-.3c.1-.4.1-.8.2-1.2l.7-4.2A2.7,2.7,0,0,0,63.2,50.5Z" fill="#585857"/><path d="M70.9,58.2a4.3,4.3,0,0,1-2.6-.7,3,3,0,0,1-.9-2.4,11.1,11.1,0,0,1,.2-1.7,6.4,6.4,0,0,1,.6-2.2,3.8,3.8,0,0,1,.9-1.5,3.2,3.2,0,0,1,1.4-.8,5.4,5.4,0,0,1,1.9-.3,4,4,0,0,1,2.7.8,2.9,2.9,0,0,1,.8,2.3,10.9,10.9,0,0,1-.1,1.7,21.8,21.8,0,0,1-.6,2.2,5.4,5.4,0,0,1-.9,1.5,3.9,3.9,0,0,1-1.4.8A6,6,0,0,1,70.9,58.2Zm-1.2-3.3A1.6,1.6,0,0,0,70,56a1.9,1.9,0,0,0,1.2.3,1.8,1.8,0,0,0,1.3-.4,1,1,0,0,0,.4-.5,6.8,6.8,0,0,0,.6-2,8.6,8.6,0,0,0,.1-1.5,1.1,1.1,0,0,0-1.4-1.4l-1.2.2a2.2,2.2,0,0,0-.7.9,6,6,0,0,0-.4,1.8C69.8,54.1,69.7,54.6,69.7,54.9Z" fill="#585857"/><path d="M80.7,55.2a.7.7,0,0,0-.4-.6l-.4-.2H78.5l-.4-.2-.3-.2c-.2-.1-.3-.1-.3-.2l-.3-.3a3.4,3.4,0,0,1-.4-1.2c0-.2.1-.4.1-.6a2.6,2.6,0,0,1,1.3-2.1,4.3,4.3,0,0,1,2.4-.6h1.7l1.5.3-.4,1.7-2.3-.3h-1l-.6.2c-.2.2-.3.3-.3.5s-.1.3,0,.4.1.2.1.3h.3l.3.2h.7l1.2.5a1.8,1.8,0,0,1,1,.9c.2.2.2.5.2.9v.7a3.5,3.5,0,0,1-1,1.9,2.6,2.6,0,0,1-.9.5,4.8,4.8,0,0,1-2.2.4H77.3l-1.5-.3.4-1.8,2.5.3h1.5q.3-.1.3-.3l.2-.4Z" fill="#585857"/><path d="M91.7,55.2a.9.9,0,0,0-.3-.6l-.5-.2h-.2a.1.1,0,0,0-.1-.1H89.5a.5.5,0,0,0-.4-.2l-.3-.2-.3-.2c-.1-.1-.1-.2-.3-.3a2.1,2.1,0,0,1-.3-1.2v-.6a2.9,2.9,0,0,1,1.3-2.1,4.3,4.3,0,0,1,2.4-.6h1.7l1.6.3-.5,1.7-2.3-.3h-1l-.6.2c-.2.2-.3.3-.3.5v.4l.2.3h.2l.4.2h.7l1.1.5a1.8,1.8,0,0,1,1.3,1.8c0,.2-.1.5-.1.7a2.9,2.9,0,0,1-1,1.9l-.8.5a4.8,4.8,0,0,1-2.2.4H88.3l-1.5-.3.5-1.8,2.4.3h1.6l.3-.3c0-.1.1-.2.1-.4Z" fill="#585857"/><path d="M98.3,58.2a4.3,4.3,0,0,1-2.6-.7,2.9,2.9,0,0,1-.8-2.4,10.3,10.3,0,0,1,.1-1.7,21.8,21.8,0,0,1,.6-2.2,3.8,3.8,0,0,1,.9-1.5,3.9,3.9,0,0,1,1.4-.8,5.6,5.6,0,0,1,2-.3,3.7,3.7,0,0,1,2.6.8c.6.4.8,1.2.8,2.3a10.9,10.9,0,0,1-.1,1.7,9.8,9.8,0,0,1-.6,2.2,3.8,3.8,0,0,1-.9,1.5,3.9,3.9,0,0,1-1.4.8A5.6,5.6,0,0,1,98.3,58.2Zm-1.2-3.3a1.3,1.3,0,0,0,1.5,1.4,1.7,1.7,0,0,0,1.3-.4l.5-.5a7.2,7.2,0,0,0,.5-2,10.4,10.4,0,0,0,.2-1.5,1.3,1.3,0,0,0-1.5-1.4l-1.2.2a3.5,3.5,0,0,0-.7.9,12.7,12.7,0,0,0-.4,1.8C97.2,54.1,97.1,54.6,97.1,54.9Z" fill="#585857"/><path d="M116.8,52.1l-1,5.9h-2.2l.9-5.7v-.7c0-.4-.1-.7-.3-.8a1.3,1.3,0,0,0-1-.3,2.8,2.8,0,0,0-1.3.3V51c0,.4-.1.7-.1,1.1l-1,5.9h-2.2l.9-5.7v-.7a1,1,0,0,0-.3-.8,1.3,1.3,0,0,0-1-.3H107c-.1.4-.1.8-.2,1.3l-1,6h-2.2l1-6.7c.1-.6.3-1.2.4-1.8a5.3,5.3,0,0,1,1.9-.6,7.6,7.6,0,0,1,2.1-.3,3.3,3.3,0,0,1,2.1.6,7.5,7.5,0,0,1,2.9-.6,3.9,3.9,0,0,1,2,.5,1.2,1.2,0,0,1,.5.5,2.6,2.6,0,0,1,.4,1.4C116.9,51.3,116.8,51.7,116.8,52.1Z" fill="#585857"/><path d="M121,58.2a4.8,4.8,0,0,1-2.7-.7,3.3,3.3,0,0,1-.8-2.4,11.1,11.1,0,0,1,.2-1.7,6.4,6.4,0,0,1,.6-2.2,3.8,3.8,0,0,1,.9-1.5,3.2,3.2,0,0,1,1.4-.8,5.4,5.4,0,0,1,1.9-.3,4.1,4.1,0,0,1,2.7.8,2.9,2.9,0,0,1,.8,2.3,12.8,12.8,0,0,1-.2,1.7,10.3,10.3,0,0,1-.5,2.2,5.6,5.6,0,0,1-1,1.5,2.9,2.9,0,0,1-1.3.8A6,6,0,0,1,121,58.2Zm-1.2-3.3a1.6,1.6,0,0,0,.3,1.1,1.9,1.9,0,0,0,1.2.3,1.8,1.8,0,0,0,1.3-.4,1,1,0,0,0,.4-.5,6.8,6.8,0,0,0,.6-2,8.6,8.6,0,0,0,.1-1.5,1.1,1.1,0,0,0-1.4-1.4l-1.2.2a2.2,2.2,0,0,0-.7.9,6,6,0,0,0-.4,1.8C119.9,54.1,119.8,54.6,119.8,54.9Z" fill="#585857"/><path d="M130.8,55.2a.7.7,0,0,0-.4-.6l-.5-.2h-1.3l-.4-.2-.3-.2c-.2-.1-.3-.1-.3-.2l-.3-.3a2.1,2.1,0,0,1-.4-1.2,1.3,1.3,0,0,1,.1-.6,2.6,2.6,0,0,1,1.3-2.1,4.3,4.3,0,0,1,2.4-.6h1.6l1.6.3-.4,1.7-2.3-.3h-1l-.6.2-.4.5c0,.2,0,.3.1.4s.1.2.1.3h.3l.3.2h.7l1.2.5a1.8,1.8,0,0,1,1,.9,2,2,0,0,1,.2.9v.7a3.5,3.5,0,0,1-1,1.9l-.9.5a4.8,4.8,0,0,1-2.2.4h-1.6l-1.6-.3.5-1.8,2.5.3h1.5l.3-.3.2-.4Z" fill="#585857"/><path d="M212.2,78.7a37.8,37.8,0,1,0-75.6,0v1.6l46,.2.8.9,16.2.3,2.7-1,7.8-.7C210.1,79.3,212.2,79.4,212.2,78.7Z" fill="#e1eef2"/><path d="M150.1,71.9a9,9,0,0,1,2.6-2.8,19.9,19.9,0,0,0,3.6-2.7,26.4,26.4,0,0,1,2.7-2.2,8.2,8.2,0,0,1,5.1-1.2c2.5.2,2.2-.1,2.9-.3s2.4-.8,4-.3a3.2,3.2,0,0,0,3.1-.6c.9-.8,3.7-1.5,7.2,0s2.9,1.7,4.2,2.4,3.9,1.1,5.2,1.6l3.3,1.7,1.5.9a2.4,2.4,0,0,1,1.6-.8,3.8,3.8,0,0,1,3.6,1.8c.9,1.2,1.3,4,4.1,5,1,.4,3.6,4,3.7,5.3L196.9,82l-56.3-2.3s-3-.6-1.8-1,1.6-.7,2-1.6,1.5-.8,2.2-1.5,1.9-3.1,2.9-3.5S147.3,71.4,150.1,71.9Z" fill="#3d6c8e"/><polygon points="177.8 58.7 177.8 57.9 177.4 57.9 177.4 58.7 176.5 58.7 176.5 59 177.4 59 177.4 61.2 177.8 61.2 177.8 59 178.8 59 178.8 58.7 177.8 58.7" fill="#3d6c8e"/><path d="M164.2,63H164v-.8a.7.7,0,0,0-.1-.5v-.4h.1V61h-.1v-.2h0c0-.1,0-.1-.1-.2s-.1-.1-.2-.2h0V60h-.2v.2h-.1c-.1,0-.2.1-.2.3h0V61H163v.6c0,.4-.1.8-.1,1.1h1.3Zm-.6-.1h-.2v-.3h.2v.2Zm.1-1.9h-.5c0-.1.1-.1.1-.2h.4V61Z" fill="#3d6c8e"/><path d="M118.7,83.6a80.4,80.4,0,0,1,18.5-6,85,85,0,0,1,28.9-.9c4,.9,8.3,1.8,13,2.4s11.1,1.3,15.9,1.5a64.6,64.6,0,0,0,16.5-2.2,62.8,62.8,0,0,0,13.4-5.1A60.5,60.5,0,0,1,210.6,81a62.6,62.6,0,0,1-21,4.1,59.9,59.9,0,0,1-6.3.1,71.2,71.2,0,0,1-11.5-1.4c-4-.7-9.9-1.7-17.7-2.8a130.9,130.9,0,0,0-14.1-.1A123.3,123.3,0,0,0,118.7,83.6Z" fill="#62a7df"/><path d="M127.9,85.3a47,47,0,0,1,11.3-2.4,53,53,0,0,1,9.7-.1,40.3,40.3,0,0,1,11,3.2,48.3,48.3,0,0,1,6.6,3.8,78.1,78.1,0,0,0-13.1-3.3l-5.7-.7-2.1-.2A176.6,176.6,0,0,0,127.9,85.3Z" fill="#ecbf36"/><path d="M160.8,84.2a114.2,114.2,0,0,0,17.4,3.4,132.8,132.8,0,0,0,13.5.7,73.8,73.8,0,0,0,11.2-1.8,75.1,75.1,0,0,0,20-7.8,46.8,46.8,0,0,1-31.1,14,52.5,52.5,0,0,1-13.5-1.1A51.1,51.1,0,0,1,160.8,84.2Z" fill="#3d6c8e"/></g></svg>