<svg xmlns="http://www.w3.org/2000/svg" viewBox="0 0 236.6 236.6"><defs><style>.cls-1,.cls-2{fill:#7e7e7e;stroke:#7e7e7e;stroke-linecap:round;stroke-linejoin:round;}.cls-1{stroke-width:12px;}.cls-2{stroke-width:4px;}</style></defs><title>fullscreen</title><g id="TEXT"><path class="cls-1" d="M57.4,89.3v-13C56,56,60.6,51.1,80.4,52.5H93.1"/><polygon class="cls-2" points="77.9 49 88.3 55.9 61.6 82.7 54 74 65.1 59.7 77.9 49"/><path class="cls-1" d="M186.2,147.5v12.9c1.4,20.1-3.1,24.9-23,23.5H150.5"/><polygon class="cls-2" points="165.8 187.4 155.3 180.5 182 154 189.6 162.6 178.5 176.8 165.8 187.4"/><path class="cls-1" d="M148.6,52.5H162c20.8-1.4,25.8,3.3,24.4,23.8v13"/><polygon class="cls-2" points="190 73.6 182.8 84.5 155.3 56.8 164.3 49 179 60.4 190 73.6"/><path class="cls-1" d="M95.6,184.1H82.1c-20.9,1.4-25.9-3.3-24.5-23.7v-13"/><polygon class="cls-2" points="54 163.1 61.2 152.3 88.8 179.8 79.8 187.6 65 176.2 54 163.1"/></g></svg>