<svg xmlns="http://www.w3.org/2000/svg" xmlns:xlink="http://www.w3.org/1999/xlink" viewBox="0 0 236.6 236.6"><defs><style>.cls-1{fill:none;}.cls-2{clip-path:url(#clip-path);}.cls-3{fill:#e3e3e4;}.cls-4{fill:#fff;}</style><clipPath id="clip-path"><rect class="cls-1" x="521.4" y="-92.9" width="1174.5" height="876.68"/></clipPath></defs><title>sol_blanco</title><g id="ELEMENTS"><g class="cls-2"><path class="cls-3" d="M1182.6,530.2q-7,0-14.1-.3l.2-5.2c4.6.2,9.3.3,13.9.3Zm14.1-.1v-5.2l13.9-.5.3,5.1Q1203.8,529.9,1196.7,530.1Zm-42.3-.9-14-1.1.5-5.2,13.9,1.1Zm70.5-.6-.5-5.2,13.9-1.4.6,5.2Zm-98.4-2-14-1.9.8-5.1q6.9,1,13.8,1.8Zm126.4-1.2-.7-5.2,13.8-2,.8,5.1Zm-154.3-2.9-13.8-2.6,1-5.1,13.7,2.6Zm182.1-1.5-.9-5.1,13.7-2.6,1,5.1ZM1071,517l-13.7-3.2,1.2-5.1,13.6,3.2Zm237.3-1.4-1.1-5.1,13.7-3,1.2,5Zm-264.7-5.4-13.6-3.8,1.5-5,13.5,3.8Zm292.1-1-1.3-5.1c4.6-1.1,9.1-2.4,13.5-3.6l1.4,5Zm-319.2-7-13.4-4.3,1.7-5,13.3,4.4Zm346.3-.7-1.5-4.9c4.5-1.4,9-2.8,13.3-4.3l1.7,5C1371.9,498.7,1367.4,500.2,1362.8,501.5Zm-373-8.3c-4.4-1.5-8.8-3.2-13.2-4.8l1.8-4.9,13.1,4.8Zm399.8-.6-1.8-4.8,13.1-5,1.9,4.9C1398.5,489.4,1394,491,1389.6,492.6Zm-426.2-9.3-13-5.3,2-4.8,12.9,5.3Zm452.4-.9-2-4.8,12.8-5.6,2.1,4.7Zm-478.4-9.9-12.9-5.6,2.2-4.8,12.8,5.7Zm504.1-1.9-2.3-4.6,12.3-6.4,2.5,4.5ZM191.3,464.5c-2.3-4-4.7-8.1-6.9-12.3l4.5-2.5,6.9,12.2ZM911.7,461l-12.8-6,2.3-4.7c4.2,2.1,8.5,4.1,12.7,6Zm554.6-3.8-2.6-4.5c4-2.3,8-4.7,11.9-7.2l2.8,4.4C1474.5,452.4,1470.4,454.8,1466.3,457.2Zm-580.1-8.3-12.6-6.3,2.3-4.7,12.6,6.3Zm604-6.8-3-4.3c3.9-2.6,7.7-5.3,11.3-8.1l3.1,4.2C1497.9,436.7,1494.1,439.4,1490.2,442.1ZM177.8,439.7c-2.1-4.3-4.1-8.5-6-12.8l4.7-2.1c1.9,4.1,3.9,8.4,6,12.6Zm683.3-3.5-12.5-6.6L851,425l12.4,6.5Zm651.7-11.1-3.3-4c3.6-2.9,7.1-6,10.5-9l3.5,3.8C1520,419.1,1516.4,422.2,1512.8,425.1ZM836.1,423l-12.3-6.7,2.5-4.6,12.3,6.7Zm-670-9c-1.8-4.4-3.5-8.9-5.1-13.2l4.9-1.8c1.6,4.3,3.3,8.6,5,13Zm645.4-4.6-12.3-6.8,2.6-4.6,12.2,6.9Zm722.3-3.1-3.7-3.7c3.4-3.3,6.6-6.7,9.7-10l3.8,3.5C1540.5,399.5,1537.2,402.9,1533.8,406.3ZM787,395.6l-12.1-7,2.6-4.5,12.1,7Zm-630.5-8.2c-1.4-4.6-2.7-9.2-3.9-13.7l5-1.2c1.2,4.3,2.4,8.8,3.9,13.3Zm1396.4-2-4-3.3c2.9-3.6,5.8-7.3,8.5-11l4.2,3.1C1558.8,378,1555.9,381.7,1552.9,385.4Zm-790.1-3.9-12.1-7.1,2.6-4.5,12.1,7.1Zm-24.2-14.2-12-7.2,2.7-4.5,12,7.2Zm831.1-4.8-4.4-2.8c2.5-3.9,5-7.9,7.2-11.8l4.5,2.5C1574.7,354.5,1572.2,358.6,1569.7,362.5ZM149.5,359.9c-1-4.7-1.7-9.4-2.3-14l5.1-.7c.6,4.5,1.4,9.1,2.3,13.7Zm565.1-7-12.1-7.2,2.7-4.5,12,7.2Zm-24.1-14.5-12-7.2,2.6-4.4,12.1,7.2Zm893.1-.5-4.6-2.3c2-4.1,3.9-8.4,5.6-12.6l4.8,1.9C1587.7,329.3,1585.7,333.6,1583.6,337.9ZM145.9,331.7c-.2-2.9-.2-5.9-.2-8.7s0-3.7.1-5.5l5.1.2V323c0,2.7,0,5.6.2,8.5ZM666.4,324l-12-7.2,2.6-4.4,12.1,7.1Zm928-12.4-5-1.6c1.5-4.4,2.8-8.9,4-13.3l5,1.3C1597.2,302.6,1595.9,307.1,1594.4,311.6Zm-952.1-1.9-12.1-7.2,2.6-4.4c4.1,2.3,8.1,4.7,12.1,7.1Zm-490.2-5.8-5.2-.7c.7-4.8,1.6-9.5,2.7-14l5.1,1.2A119.2,119.2,0,0,0,152.1,303.9Zm466-8.4-12.2-7,2.6-4.5,12.2,7Zm983.4-11.3-5.1-1c.8-4.5,1.5-9.1,2-13.7l5.2.6Q1602.9,277.2,1601.5,284.2ZM593.8,281.6l-12.3-6.9,2.5-4.5,12.3,6.8Zm-435-4.2-4.9-1.9a139.9,139.9,0,0,1,6-13l4.6,2.5A87.3,87.3,0,0,0,158.8,277.4ZM569.2,268c-4.1-2.3-8.3-4.5-12.3-6.6l2.4-4.6,12.4,6.6Zm1035.5-12.1-5.2-.2c.1-2.7.2-5.4.2-8.2s0-3.7-.1-5.6l5.2-.2c.1,2,.1,3.9.1,5.8S1604.8,253.2,1604.7,255.9Zm-1060.2-1L532,248.6l2.3-4.7,12.5,6.4Zm-372.7-1.5-4.2-3.1a104.1,104.1,0,0,1,9.1-11l3.8,3.5A95.9,95.9,0,0,0,171.8,253.4Zm347.6-11c-4.2-2.1-8.5-4.1-12.6-6l2.1-4.7,12.8,6Zm-329-9.1-3.4-3.9a142.6,142.6,0,0,1,11.4-8.7l2.9,4.3A130.2,130.2,0,0,0,190.4,233.3ZM494,230.6l-12.8-5.5,2-4.8,12.9,5.6Zm1104.7-2.5c-.5-4.6-1.1-9.2-1.9-13.7l5.1-.9c.8,4.6,1.5,9.4,2,14ZM468.2,219.8l-13-5,1.8-4.9,13.2,5.1ZM213,217.7l-2.5-4.5c2.9-1.7,6-3.3,9.2-4.8l3.5-1.7,2.2,4.7-3.4,1.7C218.9,214.6,215.9,216.1,213,217.7Zm229-7.5c-4.4-1.6-8.9-3-13.2-4.4l1.5-4.9c4.4,1.3,8.9,2.8,13.4,4.3Zm-203.9-4.3-1.9-4.8c4.4-1.7,8.8-3.4,13.3-4.9l1.6,5C246.8,202.6,242.4,204.2,238.1,205.9Zm177.3-4-13.5-3.5,1.2-5c4.5,1.1,9.1,2.2,13.7,3.5ZM1594,200.8c-1.1-4.4-2.4-8.9-3.8-13.3l4.9-1.6c1.5,4.5,2.8,9.1,3.9,13.7ZM264.4,197.2l-1.3-5.1c4.5-1.2,9.2-2.3,13.8-3.2l1,5.1C273.4,194.9,268.9,196,264.4,197.2Zm123.9-1.8-13.7-2.5.8-5.1c4.6.7,9.3,1.6,13.9,2.5Zm-96.7-3.8-.8-5.2c4.7-.6,9.4-1.2,14.1-1.6l.5,5.2C300.8,190.4,296.1,190.9,291.6,191.6Zm69.2-.6c-4.6-.5-9.3-1-13.8-1.3l.4-5.2c4.6.4,9.3.8,14,1.4Zm-41.6-1.8V184l8.5-.2h5.6v5.2h-5.5Zm1266.3-14.7c-1.7-4.3-3.6-8.5-5.6-12.7l4.7-2.3c2,4.3,4,8.7,5.7,13Zm-12-25c-2.2-4-4.7-8-7.2-11.8l4.4-2.9c2.6,4,5,8.1,7.3,12.2Zm-15.1-23.2q-4.2-5.5-8.7-10.8l4-3.4c3.1,3.6,6,7.3,8.8,11.1Zm-17.9-21.1c-3.2-3.4-6.5-6.6-9.9-9.8l3.5-3.8c3.5,3.2,6.9,6.6,10.1,10Zm-20.4-19c-3.5-2.9-7.2-5.8-10.9-8.5l3.1-4.2c3.8,2.8,7.6,5.8,11.2,8.7Z"/></g></g><g id="TEXT"><path class="cls-4" d="M148.9,117.2a31.1,31.1,0,0,0-11.5-23.8C117.8,77.6,87.7,92,87.7,117.2A30.9,30.9,0,0,0,99,141C118.3,156.6,148.9,141.9,148.9,117.2Z"/><path class="cls-4" d="M67.8,98.6,82,103.8a2.2,2.2,0,0,0,2.9-1.2,14.2,14.2,0,0,1,.8-1.8,2.4,2.4,0,0,0-.8-3.1L71.8,90.2a2.3,2.3,0,0,0-3.2.8c-.8,1.5-1.5,3.1-2.2,4.6A2.3,2.3,0,0,0,67.8,98.6Z"/><path class="cls-4" d="M82.1,121.2c-.1-.6-.1-1.3-.2-1.9a2.3,2.3,0,0,0-2.2-2.2H64.5a2.3,2.3,0,0,0-2.3,2.4c.1,1.6.2,3.3.4,4.9a2.3,2.3,0,0,0,2.7,1.9l14.9-2.5A2.5,2.5,0,0,0,82.1,121.2Z"/><path class="cls-4" d="M103.7,150.5l-1.8-.8a2.2,2.2,0,0,0-3,.8l-7.6,13.1a2.3,2.3,0,0,0,.8,3.2,46.9,46.9,0,0,0,4.6,2.1,2.2,2.2,0,0,0,3-1.3l5.2-14.2A2.2,2.2,0,0,0,103.7,150.5Z"/><path class="cls-4" d="M122.2,153.3l-1.9.2a2.2,2.2,0,0,0-2.2,2.3v15.1a2.3,2.3,0,0,0,2.3,2.3l5.1-.5a2.3,2.3,0,0,0,1.9-2.7l-2.7-14.9A2.4,2.4,0,0,0,122.2,153.3Z"/><path class="cls-4" d="M87.8,137a2.3,2.3,0,0,0-3.1-.6l-13,7.5a2.2,2.2,0,0,0-.9,3.2c.9,1.4,1.9,2.8,2.9,4.1a2.3,2.3,0,0,0,3.3.4l11.6-9.7a2.3,2.3,0,0,0,.4-3.1Z"/><path class="cls-4" d="M93.5,87.4a2.2,2.2,0,0,0,3.1.5,10.9,10.9,0,0,1,1.7-1.3,2.2,2.2,0,0,0,.7-3L91.5,70.5a2.3,2.3,0,0,0-3.2-.8c-1.5.9-2.8,1.9-4.2,2.9a2.4,2.4,0,0,0-.3,3.3Z"/><path class="cls-4" d="M148.7,97.1a2.4,2.4,0,0,0,3.1.7l13-7.6a2.2,2.2,0,0,0,.9-3.2c-.9-1.4-1.9-2.8-2.9-4.1a2.3,2.3,0,0,0-3.3-.3l-11.6,9.7a2.3,2.3,0,0,0-.4,3.1Z"/><path class="cls-4" d="M143,146.8a2.3,2.3,0,0,0-3.1-.4l-1.7,1.2a2.4,2.4,0,0,0-.7,3.1l7.5,13.1a2.3,2.3,0,0,0,3.2.8l4.1-2.9a2.3,2.3,0,0,0,.4-3.3Z"/><path class="cls-4" d="M168.7,135.7l-14.2-5.2a2.1,2.1,0,0,0-2.8,1.3l-.9,1.7a2.4,2.4,0,0,0,.9,3.1l13,7.6a2.3,2.3,0,0,0,3.2-.9c.8-1.5,1.5-3,2.2-4.6A2.3,2.3,0,0,0,168.7,135.7Z"/><path class="cls-4" d="M173.9,109.7a2.3,2.3,0,0,0-2.7-1.9l-14.9,2.6a2.2,2.2,0,0,0-1.8,2.6,12.7,12.7,0,0,1,.1,2,2.5,2.5,0,0,0,2.3,2.2h15.2a2.3,2.3,0,0,0,2.2-2.4A43.8,43.8,0,0,0,173.9,109.7Z"/><path class="cls-4" d="M145.2,70.6a2.3,2.3,0,0,0-.9-3.2l-4.6-2.2a2.4,2.4,0,0,0-3,1.4l-5.2,14.2a2.3,2.3,0,0,0,1.3,2.9l1.8.8a2.2,2.2,0,0,0,3-.8Z"/><path class="cls-4" d="M116,80.8a2.4,2.4,0,0,0,2.3-2.6V63.4a2.3,2.3,0,0,0-2.4-2.3,43.8,43.8,0,0,0-5,.4,2.4,2.4,0,0,0-1.9,2.7l2.6,14.9a2.2,2.2,0,0,0,2.6,1.8Z"/></g></svg>