<svg id="Bg" xmlns="http://www.w3.org/2000/svg" viewBox="0 0 50 50"><defs><style>.cls-1{fill:#fff;}</style></defs><title>icono_lupa</title><path class="cls-1" d="M48.2,41.6l-8.6-8.5-.2-.2a14.4,14.4,0,0,1-2.7,3.4A17,17,0,0,1,33.4,39c0,.1,0,.1.1.2L42,47.7a4.3,4.3,0,0,0,6.1,0A4.4,4.4,0,0,0,48.2,41.6Z"/><path class="cls-1" d="M35.5,6.8a20,20,0,1,0,0,28.3A20.1,20.1,0,0,0,35.5,6.8ZM10.9,31.4a14.9,14.9,0,0,1,0-20.9,14.8,14.8,0,1,1,0,20.9Z"/><path class="cls-1" d="M15,22.6c-.4-1.8-2.1-4.2-3.6-3.4s-.8,3.3-.3,4.9C13.6,31.4,22.5,33,23.4,32S16.7,29.5,15,22.6Z"/></svg>